<svg width="404" height="360" viewBox="0 0 404 360" fill="none" xmlns="http://www.w3.org/2000/svg">
<path d="M367.3 177.932C363.429 210.744 348.449 248.882 318.529 266.408C273.329 292.886 277.143 333.617 188.885 351.296C176.019 353.943 162.904 355.181 149.77 354.989C143.343 354.878 136.931 354.354 130.572 353.421C74.4965 345.26 36.7629 306.282 22.9219 259.233C4.70149 197.356 41.0776 156.843 65.1884 132.441C89.2991 108.04 106.962 31.9825 193.555 13.8914C206.766 11.0808 220.257 9.80111 233.761 10.0776C264.57 10.8291 298.175 20.9452 321.429 42.0664C323.175 43.6824 324.871 45.2984 326.528 46.9871C358.848 80.1636 372.584 133.209 367.3 177.932Z" fill="#28C79E"/>
<path opacity="0.7" d="M367.3 177.932C363.429 210.744 348.449 248.882 318.529 266.408C273.329 292.886 277.143 333.617 188.885 351.296C176.019 353.943 162.904 355.181 149.77 354.989C143.343 354.878 136.931 354.354 130.572 353.421C74.4965 345.26 36.7629 306.282 22.9219 259.233C4.70149 197.356 41.0776 156.843 65.1884 132.441C89.2991 108.04 106.962 31.9825 193.555 13.8914C206.766 11.0808 220.257 9.80111 233.761 10.0776C264.57 10.8291 298.175 20.9452 321.429 42.0664C323.175 43.6824 324.871 45.2984 326.528 46.9871C358.848 80.1636 372.584 133.209 367.3 177.932Z" fill="white"/>
<path d="M341.795 319.461V228.278" stroke="#1B2330" stroke-width="0.808" stroke-linecap="round" stroke-linejoin="round"/>
<path d="M334.4 319.461V274.245" stroke="#1B2330" stroke-width="0.808" stroke-linecap="round" stroke-linejoin="round"/>
<path d="M344.105 243.226C344.105 243.226 336.655 242.378 333.601 236.479C330.546 230.581 330.256 215.366 341.858 198.503C353.461 181.64 359.546 181.462 361.566 195.223C363.586 208.983 363.295 228.965 358.544 236.536C353.793 244.107 344.105 243.226 344.105 243.226Z" fill="white" stroke="#1B2330" stroke-width="0.808" stroke-linecap="round" stroke-linejoin="round"/>
<path d="M346.748 211.463C348.122 206.777 349.762 202.575 351.669 199.699" stroke="#1B2330" stroke-width="0.808" stroke-linecap="round" stroke-linejoin="round"/>
<path d="M340.977 242.216C341.999 232.942 343.618 223.744 345.825 214.679" stroke="#1B2330" stroke-width="0.808" stroke-linecap="round" stroke-linejoin="round"/>
<path d="M348.541 272.823C348.541 272.823 343.758 269.114 344.145 263.781C344.533 258.449 350.674 247.823 365.711 241.085C380.748 234.346 385.038 236.738 380.675 247.064C376.312 257.39 367.747 271.053 361.283 274.285C354.819 277.517 348.541 272.823 348.541 272.823Z" fill="white" stroke="#1B2330" stroke-width="0.808" stroke-linecap="round" stroke-linejoin="round"/>
<path d="M363.66 252.025C366.569 249.375 369.462 247.177 371.974 245.981" stroke="#1B2330" stroke-width="0.808" stroke-linecap="round" stroke-linejoin="round"/>
<path d="M361.728 253.851C356.407 259.18 351.435 264.848 346.845 270.819C346.845 270.819 342.991 276.006 341.852 286.308" stroke="#1B2330" stroke-width="0.808" stroke-linecap="round" stroke-linejoin="round"/>
<path d="M345.826 303.624C345.826 303.624 343.054 301.475 343.281 298.388C343.507 295.302 347.062 289.145 355.78 285.234C364.499 281.323 366.971 282.721 364.442 288.708C361.913 294.696 356.952 302.606 353.219 304.472C349.486 306.339 345.826 303.624 345.826 303.624Z" fill="white" stroke="#1B2330" stroke-width="0.808" stroke-linecap="round" stroke-linejoin="round"/>
<path d="M354.561 291.609C356.001 290.218 357.634 289.039 359.409 288.11" stroke="#1B2330" stroke-width="0.808" stroke-linecap="round" stroke-linejoin="round"/>
<path d="M353.444 292.667C350.362 295.751 347.482 299.03 344.823 302.485C344.823 302.485 342.584 305.49 341.922 311.462" stroke="#1B2330" stroke-width="0.808" stroke-linecap="round" stroke-linejoin="round"/>
<path d="M335.039 260.493C335.039 260.493 339.815 256.784 339.435 251.451C339.055 246.119 332.906 235.493 317.861 228.755C302.816 222.016 298.542 224.408 302.905 234.734C307.269 245.06 315.833 258.723 322.297 261.955C328.761 265.187 335.039 260.493 335.039 260.493Z" fill="white" stroke="#1B2330" stroke-width="0.808" stroke-linecap="round" stroke-linejoin="round"/>
<path d="M319.922 239.695C317.446 237.299 314.644 235.265 311.6 233.651" stroke="#1B2330" stroke-width="0.808" stroke-linecap="round" stroke-linejoin="round"/>
<path d="M321.852 241.521C327.17 246.851 332.139 252.519 336.727 258.489C336.727 258.489 340.581 263.676 341.728 273.978" stroke="#1B2330" stroke-width="0.808" stroke-linecap="round" stroke-linejoin="round"/>
<path d="M332.688 301.677C332.688 301.677 337.536 301.83 339.96 298.913C342.384 295.996 343.838 287.852 337.778 277.905C331.718 267.959 327.848 267.264 325.424 274.536C323 281.808 321.586 292.465 324.01 296.918C326.434 301.37 332.688 301.677 332.688 301.677Z" fill="white" stroke="#1B2330" stroke-width="0.808" stroke-linecap="round" stroke-linejoin="round"/>
<path d="M333.447 294.259C333.52 295.253 333.568 296.247 333.593 297.233" stroke="#1B2330" stroke-width="0.808" stroke-linecap="round" stroke-linejoin="round"/>
<path d="M329.73 274.059C331.378 279.916 332.551 285.895 333.237 291.94" stroke="#1B2330" stroke-width="0.808" stroke-linecap="round" stroke-linejoin="round"/>
<path d="M20.1133 242.782H131.949V14.5217" stroke="#1B2330" stroke-width="0.808" stroke-linecap="round" stroke-linejoin="round"/>
<path d="M250.628 242.782H138.793V14.5217" stroke="#1B2330" stroke-width="0.808" stroke-linecap="round" stroke-linejoin="round"/>
<path d="M184.436 242.782H296.271V14.5217" stroke="#1B2330" stroke-width="0.808" stroke-linecap="round" stroke-linejoin="round"/>
<path d="M273.454 68.1163L234.363 111.312" stroke="#1B2330" stroke-width="0.808" stroke-linecap="round" stroke-linejoin="round"/>
<path d="M251.767 101.535L240.924 113.518" stroke="#1B2330" stroke-width="0.808" stroke-linecap="round" stroke-linejoin="round"/>
<path d="M165.609 56.772L144.496 80.0989" stroke="#1B2330" stroke-width="0.808" stroke-linecap="round" stroke-linejoin="round"/>
<path d="M171.314 51.0917L185.584 35.3276" stroke="#1B2330" stroke-width="0.808" stroke-linecap="round" stroke-linejoin="round"/>
<path d="M127.383 195.49L113.688 210.623" stroke="#1B2330" stroke-width="0.808" stroke-linecap="round" stroke-linejoin="round"/>
<path d="M122.819 175.314L97.4238 203.376" stroke="#1B2330" stroke-width="0.808" stroke-linecap="round" stroke-linejoin="round"/>
<path d="M380.411 86.9866C388.71 66.227 378.608 42.6704 357.849 34.3714C337.089 26.0724 313.533 36.1736 305.234 56.9332C296.935 77.6927 307.036 101.249 327.796 109.548C348.555 117.847 372.112 107.746 380.411 86.9866Z" stroke="#1B2330" stroke-width="0.808" stroke-linecap="round" stroke-linejoin="round"/>
<path d="M342.836 107.304C362.35 107.304 378.17 91.4848 378.17 71.9704C378.17 52.4561 362.35 36.6366 342.836 36.6366C323.321 36.6366 307.502 52.4561 307.502 71.9704C307.502 91.4848 323.321 107.304 342.836 107.304Z" stroke="#1B2330" stroke-width="0.808" stroke-linecap="round" stroke-linejoin="round"/>
<path d="M342.836 74.3863C344.17 74.3863 345.252 73.3046 345.252 71.9704C345.252 70.6361 344.17 69.5544 342.836 69.5544C341.502 69.5544 340.42 70.6361 340.42 71.9704C340.42 73.3046 341.502 74.3863 342.836 74.3863Z" stroke="#1B2330" stroke-width="0.808" stroke-linecap="round" stroke-linejoin="round"/>
<path d="M342.836 74.3862V86.2557" stroke="#1B2330" stroke-width="0.808" stroke-linecap="round" stroke-linejoin="round"/>
<path d="M340.419 71.9703H311.605" stroke="#1B2330" stroke-width="0.808" stroke-linecap="round" stroke-linejoin="round"/>
<path d="M158.991 169.674L145.675 149.005C153.789 135.888 156.54 120.15 153.356 105.059C150.172 89.9676 141.298 76.6822 128.577 67.9611C115.856 59.24 100.265 55.7533 85.0405 58.2249C69.8163 60.6964 56.1287 68.9364 46.8198 81.234C37.5108 93.5315 33.2957 108.942 35.0494 124.265C36.8032 139.589 44.3912 153.648 56.238 163.525C68.0848 173.401 83.2801 178.335 98.6691 177.303C114.058 176.271 128.458 169.352 138.88 157.982L158.991 169.674Z" fill="#1B2330" stroke="#1B2330" stroke-width="0.808" stroke-linecap="round" stroke-linejoin="round"/>
<path d="M160.259 164.648L146.935 143.979C155.034 130.868 157.773 115.142 154.583 100.065C151.393 84.9875 142.518 71.7183 129.802 63.0118C117.086 54.3054 101.506 50.8307 86.2955 53.309C71.0852 55.7874 57.4136 64.0285 48.1193 76.3213C38.825 88.6141 34.6221 104.014 36.3831 119.324C38.144 134.634 45.7337 148.678 57.5762 158.539C69.4187 168.401 84.6043 173.323 99.9801 172.283C115.356 171.244 129.741 164.322 140.148 152.956L160.259 164.648Z" fill="white" stroke="#1B2330" stroke-width="0.808" stroke-linecap="round" stroke-linejoin="round"/>
<path d="M53.8465 121.016V115.416L63.0254 101.309C63.7203 100.266 64.3748 99.2482 64.9969 98.2705C65.5954 97.3235 66.1039 96.3226 66.516 95.2809C66.9117 94.2665 67.1118 93.1863 67.1058 92.0974C67.1738 91.2243 66.9399 90.3543 66.4432 89.633C66.2255 89.3685 65.9496 89.158 65.637 89.0178C65.3244 88.8777 64.9837 88.8117 64.6414 88.825C64.2781 88.8042 63.9143 88.8563 63.5715 88.9785C63.2287 89.1006 62.9139 89.2902 62.6456 89.536C62.1436 90.0604 61.8064 90.7206 61.676 91.4348C61.49 92.3085 61.4006 93.2 61.4094 94.0932V95.9677H53.7496V93.9316C53.7213 91.8656 54.0916 89.8135 54.8404 87.8877C55.5233 86.15 56.7361 84.6714 58.3067 83.6619C60.1843 82.5555 62.3432 82.0193 64.5202 82.1186C67.973 82.1186 70.5748 83.0128 72.3255 84.8012C74.0761 86.5895 74.9542 89.0809 74.9596 92.2752C74.9742 93.7484 74.7252 95.2124 74.2243 96.598C73.719 97.953 73.066 99.2482 72.277 100.46C71.469 101.713 70.6125 103.013 69.6914 104.379L62.6699 114.883H73.9172V121.016H53.8465Z" fill="#1B2330" stroke="#1B2330" stroke-width="0.808" stroke-linecap="round" stroke-linejoin="round"/>
<path d="M88.5339 121.016V112.411H76.7129V106.577L86.7321 82.6116H95.9352V106.528H99.4904V112.411H95.9352V121.016H88.5339ZM82.7406 106.472H88.5339V90.5381L82.7406 106.472Z" fill="#1B2330" stroke="#1B2330" stroke-width="0.808" stroke-linecap="round" stroke-linejoin="round"/>
<path d="M102.439 121.016L114.204 82.5791H118.381L106.568 121.016H102.439Z" fill="#1B2330" stroke="#1B2330" stroke-width="0.808" stroke-linecap="round" stroke-linejoin="round"/>
<path d="M123.503 121.016L131.858 88.6068H121.354V82.5791H139.574V88.0331L131.243 121.016H123.503Z" fill="#1B2330" stroke="#1B2330" stroke-width="0.808" stroke-linecap="round" stroke-linejoin="round"/>
<path d="M61.3129 145.644C60.3707 145.679 59.4379 145.446 58.6223 144.973C57.9048 144.521 57.3414 143.861 57.0063 143.082C56.6232 142.179 56.399 141.217 56.3438 140.238L57.9597 139.753C58.0305 140.507 58.1794 141.252 58.4041 141.975C58.5795 142.586 58.9308 143.131 59.4141 143.543C59.9531 143.959 60.625 144.166 61.3049 144.125C62.0542 144.168 62.7917 143.922 63.3653 143.438C63.6329 143.144 63.8365 142.797 63.9631 142.42C64.0896 142.043 64.1365 141.644 64.1005 141.248C64.1159 140.444 63.8909 139.653 63.4541 138.978C62.9358 138.238 62.3369 137.557 61.6685 136.95L58.1779 133.588C57.6069 133.05 57.1387 132.412 56.7962 131.706C56.5 131.037 56.3512 130.312 56.3599 129.581C56.3224 128.995 56.4128 128.408 56.6249 127.862C56.837 127.315 57.1657 126.82 57.5881 126.413C58.4885 125.652 59.6421 125.257 60.8201 125.306C61.4634 125.3 62.1038 125.392 62.7189 125.581C63.2676 125.749 63.767 126.048 64.1733 126.454C64.5977 126.899 64.9203 127.431 65.1186 128.013C65.3674 128.767 65.5247 129.548 65.5873 130.34L63.9713 130.76C63.9252 130.03 63.7895 129.308 63.5673 128.611C63.3992 128.068 63.0624 127.592 62.6057 127.254C62.0699 126.911 61.439 126.746 60.8039 126.785C60.0788 126.752 59.3658 126.979 58.792 127.423C58.5138 127.67 58.2962 127.978 58.1561 128.323C58.016 128.667 57.9571 129.04 57.984 129.411C57.9776 129.918 58.0824 130.42 58.291 130.881C58.5927 131.432 58.9925 131.922 59.4707 132.328L62.9774 135.641C63.7581 136.359 64.4449 137.174 65.0217 138.065C65.5941 138.976 65.8915 140.034 65.8781 141.111C65.9081 141.982 65.7074 142.846 65.2964 143.616C64.9277 144.275 64.3629 144.803 63.6804 145.126C62.9405 145.476 62.1311 145.653 61.3129 145.644Z" fill="#1B2330" stroke="#1B2330" stroke-width="0.808" stroke-linecap="round" stroke-linejoin="round"/>
<path d="M68.3574 145.401V125.508H75.5486V126.955H70.2481V134.421H74.5709V135.794H70.2481V143.995H75.6052V145.401H68.3574Z" fill="#1B2330" stroke="#1B2330" stroke-width="0.808" stroke-linecap="round" stroke-linejoin="round"/>
<path d="M78.1602 145.401V125.508H82.6526C83.6649 125.459 84.6734 125.665 85.5857 126.106C86.2839 126.493 86.8264 127.11 87.1209 127.852C87.4536 128.717 87.6128 129.639 87.5895 130.566C87.5948 131.269 87.5106 131.97 87.339 132.651C87.2053 133.264 86.9284 133.838 86.531 134.324C86.0939 134.808 85.5033 135.128 84.8585 135.229L87.9046 145.401H86.0866L83.1698 135.624H79.9943V145.401H78.1602ZM79.9943 134.251H82.5234C83.1959 134.289 83.8662 134.144 84.4626 133.831C84.9246 133.551 85.2714 133.116 85.4402 132.603C85.6586 131.947 85.7598 131.257 85.7392 130.566C85.808 129.605 85.5856 128.645 85.1009 127.811C84.6726 127.205 83.8323 126.906 82.5718 126.906H79.9943V134.251Z" fill="#1B2330" stroke="#1B2330" stroke-width="0.808" stroke-linecap="round" stroke-linejoin="round"/>
<path d="M90.7793 145.401V125.508H92.6458V145.401H90.7793Z" fill="#1B2330" stroke="#1B2330" stroke-width="0.808" stroke-linecap="round" stroke-linejoin="round"/>
<path d="M99.6915 145.401L95.0293 125.508H96.8231L100.58 142.024L104.111 125.549H105.848L101.356 145.442L99.6915 145.401Z" fill="#1B2330" stroke="#1B2330" stroke-width="0.808" stroke-linecap="round" stroke-linejoin="round"/>
<path d="M108.273 145.401V125.508H110.14V145.401H108.273Z" fill="#1B2330" stroke="#1B2330" stroke-width="0.808" stroke-linecap="round" stroke-linejoin="round"/>
<path d="M118.262 145.644C117.167 145.721 116.077 145.438 115.159 144.836C114.422 144.273 113.892 143.483 113.648 142.589C113.356 141.57 113.215 140.514 113.228 139.454V131.52C113.212 130.427 113.356 129.338 113.656 128.288C113.909 127.409 114.45 126.641 115.191 126.106C116.106 125.524 117.179 125.242 118.262 125.298C119.246 125.246 120.224 125.485 121.073 125.985C121.761 126.46 122.274 127.147 122.536 127.94C122.848 128.911 122.998 129.926 122.98 130.946V132.15H121.203V131.003C121.213 130.251 121.142 129.501 120.993 128.764C120.891 128.197 120.59 127.684 120.144 127.318C119.591 126.935 118.924 126.753 118.253 126.801C117.543 126.752 116.836 126.946 116.25 127.35C115.783 127.755 115.464 128.304 115.345 128.91C115.18 129.677 115.101 130.46 115.11 131.245V139.721C115.096 140.538 115.191 141.353 115.393 142.145C115.529 142.74 115.869 143.269 116.355 143.64C116.919 143.995 117.579 144.167 118.245 144.133C118.919 144.178 119.588 143.986 120.136 143.591C120.582 143.198 120.881 142.666 120.985 142.08C121.133 141.333 121.203 140.572 121.195 139.81V138.509H122.964V139.689C122.979 140.735 122.84 141.777 122.552 142.783C122.326 143.621 121.826 144.358 121.13 144.876C120.279 145.429 119.275 145.698 118.262 145.644Z" fill="#1B2330" stroke="#1B2330" stroke-width="0.808" stroke-linecap="round" stroke-linejoin="round"/>
<path d="M125.871 145.401V125.508H133.07V126.955H127.762V134.421H132.085V135.794H127.762V143.995H133.119V145.401H125.871Z" fill="#1B2330" stroke="#1B2330" stroke-width="0.808" stroke-linecap="round" stroke-linejoin="round"/>
<path d="M267.192 236.697H310.476C310.476 236.697 287.044 294.316 291.464 320.051H247.598C247.598 320.051 255.783 254.247 267.192 236.697Z" fill="#1B2330" stroke="#1B2330" stroke-width="0.808" stroke-linecap="round" stroke-linejoin="round"/>
<path d="M229.74 153.99C229.74 153.99 230.168 161.788 244.688 166.337C259.207 170.886 273.945 166.337 282.179 172.801C290.412 179.265 290.194 189.268 287.374 194.253C284.554 199.238 280.005 204.216 293.442 210.066C306.879 215.916 298.856 233.037 293.224 239.323C287.592 245.61 277.872 248.64 267.005 246.474C256.137 244.309 243.387 218.089 229.521 204.216C215.656 190.342 213.959 164.753 222.807 157.416C231.655 150.08 229.74 153.99 229.74 153.99Z" fill="#1B2330" stroke="#1B2330" stroke-width="0.808" stroke-linecap="round" stroke-linejoin="round"/>
<path d="M227.512 125.945C227.512 125.945 233.491 123.335 235.026 128.369C236.562 133.403 237.014 147.236 237.014 147.236L233.782 146.468C233.782 146.468 234.55 130.825 231.019 128.369C227.488 125.913 224.732 131.439 224.732 131.439L227.512 125.945Z" fill="#A6A6A6" stroke="#1B2330" stroke-width="0.808" stroke-linecap="round" stroke-linejoin="round"/>
<path d="M160.391 294.235L180.817 283.311C180.817 283.311 179.403 261.875 179.605 261.067C179.807 260.259 184.922 218.315 184.922 218.315L170.911 259.855L160.391 294.235Z" fill="#1B2330" stroke="#1B2330" stroke-width="0.808" stroke-linecap="round" stroke-linejoin="round"/>
<path d="M250.693 196.774C250.693 196.774 270.893 207.779 273.608 208.894C276.323 210.009 274.723 224.044 274.723 233.215C274.723 242.386 260.987 319.832 260.987 319.832H159.26C159.26 319.832 176.446 293.484 176.906 286.608C177.367 279.731 174.386 274.229 173.925 267.587C173.464 260.945 183.322 220.376 184.922 218.299C186.522 216.223 193.406 210.971 193.406 210.971L217.694 189.696L228.926 187.175L250.693 196.774Z" fill="#28C79E" stroke="#1B2330" stroke-width="0.808" stroke-linecap="round" stroke-linejoin="round"/>
<path d="M183.274 294.057L179.881 301.038" stroke="#1B2330" stroke-width="0.808" stroke-linecap="round" stroke-linejoin="round"/>
<path d="M186.53 274.003C186.53 274.003 181.488 277.437 184.009 279.271C186.53 281.105 187.677 285 187.677 285L184.445 291.294" stroke="#1B2330" stroke-width="0.808" stroke-linecap="round" stroke-linejoin="round"/>
<path d="M210.277 290.696C211.643 290.801 213.081 290.882 214.584 290.922" stroke="#1B2330" stroke-width="0.808" stroke-linecap="round" stroke-linejoin="round"/>
<path d="M188.582 285.04C188.582 285.04 194.068 288.708 206.019 290.276" stroke="#1B2330" stroke-width="0.808" stroke-linecap="round" stroke-linejoin="round"/>
<path d="M174.91 138.517C173.944 138.989 173.138 139.735 172.594 140.662C172.049 141.589 171.79 142.655 171.848 143.729C171.848 147.72 175.08 155.534 175.08 155.534L176.922 154.928C176.922 154.928 173.553 146.799 174.013 143.882C174.163 143.032 174.543 142.239 175.113 141.59C175.683 140.942 176.421 140.463 177.245 140.206L176.631 138.21L174.91 138.517Z" fill="#A6A6A6" stroke="#1B2330" stroke-width="0.808" stroke-linecap="round" stroke-linejoin="round"/>
<path d="M182.804 159.049C183.612 163.089 182.23 166.733 179.774 167.209C177.318 167.686 174.7 164.785 173.924 160.745C173.148 156.705 174.498 153.053 176.954 152.585C179.41 152.116 182.028 155.017 182.804 159.049Z" fill="white" stroke="#1B2330" stroke-width="0.808" stroke-linecap="round" stroke-linejoin="round"/>
<path d="M190.263 157.748C191.79 162.903 190.004 167.985 186.271 169.06C182.538 170.134 178.272 166.886 176.737 161.731C175.202 156.576 176.995 151.494 180.728 150.419C184.461 149.344 188.736 152.593 190.263 157.748Z" fill="#1B2330" stroke="#1B2330" stroke-width="0.808" stroke-linecap="round" stroke-linejoin="round"/>
<path d="M204.104 185.85L207.732 197.647L195.806 212.675L193.819 224.286C193.819 224.286 191.839 257.414 192.97 262.521C194.101 267.628 194.101 269.033 194.101 269.033C194.101 269.033 218.745 240.43 230.922 222.872C243.099 205.315 245.927 194.544 245.927 194.544L234.033 188.08L228.377 161.739L204.104 185.85Z" fill="white" stroke="#1B2330" stroke-width="0.808" stroke-linecap="round" stroke-linejoin="round"/>
<path d="M222.912 174.433L207.73 197.647L203.496 183.983L222.912 174.433Z" fill="#1B2330" stroke="#1B2330" stroke-width="0.808" stroke-linecap="round" stroke-linejoin="round"/>
<path d="M193.924 223.632L193.811 224.287C193.811 224.287 191.831 257.415 192.962 262.521C194.094 267.628 194.094 269.034 194.094 269.034C194.094 269.034 218.738 240.43 230.914 222.873C231.868 221.499 232.756 220.166 233.605 218.873C218.358 224.093 202.812 224.181 193.924 223.632Z" fill="white" stroke="#1B2330" stroke-width="0.808" stroke-linecap="round" stroke-linejoin="round"/>
<path d="M187.95 113.526C187.95 113.526 176.598 120.426 175.37 130.849C174.142 141.273 178.44 152.471 180.129 156.915C181.818 161.359 187.643 178.691 190.706 182.068C193.768 185.446 203.739 190.496 205.427 191.417C207.116 192.338 210.178 192.031 212.788 190.189C215.398 188.347 226.128 175.322 227.817 172.251C229.506 169.181 229.805 162.434 229.805 162.434C229.805 162.434 229.498 148.94 228.892 140.206C228.286 131.472 228.738 123.028 221.531 115.667C214.324 108.306 195.004 108.153 187.95 113.526Z" fill="white" stroke="#1B2330" stroke-width="0.808" stroke-linecap="round" stroke-linejoin="round"/>
<path d="M228.892 140.206C228.278 131.463 228.739 123.028 221.531 115.667C214.324 108.306 195.005 108.153 187.951 113.526C187.951 113.526 176.598 120.426 175.37 130.849C174.659 136.909 175.815 143.212 177.229 148.318C179.838 146.702 188.646 141.305 198.527 134.38C210.332 126.098 214.17 113.219 214.17 113.219C214.17 113.219 215.544 112.451 215.245 114.14C214.946 115.829 210.332 125.791 208.652 127.326L206.963 128.854C206.963 128.854 208.345 128.547 214.631 136.061C220.917 143.575 224.44 146.646 226.282 147.567C227.261 147.92 228.289 148.119 229.328 148.157C229.207 145.401 229.062 142.622 228.892 140.206Z" fill="#1B2330" stroke="#1B2330" stroke-width="0.808" stroke-linecap="round" stroke-linejoin="round"/>
<path d="M210.009 156.463C210.203 157.586 209.791 158.604 209.08 158.725C208.369 158.847 207.642 158.039 207.464 156.915C207.286 155.792 207.682 154.774 208.393 154.645C209.104 154.516 209.807 155.34 210.009 156.463Z" fill="#1B2330" stroke="#1B2330" stroke-width="0.808" stroke-linecap="round" stroke-linejoin="round"/>
<path d="M192.833 158.911C193.035 160.042 192.623 161.052 191.912 161.182C191.201 161.311 190.466 160.495 190.296 159.364C190.126 158.233 190.506 157.231 191.217 157.101C191.928 156.972 192.639 157.788 192.833 158.911Z" fill="#1B2330" stroke="#1B2330" stroke-width="0.808" stroke-linecap="round" stroke-linejoin="round"/>
<path d="M202.973 149.555C202.973 149.555 208.039 145.571 212.669 148.787" stroke="#1B2330" stroke-width="0.808" stroke-linecap="round" stroke-linejoin="round"/>
<path d="M192.702 151.72C192.702 151.72 186.723 148.803 182.578 154.023" stroke="#1B2330" stroke-width="0.808" stroke-linecap="round" stroke-linejoin="round"/>
<path d="M193.777 151.857C193.777 151.857 197.914 153.853 198.221 157.683" stroke="#1B2330" stroke-width="0.808" stroke-linecap="round" stroke-linejoin="round"/>
<path d="M198.375 168.268C198.375 168.268 200.064 169.488 202.973 168.575" stroke="#1B2330" stroke-width="0.808" stroke-linecap="round" stroke-linejoin="round"/>
<path d="M197.154 174.708C200.591 174.56 203.971 173.779 207.125 172.405C212.49 170.102 214.639 166.886 214.639 166.886" stroke="#1B2330" stroke-width="0.808" stroke-linecap="round" stroke-linejoin="round"/>
<path d="M199.758 174.554C200.984 175.638 202.565 176.236 204.202 176.235C206.965 176.235 209.413 171.33 209.413 171.33C209.413 171.33 202.36 174.4 199.758 174.554Z" stroke="#1B2330" stroke-width="0.808" stroke-linecap="round" stroke-linejoin="round"/>
<path d="M231.65 163.202C235.545 163.202 238.703 158.843 238.703 153.465C238.703 148.088 235.545 143.729 231.65 143.729C227.754 143.729 224.596 148.088 224.596 153.465C224.596 158.843 227.754 163.202 231.65 163.202Z" fill="#1B2330" stroke="#1B2330" stroke-width="0.808" stroke-linecap="round" stroke-linejoin="round"/>
<path d="M234.638 159.218C237.137 159.218 239.163 155.89 239.163 151.785C239.163 147.679 237.137 144.351 234.638 144.351C232.139 144.351 230.113 147.679 230.113 151.785C230.113 155.89 232.139 159.218 234.638 159.218Z" fill="white" stroke="#1B2330" stroke-width="0.808" stroke-linecap="round" stroke-linejoin="round"/>
<path d="M179.775 163.84C179.775 163.84 179.824 179.774 183.961 181.155C188.098 182.537 199.45 179.774 199.45 179.774" stroke="#1B2330" stroke-width="1.616" stroke-linecap="round" stroke-linejoin="round"/>
<path d="M205.276 179.709C205.276 180.937 203.765 181.931 201.899 181.931C200.032 181.931 198.529 180.937 198.529 179.709C198.529 178.481 200.04 177.487 201.899 177.487C203.757 177.487 205.276 178.481 205.276 179.709Z" fill="#1B2330" stroke="#1B2330" stroke-width="0.808" stroke-linecap="round" stroke-linejoin="round"/>
<path d="M206.237 198.382C206.237 198.382 201.389 206.858 197.987 232.067C194.586 257.277 196.84 262.311 196.84 262.311L191.992 265.292C191.992 265.292 181.916 264.145 185.35 240.317C188.784 216.489 190.691 212.587 190.691 212.587L206.237 198.382Z" fill="#28C79E" stroke="#1B2330" stroke-width="0.808" stroke-linecap="round" stroke-linejoin="round"/>
<path d="M236.939 189.696C236.939 189.696 225.942 215.819 214.485 232.092C203.027 248.365 187.457 271.708 187.457 271.708C187.457 271.708 195.707 267.813 213.127 254.74C230.548 241.666 248.186 211.657 250.02 208.684C251.855 205.71 254.602 198.834 254.602 198.834L236.939 189.696Z" fill="#28C79E" stroke="#1B2330" stroke-width="0.808" stroke-linecap="round" stroke-linejoin="round"/>
<path d="M141.75 305.757C139.062 307.393 136.243 308.804 133.323 309.975C128.168 312.084 127.667 311.712 129.339 313.49C131.012 315.267 139.649 312.084 141.993 311.146C144.336 310.209 148.788 308.803 148.788 308.803C148.788 308.803 154.177 311.849 157.458 312.787C160.738 313.724 164.73 312.318 164.73 312.318C164.73 312.318 164.964 308.569 162.152 306.46C159.34 304.351 153.264 299.431 151.139 299.665C149.014 299.899 141.75 305.757 141.75 305.757Z" fill="white" stroke="#1B2330" stroke-width="0.808" stroke-linecap="round" stroke-linejoin="round"/>
<path d="M140.345 300.134C140.345 300.134 137.533 299.431 135.658 300.836C133.784 302.242 131.675 306.694 131.44 307.866C131.206 309.038 131.675 309.741 133.549 308.1C135.424 306.46 138.704 304.117 138.704 304.117L141.516 303.18L140.345 300.134Z" fill="white" stroke="#1B2330" stroke-width="0.808" stroke-linecap="round" stroke-linejoin="round"/>
<path d="M147.608 298.025C147.608 298.025 141.952 296.15 140.813 297.79C139.673 299.431 135.658 308.803 136.829 309.506C138.001 310.209 139.641 308.803 141.75 305.757C143.859 302.711 145.03 301.071 145.03 301.071L147.842 300.602L147.608 298.025Z" fill="white" stroke="#1B2330" stroke-width="0.808" stroke-linecap="round" stroke-linejoin="round"/>
<path d="M157.653 300.125C157.653 300.125 150.324 294.397 148.49 295.77C146.656 297.144 140.701 306.08 140.014 307.89C139.327 309.7 142.535 308.811 145.048 306.517C147.561 304.222 150.551 301.669 150.551 301.669L156.279 304.65L157.653 300.125Z" fill="white" stroke="#1B2330" stroke-width="0.808" stroke-linecap="round" stroke-linejoin="round"/>
<path d="M184.009 304.48C184.009 304.48 174.385 304.02 170.491 302.646C166.596 301.273 158.799 298.291 156.512 298.517C154.226 298.744 145.507 307.228 143.673 309.062C141.839 310.896 142.057 311.389 143.859 311.615C145.661 311.841 150.089 308.836 152.157 307.228C153.437 306.243 154.818 305.398 156.278 304.707C157.923 307.073 159.763 309.298 161.781 311.357C164.067 313.417 169.57 315.017 171.63 314.791C172.941 314.641 174.242 314.412 175.525 314.104L183.322 313.878L184.009 304.48Z" fill="white" stroke="#1B2330" stroke-width="0.808" stroke-linecap="round" stroke-linejoin="round"/>
<path d="M250.919 238.249C250.919 238.249 242.443 248.098 242.904 251.54C243.364 254.982 243.591 258.408 243.591 258.408L237.401 295.762C237.401 295.762 232.133 293.241 232.133 295.302V297.37L182.611 302.412L182.15 319.824L260.979 320.051C260.979 320.051 264.873 315.704 265.334 314.096C265.795 312.488 274.497 284.765 276.791 255.661C279.086 226.557 277.939 213.5 276.791 211.221C275.644 208.943 262.126 204.579 262.126 204.579" fill="#28C79E"/>
<path d="M250.919 238.249C250.919 238.249 242.443 248.098 242.904 251.54C243.364 254.982 243.591 258.408 243.591 258.408L237.401 295.762C237.401 295.762 232.133 293.241 232.133 295.302V297.37L182.611 302.412L182.15 319.824L260.979 320.051C260.979 320.051 264.873 315.704 265.334 314.096C265.795 312.488 274.497 284.765 276.791 255.661C279.086 226.557 277.939 213.5 276.791 211.221C275.644 208.943 262.126 204.579 262.126 204.579" stroke="#1B2330" stroke-width="0.808" stroke-linecap="round" stroke-linejoin="round"/>
<path d="M239.234 295.544C239.234 295.544 246.563 300.352 250.918 301.499L239.234 295.544Z" fill="white"/>
<path d="M239.234 295.544C239.234 295.544 246.563 300.352 250.918 301.499" stroke="#1B2330" stroke-width="0.808" stroke-linecap="round" stroke-linejoin="round"/>
<path d="M170.49 249.06L176.146 230.904C178.44 228.657 180.448 226.136 182.126 223.398C184.55 219.301 184.55 211.617 184.17 210.251C183.79 208.886 189.123 202.745 190.634 200.555C192.145 198.366 193.017 194.407 190.973 191.506C188.929 188.605 187.903 193.389 186.537 195.602C185.172 197.816 180.388 200.038 180.388 200.038L175.338 204.143C175.338 204.143 166.976 211.48 166.45 212.506C165.925 213.532 164.915 216.772 164.915 216.772L165.602 226.67L161.166 243.905L170.49 249.06Z" fill="white" stroke="#1B2330" stroke-width="0.808" stroke-linecap="round" stroke-linejoin="round"/>
<path d="M171.889 198.172C171.889 198.172 175.985 191.708 177.181 189.639C178.377 187.571 180.251 179.402 181.447 179.943C182.643 180.485 183.871 183.175 183.5 186.771C183.128 190.367 178.886 198.544 178.886 198.544L171.889 198.172Z" stroke="#1B2330" stroke-width="0.808" stroke-linecap="round" stroke-linejoin="round"/>
<path d="M161.99 238.79L165.578 226.67L164.026 207.214L168.802 198.002L181.94 196.297C181.94 196.297 189.963 200.564 190.65 200.564C191.337 200.564 190.65 202.438 189.115 202.778C187.58 203.117 184.671 202.269 184.671 202.269L189.624 205.501C189.624 205.501 189.284 207.036 188.089 207.375C186.908 207.613 185.706 207.73 184.501 207.723C184.501 207.723 188.767 210.454 187.733 210.955C186.72 211.42 185.616 211.651 184.501 211.633H181.269L178.708 211.294L174.781 212.829C174.781 212.829 177.512 219.826 177.342 223.244C177.173 226.662 172.906 228.9 172.906 228.9" fill="white"/>
<path d="M161.99 238.79L165.578 226.67L164.026 207.214L168.802 198.002L181.94 196.297C181.94 196.297 189.963 200.564 190.65 200.564C191.337 200.564 190.65 202.438 189.115 202.778C187.58 203.117 184.671 202.269 184.671 202.269L189.624 205.501C189.624 205.501 189.284 207.036 188.089 207.375C186.908 207.613 185.706 207.73 184.501 207.723C184.501 207.723 188.767 210.454 187.733 210.955C186.72 211.42 185.616 211.651 184.501 211.633H181.269L178.708 211.294L174.781 212.829C174.781 212.829 177.512 219.826 177.342 223.244C177.173 226.662 172.906 228.9 172.906 228.9" stroke="#1B2330" stroke-width="0.808" stroke-linecap="round" stroke-linejoin="round"/>
<path d="M184.686 202.268C184.686 202.268 181.955 200.046 180.42 200.046C178.885 200.046 169.504 201.751 169.504 201.751" stroke="#1B2330" stroke-width="0.808" stroke-linecap="round" stroke-linejoin="round"/>
<path d="M184.517 207.731C184.517 207.731 180.081 205.307 178.716 205.307C177.35 205.307 166.596 208.038 166.596 208.038" stroke="#1B2330" stroke-width="0.808" stroke-linecap="round" stroke-linejoin="round"/>
<path d="M162.21 234.984L176.067 244.317C176.067 244.317 169.894 277.445 169.288 280.281C168.682 283.117 164.238 290.591 162.016 292.821C159.794 295.051 157.168 294.639 151.1 293.023C145.032 291.407 139.788 286.559 139.974 280.281C140.159 274.003 162.21 234.984 162.21 234.984Z" fill="#28C79E" stroke="#1B2330" stroke-width="0.808" stroke-linecap="round" stroke-linejoin="round"/>
<path d="M90.5844 315.275H86.5605V316.512H90.5844V315.275Z" fill="white" stroke="#1B2330" stroke-width="0.808" stroke-linecap="round" stroke-linejoin="round"/>
<path d="M96.1606 315.275H92.1367V316.512H96.1606V315.275Z" fill="white" stroke="#1B2330" stroke-width="0.808" stroke-linecap="round" stroke-linejoin="round"/>
<path d="M101.737 315.275H97.7129V316.512H101.737V315.275Z" fill="white" stroke="#1B2330" stroke-width="0.808" stroke-linecap="round" stroke-linejoin="round"/>
<path d="M107.319 315.275H103.295V316.512H107.319V315.275Z" fill="white" stroke="#1B2330" stroke-width="0.808" stroke-linecap="round" stroke-linejoin="round"/>
<path d="M112.893 315.275H108.869V316.512H112.893V315.275Z" fill="white" stroke="#1B2330" stroke-width="0.808" stroke-linecap="round" stroke-linejoin="round"/>
<path d="M118.469 315.275H114.445V316.512H118.469V315.275Z" fill="white" stroke="#1B2330" stroke-width="0.808" stroke-linecap="round" stroke-linejoin="round"/>
<path d="M124.043 315.275H120.02V316.512H124.043V315.275Z" fill="white" stroke="#1B2330" stroke-width="0.808" stroke-linecap="round" stroke-linejoin="round"/>
<path d="M129.62 315.275H125.596V316.512H129.62V315.275Z" fill="white" stroke="#1B2330" stroke-width="0.808" stroke-linecap="round" stroke-linejoin="round"/>
<path d="M135.196 315.275H131.172V316.512H135.196V315.275Z" fill="white" stroke="#1B2330" stroke-width="0.808" stroke-linecap="round" stroke-linejoin="round"/>
<path d="M140.77 315.275H136.746V316.512H140.77V315.275Z" fill="white" stroke="#1B2330" stroke-width="0.808" stroke-linecap="round" stroke-linejoin="round"/>
<path d="M146.352 315.275H142.328V316.512H146.352V315.275Z" fill="white" stroke="#1B2330" stroke-width="0.808" stroke-linecap="round" stroke-linejoin="round"/>
<path d="M151.928 315.275H147.904V316.512H151.928V315.275Z" fill="white" stroke="#1B2330" stroke-width="0.808" stroke-linecap="round" stroke-linejoin="round"/>
<path d="M157.504 315.275H153.48V316.512H157.504V315.275Z" fill="white" stroke="#1B2330" stroke-width="0.808" stroke-linecap="round" stroke-linejoin="round"/>
<path d="M163.079 315.275H159.055V316.512H163.079V315.275Z" fill="white" stroke="#1B2330" stroke-width="0.808" stroke-linecap="round" stroke-linejoin="round"/>
<path d="M168.655 315.275H164.631V316.512H168.655V315.275Z" fill="white" stroke="#1B2330" stroke-width="0.808" stroke-linecap="round" stroke-linejoin="round"/>
<path d="M174.229 315.275H170.205V316.512H174.229V315.275Z" fill="white" stroke="#1B2330" stroke-width="0.808" stroke-linecap="round" stroke-linejoin="round"/>
<path d="M183.949 316.253H84.25V319.76H183.949V316.253Z" fill="white" stroke="#1B2330" stroke-width="0.808" stroke-linecap="round" stroke-linejoin="round"/>
<path d="M183.941 316.253H145.723V319.76H183.941V316.253Z" fill="white" stroke="#1B2330" stroke-width="0.808" stroke-linecap="round" stroke-linejoin="round"/>
<path d="M115.358 285.541H36.9742L21.2344 202.188H99.6185L115.358 285.541Z" fill="#1B2330" stroke="white" stroke-width="0.808" stroke-linecap="round" stroke-linejoin="round"/>
<path d="M112.975 283.432H36.9341L21.9941 204.297H98.0269L112.975 283.432Z" fill="#1B2330" stroke="white" stroke-width="0.808" stroke-linecap="round" stroke-linejoin="round"/>
<path d="M98.3333 277.13H41.7975L30.6875 218.299H87.2233L98.3333 277.13Z" fill="#1B2330" stroke="white" stroke-width="0.808" stroke-linecap="round" stroke-linejoin="round"/>
<path d="M30.6882 218.299L21.9941 204.297" stroke="#1B2330" stroke-width="0.808" stroke-linecap="round" stroke-linejoin="round"/>
<path d="M87.2227 218.299L98.0256 204.297" stroke="white" stroke-width="0.808" stroke-linecap="round" stroke-linejoin="round"/>
<path d="M98.334 277.13L112.975 283.432" stroke="white" stroke-width="0.808" stroke-linecap="round" stroke-linejoin="round"/>
<path d="M41.7978 277.13L36.9336 283.432" stroke="#1B2330" stroke-width="0.808" stroke-linecap="round" stroke-linejoin="round"/>
<path d="M64.7855 259.507H51.9141L60.1072 252.203H72.9786L64.7855 259.507Z" fill="#1B2330" stroke="white" stroke-width="0.808" stroke-linecap="round" stroke-linejoin="round"/>
<path d="M107.489 315.372H60.3984V320.051H107.489V315.372Z" fill="#1B2330" stroke="white" stroke-width="0.808" stroke-linecap="round" stroke-linejoin="round"/>
<path d="M80.5819 320.051H67.7105L51.9141 302.105H64.7855L80.5819 320.051Z" fill="#1B2330" stroke="white" stroke-width="0.808" stroke-linecap="round" stroke-linejoin="round"/>
<path d="M64.7855 259.806H51.9141V301.919H64.7855V259.806Z" fill="#1B2330" stroke="white" stroke-width="0.808" stroke-linecap="round" stroke-linejoin="round"/>
<path d="M253.234 312.043C255.073 315.381 257.867 318.093 261.258 319.832L253.234 312.043Z" fill="white"/>
<path d="M253.234 312.043C255.073 315.381 257.867 318.093 261.258 319.832" stroke="#1B2330" stroke-width="0.808" stroke-linecap="round" stroke-linejoin="round"/>
<path d="M11.3594 320.051H379.977" stroke="#1B2330" stroke-width="0.808" stroke-linecap="round" stroke-linejoin="round"/>
</svg>
