<svg width="16" height="16" viewBox="0 0 16 16" fill="none" xmlns="http://www.w3.org/2000/svg">
<path d="M0.616739 0.0437346C0.354239 0.14061 0.141739 0.353109 0.0448639 0.615609C0.0229889 0.681234 0.00423885 0.831235 0.00423885 0.95311C0.00111385 1.38123 -0.202011 1.15311 3.40111 4.75623L6.64174 7.99998L3.38861 11.2562C-0.280136 14.9312 -0.0176361 14.6344 0.00736385 15.1094C0.0229889 15.3937 0.0917388 15.5562 0.266739 15.7344C0.444864 15.9094 0.607364 15.9781 0.891739 15.9937C1.36674 16.0187 1.06986 16.2812 4.74486 12.6125L8.00111 9.35936L11.2605 12.6125C14.9324 16.2812 14.6355 16.0187 15.1105 15.9937C15.3949 15.9781 15.5574 15.9094 15.7355 15.7344C15.9105 15.5562 15.9792 15.3937 15.9949 15.1094C16.0199 14.6344 16.2824 14.9312 12.6136 11.2562L9.36049 7.99998L12.6136 4.74061C16.2824 1.06873 16.0199 1.36561 15.9949 0.89061C15.9792 0.606235 15.9105 0.443734 15.7355 0.26561C15.5574 0.0906096 15.3949 0.0218592 15.1105 0.00623512C14.6355 -0.0187664 14.9324 -0.281265 11.2574 3.38748L8.00111 6.64061L4.75736 3.39998C1.15424 -0.20314 1.38236 -1.52588e-05 0.954239 0.00310898C0.835489 0.00310898 0.682364 0.0218592 0.616739 0.0437346Z" fill="white"/>
</svg>
