<svg width="225" height="110" viewBox="0 0 225 110" fill="none" xmlns="http://www.w3.org/2000/svg">
<g opacity="0.3">
<path d="M223.638 162.803C223.663 176.129 209.581 184.463 198.336 177.778L124.492 133.887C119.303 130.803 116.105 125.124 116.094 118.976L115.935 31.4735C115.911 18.1478 129.992 9.81388 141.238 16.4981L215.082 60.3901C220.27 63.4741 223.469 69.1529 223.48 75.3011L223.638 162.803Z" stroke="#B9D5CC" stroke-width="1.5461"/>
<path d="M75.2129 70.3387C75.1888 57.013 89.27 48.6791 100.516 55.3634L174.36 99.2553C179.548 102.339 182.747 108.018 182.758 114.166L182.916 201.668C182.941 214.994 168.859 223.328 157.614 216.644L83.7697 172.752C78.5811 169.668 75.3828 163.989 75.3716 157.841L75.2129 70.3387Z" stroke="#B9D5CC" stroke-width="1.5461"/>
</g>
<g opacity="0.3">
<path d="M149.426 149.661C149.45 162.987 135.368 171.321 124.123 164.637L50.2787 120.745C45.0902 117.661 41.8918 111.982 41.8806 105.834L41.722 18.3316C41.6978 5.00598 55.7791 -3.32797 67.0247 3.3563L140.869 47.2482C146.057 50.3322 149.256 56.011 149.267 62.1593L149.426 149.661Z" stroke="#B9D5CC" stroke-width="1.5461"/>
<path d="M1.00003 57.1968C0.975864 43.8712 15.0571 35.5373 26.3028 42.2215L100.147 86.1134C105.335 89.1975 108.534 94.8762 108.545 101.024L108.704 188.527C108.728 201.852 94.6465 210.186 83.4008 203.502L9.55681 159.61C4.36823 156.526 1.16987 150.847 1.15872 144.699L1.00003 57.1968Z" stroke="#B9D5CC" stroke-width="1.5461"/>
</g>
</svg>
