<svg width="403" height="351" viewBox="0 0 403 351" fill="none" xmlns="http://www.w3.org/2000/svg">
<path d="M87.9802 340.462C87.9802 340.462 135.252 365.037 189.277 339.13C243.302 313.223 260.887 262.987 288.879 225.297C303.564 205.545 327.585 194.541 345.913 177.934C404.507 124.825 383.35 36.0371 329.76 11.6715C283.34 -9.42184 229.723 -1.86197 163.289 33.8435C96.8544 69.5489 48.9843 92.6002 14.1037 163.757C-20.7768 234.914 29.2054 306.026 87.9802 340.462Z" fill="#28C79E"/>
<path opacity="0.8" d="M87.9802 340.462C87.9802 340.462 135.252 365.037 189.277 339.13C243.302 313.223 260.887 262.987 288.879 225.297C303.564 205.545 327.585 194.541 345.913 177.934C404.507 124.825 383.35 36.0371 329.76 11.6715C283.34 -9.42184 229.723 -1.86197 163.289 33.8435C96.8544 69.5489 48.9843 92.6002 14.1037 163.757C-20.7768 234.914 29.2054 306.026 87.9802 340.462Z" fill="white"/>
<path d="M8.67383 279.675H374.022" stroke="#263238" stroke-width="0.90646" stroke-miterlimit="10"/>
<path d="M8.67383 210.503H374.022" stroke="#263238" stroke-width="0.90646" stroke-miterlimit="10"/>
<path d="M8.67383 141.331H374.022" stroke="#263238" stroke-width="0.90646" stroke-miterlimit="10"/>
<path d="M8.67383 72.1595H374.022" stroke="#263238" stroke-width="0.90646" stroke-miterlimit="10"/>
<path d="M91.7422 32.8826V279.838" stroke="#263238" stroke-width="0.90646" stroke-miterlimit="10"/>
<path d="M311.34 32.8826V279.838" stroke="#263238" stroke-width="0.90646" stroke-miterlimit="10"/>
<path d="M99.901 124.426L97.1816 127.29" stroke="#263238" stroke-width="0.90646" stroke-miterlimit="10"/>
<path d="M146.211 75.586L103.172 120.972" stroke="#263238" stroke-width="0.90646" stroke-miterlimit="10"/>
<path d="M148.894 82.9736L124.719 107.82" stroke="#263238" stroke-width="0.90646" stroke-miterlimit="10"/>
<path d="M320.745 124.426L318.025 127.29" stroke="#263238" stroke-width="0.90646" stroke-miterlimit="10"/>
<path d="M367.041 75.586L324.012 120.972" stroke="#263238" stroke-width="0.90646" stroke-miterlimit="10"/>
<path d="M369.734 82.9736L345.559 107.82" stroke="#263238" stroke-width="0.90646" stroke-miterlimit="10"/>
<path d="M3.19985 264.112L0.480469 266.976" stroke="#263238" stroke-width="0.90646" stroke-miterlimit="10"/>
<path d="M49.5023 215.262L6.47266 260.658" stroke="#263238" stroke-width="0.90646" stroke-miterlimit="10"/>
<path d="M52.1941 222.65L28.0098 247.505" stroke="#263238" stroke-width="0.90646" stroke-miterlimit="10"/>
<path d="M38.7865 65.334L36.0762 68.1984" stroke="#263238" stroke-width="0.90646" stroke-miterlimit="10"/>
<path d="M85.1 16.4848L42.0703 61.8712" stroke="#263238" stroke-width="0.90646" stroke-miterlimit="10"/>
<path d="M87.7827 23.8724L63.6074 48.7185" stroke="#263238" stroke-width="0.90646" stroke-miterlimit="10"/>
<path d="M240.021 65.334L237.311 68.1984" stroke="#263238" stroke-width="0.90646" stroke-miterlimit="10"/>
<path d="M286.332 16.4848L243.303 61.8712" stroke="#263238" stroke-width="0.90646" stroke-miterlimit="10"/>
<path d="M289.015 23.8724L264.84 48.7185" stroke="#263238" stroke-width="0.90646" stroke-miterlimit="10"/>
<path d="M177.801 196.281L175.082 199.146" stroke="#263238" stroke-width="0.90646" stroke-miterlimit="10"/>
<path d="M224.104 147.441L181.074 192.827" stroke="#263238" stroke-width="0.90646" stroke-miterlimit="10"/>
<path d="M226.796 154.829L202.621 179.675" stroke="#263238" stroke-width="0.90646" stroke-miterlimit="10"/>
<path d="M363.331 330.791C363.331 330.791 340.887 282.966 345.764 281.588C350.641 280.21 360.866 287.825 360.866 287.825C360.866 287.825 330.862 207.422 338.63 201.185C346.399 194.949 360.902 226.865 360.902 226.865C360.902 226.865 345.411 177.617 347.233 158.881C349.055 140.144 368.734 158.192 368.734 158.192C368.734 158.192 352.97 90.9597 367.61 87.4879C382.249 84.0162 381.76 164.419 381.76 164.419C381.76 164.419 386.564 106.886 392.429 122.831C398.293 138.775 385.966 192.139 385.966 192.139C385.966 192.139 394.006 174.118 398.475 190.752C402.944 207.385 389.591 274.617 389.591 274.617C389.591 274.617 400.94 263.531 402.001 277.391C403.061 291.251 378.505 334.226 378.505 334.226L364.609 335.64L363.331 330.791Z" fill="#28C79E"/>
<path opacity="0.6" d="M363.331 330.791C363.331 330.791 340.887 282.966 345.764 281.588C350.641 280.21 360.866 287.825 360.866 287.825C360.866 287.825 330.862 207.422 338.63 201.185C346.399 194.949 360.902 226.865 360.902 226.865C360.902 226.865 345.411 177.617 347.233 158.881C349.055 140.144 368.734 158.192 368.734 158.192C368.734 158.192 352.97 90.9597 367.61 87.4879C382.249 84.0162 381.76 164.419 381.76 164.419C381.76 164.419 386.564 106.886 392.429 122.831C398.293 138.775 385.966 192.139 385.966 192.139C385.966 192.139 394.006 174.118 398.475 190.752C402.944 207.385 389.591 274.617 389.591 274.617C389.591 274.617 400.94 263.531 402.001 277.391C403.061 291.251 378.505 334.226 378.505 334.226L364.609 335.64L363.331 330.791Z" fill="white"/>
<path d="M368.127 332.921C368.127 332.921 349.418 299.654 352.88 293.408C356.343 287.163 366.74 301.73 366.74 301.73C366.74 301.73 343.172 242.81 346.644 237.271C350.116 231.733 361.202 255.99 361.202 255.99C361.202 255.99 357.041 174.898 363.966 177.662C370.892 180.427 371.563 219.206 371.563 219.206C371.563 219.206 367.411 127.028 373.647 129.801C379.884 132.575 379.195 235.15 379.195 235.15C379.195 235.15 391.668 195.638 393.744 213.658C395.819 231.678 377.808 280.201 377.808 280.201C377.808 280.201 395.131 242.076 397.243 262.217C399.355 282.359 383.347 319.705 383.347 319.705C383.347 319.705 389.583 304.458 389.583 312.77C389.583 321.083 384.733 331.489 384.733 331.489" stroke="#263238" stroke-width="0.90646" stroke-linecap="round" stroke-linejoin="round"/>
<path d="M316.655 229.802L341.9 284.897L326.018 289.375L307.291 266.06L316.655 229.802Z" fill="#28C79E"/>
<g opacity="0.1">
<path d="M312.095 247.442L311.025 251.602L331.992 287.689L335.001 286.846L312.095 247.442Z" fill="black"/>
<path d="M326.137 289.347L329.165 288.495L309.658 256.887L308.615 260.939L326.137 289.347Z" fill="black"/>
<path d="M314.69 237.407L313.584 241.704L337.66 286.093L340.633 285.25L314.69 237.407Z" fill="black"/>
</g>
<path d="M316.655 229.802L341.9 284.897L326.018 289.375L307.291 266.06L316.655 229.802Z" stroke="#263238" stroke-width="0.90646" stroke-linecap="round" stroke-linejoin="round"/>
<path d="M266.446 214.456L233.568 229.603L251.099 300.732L245.515 330.655H307.889L301.716 298.14L316.854 229.802L282.381 215.652L266.446 214.456Z" fill="#28C79E"/>
<g opacity="0.1">
<path d="M266.745 330.655L268.005 302.319C268.019 302.186 268.019 302.053 268.005 301.92L255.088 219.695L251.281 221.444L263.972 302.346L262.712 330.655H266.745Z" fill="black"/>
<path d="M274.306 295.538C274.306 295.538 274.306 295.466 274.306 295.43L264.063 215.552L260.229 217.365L270.29 295.928L272.883 330.7H276.925L274.306 295.538Z" fill="black"/>
<path d="M255.343 330.655L258.969 302.999C259 302.794 259 302.586 258.969 302.382L245.145 224.291L241.365 226.031L254.962 302.781L251.336 330.655H255.343Z" fill="black"/>
<path d="M315.423 229.213L311.625 227.654L297.765 299.328C297.724 299.561 297.724 299.801 297.765 300.035L302.75 330.655H306.839L301.772 299.744L301.889 299.155L301.69 298.14L304.727 284.462L315.423 229.213Z" fill="black"/>
<path d="M279.093 222.596L275.068 222.713L278.413 330.655H282.438L279.093 222.596Z" fill="black"/>
<path d="M293.223 299.219L306.612 225.596L302.805 224.028L289.208 298.847C289.163 299.077 289.163 299.315 289.208 299.545L294.52 330.655H298.608L293.223 299.219Z" fill="black"/>
<path d="M285.908 296.717L296.088 221.272L292.236 219.695L281.884 296.427C281.862 296.589 281.862 296.754 281.884 296.916L285.637 330.655H289.688L285.908 296.717Z" fill="black"/>
</g>
<path d="M266.446 214.456L233.568 229.603L251.099 300.732L245.515 330.655H307.889L301.716 298.14L316.854 229.802L282.381 215.652L266.446 214.456Z" stroke="#263238" stroke-width="0.90646" stroke-linecap="round" stroke-linejoin="round"/>
<path d="M233.569 229.603L207.672 285.685L224.206 289.175L242.933 265.861L233.569 229.603Z" fill="#28C79E"/>
<g opacity="0.1">
<path d="M240.376 255.962L222.338 288.785L224.205 289.175L228.52 283.8L241.473 260.232L240.376 255.962Z" fill="black"/>
<path d="M238.752 249.69L237.574 245.121L217.441 287.752L220.478 288.395L238.752 249.69Z" fill="black"/>
<path d="M210.869 286.356L213.906 287L236.178 239.71L234.99 235.123L210.869 286.356Z" fill="black"/>
</g>
<path d="M232.886 238.939L242.023 263.459L232.85 249.418" stroke="#263238" stroke-width="0.90646" stroke-miterlimit="10"/>
<path d="M233.569 229.603L207.672 285.685L224.206 289.175L242.933 265.861L233.569 229.603Z" stroke="#263238" stroke-width="0.90646" stroke-linecap="round" stroke-linejoin="round"/>
<path d="M225.392 280.809L258.07 318.073L251.724 325.243L210.544 292.447C210.544 292.447 204.897 289.728 208.287 284.199" fill="#28C79E"/>
<g opacity="0.1">
<path d="M254.641 320.666L257.705 318.046L241.225 298.865L225.389 280.809L221.129 281.652L254.641 320.666Z" fill="black"/>
<path d="M248.114 322.388L250.842 324.563L253.407 322.306L218.164 282.241L213.596 283.138L248.114 322.388Z" fill="black"/>
</g>
<path d="M225.392 280.809L258.07 318.073L251.724 325.243L210.544 292.447C210.544 292.447 204.897 289.728 208.287 284.199" stroke="#263238" stroke-width="0.90646" stroke-linecap="round" stroke-linejoin="round"/>
<path d="M252.823 316.668C253.729 316.16 269.492 312.39 269.71 314.32C269.928 316.251 274.623 318.381 276.762 318.381C278.901 318.381 281.041 316.668 281.467 319.233C281.893 321.799 279.545 322.016 277.623 322.225C275.702 322.433 269.066 320.303 269.066 320.303C269.066 320.303 262.866 325.433 260.301 326.712C257.736 327.99 253.049 327.618 251.327 326.286C249.605 324.953 247.275 319.659 252.823 316.668Z" fill="white" stroke="#263238" stroke-width="0.90646" stroke-linecap="round" stroke-linejoin="round"/>
<path d="M267.369 314.103C267.369 314.103 273.352 312.39 274.621 313.033C275.89 313.677 276.552 326.503 276.552 326.503C276.552 326.503 275.908 327.781 274.621 326.503C273.334 325.225 269.064 315.626 269.064 315.626" fill="white"/>
<path d="M267.369 314.103C267.369 314.103 273.352 312.39 274.621 313.033C275.89 313.677 276.552 326.503 276.552 326.503C276.552 326.503 275.908 327.781 274.621 326.503C273.334 325.225 269.064 315.626 269.064 315.626" stroke="#263238" stroke-width="0.90646" stroke-linecap="round" stroke-linejoin="round"/>
<path d="M264.37 314.529C264.37 314.529 270.57 313.033 271.857 315.381C273.144 317.729 276.344 328.207 273.779 328.642C271.213 329.077 270.361 325.642 270.361 325.642L266.3 318.164L263.518 317.738" fill="white"/>
<path d="M264.37 314.529C264.37 314.529 270.57 313.033 271.857 315.381C273.144 317.729 276.344 328.207 273.779 328.642C271.213 329.077 270.361 325.642 270.361 325.642L266.3 318.164L263.518 317.738" stroke="#263238" stroke-width="0.90646" stroke-linecap="round" stroke-linejoin="round"/>
<path d="M262.238 316.451C262.238 316.451 265.23 315.172 266.725 316.242C268.221 317.312 275.065 328.207 273.777 328.642C272.49 329.078 269.499 328.851 269.073 327.999C268.647 327.147 263.09 319.841 263.09 319.841" fill="white"/>
<path d="M262.238 316.451C262.238 316.451 265.23 315.172 266.725 316.242C268.221 317.312 275.065 328.207 273.777 328.642C272.49 329.078 269.499 328.851 269.073 327.999C268.647 327.147 263.09 319.841 263.09 319.841" stroke="#263238" stroke-width="0.90646" stroke-linecap="round" stroke-linejoin="round"/>
<path d="M260.072 320.085C260.072 320.085 262.846 317.52 264.342 318.381C265.837 319.242 272.038 327.355 270.759 328.207C269.481 329.059 268.62 328.207 267.342 326.503C266.425 325.354 265.344 324.346 264.133 323.512L261.568 324.364" fill="white"/>
<path d="M260.072 320.085C260.072 320.085 262.846 317.52 264.342 318.381C265.837 319.242 272.038 327.355 270.759 328.207C269.481 329.059 268.62 328.207 267.342 326.503C266.425 325.354 265.344 324.346 264.133 323.512L261.568 324.364" stroke="#263238" stroke-width="0.90646" stroke-linecap="round" stroke-linejoin="round"/>
<path d="M323.235 282.005L312.357 319.016L320.225 324.509L338.001 295.937C338.001 295.937 345.307 287.689 340.721 283.048" fill="#28C79E"/>
<g opacity="0.1">
<path d="M320.474 324.065L320.61 323.838L335.667 282.748L331.461 282.494L316.912 322.216L318.544 323.349L320.474 324.065Z" fill="black"/>
<path d="M312.379 319.043L315.796 321.436L329.846 282.513L329.457 282.377L325.695 282.15L312.379 319.043Z" fill="black"/>
<path d="M341.964 285.214C341.723 284.395 341.28 283.65 340.677 283.047L338.519 282.921L327.152 313.369L337.957 295.983L341.964 285.214Z" fill="black"/>
</g>
<path d="M323.235 282.005L312.357 319.016L320.225 324.509L338.001 295.937C338.001 295.937 345.307 287.689 340.721 283.048" stroke="#263238" stroke-width="0.90646" stroke-linecap="round" stroke-linejoin="round"/>
<path d="M317.831 316.668C316.925 316.16 301.153 312.39 300.944 314.32C300.736 316.251 296.022 318.381 293.892 318.381C291.762 318.381 289.613 316.668 289.187 319.233C288.761 321.799 291.109 322.016 293.031 322.225C294.952 322.433 301.588 320.303 301.588 320.303C301.588 320.303 307.788 325.433 310.353 326.712C312.918 327.99 317.605 327.618 319.327 326.286C321.049 324.953 323.388 319.659 317.831 316.668Z" fill="white" stroke="#263238" stroke-width="0.90646" stroke-linecap="round" stroke-linejoin="round"/>
<path d="M303.293 314.103C303.293 314.103 297.31 312.39 296.041 313.033C294.772 313.677 294.119 326.503 294.119 326.503C294.119 326.503 294.763 327.781 296.041 326.503C297.319 325.225 301.607 315.626 301.607 315.626" fill="white"/>
<path d="M303.293 314.103C303.293 314.103 297.31 312.39 296.041 313.033C294.772 313.677 294.119 326.503 294.119 326.503C294.119 326.503 294.763 327.781 296.041 326.503C297.319 325.225 301.607 315.626 301.607 315.626" stroke="#263238" stroke-width="0.90646" stroke-linecap="round" stroke-linejoin="round"/>
<path d="M306.302 314.529C306.302 314.529 300.111 313.033 298.824 315.381C297.536 317.729 294.291 328.207 296.902 328.642C299.512 329.077 300.319 325.642 300.319 325.642L304.38 318.164L307.163 317.738" fill="white"/>
<path d="M306.302 314.529C306.302 314.529 300.111 313.033 298.824 315.381C297.536 317.729 294.291 328.207 296.902 328.642C299.512 329.077 300.319 325.642 300.319 325.642L304.38 318.164L307.163 317.738" stroke="#263238" stroke-width="0.90646" stroke-linecap="round" stroke-linejoin="round"/>
<path d="M308.422 316.451C308.422 316.451 305.431 315.172 303.935 316.242C302.44 317.312 295.596 328.207 296.883 328.642C298.17 329.078 301.152 328.851 301.587 327.999C302.023 327.147 307.57 319.841 307.57 319.841" fill="white"/>
<path d="M308.422 316.451C308.422 316.451 305.431 315.172 303.935 316.242C302.44 317.312 295.596 328.207 296.883 328.642C298.17 329.078 301.152 328.851 301.587 327.999C302.023 327.147 307.57 319.841 307.57 319.841" stroke="#263238" stroke-width="0.90646" stroke-linecap="round" stroke-linejoin="round"/>
<path d="M310.562 320.085C310.562 320.085 307.788 317.511 306.302 318.418C304.815 319.324 298.606 327.391 299.893 328.244C301.18 329.096 302.032 328.244 303.311 326.539C304.227 325.39 305.309 324.382 306.519 323.548L309.085 324.4" fill="white"/>
<path d="M310.562 320.085C310.562 320.085 307.788 317.511 306.302 318.418C304.815 319.324 298.606 327.391 299.893 328.244C301.18 329.096 302.032 328.244 303.311 326.539C304.227 325.39 305.309 324.382 306.519 323.548L309.085 324.4" stroke="#263238" stroke-width="0.90646" stroke-linecap="round" stroke-linejoin="round"/>
<path d="M268.831 210.667C268.831 210.667 263.655 212.262 261.461 215.453C259.268 218.643 261.86 243.344 261.86 243.344L278.403 234.18L295.735 245.139C295.735 245.139 294.139 219.84 292.743 216.25C291.347 212.661 282.582 208.482 279.591 208.881C276.599 209.28 268.831 210.667 268.831 210.667Z" fill="#28C79E" stroke="#263238" stroke-width="0.90646" stroke-linecap="round" stroke-linejoin="round"/>
<path d="M266.445 196.925V219.84L277.404 249.327L286.768 219.242V196.725L266.445 196.925Z" fill="white" stroke="#263238" stroke-width="0.90646" stroke-linecap="round" stroke-linejoin="round"/>
<path d="M266.418 205.155C269.511 207.326 273.199 208.488 276.978 208.482C280.432 208.485 283.817 207.511 286.741 205.672V196.725L266.418 196.952V205.155Z" fill="#263238" stroke="#263238" stroke-width="0.90646" stroke-linecap="round" stroke-linejoin="round"/>
<path d="M277.004 203.297C272.108 203.297 267.413 201.353 263.951 197.892C260.488 194.431 258.542 189.737 258.539 184.842L255.285 158.881C255.285 153.111 257.577 147.577 261.657 143.498C265.737 139.418 271.27 137.126 277.04 137.126C282.81 137.126 288.343 139.418 292.423 143.498C296.503 147.577 298.795 153.111 298.795 158.881L295.423 184.805C295.428 187.229 294.955 189.63 294.032 191.871C293.109 194.112 291.754 196.149 290.043 197.866C288.333 199.583 286.301 200.947 284.064 201.878C281.826 202.81 279.428 203.292 277.004 203.297Z" fill="white" stroke="#263238" stroke-width="0.90646" stroke-linecap="round" stroke-linejoin="round"/>
<path d="M281.748 177.735C281.748 177.735 286.453 173.792 292.073 178.043" stroke="#263238" stroke-width="0.90646" stroke-linecap="round" stroke-linejoin="round"/>
<path d="M273.246 177.282C271.848 176.392 270.185 176.017 268.541 176.221" stroke="#263238" stroke-width="0.90646" stroke-linecap="round" stroke-linejoin="round"/>
<path d="M283.57 168.326C283.57 168.326 288.583 165.897 291.62 170.601" stroke="#263238" stroke-width="0.90646" stroke-linecap="round" stroke-linejoin="round"/>
<path d="M275.48 188.214C275.48 188.214 277.611 189.882 279.433 188.214" stroke="#263238" stroke-width="0.90646" stroke-linecap="round" stroke-linejoin="round"/>
<path d="M273.398 191.858C273.398 191.858 277.804 194.577 280.378 191.858" stroke="#263238" stroke-width="0.90646" stroke-linecap="round" stroke-linejoin="round"/>
<path d="M286.288 156.161C286.288 156.161 268.087 172.967 263.01 185.213C257.934 197.459 262.485 210.25 265.286 213.93C268.087 217.61 269.818 218.127 269.818 218.127C269.818 218.127 260.191 221.807 253.891 212.18C247.592 202.554 249.16 191.694 251.09 184.171C253.021 176.647 252.486 154.584 256.865 147.233C261.243 139.881 267.543 134.451 278.049 135.675C288.554 136.899 294.147 142.329 297.474 149.154C300.801 155.98 299.223 167.537 300.275 172.613C301.326 177.69 305.877 192.918 306.928 202.019C307.98 211.12 295.57 217.601 293.612 218.48C292.282 219.04 290.859 219.347 289.416 219.387C289.416 219.387 293.612 198.384 294.492 186.301C295.371 174.218 295.425 167.039 295.425 167.039C295.425 167.039 287.168 156.687 286.288 156.161Z" fill="#263238"/>
<path d="M284.159 144.377C284.159 144.377 282.011 150.296 266.556 167.256C251.101 184.216 246.904 200.396 251.599 216.205" stroke="#707070" stroke-width="0.90646" stroke-miterlimit="10"/>
<path d="M280.344 138.467C280.344 138.467 271.841 145.51 261.308 156.062C254.834 162.593 249.305 169.998 244.883 178.061" stroke="#707070" stroke-width="0.90646" stroke-miterlimit="10"/>
<path d="M287.963 145.8C287.963 145.8 294.417 157.53 297.934 164.573C301.451 171.616 305.566 211.201 293.248 225.306" stroke="#707070" stroke-width="0.90646" stroke-miterlimit="10"/>
<path d="M283.568 136.119L286.288 156.161" stroke="#707070" stroke-width="0.90646" stroke-miterlimit="10"/>
<path d="M286.288 156.161C286.288 156.161 268.087 172.967 263.01 185.213C257.934 197.459 262.485 210.25 265.286 213.93C268.087 217.61 269.818 218.127 269.818 218.127C269.818 218.127 260.191 221.807 253.891 212.18C247.592 202.554 249.16 191.694 251.09 184.171C253.021 176.647 252.486 154.584 256.865 147.233C261.243 139.881 267.543 134.451 278.049 135.675C288.554 136.899 294.147 142.329 297.474 149.154C300.801 155.98 299.223 167.537 300.275 172.613C301.326 177.69 305.877 192.918 306.928 202.019C307.98 211.12 295.57 217.601 293.612 218.48C292.282 219.04 290.859 219.347 289.416 219.387C289.416 219.387 293.612 198.384 294.492 186.301C295.371 174.218 295.425 167.039 295.425 167.039C295.425 167.039 287.168 156.687 286.288 156.161Z" stroke="#263238" stroke-width="0.90646" stroke-linecap="round" stroke-linejoin="round"/>
<path d="M253.491 167.891H250.808C249.326 167.891 248.125 169.092 248.125 170.574V181.315C248.125 182.797 249.326 183.999 250.808 183.999H253.491C254.973 183.999 256.174 182.797 256.174 181.315V170.574C256.174 169.092 254.973 167.891 253.491 167.891Z" fill="white" stroke="#263238" stroke-width="0.90646" stroke-linecap="round" stroke-linejoin="round"/>
<path d="M302.687 167.891H300.003C298.522 167.891 297.32 169.092 297.32 170.574V181.315C297.32 182.797 298.522 183.999 300.003 183.999H302.687C304.168 183.999 305.37 182.797 305.37 181.315V170.574C305.37 169.092 304.168 167.891 302.687 167.891Z" fill="white" stroke="#263238" stroke-width="0.90646" stroke-linecap="round" stroke-linejoin="round"/>
<path d="M302.043 167.891V159.134C302.043 152.357 299.351 145.858 294.559 141.066C289.767 136.273 283.267 133.581 276.49 133.581C269.712 133.581 263.211 136.273 258.418 141.065C253.624 145.857 250.93 152.356 250.928 159.134V167.891" stroke="#263238" stroke-width="1.81292" stroke-linejoin="round"/>
<path d="M301.347 183.917C301.347 183.917 300.214 192.682 289.49 196.254" stroke="#263238" stroke-width="0.90646" stroke-linecap="round" stroke-linejoin="round"/>
<path d="M289.081 195.873C289.534 197.188 288.256 198.819 286.217 199.499C284.177 200.179 282.174 199.717 281.685 198.402C281.195 197.088 282.509 195.456 284.54 194.776C286.57 194.097 288.655 194.559 289.081 195.873Z" stroke="#263238" stroke-width="0.90646" stroke-linecap="round" stroke-linejoin="round"/>
<path d="M105.609 207.177L68.1543 225.025L78.9593 330.872H153.624L164.185 223.267L128.987 206.923L105.609 207.177Z" fill="#28C79E" stroke="#263238" stroke-width="0.90646" stroke-linecap="round" stroke-linejoin="round"/>
<path d="M120.623 239.474C121.323 239.474 121.892 238.906 121.892 238.205C121.892 237.504 121.323 236.936 120.623 236.936C119.922 236.936 119.354 237.504 119.354 238.205C119.354 238.906 119.922 239.474 120.623 239.474Z" fill="#263238"/>
<path d="M121.892 245.819C121.892 246.07 121.817 246.316 121.678 246.524C121.538 246.733 121.34 246.896 121.108 246.992C120.876 247.088 120.621 247.113 120.375 247.064C120.129 247.015 119.903 246.894 119.725 246.717C119.548 246.539 119.427 246.313 119.378 246.067C119.329 245.821 119.354 245.565 119.45 245.334C119.546 245.102 119.709 244.903 119.918 244.764C120.126 244.625 120.372 244.55 120.623 244.55C120.959 244.55 121.282 244.684 121.52 244.922C121.758 245.16 121.892 245.483 121.892 245.819Z" fill="#263238"/>
<path d="M133.61 212.579L123.376 223.992L119.007 235.078L114.303 223.829L104.404 212.579V192.601H133.61V212.579Z" fill="white" stroke="#263238" stroke-width="0.90646" stroke-linecap="round" stroke-linejoin="round"/>
<path d="M104.404 201.484C106.331 203.826 108.753 205.712 111.496 207.005C114.239 208.298 117.235 208.967 120.267 208.963C125.162 208.969 129.896 207.219 133.61 204.031V192.601H104.404V201.484Z" fill="#263238" stroke="#263238" stroke-width="0.90646" stroke-linecap="round" stroke-linejoin="round"/>
<path d="M122.324 136.691H118.209C107.986 136.691 99.6992 144.978 99.6992 155.2V184.833C99.6992 195.055 107.986 203.343 118.209 203.343H122.324C132.547 203.343 140.834 195.055 140.834 184.833V155.2C140.834 144.978 132.547 136.691 122.324 136.691Z" fill="white" stroke="#263238" stroke-width="0.90646" stroke-linecap="round" stroke-linejoin="round"/>
<path d="M124.209 166.241L123.601 180.808C123.59 181.439 123.384 182.052 123.013 182.562C122.642 183.073 122.122 183.457 121.526 183.663C120.429 183.999 119.178 183.663 118.498 181.189" stroke="#263238" stroke-width="0.90646" stroke-linecap="round" stroke-linejoin="round"/>
<path d="M112.318 186.555H128.635C128.635 186.555 125.779 192.773 120.241 192.773C114.702 192.773 112.318 186.555 112.318 186.555Z" fill="#263238" stroke="#263238" stroke-width="0.90646" stroke-linecap="round" stroke-linejoin="round"/>
<path d="M113.479 188.74H127.221C127.743 188.057 128.198 187.325 128.58 186.555H112.318C112.628 187.321 113.017 188.054 113.479 188.74Z" fill="white" stroke="#263238" stroke-width="0.90646" stroke-linecap="round" stroke-linejoin="round"/>
<path d="M112.128 172.795C112.778 172.795 113.306 171.553 113.306 170.021C113.306 168.489 112.778 167.247 112.128 167.247C111.477 167.247 110.949 168.489 110.949 170.021C110.949 171.553 111.477 172.795 112.128 172.795Z" fill="#263238"/>
<path d="M129.751 172.795C130.401 172.795 130.929 171.553 130.929 170.021C130.929 168.489 130.401 167.247 129.751 167.247C129.1 167.247 128.572 168.489 128.572 170.021C128.572 171.553 129.1 172.795 129.751 172.795Z" fill="#263238"/>
<path d="M126.061 162.715C126.061 162.715 130.085 160.195 134.627 164.229" stroke="#263238" stroke-width="0.90646" stroke-linecap="round" stroke-linejoin="round"/>
<path d="M120.267 136.691C114.812 136.691 109.58 138.857 105.723 142.715C101.866 146.572 99.6992 151.803 99.6992 157.258V175.995H99.8714H101.548V168.272C101.548 168.272 109.942 168.272 119.85 162.905C129.757 157.539 132.259 148.783 132.259 148.783C132.259 148.783 134.444 159.361 136.792 161.373L139.148 163.386V176.149H140.825V157.258C140.825 151.805 138.66 146.575 134.804 142.718C130.949 138.861 125.72 136.693 120.267 136.691Z" fill="#263238" stroke="#263238" stroke-width="0.90646" stroke-linecap="round" stroke-linejoin="round"/>
<path d="M95.8468 166.078H99.6992V181.352H95.8468C94.8659 181.352 93.9252 180.962 93.2317 180.269C92.5381 179.575 92.1484 178.634 92.1484 177.653V169.758C92.1532 168.781 92.545 167.844 93.2381 167.155C93.9311 166.465 94.8691 166.078 95.8468 166.078Z" fill="white" stroke="#263238" stroke-width="0.90646" stroke-linecap="round" stroke-linejoin="round"/>
<path d="M144.442 181.352H140.59V166.078H144.442C144.928 166.078 145.409 166.174 145.858 166.359C146.306 166.545 146.714 166.818 147.057 167.161C147.401 167.505 147.673 167.912 147.859 168.361C148.045 168.81 148.141 169.291 148.141 169.776V177.672C148.136 178.649 147.744 179.585 147.051 180.275C146.358 180.965 145.42 181.352 144.442 181.352Z" fill="white" stroke="#263238" stroke-width="0.90646" stroke-linecap="round" stroke-linejoin="round"/>
<path d="M96.3438 166.078V156.333C96.3438 150.011 98.8554 143.947 103.326 139.476C107.797 135.005 113.861 132.494 120.184 132.494V132.494C126.506 132.496 132.568 135.008 137.038 139.479C141.509 143.949 144.021 150.011 144.024 156.333V166.078" stroke="#263238" stroke-width="1.81292" stroke-linejoin="round"/>
<path d="M144.042 181.352C144.042 181.352 142.864 190.416 131.787 194.115" stroke="#263238" stroke-width="0.90646" stroke-linecap="round" stroke-linejoin="round"/>
<path d="M131.354 193.716C131.825 195.076 130.502 196.762 128.399 197.496C126.296 198.23 124.211 197.713 123.74 196.354C123.268 194.994 124.592 193.308 126.695 192.574C128.798 191.84 130.91 192.356 131.354 193.716Z" stroke="#263238" stroke-width="0.90646" stroke-linecap="round" stroke-linejoin="round"/>
<path d="M68.1554 225.025L36.4746 292.058L49.5458 303.461L73.1772 273.802L68.1554 225.025Z" fill="#28C79E" stroke="#263238" stroke-width="0.90646" stroke-linecap="round" stroke-linejoin="round"/>
<path d="M65.5526 245.574L73.2484 271.535L64.1113 256.624" stroke="#263238" stroke-width="0.90646" stroke-miterlimit="10"/>
<path d="M164.185 223.266L194.352 290.644L175.752 298.693L159.154 272.043L164.185 223.266Z" fill="#28C79E" stroke="#263238" stroke-width="0.90646" stroke-linecap="round" stroke-linejoin="round"/>
<path d="M53.5695 290.39L80.718 315.78L73.1762 324.582L33.709 300.098L38.2413 288.033" fill="#28C79E"/>
<path d="M53.5695 290.39L80.718 315.78L73.1762 324.582L33.709 300.098L38.2413 288.033" stroke="#263238" stroke-width="0.90646" stroke-linecap="round" stroke-linejoin="round"/>
<path d="M76.1954 314.275C77.3013 313.677 95.8022 309.244 96.056 311.51C96.3098 313.776 101.839 316.287 104.35 316.287C106.861 316.287 109.381 314.275 109.879 317.294C110.378 320.312 107.622 320.557 105.347 320.811C103.072 321.064 95.2946 318.544 95.2946 318.544C95.2946 318.544 88.0429 324.581 84.9881 326.095C81.9333 327.609 76.4402 327.092 74.4278 325.588C72.4155 324.083 69.6599 317.792 76.1954 314.275Z" fill="white" stroke="#263238" stroke-width="0.90646" stroke-linecap="round" stroke-linejoin="round"/>
<path d="M93.2812 311.256C93.2812 311.256 100.324 309.244 101.829 310.006C103.334 310.767 104.095 325.841 104.095 325.841C104.095 325.841 103.334 327.346 101.829 325.841C100.324 324.337 95.3027 312.979 95.3027 312.979" fill="white"/>
<path d="M93.2812 311.256C93.2812 311.256 100.324 309.244 101.829 310.006C103.334 310.767 104.095 325.841 104.095 325.841C104.095 325.841 103.334 327.346 101.829 325.841C100.324 324.337 95.3027 312.979 95.3027 312.979" stroke="#263238" stroke-width="0.90646" stroke-linecap="round" stroke-linejoin="round"/>
<path d="M89.7718 311.764C89.7718 311.764 97.0235 310.006 98.5645 312.77C100.105 315.535 103.849 327.854 100.831 328.352C97.8121 328.851 96.8059 324.835 96.8059 324.835L92.0289 316.034L88.7656 315.535" fill="white"/>
<path d="M89.7718 311.764C89.7718 311.764 97.0235 310.006 98.5645 312.77C100.105 315.535 103.849 327.854 100.831 328.352C97.8121 328.851 96.8059 324.835 96.8059 324.835L92.0289 316.034L88.7656 315.535" stroke="#263238" stroke-width="0.90646" stroke-linecap="round" stroke-linejoin="round"/>
<path d="M87.252 314.021C87.252 314.021 90.7781 312.517 92.5366 313.777C94.2951 315.036 102.345 327.854 100.831 328.389C99.3169 328.923 95.7999 328.642 95.3013 327.636C94.8028 326.63 88.2581 318.082 88.2581 318.082" fill="white"/>
<path d="M87.252 314.021C87.252 314.021 90.7781 312.517 92.5366 313.777C94.2951 315.036 102.345 327.854 100.831 328.389C99.3169 328.923 95.7999 328.642 95.3013 327.636C94.8028 326.63 88.2581 318.082 88.2581 318.082" stroke="#263238" stroke-width="0.90646" stroke-linecap="round" stroke-linejoin="round"/>
<path d="M84.7441 318.3C84.7441 318.3 88.0165 315.281 89.775 316.287C91.5335 317.293 98.8396 326.848 97.3167 327.854C95.7939 328.86 94.7968 327.854 93.292 325.841C92.2151 324.487 90.9445 323.299 89.5212 322.315L86.5027 323.321" fill="white"/>
<path d="M84.7441 318.3C84.7441 318.3 88.0165 315.281 89.775 316.287C91.5335 317.293 98.8396 326.848 97.3167 327.854C95.7939 328.86 94.7968 327.854 93.292 325.841C92.2151 324.487 90.9445 323.299 89.5212 322.315L86.5027 323.321" stroke="#263238" stroke-width="0.90646" stroke-linecap="round" stroke-linejoin="round"/>
<path d="M171.193 283.972L155.275 317.566L165.518 322.977L195.622 291.079L186.983 281.516" fill="#28C79E"/>
<path d="M171.193 283.972L155.275 317.566L165.518 322.977L195.622 291.079L186.983 281.516" stroke="#263238" stroke-width="0.90646" stroke-linecap="round" stroke-linejoin="round"/>
<path d="M163.24 314.275C162.134 313.677 143.624 309.244 143.38 311.51C143.135 313.776 137.596 316.287 135.077 316.287C132.557 316.287 130.055 314.275 129.547 317.294C129.039 320.312 131.813 320.557 134.079 320.811C136.346 321.064 144.132 318.544 144.132 318.544C144.132 318.544 151.384 324.581 154.438 326.095C157.493 327.609 162.986 327.092 164.999 325.588C167.011 324.083 169.776 317.792 163.24 314.275Z" fill="white" stroke="#263238" stroke-width="0.90646" stroke-linecap="round" stroke-linejoin="round"/>
<path d="M146.146 311.256C146.146 311.256 139.103 309.244 137.598 310.006C136.093 310.767 135.332 325.841 135.332 325.841C135.332 325.841 136.084 327.346 137.598 325.841C139.112 324.337 144.134 312.979 144.134 312.979" fill="white"/>
<path d="M146.146 311.256C146.146 311.256 139.103 309.244 137.598 310.006C136.093 310.767 135.332 325.841 135.332 325.841C135.332 325.841 136.084 327.346 137.598 325.841C139.112 324.337 144.134 312.979 144.134 312.979" stroke="#263238" stroke-width="0.90646" stroke-linecap="round" stroke-linejoin="round"/>
<path d="M149.662 311.764C149.662 311.764 142.41 310.006 140.86 312.77C139.31 315.535 135.584 327.854 138.603 328.389C141.621 328.923 142.618 324.872 142.618 324.872L147.395 316.07L150.668 315.571" fill="white"/>
<path d="M149.662 311.764C149.662 311.764 142.41 310.006 140.86 312.77C139.31 315.535 135.584 327.854 138.603 328.389C141.621 328.923 142.618 324.872 142.618 324.872L147.395 316.07L150.668 315.571" stroke="#263238" stroke-width="0.90646" stroke-linecap="round" stroke-linejoin="round"/>
<path d="M152.203 314.021C152.203 314.021 148.686 312.517 146.927 313.777C145.169 315.036 137.092 327.854 138.606 328.389C140.12 328.923 143.628 328.642 144.135 327.636C144.643 326.63 151.169 318.082 151.169 318.082" fill="white"/>
<path d="M152.203 314.021C152.203 314.021 148.686 312.517 146.927 313.777C145.169 315.036 137.092 327.854 138.606 328.389C140.12 328.923 143.628 328.642 144.135 327.636C144.643 326.63 151.169 318.082 151.169 318.082" stroke="#263238" stroke-width="0.90646" stroke-linecap="round" stroke-linejoin="round"/>
<path d="M154.694 318.3C154.694 318.3 151.422 315.281 149.663 316.287C147.905 317.293 140.599 326.848 142.121 327.854C143.644 328.86 144.632 327.854 146.146 325.841C147.223 324.487 148.494 323.299 149.917 322.315L152.935 323.321" fill="white"/>
<path d="M154.694 318.3C154.694 318.3 151.422 315.281 149.663 316.287C147.905 317.293 140.599 326.848 142.121 327.854C143.644 328.86 144.632 327.854 146.146 325.841C147.223 324.487 148.494 323.299 149.917 322.315L152.935 323.321" stroke="#263238" stroke-width="0.90646" stroke-linecap="round" stroke-linejoin="round"/>
<path d="M210.812 98.3381H151.893C149.161 98.3381 146.541 99.4227 144.608 101.354C142.675 103.284 141.588 105.904 141.586 108.636V125.858C141.579 127.215 141.84 128.559 142.353 129.815C142.867 131.07 143.623 132.212 144.579 133.175C145.535 134.137 146.671 134.902 147.923 135.424C149.175 135.947 150.518 136.217 151.874 136.219H159.126L149.237 149.154L171.472 136.219H210.812C212.166 136.216 213.505 135.945 214.754 135.424C216.004 134.903 217.138 134.141 218.092 133.181C219.047 132.222 219.803 131.083 220.318 129.832C220.832 128.58 221.095 127.239 221.092 125.885V108.663C221.096 105.931 220.016 103.309 218.089 101.373C216.162 99.4369 213.544 98.3453 210.812 98.3381Z" fill="white" stroke="#263238" stroke-width="0.90646" stroke-miterlimit="10"/>
<path d="M173.257 118.461C173.259 118.937 173.12 119.402 172.857 119.798C172.594 120.195 172.22 120.504 171.781 120.687C171.342 120.87 170.859 120.919 170.392 120.828C169.926 120.736 169.497 120.508 169.16 120.172C168.823 119.837 168.593 119.409 168.5 118.943C168.407 118.476 168.454 117.993 168.635 117.553C168.817 117.114 169.125 116.738 169.52 116.474C169.915 116.21 170.38 116.068 170.855 116.068C171.491 116.068 172.1 116.32 172.551 116.769C173.001 117.217 173.255 117.826 173.257 118.461Z" fill="#263238"/>
<path d="M183.736 118.461C183.738 118.937 183.598 119.403 183.335 119.799C183.072 120.196 182.696 120.505 182.257 120.688C181.818 120.871 181.334 120.919 180.867 120.827C180.401 120.735 179.972 120.506 179.635 120.169C179.299 119.833 179.07 119.404 178.977 118.937C178.885 118.47 178.933 117.986 179.116 117.547C179.299 117.108 179.608 116.733 180.005 116.469C180.401 116.206 180.867 116.067 181.343 116.068C181.977 116.068 182.586 116.321 183.035 116.769C183.484 117.218 183.736 117.827 183.736 118.461Z" fill="#263238"/>
<path d="M194.212 118.461C194.212 118.935 194.072 119.397 193.809 119.791C193.546 120.185 193.172 120.491 192.735 120.672C192.297 120.853 191.816 120.901 191.352 120.809C190.888 120.716 190.461 120.488 190.127 120.154C189.792 119.819 189.564 119.393 189.472 118.928C189.379 118.464 189.427 117.983 189.608 117.546C189.789 117.108 190.096 116.735 190.489 116.472C190.883 116.209 191.346 116.068 191.819 116.068C192.454 116.068 193.062 116.321 193.511 116.769C193.96 117.218 194.212 117.827 194.212 118.461Z" fill="#263238"/>
<path d="M331.182 328.144H221.373V332.576H331.182V328.144Z" fill="white" stroke="#263238" stroke-width="0.90646" stroke-linecap="round" stroke-linejoin="round"/>
<path d="M348.051 328.144H252.338V332.576H348.051V328.144Z" fill="white" stroke="#263238" stroke-width="0.90646" stroke-linecap="round" stroke-linejoin="round"/>
<path d="M349.908 320.267H258.338L268.209 250.352H359.78L349.908 320.267Z" fill="white" stroke="#263238" stroke-width="0.90646" stroke-linecap="round" stroke-linejoin="round"/>
<path d="M353.701 320.267H262.131L272.002 250.352H363.573L353.701 320.267Z" fill="#263238" stroke="#263238" stroke-width="0.90646" stroke-linecap="round" stroke-linejoin="round"/>
<path d="M325.634 287.77L334.826 332.567H311.194L302.012 287.77H325.634ZM309.608 301.068C309.653 301.25 309.758 301.412 309.906 301.527C310.054 301.642 310.236 301.704 310.424 301.702L323.812 301.576C323.938 301.574 324.061 301.544 324.173 301.487C324.285 301.431 324.384 301.351 324.46 301.251C324.537 301.152 324.59 301.037 324.616 300.914C324.642 300.791 324.64 300.664 324.61 300.542L323.404 295.52C323.36 295.337 323.255 295.175 323.107 295.058C322.959 294.941 322.777 294.878 322.588 294.877L309.2 295.004C309.074 295.006 308.951 295.036 308.838 295.092C308.726 295.148 308.627 295.229 308.55 295.328C308.473 295.427 308.418 295.542 308.391 295.665C308.364 295.787 308.365 295.915 308.393 296.037L309.608 301.068Z" fill="white" stroke="#263238" stroke-width="0.90646" stroke-linecap="round" stroke-linejoin="round"/>
<path d="M168.768 328.144H58.959V332.577H168.768V328.144Z" fill="white" stroke="#263238" stroke-width="0.90646" stroke-linecap="round" stroke-linejoin="round"/>
<path d="M185.637 328.144H89.9238V332.577H185.637V328.144Z" fill="white" stroke="#263238" stroke-width="0.90646" stroke-linecap="round" stroke-linejoin="round"/>
<path d="M187.494 320.267H95.9238L105.795 250.352H197.366L187.494 320.267Z" fill="white" stroke="#263238" stroke-width="0.90646" stroke-linecap="round" stroke-linejoin="round"/>
<path d="M191.287 320.267H99.7168L109.588 250.352H201.159L191.287 320.267Z" fill="#263238" stroke="#263238" stroke-width="0.90646" stroke-linecap="round" stroke-linejoin="round"/>
<path d="M163.229 287.77L172.411 332.567H148.78L139.598 287.77H163.229ZM147.194 301.068C147.24 301.249 147.345 301.41 147.493 301.525C147.641 301.64 147.822 301.702 148.01 301.703L161.398 301.576C161.524 301.573 161.647 301.543 161.76 301.487C161.872 301.431 161.971 301.351 162.048 301.252C162.125 301.152 162.18 301.037 162.207 300.915C162.234 300.792 162.233 300.665 162.205 300.542L160.99 295.52C160.947 295.337 160.843 295.173 160.695 295.056C160.547 294.939 160.363 294.876 160.174 294.877L146.786 295.004C146.66 295.006 146.537 295.036 146.425 295.092C146.313 295.148 146.214 295.229 146.138 295.328C146.061 295.427 146.008 295.543 145.982 295.666C145.956 295.788 145.958 295.915 145.988 296.037L147.194 301.068Z" fill="white" stroke="#263238" stroke-width="0.90646" stroke-linecap="round" stroke-linejoin="round"/>
<path d="M393.092 332.567H2.48047V336.955H393.092V332.567Z" fill="#263238" stroke="#263238" stroke-width="0.90646" stroke-linecap="round" stroke-linejoin="round"/>
</svg>
