<svg width="40" height="40" viewBox="0 0 40 40" fill="none" xmlns="http://www.w3.org/2000/svg">
<path d="M38.5469 3.96875C38.4453 4.03907 37.7812 5.03125 37.3984 5.67188C36.75 6.75782 36.0781 8.48438 35.7812 9.82032C35.4453 11.3125 35.3906 12.125 35.3906 15.8906C35.3906 19.3906 35.3906 19.4766 35.5547 19.7656C35.7812 20.1641 36.2031 20.3906 36.7109 20.3906C36.9297 20.3906 37.1094 20.4063 37.1094 20.4219C37.1094 20.4297 37.0391 21.25 36.9531 22.2344C36.6797 25.4766 36.3281 31.4141 36.3125 33.2031C36.3047 34.0313 36.3359 34.3438 36.4453 34.6406C36.7734 35.5859 37.3594 36.0938 38.1172 36.0938C38.6875 36.0938 39.1719 35.8594 39.4844 35.4141C39.9062 34.8125 39.9922 34.4609 40 33.2422C40 31.6016 39.6875 26.1172 39.375 22.4297C39.2344 20.7578 39.2188 19.8984 39.2188 12.4063C39.2188 6.90625 39.1953 4.15625 39.1406 4.05469C39.0547 3.90625 38.7109 3.85157 38.5469 3.96875Z" fill="#28C79E"/>
<path d="M0.765977 5.39844C0.687852 5.4375 0.594102 5.53907 0.55504 5.61719C0.445665 5.8125 -0.0230851 13.4531 0.0159774 14.3828C0.0394149 15.0625 0.0706649 15.1875 0.328477 15.7188C0.61754 16.2969 0.812852 16.5156 1.87535 17.4219C2.6566 18.0859 2.68785 18.2813 2.38316 21.5781C2.04723 25.2656 1.71129 30.9531 1.68785 33.125C1.68004 34.3828 1.68785 34.4219 1.89879 34.8828C2.2816 35.7031 2.80504 36.0938 3.52379 36.0938C4.02379 36.0938 4.36754 35.9297 4.72691 35.5313C5.13316 35.0859 5.32066 34.5938 5.36754 33.8672C5.43785 32.7656 4.96129 24.7109 4.60973 20.9766C4.33629 18.0469 4.30504 18.1563 5.88316 16.7734C6.2816 16.4219 6.46129 16.1953 6.68004 15.7578C7.11754 14.8516 7.12535 14.7422 6.82848 9.96094L6.56285 5.66407L6.36754 5.48438C6.04723 5.21094 5.57848 5.28125 5.38316 5.63282C5.32066 5.75 5.3441 6.69532 5.47691 9.25782C5.63316 12.5 5.64098 12.7422 5.51598 12.9219C5.2816 13.2813 4.73473 13.2891 4.50816 12.9375C4.39879 12.7813 4.36754 12.2344 4.29723 9.4375C4.25035 7.625 4.19566 6.02344 4.17223 5.88282C4.0941 5.36719 3.47691 5.14844 3.07848 5.49219C2.82848 5.71094 2.85191 5.42969 2.73473 9.875C2.68004 12.2578 2.64098 12.7813 2.53941 12.9375C2.29723 13.3047 1.72691 13.2813 1.52379 12.8906C1.41441 12.6719 1.41441 12.3672 1.56285 9.5C1.75816 5.52344 1.76598 5.74219 1.52379 5.50782C1.32848 5.30469 1.00035 5.25782 0.765977 5.39844Z" fill="#28C79E"/>
<path d="M19.7266 6.01562C14.1875 6.39843 9.53906 10.1016 7.9375 15.4219C7.53125 16.7422 7.39844 17.6875 7.39844 19.2578C7.39844 20.8203 7.53125 21.7734 7.92969 23.0937C9.26562 27.5 12.75 30.8672 17.2656 32.1016C19.2578 32.6406 21.8672 32.6484 24 32.1016C27.1953 31.2969 30.2031 29.0625 31.9375 26.2266C33.2031 24.1719 33.7969 22.1562 33.8828 19.6484C33.9297 18.3047 33.8203 17.2187 33.5078 15.9766C32.6797 12.6562 30.4453 9.65624 27.5 7.88281C25.1953 6.49218 22.4297 5.83593 19.7266 6.01562ZM22.3828 9.42187C25.4922 9.92968 28.3672 12.1562 29.7187 15.0781C31.0781 18.0547 30.9062 21.5547 29.25 24.3203C28 26.3984 26.0859 27.9531 23.7891 28.7344C21.8437 29.3984 19.4297 29.3984 17.4687 28.7344C14.5156 27.7344 12.1484 25.3672 11.1719 22.4375C10.7812 21.2656 10.6719 20.5469 10.6719 19.2578C10.6719 17.0625 11.3203 15.0625 12.5859 13.3594C14.8906 10.25 18.5156 8.78906 22.3828 9.42187Z" fill="#28C79E"/>
<path d="M19.4297 11.9532C16.6328 12.422 14.2891 14.5391 13.5 17.3048C13.3438 17.8438 13.3203 18.1095 13.3203 19.2579C13.3203 20.8048 13.4375 21.3438 14.0234 22.5391C14.7344 23.9766 15.8984 25.1329 17.3672 25.8595C18.5625 26.4454 19.1719 26.586 20.5859 26.5938C21.8594 26.6016 22.4453 26.5001 23.4531 26.0938C26.9062 24.6954 28.7891 20.7657 27.7266 17.172C26.9375 14.4766 24.7109 12.4845 21.9531 11.9845C21.3125 11.8673 20.0234 11.8595 19.4297 11.9532Z" fill="#28C79E"/>
</svg>
