<svg width="40" height="40" viewBox="0 0 40 40" fill="none" xmlns="http://www.w3.org/2000/svg">
<path d="M19.0852 6C17.2727 6.64844 16.6008 8.8125 17.7336 10.375L17.9602 10.6953L17.7493 10.7344C17.6321 10.7578 17.3118 10.8125 17.0305 10.8594C12.7336 11.5781 8.59302 14.3359 6.04615 18.1641C4.5774 20.3594 3.61646 22.8984 3.23365 25.5469C3.10083 26.4687 2.99146 29.0781 3.0774 29.4062L3.12427 29.6094L4.67115 29.5937L6.21021 29.5703L6.2649 28.8672C6.35865 27.6328 6.48365 26.7891 6.7649 25.4062C7.60084 21.3125 9.14771 18.2578 11.5774 15.8906C12.8665 14.6406 14.1243 13.75 15.843 12.8906C16.593 12.5078 17.8196 12.0078 17.8665 12.0625C17.8821 12.0703 17.5461 12.3437 17.1321 12.6641C13.4602 15.4531 11.429 18.1172 10.0696 21.9062C9.50709 23.4687 9.00709 25.7891 8.78834 27.8516C8.72584 28.4531 8.65552 29.0937 8.63209 29.2812L8.58521 29.6094H22.7258H36.8665L36.9212 29.2422C36.9993 28.7266 36.9055 26.5391 36.7649 25.5469C35.9446 19.8125 32.429 14.8594 27.3587 12.3125C26.0461 11.6562 24.2336 11.0469 22.9836 10.8594C22.6946 10.8125 22.3665 10.7578 22.2571 10.7344L22.0461 10.6953L22.304 10.3125C22.6946 9.72656 22.8352 9.23437 22.7961 8.53125C22.7415 7.46094 22.1399 6.54687 21.1868 6.10937C20.593 5.83594 19.6711 5.78906 19.0852 6Z" fill="#28C79E"/>
<path d="M0 32.3438V34.1406H20H40V32.3438V30.5469H20H0V32.3438Z" fill="#28C79E"/>
</svg>
