<svg width="40" height="40" viewBox="0 0 40 40" fill="none" xmlns="http://www.w3.org/2000/svg">
<g clip-path="url(#clip0_257_2637)">
<path d="M9.89022 0.148438C9.42147 0.460938 9.3746 0.617188 9.3746 2V3.26562L8.96835 3.39844C8.21053 3.64062 7.5621 4.05469 6.86678 4.76562C5.44491 6.19531 5.03866 7.85938 5.97616 8.4375C6.22616 8.59375 6.39803 8.59375 13.6715 8.59375C20.9449 8.59375 21.1168 8.59375 21.3668 8.4375C21.9996 8.04688 22.0387 7.27344 21.4918 6.14062C20.9058 4.92969 19.6168 3.79688 18.3824 3.39844L17.9683 3.26562V2C17.9683 0.617188 17.9215 0.460938 17.4527 0.148438C17.2418 0.0078125 17.023 0 13.6715 0C10.3199 0 10.1012 0.0078125 9.89022 0.148438Z" fill="#28C79E"/>
<path d="M0.890625 5.46094C0.578125 5.53906 0.328125 5.71875 0.148438 5.99219C0.0078125 6.20312 0 6.78906 0 22.7344C0 38.7891 0.0078125 39.2656 0.148438 39.4844C0.226562 39.6016 0.398438 39.7734 0.515625 39.8516C0.734375 39.9922 1.09375 40 11.7031 40H22.6719L21.9609 39.25C19.8047 36.9766 18.2578 34.2266 17.3672 31.1016C17.0938 30.1484 17.0859 30.0781 17.0781 28.7891C17.0781 27.2969 17.1875 26.6641 17.6797 25.4531C18.7422 22.8203 21.1406 20.6875 23.7344 20.0781C24.125 19.9844 24.1406 19.9766 24.1406 19.7188C24.1406 18.875 24.625 17.7891 25.2656 17.2031C25.7344 16.7812 26.375 16.4453 26.9453 16.3203L27.3438 16.2344V11.2344C27.3438 6.42188 27.3359 6.21875 27.1953 5.98438C26.8828 5.49219 26.6797 5.42969 25.0859 5.40625C23.7109 5.375 23.6484 5.38281 23.7031 5.52344C24.0781 6.47656 24.1562 6.85156 24.125 7.57812C24.1016 8.21094 24.0625 8.39844 23.8516 8.85156C23.3438 9.92969 22.3047 10.6953 21.1328 10.8594C20.3906 10.9609 6.9375 10.9609 6.21094 10.8594C5.03125 10.6875 4.04688 9.96875 3.53125 8.90625C3.28125 8.38281 3.24219 8.23438 3.21875 7.57812C3.1875 6.85156 3.26562 6.47656 3.63281 5.52344C3.6875 5.39844 3.60156 5.39062 2.41406 5.39844C1.71094 5.40625 1.02344 5.42969 0.890625 5.46094ZM15.7656 12.6797C16.5 13.0781 16.5234 14.1484 15.8125 14.6172C15.5938 14.7578 15.3516 14.7656 10.5469 14.7656C5.74219 14.7656 5.5 14.7578 5.28125 14.6172C5.16406 14.5391 4.99219 14.3672 4.91406 14.25C4.65625 13.8516 4.75781 13.1094 5.10938 12.8203C5.47656 12.5156 5.65625 12.5 10.6641 12.5234C15.1641 12.5391 15.5234 12.5469 15.7656 12.6797ZM22.0156 12.6797C22.75 13.0781 22.7734 14.1484 22.0625 14.6172C21.8672 14.7422 21.6797 14.7656 20.7031 14.7656C19.4609 14.7656 19.2812 14.7109 18.9766 14.25C18.7188 13.8516 18.8203 13.1094 19.1719 12.8203C19.4688 12.5703 19.8828 12.5 20.8203 12.5234C21.5312 12.5391 21.8203 12.5781 22.0156 12.6797ZM15.7656 17.3672C16.5 17.7656 16.5234 18.8359 15.8125 19.3047C15.5938 19.4453 15.3516 19.4531 10.5469 19.4531C5.74219 19.4531 5.5 19.4453 5.28125 19.3047C5.16406 19.2266 4.99219 19.0547 4.91406 18.9375C4.65625 18.5391 4.75781 17.7969 5.10938 17.5078C5.47656 17.2031 5.65625 17.1875 10.6641 17.2109C15.1641 17.2266 15.5234 17.2344 15.7656 17.3672ZM22.0156 17.3672C22.75 17.7656 22.7734 18.8359 22.0625 19.3047C21.8672 19.4297 21.6797 19.4531 20.7031 19.4531C19.4609 19.4531 19.2812 19.3984 18.9766 18.9375C18.7188 18.5391 18.8203 17.7969 19.1719 17.5078C19.4688 17.2578 19.8828 17.1875 20.8203 17.2109C21.5312 17.2266 21.8203 17.2656 22.0156 17.3672ZM15.7656 22.0547C16.5 22.4531 16.5234 23.5234 15.8125 23.9922C15.5938 24.1328 15.3516 24.1406 10.5469 24.1406C5.74219 24.1406 5.5 24.1328 5.28125 23.9922C5.16406 23.9141 4.99219 23.7422 4.91406 23.625C4.65625 23.2266 4.75781 22.4844 5.10938 22.1953C5.47656 21.8906 5.65625 21.875 10.6641 21.8984C15.1641 21.9141 15.5234 21.9219 15.7656 22.0547ZM15.7656 26.7422C16.5 27.1406 16.5234 28.2109 15.8125 28.6797C15.5938 28.8203 15.3516 28.8281 10.5469 28.8281C5.74219 28.8281 5.5 28.8203 5.28125 28.6797C5.16406 28.6016 4.99219 28.4297 4.91406 28.3125C4.65625 27.9141 4.75781 27.1719 5.10938 26.8828C5.47656 26.5781 5.65625 26.5625 10.6641 26.5859C15.1641 26.6016 15.5234 26.6094 15.7656 26.7422ZM15.7656 31.4297C16.5 31.8281 16.5234 32.8984 15.8125 33.3672C15.5938 33.5078 15.3516 33.5156 10.5469 33.5156C5.74219 33.5156 5.5 33.5078 5.28125 33.3672C5.16406 33.2891 4.99219 33.1172 4.91406 33C4.65625 32.6016 4.75781 31.8594 5.10938 31.5703C5.47656 31.2656 5.65625 31.25 10.6641 31.2734C15.1641 31.2891 15.5234 31.2969 15.7656 31.4297Z" fill="#28C79E"/>
<path d="M34.9778 16.9531C33.7669 17.1016 32.6887 17.8984 32.1419 19.0391C31.8606 19.6172 31.845 19.7031 31.8137 20.5469C31.7825 21.3906 31.7981 21.4609 31.97 21.7188C32.2434 22.1172 32.5872 22.2656 33.2825 22.2656C34.345 22.2656 35.2044 21.9375 35.9544 21.2578C36.72 20.5625 37.1106 19.6016 37.1106 18.4297C37.1106 17.7031 36.9856 17.4062 36.5637 17.1016C36.3215 16.9297 35.6731 16.8672 34.9778 16.9531Z" fill="#28C79E"/>
<path d="M27.0533 18.6796C26.4439 18.9765 26.2251 19.8437 26.6236 20.3827C26.7017 20.4921 26.9361 20.6952 27.147 20.8358C27.7095 21.2108 28.1079 21.6327 28.2486 22.0077C28.3189 22.1952 28.3658 22.3593 28.3501 22.3749C28.3345 22.3983 28.0376 22.3358 27.6939 22.2499C27.2251 22.1249 26.8111 22.0858 26.0142 22.0858C24.7876 22.078 24.2251 22.1952 23.2173 22.664C21.6939 23.3671 20.6314 24.4374 19.9204 25.9608C19.5064 26.8515 19.3658 27.4686 19.3189 28.5546C19.2876 29.4218 19.3033 29.5624 19.522 30.4061C20.2642 33.2577 21.8189 35.953 23.9204 38.0546C25.4908 39.6327 26.022 39.9374 27.2251 39.9843C28.1314 40.0155 28.6704 39.8671 29.2876 39.4296L29.6548 39.164L29.8501 39.3202C29.9517 39.4061 30.2642 39.5858 30.5454 39.7186C31.022 39.9452 31.1079 39.9608 31.9517 39.9608C32.7954 39.9608 32.8814 39.9452 33.3579 39.7186C33.6939 39.5624 34.147 39.2265 34.6861 38.7343C37.1861 36.4765 38.9204 33.6718 39.7642 30.5155C40.2954 28.5468 39.9439 26.4999 38.7954 24.8983C38.4361 24.3905 37.3267 23.2812 37.1783 23.2812C37.1314 23.2812 36.8423 23.4374 36.5298 23.6249C35.6548 24.1718 34.6783 24.4686 33.5845 24.5155C32.9908 24.539 32.5298 24.5155 32.2564 24.453C31.022 24.164 30.0923 23.3124 29.6861 22.1015C29.5454 21.6874 29.522 21.453 29.5376 20.5937L29.5533 19.5702L29.1548 19.2577C28.6158 18.8358 27.9673 18.5155 27.647 18.5155C27.4986 18.5155 27.2329 18.5858 27.0533 18.6796Z" fill="#28C79E"/>
</g>
<defs>
<clipPath id="clip0_257_2637">
<rect width="40" height="40" fill="white"/>
</clipPath>
</defs>
</svg>
