<svg width="40" height="40" viewBox="0 0 40 40" fill="none" xmlns="http://www.w3.org/2000/svg">
<path d="M6.48897 3.21291C6.24632 3.32475 5.89338 3.59317 5.69485 3.79448C5.04412 4.48789 5 4.73394 5 7.58587V10.1582H20H35V7.58587C35 4.73394 34.9559 4.48789 34.3051 3.79448C34.1066 3.59317 33.7537 3.32475 33.511 3.21291C33.0919 3.0116 32.4963 3.00042 20 3.00042C7.50368 3.00042 6.90809 3.0116 6.48897 3.21291ZM12.6324 5.78524C13.2831 6.52339 12.864 7.64179 11.8824 7.776C10.9338 7.89903 10.239 7.11614 10.5147 6.22142C10.7794 5.30433 11.9926 5.05828 12.6324 5.78524ZM29.011 5.57275C29.761 6.03129 29.7059 7.23917 28.9228 7.64179C28.0846 8.08916 27.0588 7.50758 27.0588 6.59049C27.0588 5.59511 28.1397 5.02473 29.011 5.57275Z" fill="#28C79E"/>
<path d="M5 23.4892C5 34.5054 5.01103 35.0647 5.20956 35.4896C5.31985 35.7357 5.58456 36.0936 5.78309 36.2949C6.56618 37.0442 5.62868 36.9995 20 36.9995C34.3713 36.9995 33.4338 37.0442 34.2169 36.2949C34.4154 36.0936 34.6801 35.7357 34.7904 35.4896C34.989 35.0647 35 34.5054 35 23.4892V11.9472H20H5V23.4892ZM20.5515 18.0202C20.7059 18.1767 21.0368 19.0379 21.4228 20.2346L22.0515 22.1806L24.2463 22.2366C25.4596 22.2701 26.5074 22.326 26.5735 22.3708C26.6397 22.4155 26.761 22.5944 26.8272 22.7734C27.0588 23.3326 26.8493 23.5898 25.0404 24.9207L23.3419 26.1733L23.9816 28.2088C24.3346 29.3161 24.6324 30.3002 24.6324 30.3785C24.6324 30.6246 24.0037 31.1838 23.7279 31.1838C23.5625 31.1838 22.8015 30.7029 21.7868 29.9535C20.8603 29.2713 20.0551 28.7233 20 28.7233C19.9338 28.7233 19.1397 29.2713 18.2243 29.9535C17.1765 30.7252 16.4485 31.1838 16.2831 31.1838C15.9963 31.1838 15.3676 30.6358 15.3676 30.3785C15.3676 30.3002 15.6654 29.3161 16.0184 28.2088L16.6581 26.1733L14.9596 24.9207C13.1507 23.5898 12.9412 23.3326 13.1728 22.7734C13.239 22.5944 13.3603 22.4155 13.4265 22.3708C13.4926 22.326 14.5404 22.2701 15.7426 22.2366L17.9485 22.1806L18.5772 20.2234C18.9301 19.1498 19.3162 18.1544 19.4375 18.009C19.7243 17.6847 20.2316 17.6847 20.5515 18.0202Z" fill="#28C79E"/>
</svg>
