<svg width="40" height="40" viewBox="0 0 40 40" fill="none" xmlns="http://www.w3.org/2000/svg">
<g clip-path="url(#clip0_257_2681)">
<path d="M24.6484 5.82813C23.8438 6.10938 23.4297 6.75781 23.3594 7.80469L23.3203 8.46094L22.6562 8.64063C20.7969 9.13281 19.2969 9.96094 17.9609 11.2266C16.2656 12.8438 15.2891 14.625 14.7344 17.125L14.6875 17.3438H25.3516H36.0156L35.9688 17.125C35.4141 14.6328 34.4297 12.8359 32.75 11.2422C31.3672 9.92188 29.5156 8.92969 27.6953 8.53906L27.3828 8.46875L27.3438 7.8125C27.2969 7.03125 27.0859 6.52344 26.6562 6.17188C26.1172 5.72656 25.3125 5.59375 24.6484 5.82813ZM25.6953 7.0625C25.9609 7.20313 26.0938 7.48438 26.0938 7.92969V8.28125H25.3516H24.6094V7.90625C24.6172 7.48438 24.7422 7.21094 25.0078 7.0625C25.25 6.92969 25.4297 6.92969 25.6953 7.0625ZM22.6562 10.3906C22.9844 10.7188 22.8125 11.1016 22.2266 11.3672C21.6016 11.6406 20.9844 12.0703 20.2969 12.7109C19.9609 13.0234 19.6406 13.2813 19.5781 13.2813C19.5156 13.2813 19.3672 13.2031 19.25 13.1016C18.9062 12.8047 18.9688 12.5625 19.5391 11.9766C20.1719 11.3438 20.6484 10.9844 21.4453 10.5703C22.1406 10.2031 22.4219 10.1563 22.6562 10.3906Z" fill="#28C79E"/>
<path d="M11.3281 18.5781C10.9219 18.7812 10.7031 19.1562 10.7031 19.6484C10.7031 20.1406 10.9219 20.5156 11.3281 20.7188C11.5859 20.8516 12.4141 20.8594 25.3516 20.8594C38.2891 20.8594 39.1172 20.8516 39.375 20.7188C40.2188 20.2969 40.2188 19 39.375 18.5781C39.1172 18.4453 38.2891 18.4375 25.3516 18.4375C12.4141 18.4375 11.5859 18.4453 11.3281 18.5781Z" fill="#28C79E"/>
<path d="M7.85156 21.9219C7.51562 22.0938 7.27344 22.3359 7.10156 22.6719C6.96094 22.9531 6.95312 23.2109 6.95312 28.6328V34.2969H8.55469H10.1641L10.1406 28.6094L10.1172 22.9141L9.88281 22.5391C9.57812 22.0469 9.125 21.7969 8.52344 21.7969C8.28125 21.7969 7.98437 21.8516 7.85156 21.9219Z" fill="#28C79E"/>
<path d="M11.7422 22.2344L11.25 22.5078V27.8594C11.25 30.7969 11.2812 33.2031 11.3125 33.2031C11.3438 33.2031 12.0938 32.9531 12.9688 32.6484C14.1641 32.2344 14.6797 32.0938 15 32.0938C15.2969 32.0859 16.5781 32.3594 19.1016 32.9688C22.7266 33.8438 22.7891 33.8594 23.7109 33.8594H24.6484L28.5156 32.5547C30.6406 31.8359 32.6328 31.125 32.9375 30.9766C33.25 30.8281 33.6797 30.5391 33.8906 30.3438C34.3906 29.9063 39.6719 23.5 39.8672 23.1094C39.9609 22.9141 40 22.6953 39.9844 22.4063L39.9609 21.9922L38.1172 21.9688L36.2812 21.9531L33.2578 24.2109L30.2422 26.4766L24.9219 26.2969C19.9219 26.125 19.5938 26.1094 19.4531 25.9688C19.2266 25.7266 19.1953 25.5156 19.375 25.2969C19.5234 25.1016 19.5391 25.0938 21.0312 25.0547C21.9688 25.0313 22.6562 24.9766 22.8516 24.9141C23.2812 24.7734 24 24.0391 24.125 23.625C24.2422 23.2266 24.25 22.5234 24.1328 22.1953L24.0469 21.9531H18.1406H12.2266L11.7422 22.2344Z" fill="#28C79E"/>
<path d="M0.171875 23.8281L0 23.9922V28.9844V33.9766L0.203125 34.1328C0.398438 34.2812 0.515625 34.2969 1.6875 34.2969H2.96875V32.1641C2.96875 30.1875 2.97656 30.0156 3.10938 29.8984C3.3125 29.7109 3.69531 29.7344 3.875 29.9297C4.01562 30.0781 4.02344 30.2578 4.04688 32.1953L4.07031 34.2969H4.96094H5.85938V28.9844V23.6719H3.10156C0.429688 23.6719 0.335938 23.6797 0.171875 23.8281Z" fill="#28C79E"/>
</g>
<defs>
<clipPath id="clip0_257_2681">
<rect width="40" height="40" fill="white"/>
</clipPath>
</defs>
</svg>
