<svg width="40" height="40" viewBox="0 0 40 40" fill="none" xmlns="http://www.w3.org/2000/svg">
<g clip-path="url(#clip0_257_3390)">
<path d="M6.70312 1.07812C5.72656 1.66406 4.92969 2.17969 4.92188 2.22656C4.92188 2.26562 5.17188 2.73438 5.46875 3.25781L6.01562 4.21875V9.33594V14.4531H5.42969C4.99219 14.4531 4.84375 14.4766 4.84375 14.5547C4.84375 14.6641 5.50781 19.375 5.58594 19.8203C5.625 20.0312 5.67188 20.0781 5.82031 20.0781C6.01562 20.0781 6.01562 20.0781 6.01562 20.8906V21.7031L5.67188 21.9062C4.92969 22.3438 4.50781 23.1016 4.51562 24.0156C4.51562 24.6484 4.63281 25.0625 4.96094 25.5312L5.22656 25.9297L3.125 27.7422C1.96094 28.7422 1.01562 29.5859 1.01562 29.625C1.01562 29.6562 1.28906 29.6875 1.625 29.6875H2.24219L4.14844 28.0469C5.79688 26.6172 6.07812 26.4062 6.25 26.4453C6.77344 26.5781 7.42969 26.5781 7.8125 26.4531L8.21094 26.3203L10.2812 28.0078L12.3594 29.6875H13.0156C13.375 29.6875 13.6719 29.6641 13.6641 29.625C13.6641 29.5938 12.5938 28.7109 11.2891 27.6562L8.92188 25.7422L9.10156 25.4297C9.32812 25.0469 9.46094 24.2891 9.35938 23.9375C9.26562 23.5781 8.96094 23.3594 8.55469 23.3594C8.14844 23.3594 7.83594 23.6328 7.76562 24.0547C7.67969 24.5625 7.64844 24.625 7.51562 24.5625C7.1875 24.4297 7.00781 24.4375 6.78125 24.6094L6.53906 24.7891L6.35156 24.5781C5.9375 24.0938 6.22656 23.4062 6.95312 23.1641C7.61719 22.9453 7.65625 22.8438 7.65625 21.3594V20.0781H8.10938H8.55469L9.09375 17.3594C9.39062 15.8672 9.64844 14.6016 9.67188 14.5469C9.69531 14.4766 9.54688 14.4531 9.07031 14.4531H8.4375V11.6641C8.4375 10.1328 8.46094 8.89844 8.48438 8.92188C8.50781 8.95312 10.6484 13.0625 13.25 18.0547C17.8984 27.0078 17.9688 27.1484 17.9688 27.5938V28.0469H19.5703H21.1719V28.8672V29.6875H27.1875H33.2031V28.8672V28.0469H35.5859H37.9688V20.4297V12.8125H31.9531H25.9375V16.6719V20.5312L26.4375 21.8672L26.9375 23.2109L26.1094 23.1875L25.2891 23.1641L16.9922 11.6016C12.4297 5.24219 8.64062 0.03125 8.58594 0.0234375C8.52344 0.0078125 7.67969 0.484375 6.70312 1.07812ZM8.78125 3.76562C8.63281 4.50781 8.46875 5.35938 8.41406 5.66406L8.3125 6.21094L7.66406 4.96875C7.29688 4.28125 7.03906 3.71094 7.07812 3.69531C7.11719 3.67969 7.57031 3.39062 8.08594 3.04688C8.60156 2.70312 9.02344 2.42188 9.03125 2.42188C9.03906 2.42188 8.92188 3.03125 8.78125 3.76562ZM10.9688 5.36719C11.5078 6.3125 11.6406 6.60156 11.5547 6.64844C11.4922 6.67969 10.9922 7.00781 10.4297 7.375C9.875 7.73438 9.39844 8.02344 9.38281 8C9.34375 7.96094 10.1797 4.14062 10.2344 4.14062C10.2578 4.14844 10.5859 4.69531 10.9688 5.36719ZM7.38281 6.78906L7.57812 7.17969V10.8203V14.4531H7.22656H6.875V10.1719V5.89844L7.03125 6.14844C7.11719 6.28906 7.27344 6.57812 7.38281 6.78906ZM12.2891 10.1719C12.0625 11.2188 11.8672 12.1016 11.8516 12.1328C11.8438 12.1719 11.5391 11.6484 11.1797 10.9766C10.8203 10.3047 10.5547 9.73438 10.5859 9.70312C10.6094 9.67188 11.1016 9.34375 11.6641 8.96875C12.2344 8.60156 12.6953 8.28906 12.7031 8.28906C12.7031 8.28125 12.5234 9.13281 12.2891 10.1719ZM14.7266 11.0469C15.1016 11.6094 15.3828 12.0703 15.3438 12.0859C15.3047 12.1016 14.7656 12.4453 14.1406 12.8438C13.5156 13.25 13 13.5703 12.9844 13.5625C12.9766 13.5469 13.1406 12.6953 13.3594 11.6641C13.5703 10.6328 13.75 9.75781 13.75 9.72656C13.75 9.64062 13.9297 9.88281 14.7266 11.0469ZM16.0078 14.4688C15.875 14.8281 15.5391 15.7344 15.2656 16.4844C14.9844 17.2344 14.7422 17.8594 14.7266 17.875C14.7109 17.8906 14.4375 17.3906 14.125 16.7656C13.6484 15.8047 13.5781 15.6016 13.6719 15.5469C13.7344 15.5078 14.3203 15.1094 14.9609 14.6562C15.6094 14.2109 16.1562 13.8359 16.1875 13.8359C16.2188 13.8281 16.1406 14.1172 16.0078 14.4688ZM18.3125 16.0469C18.6797 16.5547 18.9844 16.9922 18.9844 17.0234C18.9766 17.0625 16.1641 18.9141 16.0078 18.9688C15.9766 18.9844 16.0234 18.7891 16.125 18.5391C16.2266 18.2891 16.5781 17.3906 16.9141 16.5391C17.25 15.6875 17.5469 15.0156 17.5781 15.0547C17.6094 15.0859 17.9375 15.5312 18.3125 16.0469ZM34.6875 18.4375V20.7812H31.9531H29.2188V18.4375V16.0938H31.9531H34.6875V18.4375ZM18.7266 20.7578C18.2031 22.0078 17.75 23.0156 17.7188 23C17.625 22.9375 16.4766 20.8438 16.5 20.7656C16.5234 20.6953 19.6328 18.4375 19.6641 18.4688C19.6719 18.4766 19.25 19.5078 18.7266 20.7578ZM22.1875 21.2969C22.6562 21.9375 23.0312 22.4609 23.0234 22.4688C22.9141 22.5625 19.0312 24.7656 19.0156 24.75C19 24.7344 19.4531 23.7422 20.0078 22.5391C20.5703 21.3359 21.0625 20.2656 21.1016 20.1641C21.1953 19.9297 21.1484 19.875 22.1875 21.2969Z" fill="#28C79E"/>
<path d="M0.390625 31.2109V32.0312H1.21094H2.03125V33.2031V34.375H1.21094H0.390625V35.1953V36.0156H6.83594H13.2812V35.1953V34.375H12.4609H11.6406V33.2031V32.0312H12.4609H13.2812V31.2109V30.3906H6.83594H0.390625V31.2109Z" fill="#28C79E"/>
<path d="M18.375 31.2578C17.3594 31.3906 16.7266 31.6953 16.1875 32.3047C15.625 32.9453 15.5859 33.1641 15.5859 35.7031C15.5859 37.6406 15.6016 37.9844 15.7266 38.3281C15.9062 38.8516 16.3281 39.3359 16.8125 39.5781C17.6562 40.0078 17.4609 40 27.8281 40H37.4141L37.8672 39.8359C38.3984 39.6406 38.9453 39.125 39.1875 38.5937C39.5234 37.8828 39.5703 37.4844 39.5703 35.3906C39.5703 33.1094 39.5156 32.7891 38.9922 32.125C38.625 31.6641 38.0625 31.3594 37.375 31.25C36.8125 31.1562 19.0938 31.1641 18.375 31.2578ZM36.3281 35.625V36.7969H27.5781H18.8281V35.625V34.4531H27.5781H36.3281V35.625Z" fill="#28C79E"/>
</g>
<defs>
<clipPath id="clip0_257_3390">
<rect width="40" height="40" fill="white"/>
</clipPath>
</defs>
</svg>
