<svg width="40" height="40" viewBox="0 0 40 40" fill="none" xmlns="http://www.w3.org/2000/svg">
<path d="M7.18725 0.15625C5.52319 0.695312 4.45288 2.19531 4.45288 4V4.60938H4.08569C3.05444 4.61719 2.43725 5.66406 2.89819 6.61719C3.10913 7.05469 3.57788 7.34375 4.08569 7.34375H4.45288V8C4.45288 9.79688 5.54663 11.2969 7.2185 11.8047C7.67163 11.9453 8.20288 11.9531 18.0154 11.9531C29.2966 11.9531 28.6326 11.9766 29.5623 11.5078C30.031 11.2734 30.7498 10.5703 31.0466 10.0625C31.3591 9.52344 31.5623 8.72656 31.5623 8.03125V7.42188H33.0076H34.4529V9.09375V10.7578L25.9216 15.4922C21.2263 18.0938 17.2654 20.3203 17.1248 20.4453C16.7029 20.7969 16.6482 21.0938 16.6404 22.8594V24.4375L15.531 24.4688C14.3513 24.5 14.1248 24.5625 13.7732 24.9375C13.6794 25.0312 13.5701 25.2188 13.5232 25.3359C13.4685 25.4844 13.4373 26.8984 13.4373 29.5V33.4375H18.0857H22.7419L22.7185 29.4766C22.6951 25.9062 22.6794 25.4844 22.5623 25.2656C22.2185 24.6406 21.6951 24.4531 20.3123 24.4531H19.4529V23.375V22.2969L28.0857 17.5078C34.2185 14.1016 36.781 12.6406 36.9451 12.4531C37.0779 12.3125 37.2029 12.0781 37.2263 11.9375C37.2498 11.7969 37.2654 10.2891 37.2498 8.58594L37.2263 5.5L37.031 5.21094C36.9294 5.05469 36.7107 4.85938 36.5544 4.77344C36.281 4.61719 36.1404 4.60938 33.9138 4.60938H31.5623V4C31.5623 2.22656 30.5701 0.78125 28.9529 0.1875L28.4294 0L18.0232 0.0078125C8.26538 0.015625 7.5935 0.0234375 7.18725 0.15625Z" fill="#28C79E"/>
<path d="M13.4531 37.6484C13.4766 39.375 13.5 39.4375 14.0625 39.8281L14.3203 40H17.9766C20.375 40 21.7031 39.9688 21.8516 39.9141C22.125 39.8125 22.3984 39.5625 22.5625 39.2578C22.6641 39.0703 22.6953 38.7266 22.7188 37.5547L22.75 36.0938H18.0859H13.4297L13.4531 37.6484Z" fill="#28C79E"/>
</svg>
