<svg width="40" height="40" viewBox="0 0 40 40" fill="none" xmlns="http://www.w3.org/2000/svg">
<path d="M14.2656 1.96094L14.0625 2.11719V18.2109V34.2969H13.5938H13.125V24.0703V13.8359L12.9219 13.6797C12.7188 13.5156 12.6484 13.5156 8.08594 13.5156C3.52344 13.5156 3.45312 13.5156 3.25 13.6797L3.04688 13.8359V24.0703V34.2969H2.14844H1.25V34.9609V35.625H20H38.75V34.9609V34.2969H37.8125H36.875V32.1094V29.9219H34.6875H32.5V30.2344V30.5469H31.8672H31.2344L31.2656 29.8438C31.2969 29.2422 31.3203 29.1172 31.4844 28.9453L31.6641 28.75H34.2734H36.875V27.7734V26.7969H34.6875H32.5V27.1094V27.4219H31.8672H31.2344L31.2656 26.7188C31.2969 26.1172 31.3203 25.9922 31.4844 25.8203L31.6641 25.625H34.2734H36.875V24.6484V23.6719H34.6875H32.5V23.9844V24.2969H31.8672H31.2344L31.2656 23.5938C31.2969 22.9922 31.3203 22.8672 31.4844 22.6953L31.6641 22.5H34.2734H36.875V21.5234V20.5469H34.6875H32.5V20.8594V21.1719H31.8672H31.2344L31.2656 20.4688C31.2969 19.8672 31.3203 19.7422 31.4844 19.5703L31.6641 19.375H34.2734H36.875V18.3984V17.4219H34.6875H32.5V17.7344V18.0469H31.8672H31.2344L31.2656 17.3438C31.2969 16.7422 31.3203 16.6172 31.4844 16.4453L31.6641 16.25H34.2734H36.875V15.2734V14.2969H34.6875H32.5V14.6094V14.9219H31.8672H31.2344L31.2656 14.2188C31.2969 13.6172 31.3203 13.4922 31.4844 13.3203L31.6641 13.125H34.2734H36.875V11.6953C36.875 10.4219 36.8594 10.2422 36.7344 10.1406C36.4922 9.92188 27.6641 5.54688 27.4688 5.54688C27.3672 5.54688 27.1953 5.61719 27.0781 5.71094L26.875 5.86719V20.0859V34.2969H26.4062H25.9375V18.2109V2.11719L25.7344 1.96094C25.5312 1.79688 25.4688 1.79688 20 1.79688C14.5312 1.79688 14.4688 1.79688 14.2656 1.96094ZM18.125 17.7734V29.9219H17.5H16.875V17.7734V5.625H17.5H18.125V17.7734ZM20.625 17.7734V29.9219H20H19.375V17.7734V5.625H20H20.625V17.7734ZM23.125 17.7734V29.9219H22.5H21.875V17.7734V5.625H22.5H23.125V17.7734ZM10.625 17.4609V18.0469H8.125H5.625V17.4609V16.875H8.125H10.625V17.4609ZM10.625 19.9609V20.5469H8.125H5.625V19.9609V19.375H8.125H10.625V19.9609ZM10.625 22.4609V23.0469H8.125H5.625V22.4609V21.875H8.125H10.625V22.4609ZM10.625 24.9609V25.5469H8.125H5.625V24.9609V24.375H8.125H10.625V24.9609ZM10.625 27.4609V28.0469H8.125H5.625V27.4609V26.875H8.125H10.625V27.4609ZM10.625 29.9609V30.5469H8.125H5.625V29.9609V29.375H8.125H10.625V29.9609Z" fill="#28C79E"/>
</svg>
