<svg width="40" height="40" viewBox="0 0 40 40" fill="none" xmlns="http://www.w3.org/2000/svg">
<path d="M17.9375 2.61719C15.8984 2.95312 13.9844 3.74219 12.25 4.96875C11.3828 5.58594 9.92969 7.05469 9.27344 7.96875C8.64062 8.86719 7.82031 10.4766 7.5 11.4688C7.02344 12.9531 6.9375 13.5469 6.89844 15.6016L6.85938 17.5H7.47656H8.10156L8.15625 15.9844C8.21094 14.3047 8.32812 13.4297 8.63281 12.3828C9.92188 7.94531 13.625 4.67188 18.1953 3.9375C19.1328 3.78906 20.8672 3.78906 21.8047 3.9375C26.375 4.67188 30.0781 7.94531 31.3672 12.3828C31.6719 13.4297 31.7891 14.3047 31.8438 15.9844L31.8984 17.5H32.5234H33.1406L33.1016 15.6016C33.0625 13.5469 32.9766 12.9531 32.5 11.4688C32.1797 10.4766 31.3594 8.86719 30.7266 7.96875C30.0469 7.02344 28.6016 5.57812 27.6562 4.89844C26.2578 3.90625 24.4297 3.10938 22.6719 2.72656C21.6719 2.50781 18.9844 2.44531 17.9375 2.61719Z" fill="#28C79E"/>
<path d="M18.1016 5.125C14.2344 5.82812 11.0469 8.625 9.85156 12.3594C9.46875 13.5625 9.375 14.2891 9.375 15.9844V17.5H9.79688C10.2188 17.5 10.2188 17.5 10.2656 17.2266C10.2969 17.0781 10.4844 16.6328 10.6797 16.2344C10.9766 15.6406 11.1641 15.3828 11.7109 14.8437C12.4688 14.0859 13.2188 13.6484 14.2656 13.3437C14.8828 13.1641 14.8906 13.1641 20 13.1641C25.1094 13.1641 25.1172 13.1641 25.7344 13.3437C26.7812 13.6484 27.5312 14.0859 28.2891 14.8437C28.8359 15.3828 29.0234 15.6406 29.3203 16.2344C29.5156 16.6328 29.7031 17.0781 29.7344 17.2266C29.7812 17.5 29.7812 17.5 30.2031 17.5H30.625V15.9844C30.625 14.2891 30.5312 13.5625 30.1484 12.3594C28.9453 8.58594 25.75 5.80469 21.8281 5.125C20.9609 4.96875 18.9531 4.97656 18.1016 5.125ZM20.625 8.125V8.75H21.25H21.875V9.375V10H21.25H20.625V10.625V11.25H20H19.375V10.625V10H18.75H18.125V9.375V8.75H18.75H19.375V8.125V7.5H20H20.625V8.125Z" fill="#28C79E"/>
<path d="M20.625 8.125V8.75H21.25H21.875V9.375V10H21.25H20.625V10.625V11.25H20H19.375V10.625V10H18.75H18.125V9.375V8.75H18.75H19.375V8.125V7.5H20H20.625V8.125Z" fill="#28C79E"/>
<path d="M14.3755 14.5234C12.899 14.9921 11.7974 16.1171 11.3677 17.5937C11.2584 17.9843 11.2427 18.4765 11.274 21.6562C11.2974 25.0546 11.3052 25.3124 11.4693 25.9062C12.2896 29.0312 14.7037 31.4452 17.813 32.2655C18.8209 32.5312 20.6959 32.5702 21.774 32.3515C25.2115 31.6405 27.899 28.9687 28.5943 25.5624C28.7349 24.8437 28.7505 24.4999 28.7505 21.3905C28.7505 17.6327 28.7505 17.6249 28.2349 16.6327C27.7349 15.6796 26.8365 14.9374 25.7584 14.5702L25.1646 14.3749L19.9849 14.3827C15.2505 14.3827 14.7662 14.3984 14.3755 14.5234ZM17.4068 18.4765C18.1021 18.8515 18.563 19.5077 18.649 20.2421L18.6959 20.6249H18.0943H17.5005V20.4062C17.5005 19.8437 16.9302 19.3749 16.2505 19.3749C15.5709 19.3749 15.0005 19.8437 15.0005 20.4062V20.6249H14.4068H13.8052L13.8521 20.2421C13.9302 19.5859 14.3521 18.9218 14.899 18.5859C15.399 18.2734 15.7115 18.203 16.3677 18.2265C16.8834 18.2499 17.0709 18.289 17.4068 18.4765ZM24.9068 18.4765C25.6021 18.8515 26.063 19.5077 26.149 20.2421L26.1959 20.6249H25.5943H25.0005V20.4062C25.0005 19.8437 24.4302 19.3749 23.7505 19.3749C23.0709 19.3749 22.5005 19.8437 22.5005 20.4062V20.6249H21.9068H21.3052L21.3521 20.2421C21.4302 19.5859 21.8521 18.9218 22.399 18.5859C22.899 18.2734 23.2115 18.203 23.8677 18.2265C24.3834 18.2499 24.5709 18.289 24.9068 18.4765ZM17.524 28.3593C17.688 29.1562 19.8521 29.6562 21.2662 29.2187C21.9146 29.0155 22.4146 28.664 22.4771 28.3593L22.524 28.1249H23.0943H23.6724V28.3359C23.6646 28.8749 23.0005 29.703 22.2818 30.0702C21.0162 30.7187 18.9849 30.7187 17.7193 30.0702C17.0005 29.703 16.3365 28.8749 16.3287 28.3359V28.1249H16.9068H17.4849L17.524 28.3593Z" fill="#28C79E"/>
<path d="M5.15652 18.9062C5.02371 19.0391 5.00027 19.1641 5.00027 19.8438V20.625H4.21902C3.0784 20.625 3.12527 20.5469 3.12527 22.5C3.12527 24.4531 3.0784 24.375 4.21902 24.375H5.00027V25.1562C5.00027 26.3203 4.85183 26.25 7.34402 26.25H9.37527V28.6875C9.37527 31.4141 9.3909 31.4922 9.92996 32.0078C10.43 32.4844 10.5471 32.5 13.0237 32.5H15.2659L14.8284 32.2344C14.1253 31.8125 13.5237 31.3203 12.8128 30.5781C11.4456 29.1562 10.555 27.3984 10.1878 25.4062C10.094 24.8906 10.0471 24.0078 10.0237 21.7344L9.97683 18.75H7.64871C5.41433 18.75 5.30496 18.7578 5.15652 18.9062Z" fill="#28C79E"/>
<path d="M29.9766 21.7344C29.9531 24.0078 29.9062 24.8906 29.8125 25.4062C29.4453 27.4062 28.5625 29.1484 27.1875 30.5781C26.4766 31.3203 25.875 31.8125 25.1719 32.2344L24.7344 32.5H27C29.2344 32.5 29.2734 32.5 29.6328 32.3125L30 32.1328V32.5312C29.9922 33.1953 29.8516 34 29.6484 34.4297C29.4062 34.9609 28.7109 35.6562 28.1797 35.8984C27.5781 36.1719 26.8984 36.25 24.8516 36.25H23.0312L22.875 36.0547C22.5469 35.6406 22.4531 35.625 19.9844 35.625C17.8359 35.625 17.6797 35.6328 17.4375 35.7812C17.0625 36.0156 16.875 36.3672 16.875 36.875C16.875 37.3828 17.0625 37.7344 17.4375 37.9688C17.6797 38.1172 17.8359 38.125 19.9844 38.125C22.4531 38.125 22.5469 38.1094 22.875 37.6953L23.0312 37.5H25.3281C27.2031 37.5 27.7031 37.4766 28.0547 37.375C29.1875 37.0391 30.2188 36.2188 30.7266 35.25C31.2578 34.2422 31.25 34.2891 31.25 30.0625V26.25H32.9688C35.1016 26.25 35 26.3047 35 25.1562V24.375H35.7812C36.9219 24.375 36.875 24.4531 36.875 22.5C36.875 20.5469 36.9219 20.625 35.7812 20.625H35V19.8438C35 18.6719 35.1953 18.75 32.3516 18.75H30.0234L29.9766 21.7344Z" fill="#28C79E"/>
</svg>
