<svg width="40" height="40" viewBox="0 0 40 40" fill="none" xmlns="http://www.w3.org/2000/svg">
<path d="M7.76042 2.04456C7.13136 2.15239 7.12237 2.18834 7.12237 4.38107V6.32218L5.85526 6.33117L4.57916 6.34016L3.34799 7.5893C2.01797 8.94628 2 8.97323 2 9.99771C2 10.6897 2.1348 11.1929 2.35946 11.3098C2.45832 11.3637 3.44684 11.3996 4.8218 11.3996H7.12237V22.1836V32.9675H6.22371C4.89369 32.9675 4.96558 32.8237 4.96558 35.4837C4.96558 37.5237 4.97457 37.6495 5.14531 37.8203C5.31606 37.991 5.44187 38 9.99809 38C14.5543 38 14.6801 37.991 14.8509 37.8203C15.0216 37.6495 15.0306 37.5237 15.0306 35.4837C15.0306 32.8237 15.1025 32.9675 13.7725 32.9675H12.8738V22.1836V11.3996H16.4684H20.0631V13.5564V15.7132H17.7266C15.5069 15.7132 15.3811 15.7222 15.2103 15.8929C15.0396 16.0637 15.0306 16.1895 15.0306 17.87C15.0306 19.5505 15.0396 19.6763 15.2103 19.847C15.3901 20.0268 15.5069 20.0268 20.782 20.0268C26.0572 20.0268 26.174 20.0268 26.3537 19.847C26.5245 19.6763 26.5335 19.5505 26.5335 17.87C26.5335 16.1895 26.5245 16.0637 26.3537 15.8929C26.183 15.7222 26.0572 15.7132 23.8375 15.7132H21.5009V13.5564V11.3996H28.5105C35.3134 11.3996 35.5291 11.3906 35.6908 11.2289C35.7897 11.13 35.8975 10.8604 35.9334 10.6268C36.0053 10.1325 35.9245 9.05411 35.7986 8.82046C35.7537 8.7306 34.7203 8.13748 33.4981 7.50842L31.2874 6.36712H21.9233H12.5593L11.1843 4.26425C10.4294 3.10498 9.73747 2.13442 9.65659 2.09847C9.41396 1.99962 8.20076 1.96368 7.76042 2.04456ZM9.69254 4.81243C10.1688 5.53136 10.5732 6.1784 10.6002 6.25029C10.6361 6.34016 10.4384 6.36712 9.60267 6.36712H8.56023V4.92926C8.56023 3.69809 8.5782 3.4914 8.69503 3.4914C8.77591 3.4914 9.20726 4.05756 9.69254 4.81243ZM10.9866 11.4266C10.9866 11.4356 10.4384 11.9927 9.77342 12.6577L8.56023 13.8709V12.6308V11.3996H9.77342C10.4384 11.3996 10.9866 11.4086 10.9866 11.4266ZM11.4359 15.7312V18.1845L10.2048 16.9533L8.96462 15.7132L10.1778 14.5C10.8428 13.835 11.4 13.2868 11.409 13.2868C11.427 13.2868 11.4359 14.3922 11.4359 15.7312ZM9.79139 21.2579L8.56023 22.4981V20.0268V17.5555L9.79139 18.7956L11.0315 20.0268L9.79139 21.2579ZM11.4359 24.3583V26.8117L10.2048 25.5805L8.96462 24.3403L10.1778 23.1272C10.8428 22.4621 11.4 21.914 11.409 21.914C11.427 21.914 11.4359 23.0193 11.4359 24.3583ZM9.79139 29.8851L8.56023 31.1252V28.6539V26.1826L9.79139 27.4228L11.0315 28.6539L9.79139 29.8851ZM11.4359 31.7543V32.9675H10.2048H8.96462L10.1778 31.7543C10.8428 31.0893 11.4 30.5411 11.409 30.5411C11.427 30.5411 11.4359 31.0893 11.4359 31.7543Z" fill="#28C79E"/>
<path d="M35.3401 15.8929C35.1694 16.0637 35.1604 16.1895 35.1604 18.0497V20.0268H34.082H33.0036V19.1281C33.0036 18.0677 32.8958 17.87 32.2847 17.87C31.6736 17.87 31.5658 18.0677 31.5658 19.1281V20.0268H30.4874H29.409V18.7686C29.409 17.6273 29.391 17.4925 29.2292 17.3308C29.1124 17.214 28.9327 17.1511 28.69 17.1511C28.4474 17.1511 28.2677 17.214 28.1509 17.3308C27.9801 17.5015 27.9711 17.6273 27.9711 20.9254V24.3403H26.8927H25.8143V23.4417C25.8143 22.3813 25.7065 22.1836 25.0954 22.1836C24.4843 22.1836 24.3765 22.3813 24.3765 23.4417V24.3403H23.2981H22.2197V22.7228C22.2197 21.222 22.2107 21.0962 22.04 20.9254C21.7973 20.6828 21.2042 20.6828 20.9616 20.9254C20.7908 21.0962 20.7818 21.222 20.7818 24.1606V27.2161H20.2426C19.2721 27.2161 19.344 26.7757 19.344 32.608C19.344 37.5237 19.344 37.6405 19.5237 37.8203C19.7034 38 19.8203 38 28.69 38C37.5598 38 37.6767 38 37.8564 37.8203C38.0361 37.6405 38.0361 37.5237 38.0361 30.4512C38.0361 23.3788 38.0361 23.262 37.8564 23.0822C37.7126 22.9384 37.5598 22.9025 37.1375 22.9025H36.5983V19.4876C36.5983 16.1895 36.5893 16.0637 36.4185 15.8929C36.3017 15.7761 36.122 15.7132 35.8793 15.7132C35.6367 15.7132 35.457 15.7761 35.3401 15.8929ZM31.5658 22.1836V22.9025H30.4874H29.409V22.1836V21.4646H30.4874H31.5658V22.1836ZM35.1604 22.1836V22.9025H34.082H33.0036V22.1836V21.4646H34.082H35.1604V22.1836ZM24.3765 26.4971V27.2161H23.2981H22.2197V26.4971V25.7782H23.2981H24.3765V26.4971ZM27.9711 26.4971V27.2161H26.8927H25.8143V26.4971V25.7782H26.8927H27.9711V26.4971Z" fill="#28C79E"/>
</svg>
