<svg width="40" height="40" viewBox="0 0 40 40" fill="none" xmlns="http://www.w3.org/2000/svg">
<path d="M9.53125 2.03125C9.38281 2.17969 9.375 2.28906 9.375 3.90625V5.625H15.625H21.875V3.90625C21.875 2.28906 21.8672 2.17969 21.7188 2.03125C21.5625 1.875 21.4609 1.875 15.625 1.875C9.78906 1.875 9.6875 1.875 9.53125 2.03125ZM11.875 3.75V4.375H11.25H10.625V3.75V3.125H11.25H11.875V3.75ZM14.375 3.75V4.375H13.75H13.125V3.75V3.125H13.75H14.375V3.75ZM16.875 3.75V4.375H16.25H15.625V3.75V3.125H16.25H16.875V3.75Z" fill="#28C79E"/>
<path d="M35.625 2.5V3.125H35H34.375V3.75V4.375H35H35.625V5V5.625H36.25H36.875V5V4.375H37.5H38.125V3.75V3.125H37.5H36.875V2.5V1.875H36.25H35.625V2.5ZM36.875 3.75V4.375H36.25H35.625V3.75V3.125H36.25H36.875V3.75Z" fill="#28C79E"/>
<path d="M31.25 6.875V7.5H30.625H30V8.125V8.75H30.625H31.25V9.375V10H31.875H32.5V9.375V8.75H33.125H33.75V8.125V7.5H33.125H32.5V6.875V6.25H31.875H31.25V6.875ZM32.5 8.125V8.75H31.875H31.25V8.125V7.5H31.875H32.5V8.125Z" fill="#28C79E"/>
<path d="M9.375 8.75V10.625H15.625H21.875V8.75V6.875H15.625H9.375V8.75ZM15.625 8.75V9.375H15H14.375V8.75V8.125H15H15.625V8.75ZM18.125 8.75V9.375H17.5H16.875V8.75V8.125H17.5H18.125V8.75ZM20.625 8.75V9.375H20H19.375V8.75V8.125H20H20.625V8.75Z" fill="#28C79E"/>
<path d="M7.49219 7.79664C5.91406 9.49977 4.85937 11.5857 4.5 13.742C4.33594 14.7107 4.33594 16.5388 4.5 17.5076C4.64844 18.3982 5.11719 19.8435 5.50781 20.6326C5.8125 21.2341 6.58594 22.4607 6.72656 22.5466C6.875 22.6326 7.19531 22.3357 7.375 21.9295C7.46875 21.7029 7.64844 21.4138 7.75781 21.281C7.875 21.1404 7.96875 21.0154 7.96875 20.992C7.96875 20.9685 7.82812 20.7185 7.65625 20.4451C7.22656 19.7654 6.82031 18.8045 6.58594 17.906C6.34375 16.9685 6.25 15.1795 6.40625 14.2341C6.61719 12.9295 7.11719 11.6248 7.8125 10.5701L8.125 10.0935L8.10937 8.62477L8.08594 7.15602L7.49219 7.79664Z" fill="#28C79E"/>
<path d="M23.1253 8.60937V10.0625L23.5315 10.7187C24.0472 11.5469 24.4143 12.3906 24.6722 13.3437C24.8597 14.0391 24.8753 14.2266 24.8753 15.625C24.8753 17.0312 24.8597 17.2109 24.6643 17.9141C23.9456 20.5937 22.2112 22.7109 19.7659 23.9375C19.3128 24.1641 18.6643 24.4297 18.3206 24.5234L17.6878 24.7031L17.719 25.2344C17.7425 25.6484 17.719 25.8437 17.5862 26.1328C17.2972 26.7891 17.3206 26.8047 18.344 26.5625C22.4534 25.5781 25.6643 22.2812 26.6565 18.0469C26.8831 17.0703 26.9378 14.8906 26.7659 13.8125C26.3987 11.5859 25.3362 9.46875 23.7347 7.78125L23.1331 7.14844L23.1253 8.60937Z" fill="#28C79E"/>
<path d="M9.375 13.5938C9.375 15.2109 9.38281 15.3203 9.53125 15.4688C9.6875 15.625 9.78906 15.625 15.625 15.625C21.4609 15.625 21.5625 15.625 21.7188 15.4688C21.8672 15.3203 21.875 15.2109 21.875 13.5938V11.875H15.625H9.375V13.5938ZM11.875 13.75V14.375H11.25H10.625V13.75V13.125H11.25H11.875V13.75ZM14.375 13.75V14.375H13.75H13.125V13.75V13.125H13.75H14.375V13.75ZM16.875 13.75V14.375H16.25H15.625V13.75V13.125H16.25H16.875V13.75Z" fill="#28C79E"/>
<path d="M35 18.75V19.375H34.375H33.75V20V20.625H34.375H35V21.25V21.875H35.625H36.25V21.25V20.625H36.875H37.5V20V19.375H36.875H36.25V18.75V18.125H35.625H35V18.75ZM36.25 20V20.625H35.625H35V20V19.375H35.625H36.25V20Z" fill="#28C79E"/>
<path d="M8.65635 22.0077C8.58603 22.0858 8.46103 22.3202 8.36728 22.539C8.14072 23.0468 7.86728 23.3358 7.38291 23.5624C6.90635 23.789 6.40635 23.7968 5.94541 23.5937C5.75791 23.5077 5.46885 23.4374 5.30478 23.4374C5.03135 23.4374 4.92978 23.4999 4.36728 24.039C4.02353 24.3749 3.66416 24.7421 3.57822 24.8671C3.38291 25.1483 3.38291 25.4921 3.58603 25.9374C3.79697 26.4062 3.78916 26.8983 3.5626 27.3827C3.33603 27.8671 3.04697 28.1405 2.53916 28.3671C1.85166 28.664 1.8751 28.6093 1.8751 29.9999C1.8751 31.3905 1.85166 31.3358 2.53916 31.6327C3.04697 31.8593 3.33603 32.1327 3.5626 32.6171C3.78916 33.0937 3.79697 33.5937 3.59385 34.0546C3.50791 34.2421 3.4376 34.5312 3.4376 34.7108C3.4376 34.9999 3.48447 35.0702 4.21103 35.789C4.92978 36.5155 5.0001 36.5624 5.28916 36.5624C5.46885 36.5624 5.75791 36.4921 5.94541 36.4062C6.40635 36.203 6.90635 36.2108 7.38291 36.4374C7.86728 36.664 8.14072 36.953 8.36728 37.4608C8.66416 38.1483 8.60947 38.1249 10.0001 38.1249C11.3907 38.1249 11.336 38.1483 11.6329 37.4608C11.8595 36.953 12.1329 36.664 12.6173 36.4374C13.0938 36.2108 13.5938 36.203 14.0548 36.4062C14.2423 36.4921 14.5313 36.5624 14.711 36.5624C15.0001 36.5624 15.0704 36.5155 15.7892 35.789C16.5157 35.0702 16.5626 34.9999 16.5626 34.7108C16.5626 34.5312 16.4923 34.2421 16.4063 34.0546C16.2032 33.5937 16.211 33.0937 16.4376 32.6171C16.6642 32.1327 16.9532 31.8593 17.461 31.6327C18.1485 31.3358 18.1251 31.3905 18.1251 29.9999C18.1251 28.6093 18.1485 28.664 17.461 28.3671C16.9532 28.1405 16.6642 27.8671 16.4376 27.3827C16.211 26.9062 16.2032 26.4062 16.4063 25.9452C16.4923 25.7577 16.5626 25.4687 16.5626 25.289C16.5626 24.9999 16.5157 24.9296 15.7892 24.2108C15.0704 23.4843 15.0001 23.4374 14.711 23.4374C14.5313 23.4374 14.2423 23.5077 14.0548 23.5937C13.5938 23.7968 13.0938 23.789 12.6173 23.5624C12.1329 23.3358 11.8595 23.0468 11.6329 22.539C11.336 21.8515 11.3907 21.8749 10.0001 21.8749C8.92978 21.8749 8.75791 21.8905 8.65635 22.0077ZM10.7267 25.1093C12.3673 25.2733 13.9767 26.5858 14.6642 28.3202C14.8673 28.828 14.8829 28.9452 14.8829 29.9999C14.8829 31.0937 14.8751 31.1562 14.6329 31.7577C14.0313 33.2421 12.7267 34.3983 11.2032 34.8046C10.6017 34.9608 9.39853 34.9608 8.79697 34.8046C7.27353 34.3983 5.96885 33.2421 5.36728 31.7577C5.1251 31.1562 5.11728 31.0937 5.11728 29.9999C5.11728 28.9452 5.13291 28.828 5.33603 28.3202C5.89853 26.9062 6.9376 25.8671 8.3126 25.3515C8.82041 25.164 9.78135 24.9999 10.1173 25.0468C10.2032 25.0546 10.4767 25.0858 10.7267 25.1093Z" fill="#28C79E"/>
<path d="M10.375 29.2734L8.75 30.8984L8.35938 30.5078L7.96875 30.1172L7.47656 30.6094L6.99219 31.0938L7.875 31.9688L8.75 32.8516L10.875 30.7266L13.0078 28.5938L12.5391 28.125C12.2812 27.8672 12.0547 27.6562 12.0312 27.6562C12.0078 27.6562 11.2656 28.3828 10.375 29.2734Z" fill="#28C79E"/>
<path d="M24.375 24.4141L23.5547 25.2344L24.5938 26.2734L25.625 27.3047L26.4609 26.4609L27.3047 25.625L26.2891 24.6094C25.7344 24.0547 25.2578 23.5938 25.2344 23.5938C25.2109 23.5938 24.8281 23.9609 24.375 24.4141Z" fill="#28C79E"/>
<path d="M27.2656 27.3046L25.8203 28.7499L30.3125 33.2499C33.8672 36.8124 34.8828 37.789 35.1953 37.9374C35.6406 38.1483 36.2969 38.1874 36.8281 38.0312C37.2578 37.9062 37.9062 37.2577 38.0312 36.828C38.1719 36.3358 38.1484 35.6405 37.9609 35.2343C37.8437 34.9687 36.75 33.8202 33.2969 30.3671C30.8203 27.8905 28.7734 25.8593 28.75 25.8593C28.7266 25.8593 28.0625 26.5077 27.2656 27.3046ZM36.6406 35.8593C36.9766 36.1952 36.7266 36.7968 36.25 36.7968C35.9531 36.7968 35.7031 36.5468 35.7031 36.2499C35.7031 35.953 35.9531 35.703 36.25 35.703C36.3828 35.703 36.5547 35.7733 36.6406 35.8593Z" fill="#28C79E"/>
<path d="M21.25 33.75V34.375H20.625H20V35V35.625H20.625H21.25V36.25V36.875H21.875H22.5V36.25V35.625H23.125H23.75V35V34.375H23.125H22.5V33.75V33.125H21.875H21.25V33.75ZM22.5 35V35.625H21.875H21.25V35V34.375H21.875H22.5V35Z" fill="#28C79E"/>
</svg>
