<svg width="154" height="55" viewBox="0 0 154 55" fill="none" xmlns="http://www.w3.org/2000/svg">
<path d="M40 39.9124C40.0065 43.49 36.2117 45.7275 33.181 43.9329L13.2804 32.1489C11.8821 31.3209 11.0202 29.7963 11.0171 28.1456L10.9744 4.65316C10.9679 1.07552 14.7627 -1.16197 17.7934 0.632616L37.694 12.4166C39.0923 13.2446 39.9542 14.7693 39.9572 16.4199L40 39.9124Z" fill="white"/>
<path d="M8.37154e-06 15.0876C-0.00650441 11.51 3.78833 9.27251 6.81898 11.0671L26.7196 22.8511C28.1179 23.6791 28.9799 25.2037 28.9829 26.8544L29.0256 50.3468C29.0321 53.9245 25.2373 56.162 22.2066 54.3674L2.30602 42.5834C0.907723 41.7554 0.0457791 40.2307 0.0427742 38.5801L8.37154e-06 15.0876Z" fill="white"/>
<path d="M59.6022 19.203C59.866 19.203 60.0968 19.2772 60.2946 19.4256C60.4924 19.574 60.6326 19.7718 60.715 20.0191L65.8836 36.2667H62.7181L58.8108 23.1103C58.7449 22.8466 58.6789 22.5828 58.613 22.319C58.547 22.0552 58.4893 21.7997 58.4399 21.5524H57.7474C57.698 21.7997 57.6403 22.0552 57.5743 22.319C57.5084 22.5828 57.4342 22.8466 57.3517 23.1103L53.4691 36.2667H50.3037L55.4723 20.0191C55.5382 19.7718 55.6701 19.574 55.8679 19.4256C56.0823 19.2772 56.3213 19.203 56.5851 19.203H59.6022ZM62.4708 28.9713V31.3949H53.6917V28.9713H62.4708Z" fill="white"/>
<path d="M70.6972 18.9557L70.6725 32.6066C70.6725 33.0683 70.8044 33.4227 71.0682 33.67C71.332 33.9008 71.7111 34.0162 72.2057 34.0162H73.2691L73.6154 36.1183C73.434 36.2007 73.1785 36.2749 72.8487 36.3409C72.5355 36.4068 72.2057 36.448 71.8595 36.4645C71.5298 36.4975 71.2413 36.514 70.994 36.514C69.9883 36.514 69.1887 36.2419 68.5952 35.6979C68.0017 35.1538 67.7049 34.3707 67.7049 33.3485V18.9557H70.6972Z" fill="white"/>
<path d="M80.134 18.4858C80.4143 18.4858 80.777 18.4941 81.2221 18.5106C81.6838 18.5271 82.1536 18.5518 82.6317 18.5848C83.1098 18.6012 83.5138 18.6425 83.8435 18.7084L83.5962 20.7115H81.1974C80.505 20.7115 80.0186 20.8517 79.7383 21.1319C79.4581 21.4122 79.3179 21.8821 79.3179 22.5416V36.2667H76.3256V22.1706C76.3256 21.3957 76.4492 20.7363 76.6965 20.1922C76.9438 19.6481 77.3478 19.2277 77.9083 18.931C78.4689 18.6342 79.2108 18.4858 80.134 18.4858ZM82.9285 24.1243V26.2016H74.1741V24.2479L76.4245 24.1243H82.9285Z" fill="white"/>
<path d="M91.1284 23.8275C92.1011 23.8275 92.9172 23.9594 93.5767 24.2232C94.2526 24.4705 94.7637 24.8991 95.1099 25.5091C95.4561 26.1191 95.6292 26.96 95.6292 28.0316V36.2667H93.2552L92.8348 33.6453L92.6122 33.2991V28.0069C92.6122 27.3639 92.4638 26.9023 92.1671 26.622C91.8703 26.3252 91.3015 26.1769 90.4607 26.1769C89.8342 26.1769 89.0428 26.2016 88.0866 26.251C87.1469 26.3005 86.1989 26.3664 85.2427 26.4489L84.9706 24.3963C85.5477 24.2809 86.1989 24.182 86.9243 24.0995C87.6497 24.0171 88.3834 23.9512 89.1253 23.9017C89.8672 23.8522 90.5349 23.8275 91.1284 23.8275ZM94.3433 28.7982L94.3186 30.653H88.7543C88.2597 30.6695 87.9053 30.8014 87.6909 31.0486C87.4766 31.2959 87.3694 31.6339 87.3694 32.0626V32.7303C87.3694 33.2249 87.5013 33.6041 87.7651 33.8679C88.0289 34.1152 88.4411 34.2388 89.0016 34.2388C89.4468 34.2388 89.9414 34.1481 90.4854 33.9668C91.0295 33.7854 91.5653 33.5216 92.0929 33.1754C92.6369 32.8292 93.1233 32.417 93.5519 31.9389V33.4969C93.3871 33.7442 93.148 34.041 92.8348 34.3872C92.5215 34.7169 92.1341 35.0467 91.6725 35.3764C91.2273 35.7061 90.708 35.9782 90.1145 36.1925C89.5374 36.4068 88.8945 36.514 88.1855 36.514C87.4601 36.514 86.8089 36.3903 86.2319 36.143C85.6548 35.8792 85.2015 35.5 84.8717 35.0054C84.542 34.4944 84.3771 33.8679 84.3771 33.126V31.84C84.3771 30.8838 84.6904 30.1419 85.3169 29.6143C85.9598 29.0703 86.8336 28.7982 87.9382 28.7982H94.3433Z" fill="white"/>
<path d="M109.932 18.4858C111.383 18.4858 112.537 18.6177 113.394 18.8815C114.251 19.1288 114.87 19.574 115.249 20.2169C115.644 20.8599 115.842 21.7667 115.842 22.9372C115.842 24.1572 115.612 25.0887 115.15 25.7317C114.688 26.3747 113.93 26.7456 112.875 26.8446V26.9435C114.177 27.0589 115.084 27.504 115.595 28.2789C116.123 29.0538 116.386 30.1254 116.386 31.4938C116.386 32.6643 116.189 33.5711 115.793 34.2141C115.414 34.8571 114.804 35.3104 113.963 35.5742C113.139 35.8215 112.059 35.9452 110.723 35.9452C109.685 35.9452 108.778 35.9369 108.003 35.9204C107.228 35.9204 106.519 35.904 105.876 35.871C105.233 35.838 104.565 35.7968 103.873 35.7473L104.219 33.4969C104.615 33.5134 105.349 33.5299 106.42 33.5464C107.492 33.5629 108.753 33.5711 110.204 33.5711C110.979 33.5711 111.589 33.5052 112.034 33.3733C112.479 33.2249 112.792 32.9611 112.974 32.5819C113.172 32.1862 113.27 31.6339 113.27 30.925C113.27 30.1336 113.172 29.5319 112.974 29.1197C112.776 28.6911 112.446 28.3943 111.984 28.2294C111.539 28.0481 110.905 27.9574 110.08 27.9574H104.195V25.8554H110.056C110.764 25.8554 111.317 25.7894 111.712 25.6575C112.125 25.5091 112.421 25.2536 112.603 24.8909C112.784 24.5282 112.875 24.0089 112.875 23.3329C112.875 22.657 112.776 22.1376 112.578 21.7749C112.397 21.4122 112.083 21.1732 111.638 21.0578C111.193 20.9259 110.575 20.8599 109.784 20.8599C108.91 20.8599 108.135 20.8599 107.459 20.8599C106.783 20.8599 106.181 20.8682 105.654 20.8846C105.126 20.8846 104.648 20.9011 104.219 20.9341L103.873 18.6837C104.5 18.6177 105.093 18.5765 105.654 18.56C106.231 18.5271 106.857 18.5106 107.533 18.5106C108.226 18.4941 109.025 18.4858 109.932 18.4858ZM106.89 18.6837V35.7473H103.873V18.6837H106.89Z" fill="white"/>
<path d="M124.692 23.3082C126.654 23.3082 128.063 23.6544 128.92 24.3468C129.778 25.0228 130.215 26.0285 130.231 27.3639C130.248 28.4685 129.984 29.3093 129.44 29.8863C128.912 30.4469 128.03 30.7272 126.794 30.7272H119.869V28.8724H125.978C126.538 28.8724 126.893 28.724 127.041 28.4273C127.206 28.1305 127.288 27.7678 127.288 27.3392C127.272 26.6632 127.074 26.1933 126.695 25.9296C126.332 25.6658 125.706 25.5339 124.815 25.5339C124.04 25.5339 123.439 25.641 123.01 25.8554C122.581 26.0697 122.276 26.4571 122.095 27.0177C121.93 27.5782 121.848 28.3861 121.848 29.4412C121.848 30.5623 121.955 31.4278 122.169 32.0378C122.383 32.6479 122.738 33.0683 123.233 33.2991C123.727 33.5134 124.387 33.6206 125.211 33.6206C125.821 33.6206 126.522 33.5958 127.313 33.5464C128.121 33.4969 128.896 33.431 129.638 33.3485L129.934 35.2527C129.489 35.4341 128.978 35.5825 128.401 35.6979C127.824 35.8133 127.222 35.8957 126.596 35.9452C125.986 36.0111 125.409 36.0441 124.865 36.0441C123.381 36.0441 122.186 35.8298 121.279 35.4011C120.389 34.956 119.737 34.2635 119.325 33.3238C118.93 32.3841 118.732 31.1723 118.732 29.6885C118.732 28.0893 118.93 26.8281 119.325 25.9048C119.737 24.9651 120.38 24.2974 121.254 23.9017C122.144 23.506 123.29 23.3082 124.692 23.3082Z" fill="white"/>
<path d="M137.298 23.3082C137.858 23.3082 138.46 23.3247 139.103 23.3576C139.763 23.3906 140.406 23.4401 141.032 23.506C141.659 23.5555 142.219 23.6297 142.714 23.7286L142.516 25.6823C141.725 25.6658 140.933 25.6493 140.142 25.6328C139.367 25.5998 138.6 25.5833 137.842 25.5833C137.166 25.5833 136.63 25.5998 136.234 25.6328C135.855 25.6658 135.583 25.7647 135.418 25.9296C135.27 26.0944 135.196 26.3747 135.196 26.7704C135.196 27.2485 135.328 27.57 135.592 27.7348C135.855 27.8832 136.284 28.0316 136.877 28.18L140.191 28.9466C141.18 29.1939 141.914 29.5731 142.392 30.0842C142.87 30.5788 143.109 31.3454 143.109 32.3841C143.109 33.3898 142.92 34.1564 142.541 34.684C142.178 35.195 141.593 35.5495 140.785 35.7473C139.993 35.9287 138.98 36.0194 137.743 36.0194C137.265 36.0194 136.556 35.9946 135.616 35.9452C134.677 35.9122 133.646 35.805 132.525 35.6237L132.723 33.67C133.053 33.67 133.44 33.6783 133.885 33.6948C134.347 33.7112 134.833 33.7195 135.344 33.7195C135.872 33.7195 136.408 33.7195 136.952 33.7195C137.825 33.7195 138.493 33.6948 138.955 33.6453C139.433 33.5793 139.763 33.4557 139.944 33.2743C140.125 33.0765 140.216 32.7962 140.216 32.4335C140.216 31.9719 140.059 31.6669 139.746 31.5185C139.449 31.3537 139.004 31.197 138.411 31.0486L135.171 30.2573C134.429 30.0595 133.852 29.8122 133.44 29.5154C133.028 29.2021 132.731 28.823 132.55 28.3778C132.368 27.9162 132.278 27.3556 132.278 26.6962C132.278 25.8059 132.443 25.1135 132.772 24.6189C133.119 24.1243 133.654 23.778 134.38 23.5802C135.122 23.3824 136.094 23.2917 137.298 23.3082Z" fill="white"/>
<path d="M149.823 20.1427V32.0873C149.823 32.5984 149.93 32.9611 150.145 33.1754C150.376 33.3898 150.763 33.4969 151.307 33.4969H152.989L153.31 35.599C153.03 35.6814 152.692 35.7556 152.296 35.8215C151.901 35.8875 151.513 35.9287 151.134 35.9452C150.755 35.9782 150.433 35.9946 150.169 35.9946C149.114 35.9946 148.29 35.7144 147.696 35.1538C147.119 34.5768 146.831 33.7525 146.831 32.6808V20.1427H149.823ZM153.434 23.6049V25.6823H144.679V23.7286L147.053 23.6049H153.434Z" fill="white"/>
</svg>
