<svg width="30" height="36" viewBox="0 0 30 36" fill="none" xmlns="http://www.w3.org/2000/svg">
<path d="M13.7571 0.968767C11.3743 1.46877 9.35866 3.08595 8.67116 5.07033C8.28835 6.15627 8.17116 7.66408 8.36647 8.97658C8.4446 9.46877 8.47585 9.56252 8.57741 9.52345C8.64772 9.50002 8.85085 9.45314 9.03835 9.4297C9.35085 9.39064 9.37429 9.3672 9.37429 9.14064C9.37429 8.77345 9.58522 8.02345 9.8196 7.53127C10.1712 6.8047 11.3352 5.81252 11.8352 5.81252C11.8977 5.81252 12.3508 5.9297 12.8352 6.07814C14.054 6.44533 14.8821 6.59377 15.7727 6.59377C16.6868 6.59377 17.2024 6.45314 17.6946 6.08595C17.8899 5.93752 18.1008 5.81252 18.1712 5.81252C18.4368 5.81252 19.2415 6.32814 19.6087 6.72658C20.179 7.35158 20.6243 8.41408 20.6243 9.14845C20.6243 9.31252 20.6634 9.40627 20.7337 9.40627C20.7884 9.40627 20.9446 9.4297 21.0696 9.45314C21.2962 9.50002 21.304 9.4922 21.4837 8.89064C21.7259 8.0547 21.7884 6.75002 21.6087 5.95314C21.2415 4.31252 20.0618 2.93752 18.4993 2.32033C18.0774 2.15627 17.9055 2.04689 17.7962 1.85939C17.6243 1.56252 17.2024 1.25783 16.718 1.07814C16.3118 0.921892 14.3274 0.85158 13.7571 0.968767Z" fill="#28C79E"/>
<path d="M11.3514 6.78906C10.3123 7.49219 9.85916 8.86719 10.0701 10.6641C10.492 14.1328 11.8514 16.7812 13.6482 17.6328C14.1404 17.8672 14.242 17.8828 15.0076 17.8828C15.7967 17.8828 15.8514 17.875 16.4217 17.5859C17.7498 16.9375 18.8826 15.2031 19.4842 12.9219C20.1404 10.4453 20.1014 8.61719 19.3748 7.50781C19.1326 7.14844 18.4685 6.59375 18.281 6.59375C18.2264 6.59375 18.0154 6.69531 17.8201 6.82031C16.742 7.50781 15.1014 7.49219 12.7654 6.78125C12.2732 6.63281 11.8514 6.51562 11.8123 6.51562C11.781 6.51562 11.5701 6.64062 11.3514 6.78906Z" fill="#28C79E"/>
<path d="M8.78059 10.1953C8.38997 10.3047 8.17903 10.5937 8.13997 11.0781C8.06184 12.0703 8.73372 13.0547 9.63997 13.2656C9.8509 13.3203 9.85872 13.3125 9.81965 13.1016C9.5384 11.8281 9.44465 11.3047 9.40559 10.75C9.34309 10.0469 9.33528 10.0312 8.78059 10.1953Z" fill="#28C79E"/>
<path d="M20.6008 10.7422C20.5695 11.1015 20.4758 11.7344 20.3898 12.1406C20.1008 13.4609 20.1008 13.3281 20.3586 13.2656C21.2101 13.0703 21.8742 12.1719 21.8742 11.2109C21.8742 10.5937 21.5695 10.2344 20.9679 10.1406L20.6476 10.0937L20.6008 10.7422Z" fill="#28C79E"/>
<path d="M11.4844 18.0234V19.2109L13.2656 20.9922L15.0469 22.7734L16.7812 20.9766L18.5156 19.1875V18.0078C18.5156 17.3594 18.4922 16.8281 18.4609 16.8281C18.4375 16.8281 18.2266 17.0156 17.9922 17.25C17.4766 17.7812 17.0078 18.1094 16.3828 18.375C15.9531 18.5547 15.7969 18.5781 15 18.5781C14.2031 18.5781 14.0469 18.5547 13.6172 18.375C13 18.1172 12.5156 17.7734 11.9922 17.25C11.7656 17.0156 11.5547 16.8281 11.5312 16.8281C11.5078 16.8281 11.4844 17.3672 11.4844 18.0234Z" fill="#28C79E"/>
<path d="M10.6016 20.4844L10.0781 21.0078L11.1172 23.4844C11.6797 24.8516 12.1719 25.9688 12.2031 25.9688C12.2266 25.9688 12.7656 25.3594 13.3906 24.6172L14.5234 23.2734L12.8672 21.6094C11.9609 20.7031 11.1953 19.9531 11.1719 19.9531C11.1484 19.9531 10.8906 20.1875 10.6016 20.4844Z" fill="#28C79E"/>
<path d="M17.1328 21.6094L15.4766 23.2734L16.6094 24.6172C17.2344 25.3594 17.7734 25.9688 17.7969 25.9688C17.8281 25.9688 18.3203 24.8516 18.8906 23.4922L19.9219 21.0156L19.3984 20.4844C19.1094 20.1953 18.8516 19.9531 18.8281 19.9531C18.8047 19.9531 18.0391 20.7031 17.1328 21.6094Z" fill="#28C79E"/>
<path d="M5.78099 22.5781C3.82786 23.2422 2.1638 23.8516 2.09349 23.9219C1.98411 24.0312 1.84349 24.9453 1.35911 28.8203C1.02318 31.5078 0.780988 33.7578 0.796613 33.9844C0.835676 34.4531 1.05443 34.8047 1.43724 34.9844C1.67161 35.0938 2.25755 35.1094 6.74974 35.1094H11.7888L11.8669 34.8125C11.906 34.6562 12.3826 32.8516 12.9216 30.8047C13.4607 28.7656 13.906 27.0391 13.906 26.9688C13.906 26.8359 13.3513 25.8125 13.2888 25.8125C13.2654 25.8203 13.031 26.0781 12.7732 26.3984C12.5154 26.7188 12.2576 27 12.2029 27.0234C11.8982 27.1406 11.8904 27.1172 10.1482 22.9453C9.7888 22.0781 9.46068 21.3672 9.4138 21.3672C9.37474 21.3672 7.73411 21.9141 5.78099 22.5781Z" fill="#28C79E"/>
<path d="M19.375 24.0781C18.75 25.5703 18.1797 26.8516 18.1016 26.9297C17.9141 27.1172 17.7734 27.0312 17.2188 26.3672C16.9609 26.0703 16.7344 25.8203 16.7109 25.8203C16.6875 25.8125 16.5312 26.0703 16.3672 26.3828L16.0703 26.9531L17.0703 30.7344C17.6172 32.8203 18.1016 34.6562 18.1484 34.8125L18.2188 35.1094H23.3203H28.4141L28.6797 34.9297C29.0156 34.7031 29.2188 34.3047 29.2188 33.8516C29.2188 33.6562 28.9531 31.375 28.6328 28.7734C28.0859 24.4062 28.0312 24.0391 27.8672 23.8906C27.7578 23.7812 26.4531 23.3125 24.1406 22.5391C22.1875 21.8906 20.5703 21.3594 20.5469 21.3594C20.5234 21.3594 20 22.5859 19.375 24.0781ZM23.3438 25.6719C23.4062 25.7344 23.4375 26.0234 23.4375 26.4531V27.1406H24.4922C25.4531 27.1406 25.5469 27.1562 25.625 27.2891C25.6719 27.3906 25.7031 28.4141 25.7031 30.0859C25.7031 32.3516 25.6875 32.7578 25.5781 32.9062C25.4609 33.0781 25.4531 33.0781 23.0938 33.0781C21.3672 33.0781 20.7109 33.0547 20.6406 32.9844C20.5078 32.8516 20.5078 27.3672 20.6406 27.2344C20.7031 27.1719 21.0625 27.1406 21.7344 27.1406H22.7344V26.5078C22.7344 26.1641 22.7734 25.8125 22.8125 25.7266C22.9062 25.5625 23.2031 25.5312 23.3438 25.6719Z" fill="#28C79E"/>
<path d="M21.25 30.1094V32.375H23.125H25V30.1094V27.8438H23.125H21.25V30.1094Z" fill="#28C79E"/>
<path d="M14.4133 24.4531C14.1164 24.8203 13.8586 25.1484 13.843 25.1875C13.8274 25.2266 13.968 25.5469 14.1477 25.8906L14.4836 26.5156H14.9992H15.5227L15.8508 25.9141C16.0305 25.5781 16.1633 25.2656 16.1555 25.2109C16.132 25.1016 15.0617 23.7891 14.9992 23.7891C14.9758 23.7891 14.718 24.0859 14.4133 24.4531Z" fill="#28C79E"/>
<path d="M13.5618 31.0703C13.0072 33.1797 12.5384 34.9609 12.5228 35.0078C12.4915 35.0859 13.015 35.1094 14.9993 35.1094C16.9759 35.1094 17.5072 35.0859 17.4837 35.0078C17.4603 34.9609 16.9915 33.1797 16.4368 31.0703L15.429 27.2188H14.9993H14.5697L13.5618 31.0703Z" fill="#28C79E"/>
</svg>
