<svg width="154" height="55" viewBox="0 0 154 55" fill="none" xmlns="http://www.w3.org/2000/svg">
<path d="M40 39.9124C40.0065 43.49 36.2117 45.7275 33.181 43.9329L13.2804 32.1489C11.8821 31.3209 11.0202 29.7963 11.0171 28.1456L10.9744 4.65316C10.9679 1.07552 14.7627 -1.16197 17.7934 0.632616L37.694 12.4166C39.0923 13.2446 39.9542 14.7693 39.9572 16.4199L40 39.9124Z" fill="white"/>
<path d="M8.37154e-06 15.0876C-0.00650441 11.51 3.78833 9.27251 6.81898 11.0671L26.7196 22.8511C28.1179 23.6791 28.9799 25.2037 28.9829 26.8544L29.0256 50.3468C29.0321 53.9245 25.2373 56.162 22.2066 54.3674L2.30602 42.5834C0.907723 41.7554 0.0457791 40.2307 0.0427742 38.5801L8.37154e-06 15.0876Z" fill="white"/>
<path d="M59.6022 19.2031C59.866 19.2031 60.0968 19.2773 60.2946 19.4257C60.4924 19.5741 60.6326 19.7719 60.715 20.0192L65.8836 36.2668H62.7181L58.8108 23.1105C58.7449 22.8467 58.6789 22.5829 58.613 22.3191C58.547 22.0553 58.4893 21.7998 58.4399 21.5525H57.7474C57.698 21.7998 57.6403 22.0553 57.5743 22.3191C57.5084 22.5829 57.4342 22.8467 57.3517 23.1105L53.4691 36.2668H50.3037L55.4723 20.0192C55.5382 19.7719 55.6701 19.5741 55.8679 19.4257C56.0823 19.2773 56.3213 19.2031 56.5851 19.2031H59.6022ZM62.4708 28.9715V31.395H53.6917V28.9715H62.4708Z" fill="white"/>
<path d="M70.6972 18.9558L70.6725 32.6068C70.6725 33.0684 70.8044 33.4228 71.0682 33.6701C71.332 33.901 71.7111 34.0164 72.2057 34.0164H73.2691L73.6154 36.1184C73.434 36.2008 73.1785 36.275 72.8487 36.341C72.5355 36.4069 72.2057 36.4481 71.8595 36.4646C71.5298 36.4976 71.2413 36.5141 70.994 36.5141C69.9883 36.5141 69.1887 36.2421 68.5952 35.698C68.0017 35.1539 67.7049 34.3708 67.7049 33.3487V18.9558H70.6972Z" fill="white"/>
<path d="M80.134 18.486C80.4143 18.486 80.777 18.4942 81.2221 18.5107C81.6838 18.5272 82.1536 18.5519 82.6317 18.5849C83.1098 18.6014 83.5138 18.6426 83.8435 18.7085L83.5962 20.7117H81.1974C80.505 20.7117 80.0186 20.8518 79.7383 21.1321C79.4581 21.4123 79.3179 21.8822 79.3179 22.5417V36.2668H76.3256V22.1707C76.3256 21.3959 76.4492 20.7364 76.6965 20.1923C76.9438 19.6483 77.3478 19.2279 77.9083 18.9311C78.4689 18.6343 79.2108 18.486 80.134 18.486ZM82.9285 24.1244V26.2017H74.1741V24.248L76.4245 24.1244H82.9285Z" fill="white"/>
<path d="M91.1284 23.8276C92.1011 23.8276 92.9172 23.9595 93.5767 24.2233C94.2526 24.4706 94.7637 24.8993 95.1099 25.5093C95.4561 26.1193 95.6292 26.9601 95.6292 28.0317V36.2668H93.2552L92.8348 33.6454L92.6122 33.2992V28.007C92.6122 27.364 92.4638 26.9024 92.1671 26.6221C91.8703 26.3254 91.3015 26.177 90.4607 26.177C89.8342 26.177 89.0428 26.2017 88.0866 26.2512C87.1469 26.3006 86.1989 26.3666 85.2427 26.449L84.9706 24.3964C85.5477 24.281 86.1989 24.1821 86.9243 24.0997C87.6497 24.0172 88.3834 23.9513 89.1253 23.9018C89.8672 23.8524 90.5349 23.8276 91.1284 23.8276ZM94.3433 28.7983L94.3186 30.6531H88.7543C88.2597 30.6696 87.9053 30.8015 87.6909 31.0488C87.4766 31.2961 87.3694 31.634 87.3694 32.0627V32.7304C87.3694 33.225 87.5013 33.6042 87.7651 33.868C88.0289 34.1153 88.4411 34.2389 89.0016 34.2389C89.4468 34.2389 89.9414 34.1483 90.4854 33.9669C91.0295 33.7856 91.5653 33.5218 92.0929 33.1755C92.6369 32.8293 93.1233 32.4172 93.5519 31.9391V33.497C93.3871 33.7443 93.148 34.0411 92.8348 34.3873C92.5215 34.717 92.1341 35.0468 91.6725 35.3765C91.2273 35.7062 90.708 35.9783 90.1145 36.1926C89.5374 36.4069 88.8945 36.5141 88.1855 36.5141C87.4601 36.5141 86.8089 36.3904 86.2319 36.1431C85.6548 35.8794 85.2015 35.5002 84.8717 35.0056C84.542 34.4945 84.3771 33.868 84.3771 33.1261V31.8401C84.3771 30.8839 84.6904 30.142 85.3169 29.6144C85.9598 29.0704 86.8336 28.7983 87.9382 28.7983H94.3433Z" fill="white"/>
<path d="M109.932 18.486C111.383 18.486 112.537 18.6179 113.394 18.8816C114.251 19.1289 114.87 19.5741 115.249 20.2171C115.644 20.86 115.842 21.7668 115.842 22.9374C115.842 24.1574 115.612 25.0889 115.15 25.7318C114.688 26.3748 113.93 26.7458 112.875 26.8447V26.9436C114.177 27.059 115.084 27.5041 115.595 28.279C116.123 29.0539 116.386 30.1255 116.386 31.4939C116.386 32.6645 116.189 33.5712 115.793 34.2142C115.414 34.8572 114.804 35.3106 113.963 35.5744C113.139 35.8217 112.059 35.9453 110.723 35.9453C109.685 35.9453 108.778 35.9371 108.003 35.9206C107.228 35.9206 106.519 35.9041 105.876 35.8711C105.233 35.8381 104.565 35.7969 103.873 35.7475L104.219 33.497C104.615 33.5135 105.349 33.53 106.42 33.5465C107.492 33.563 108.753 33.5712 110.204 33.5712C110.979 33.5712 111.589 33.5053 112.034 33.3734C112.479 33.225 112.792 32.9612 112.974 32.582C113.172 32.1863 113.27 31.634 113.27 30.9251C113.27 30.1338 113.172 29.532 112.974 29.1198C112.776 28.6912 112.446 28.3944 111.984 28.2296C111.539 28.0482 110.905 27.9575 110.08 27.9575H104.195V25.8555H110.056C110.764 25.8555 111.317 25.7895 111.712 25.6576C112.125 25.5093 112.421 25.2537 112.603 24.891C112.784 24.5283 112.875 24.009 112.875 23.333C112.875 22.6571 112.776 22.1377 112.578 21.775C112.397 21.4123 112.083 21.1733 111.638 21.0579C111.193 20.926 110.575 20.86 109.784 20.86C108.91 20.86 108.135 20.86 107.459 20.86C106.783 20.86 106.181 20.8683 105.654 20.8848C105.126 20.8848 104.648 20.9013 104.219 20.9342L103.873 18.6838C104.5 18.6179 105.093 18.5766 105.654 18.5602C106.231 18.5272 106.857 18.5107 107.533 18.5107C108.226 18.4942 109.025 18.486 109.932 18.486ZM106.89 18.6838V35.7475H103.873V18.6838H106.89Z" fill="white"/>
<path d="M124.692 23.3083C126.654 23.3083 128.063 23.6545 128.92 24.347C129.778 25.0229 130.215 26.0286 130.231 27.364C130.248 28.4686 129.984 29.3094 129.44 29.8865C128.912 30.447 128.03 30.7273 126.794 30.7273H119.869V28.8725H125.978C126.538 28.8725 126.893 28.7242 127.041 28.4274C127.206 28.1306 127.288 27.7679 127.288 27.3393C127.272 26.6633 127.074 26.1935 126.695 25.9297C126.332 25.6659 125.706 25.534 124.815 25.534C124.04 25.534 123.439 25.6412 123.01 25.8555C122.581 26.0698 122.276 26.4572 122.095 27.0178C121.93 27.5783 121.848 28.3862 121.848 29.4413C121.848 30.5624 121.955 31.428 122.169 32.038C122.383 32.648 122.738 33.0684 123.233 33.2992C123.727 33.5135 124.387 33.6207 125.211 33.6207C125.821 33.6207 126.522 33.596 127.313 33.5465C128.121 33.497 128.896 33.4311 129.638 33.3487L129.934 35.2529C129.489 35.4342 128.978 35.5826 128.401 35.698C127.824 35.8134 127.222 35.8958 126.596 35.9453C125.986 36.0112 125.409 36.0442 124.865 36.0442C123.381 36.0442 122.186 35.8299 121.279 35.4012C120.389 34.9561 119.737 34.2637 119.325 33.3239C118.93 32.3842 118.732 31.1724 118.732 29.6886C118.732 28.0894 118.93 26.8282 119.325 25.9049C119.737 24.9652 120.38 24.2975 121.254 23.9018C122.144 23.5061 123.29 23.3083 124.692 23.3083Z" fill="white"/>
<path d="M137.298 23.3083C137.858 23.3083 138.46 23.3248 139.103 23.3578C139.763 23.3907 140.406 23.4402 141.032 23.5061C141.659 23.5556 142.219 23.6298 142.714 23.7287L142.516 25.6824C141.725 25.6659 140.933 25.6494 140.142 25.6329C139.367 25.5999 138.6 25.5835 137.842 25.5835C137.166 25.5835 136.63 25.5999 136.234 25.6329C135.855 25.6659 135.583 25.7648 135.418 25.9297C135.27 26.0945 135.196 26.3748 135.196 26.7705C135.196 27.2486 135.328 27.5701 135.592 27.735C135.855 27.8833 136.284 28.0317 136.877 28.1801L140.191 28.9467C141.18 29.194 141.914 29.5732 142.392 30.0843C142.87 30.5789 143.109 31.3455 143.109 32.3842C143.109 33.3899 142.92 34.1565 142.541 34.6841C142.178 35.1952 141.593 35.5496 140.785 35.7475C139.993 35.9288 138.98 36.0195 137.743 36.0195C137.265 36.0195 136.556 35.9948 135.616 35.9453C134.677 35.9123 133.646 35.8052 132.525 35.6238L132.723 33.6701C133.053 33.6701 133.44 33.6784 133.885 33.6949C134.347 33.7114 134.833 33.7196 135.344 33.7196C135.872 33.7196 136.408 33.7196 136.952 33.7196C137.825 33.7196 138.493 33.6949 138.955 33.6454C139.433 33.5795 139.763 33.4558 139.944 33.2745C140.125 33.0766 140.216 32.7964 140.216 32.4336C140.216 31.972 140.059 31.667 139.746 31.5186C139.449 31.3538 139.004 31.1972 138.411 31.0488L135.171 30.2574C134.429 30.0596 133.852 29.8123 133.44 29.5155C133.028 29.2023 132.731 28.8231 132.55 28.3779C132.368 27.9163 132.278 27.3558 132.278 26.6963C132.278 25.806 132.443 25.1136 132.772 24.619C133.119 24.1244 133.654 23.7782 134.38 23.5803C135.122 23.3825 136.094 23.2918 137.298 23.3083Z" fill="white"/>
<path d="M149.823 20.1429V32.0874C149.823 32.5985 149.93 32.9612 150.145 33.1755C150.376 33.3899 150.763 33.497 151.307 33.497H152.989L153.31 35.5991C153.03 35.6815 152.692 35.7557 152.296 35.8217C151.901 35.8876 151.513 35.9288 151.134 35.9453C150.755 35.9783 150.433 35.9948 150.169 35.9948C149.114 35.9948 148.29 35.7145 147.696 35.1539C147.119 34.5769 146.831 33.7526 146.831 32.6809V20.1429H149.823ZM153.434 23.6051V25.6824H144.679V23.7287L147.053 23.6051H153.434Z" fill="white"/>
</svg>
