<svg width="40" height="36" viewBox="0 0 40 36" fill="none" xmlns="http://www.w3.org/2000/svg">
<path d="M18.5079 0.390622C15.1095 0.999997 12.4454 3.4375 11.5157 6.75781C11.2423 7.75781 11.1642 9.64844 11.3595 10.7422C11.8673 13.5859 13.2892 16.4219 15.7267 19.4609C16.5235 20.4687 18.1095 22.1953 18.6954 22.7109C19.297 23.2344 19.5938 23.3906 20.0001 23.3906C20.4063 23.3906 20.7032 23.2344 21.3048 22.7109C21.8907 22.1953 23.4767 20.4687 24.2735 19.4609C27.2267 15.7734 28.7501 12.2656 28.7579 9.14844C28.7579 7.65625 28.5313 6.5625 27.9688 5.35937C26.4923 2.20312 23.3907 0.242185 19.9298 0.273435C19.4767 0.273435 18.836 0.328122 18.5079 0.390622ZM20.9767 7.04687C21.4063 7.25781 21.8985 7.8125 22.0704 8.25781C22.2657 8.78125 22.2032 9.65625 21.9298 10.1172C21.4845 10.8828 20.8673 11.2422 20.0001 11.2422C19.1329 11.2422 18.5157 10.8828 18.0704 10.1172C17.797 9.65625 17.7345 8.78125 17.9298 8.25781C18.1642 7.65625 18.7501 7.10156 19.3751 6.89844C19.7188 6.78125 20.6329 6.86719 20.9767 7.04687Z" fill="#28C79E"/>
<path d="M4.84408 18.6406C4.6097 18.7656 4.43783 18.9219 4.32064 19.1328C4.15658 19.4375 2.91439 23.6875 2.97689 23.7344C2.99251 23.7422 9.08626 24.8672 16.516 26.2266L30.0238 28.6953L33.3519 25.9531C35.18 24.4453 36.7191 23.1719 36.7738 23.125C36.8441 23.0625 36.7425 22.6172 36.3597 21.2422C36.0785 20.25 35.7738 19.3047 35.68 19.1328C35.5628 18.9219 35.391 18.7656 35.1566 18.6406C34.8128 18.4688 34.7972 18.4688 31.016 18.4688H27.2269L26.8363 19.0313C25.766 20.5703 23.5785 23.0703 22.4144 24.0938C22.0472 24.4219 21.555 24.7656 21.2581 24.9063C20.7894 25.125 20.6722 25.1484 20.0003 25.1484C19.3285 25.1484 19.2113 25.125 18.7425 24.9063C18.4456 24.7656 17.9535 24.4219 17.5863 24.0938C16.4222 23.0703 14.2347 20.5703 13.1644 19.0313L12.7738 18.4688H8.9847C5.20345 18.4688 5.18783 18.4688 4.84408 18.6406Z" fill="#28C79E"/>
<path d="M30.875 30.289L24.4453 35.6953L31.7188 35.7187C38.8359 35.7344 38.9922 35.7344 39.2891 35.5781C39.7188 35.3594 39.9453 35.0156 39.9844 34.5078C40.0156 34.1406 39.8516 33.5 38.7031 29.4844C37.9844 26.9453 37.3672 24.875 37.3438 24.8828C37.3203 24.8828 34.4141 27.3203 30.875 30.289Z" fill="#28C79E"/>
<path d="M2.39088 25.6328C2.36744 25.7109 1.82057 27.6328 1.17213 29.9141C0.140881 33.5078 -0.00755646 34.1094 0.015881 34.4922C0.0549435 35.0156 0.273694 35.3594 0.703381 35.5781C0.992444 35.7266 1.17213 35.7344 3.82838 35.7344H6.64088V30.9844V26.2344L4.59401 25.8672C3.46119 25.6641 2.51588 25.4922 2.48463 25.5C2.45338 25.5 2.41432 25.5625 2.39088 25.6328Z" fill="#28C79E"/>
<path d="M8.4375 31.1641V35.7344H15.0391H21.6328L24.8594 33.0312C26.6328 31.5391 28.0938 30.2969 28.1094 30.2578C28.125 30.2188 28.0547 30.1719 27.9531 30.1484C27.6875 30.0859 8.59375 26.5938 8.50781 26.5938C8.46875 26.5938 8.4375 28.4453 8.4375 31.1641Z" fill="#28C79E"/>
</svg>
