<svg width="20" height="28" viewBox="0 0 20 28" fill="none" xmlns="http://www.w3.org/2000/svg">
<path d="M20 20.319C20.0033 22.1404 18.1058 23.2794 16.5905 22.3658L6.6402 16.3667C5.94105 15.9452 5.51008 15.169 5.50857 14.3287L5.48719 2.36888C5.48393 0.547537 7.38135 -0.591547 8.89668 0.322059L18.847 6.3212C19.5461 6.74273 19.9771 7.5189 19.9786 8.35924L20 20.319Z" fill="white"/>
<path d="M4.18577e-06 7.68098C-0.0032522 5.85963 1.89417 4.72055 3.40949 5.63416L13.3598 11.6333C14.059 12.0548 14.4899 12.831 14.4914 13.6713L14.5128 25.6311C14.5161 27.4525 12.6186 28.5915 11.1033 27.6779L1.15301 21.6788C0.453861 21.2573 0.0228895 20.4811 0.0213871 19.6408L4.18577e-06 7.68098Z" fill="white"/>
</svg>
