<svg width="100" height="36" viewBox="0 0 100 36" fill="none" xmlns="http://www.w3.org/2000/svg">
<path d="M26 26.068C26.0042 28.3935 23.5376 29.8479 21.5677 28.6814L8.63226 21.0218C7.72336 20.4836 7.1631 19.4926 7.16114 18.4196L7.13335 3.14956C7.12911 0.824087 9.59576 -0.630278 11.5657 0.5362L24.5011 8.19582C25.41 8.73402 25.9702 9.72503 25.9722 10.798L26 26.068Z" fill="#602CF0"/>
<path d="M5.4415e-06 9.93197C-0.00422787 7.6065 2.46242 6.15213 4.43234 7.31861L17.3677 14.9782C18.2766 15.5164 18.8369 16.5074 18.8389 17.5804L18.8667 32.8504C18.8709 35.1759 16.4042 36.6303 14.4343 35.4638L1.49891 27.8042C0.59002 27.266 0.0297564 26.275 0.0278032 25.202L5.4415e-06 9.93197Z" fill="#28C79E"/>
<path d="M38.7413 12.607C38.9127 12.607 39.0628 12.6553 39.1913 12.7517C39.3199 12.8481 39.411 12.9767 39.4646 13.1375L42.8242 23.6984H40.7666L38.2269 15.1468C38.184 14.9753 38.1412 14.8039 38.0983 14.6324C38.0554 14.4609 38.0179 14.2948 37.9858 14.1341H37.5357C37.5035 14.2948 37.466 14.4609 37.4232 14.6324C37.3803 14.8039 37.3321 14.9753 37.2785 15.1468L34.7548 23.6984H32.6973L36.0568 13.1375C36.0997 12.9767 36.1854 12.8481 36.314 12.7517C36.4533 12.6553 36.6087 12.607 36.7802 12.607H38.7413ZM40.6059 18.9564V20.5317H34.8995V18.9564H40.6059Z" fill="#1B2330"/>
<path d="M45.953 12.4463L45.937 21.3194C45.937 21.6194 46.0227 21.8498 46.1942 22.0106C46.3656 22.1606 46.6121 22.2356 46.9336 22.2356H47.6248L47.8498 23.602C47.732 23.6555 47.5659 23.7038 47.3515 23.7466C47.1479 23.7895 46.9336 23.8163 46.7085 23.827C46.4942 23.8484 46.3067 23.8592 46.1459 23.8592C45.4922 23.8592 44.9725 23.6823 44.5867 23.3287C44.2009 22.9751 44.008 22.466 44.008 21.8016V12.4463H45.953Z" fill="#1B2330"/>
<path d="M52.087 12.1409C52.2691 12.1409 52.5049 12.1462 52.7942 12.1569C53.0943 12.1677 53.3997 12.1837 53.7105 12.2052C54.0213 12.2159 54.2838 12.2427 54.4981 12.2855L54.3374 13.5876H52.7782C52.3281 13.5876 52.0119 13.6787 51.8298 13.8608C51.6476 14.043 51.5565 14.3484 51.5565 14.7771V23.6984H49.6115V14.536C49.6115 14.0323 49.6919 13.6036 49.8526 13.25C50.0134 12.8964 50.2759 12.6231 50.6403 12.4302C51.0046 12.2373 51.4868 12.1409 52.087 12.1409ZM53.9034 15.8058V17.1561H48.213V15.8862L49.6758 15.8058H53.9034Z" fill="#1B2330"/>
<path d="M59.2333 15.613C59.8656 15.613 60.396 15.6987 60.8247 15.8701C61.2641 16.0309 61.5963 16.3095 61.8213 16.706C62.0463 17.1025 62.1589 17.6491 62.1589 18.3456V23.6984H60.6157L60.3425 21.9945L60.1978 21.7695V18.3295C60.1978 17.9116 60.1013 17.6115 59.9084 17.4294C59.7155 17.2365 59.3458 17.14 58.7993 17.14C58.3921 17.14 57.8777 17.1561 57.2562 17.1883C56.6453 17.2204 56.0291 17.2633 55.4076 17.3168L55.2308 15.9827C55.6058 15.9077 56.0291 15.8434 56.5007 15.7898C56.9722 15.7362 57.449 15.6933 57.9313 15.6612C58.4135 15.629 58.8475 15.613 59.2333 15.613ZM61.323 18.8439L61.3069 20.0495H57.6902C57.3687 20.0602 57.1383 20.146 56.999 20.3067C56.8597 20.4674 56.79 20.6871 56.79 20.9657V21.3998C56.79 21.7212 56.8757 21.9677 57.0472 22.1392C57.2186 22.2999 57.4866 22.3803 57.8509 22.3803C58.1403 22.3803 58.4617 22.3214 58.8154 22.2035C59.169 22.0856 59.5173 21.9141 59.8602 21.6891C60.2139 21.4641 60.53 21.1961 60.8086 20.8854V21.8981C60.7015 22.0588 60.5461 22.2517 60.3425 22.4767C60.1388 22.6911 59.887 22.9054 59.587 23.1197C59.2976 23.3341 58.96 23.5109 58.5743 23.6502C58.1992 23.7895 57.7813 23.8592 57.3205 23.8592C56.8489 23.8592 56.4256 23.7788 56.0506 23.618C55.6755 23.4466 55.3808 23.2001 55.1665 22.8786C54.9521 22.5464 54.845 22.1392 54.845 21.6569V20.8211C54.845 20.1995 55.0486 19.7173 55.4558 19.3744C55.8738 19.0207 56.4417 18.8439 57.1597 18.8439H61.323Z" fill="#1B2330"/>
<path d="M71.4548 12.1408C72.3979 12.1408 73.148 12.2266 73.7053 12.398C74.2625 12.5588 74.6644 12.8481 74.9109 13.2661C75.168 13.684 75.2966 14.2734 75.2966 15.0342C75.2966 15.8272 75.1466 16.4327 74.8466 16.8507C74.5465 17.2686 74.0535 17.5097 73.3677 17.574V17.6383C74.2143 17.7133 74.8037 18.0027 75.1359 18.5063C75.4788 19.01 75.6503 19.7066 75.6503 20.596C75.6503 21.3569 75.5217 21.9463 75.2645 22.3642C75.018 22.7821 74.6215 23.0768 74.075 23.2483C73.5392 23.409 72.8372 23.4894 71.9692 23.4894C71.2941 23.4894 70.7047 23.4841 70.201 23.4733C69.6974 23.4733 69.2366 23.4626 68.8186 23.4412C68.4007 23.4198 67.9667 23.393 67.5166 23.3608L67.7416 21.898C67.9988 21.9088 68.4757 21.9195 69.1723 21.9302C69.8688 21.9409 70.6886 21.9463 71.6317 21.9463C72.1353 21.9463 72.5318 21.9034 72.8212 21.8177C73.1105 21.7212 73.3141 21.5498 73.432 21.3033C73.5606 21.0461 73.6249 20.6871 73.6249 20.2263C73.6249 19.7119 73.5606 19.3208 73.432 19.0529C73.3034 18.7742 73.0891 18.5813 72.789 18.4742C72.4997 18.3563 72.0871 18.2974 71.5513 18.2974H67.7256V16.931H71.5352C71.996 16.931 72.355 16.8882 72.6122 16.8024C72.8801 16.706 73.073 16.5399 73.1909 16.3041C73.3088 16.0684 73.3677 15.7308 73.3677 15.2914C73.3677 14.8521 73.3034 14.5145 73.1748 14.2787C73.0569 14.043 72.8533 13.8876 72.564 13.8126C72.2746 13.7269 71.8728 13.684 71.3584 13.684C70.7904 13.684 70.2868 13.684 69.8474 13.684C69.408 13.684 69.0169 13.6893 68.674 13.7001C68.331 13.7001 68.0203 13.7108 67.7416 13.7322L67.5166 12.2694C67.9238 12.2266 68.3096 12.1998 68.674 12.1891C69.049 12.1676 69.4563 12.1569 69.8956 12.1569C70.3457 12.1462 70.8654 12.1408 71.4548 12.1408ZM69.4777 12.2694V23.3608H67.5166V12.2694H69.4777Z" fill="#1B2330"/>
<path d="M81.0487 15.2754C82.3239 15.2754 83.2401 15.5004 83.7974 15.9505C84.3546 16.3899 84.6386 17.0435 84.6493 17.9116C84.6601 18.6296 84.4886 19.1761 84.135 19.5512C83.792 19.9155 83.2187 20.0977 82.415 20.0977H77.9141V18.8921H81.8845C82.2489 18.8921 82.4793 18.7957 82.5757 18.6028C82.6829 18.4099 82.7365 18.1741 82.7365 17.8955C82.7258 17.4561 82.5972 17.1507 82.3507 16.9793C82.1149 16.8078 81.7077 16.7221 81.129 16.7221C80.6254 16.7221 80.2342 16.7917 79.9556 16.931C79.677 17.0703 79.4787 17.3222 79.3608 17.6865C79.2537 18.0509 79.2001 18.576 79.2001 19.2618C79.2001 19.9905 79.2698 20.5531 79.4091 20.9496C79.5484 21.3461 79.7788 21.6194 80.1003 21.7694C80.4218 21.9088 80.8504 21.9784 81.3862 21.9784C81.7827 21.9784 82.2382 21.9623 82.7526 21.9302C83.2777 21.898 83.7813 21.8552 84.2636 21.8016L84.4564 23.0393C84.1671 23.1572 83.8349 23.2537 83.4598 23.3287C83.0848 23.4037 82.6936 23.4573 82.2864 23.4894C81.8899 23.5323 81.5148 23.5537 81.1612 23.5537C80.1967 23.5537 79.4198 23.4144 78.8304 23.1358C78.2517 22.8464 77.8284 22.3963 77.5605 21.7855C77.3033 21.1747 77.1747 20.387 77.1747 19.4226C77.1747 18.3831 77.3033 17.5633 77.5605 16.9632C77.8284 16.3523 78.2463 15.9183 78.8143 15.6611C79.393 15.404 80.1378 15.2754 81.0487 15.2754Z" fill="#1B2330"/>
<path d="M89.2427 15.2754C89.6071 15.2754 89.9982 15.2861 90.4162 15.3075C90.8448 15.3289 91.2628 15.3611 91.67 15.404C92.0772 15.4361 92.4416 15.4843 92.7631 15.5486L92.6345 16.8185C92.1201 16.8078 91.6057 16.7971 91.0913 16.7864C90.5876 16.7649 90.0893 16.7542 89.5964 16.7542C89.157 16.7542 88.8087 16.7649 88.5515 16.7864C88.3051 16.8078 88.1282 16.8721 88.0211 16.9793C87.9246 17.0864 87.8764 17.2686 87.8764 17.5258C87.8764 17.8366 87.9621 18.0455 88.1336 18.1527C88.3051 18.2491 88.5837 18.3456 88.9695 18.442L91.1235 18.9403C91.7664 19.1011 92.2433 19.3476 92.5541 19.6798C92.8649 20.0013 93.0202 20.4996 93.0202 21.1747C93.0202 21.8284 92.897 22.3267 92.6505 22.6696C92.4148 23.0018 92.0343 23.2322 91.5092 23.3608C90.9949 23.4787 90.3358 23.5376 89.5321 23.5376C89.2213 23.5376 88.7605 23.5216 88.1497 23.4894C87.5388 23.468 86.8691 23.3983 86.1404 23.2804L86.269 22.0106C86.4833 22.0106 86.7351 22.0159 87.0245 22.0266C87.3245 22.0373 87.6407 22.0427 87.9729 22.0427C88.3158 22.0427 88.6641 22.0427 89.0177 22.0427C89.5857 22.0427 90.0197 22.0266 90.3197 21.9945C90.6305 21.9516 90.8448 21.8712 90.9627 21.7534C91.0806 21.6248 91.1395 21.4426 91.1395 21.2068C91.1395 20.9068 91.0377 20.7085 90.8341 20.6121C90.6412 20.5049 90.3519 20.4031 89.9661 20.3067L87.8603 19.7923C87.3781 19.6637 87.003 19.5029 86.7351 19.31C86.4672 19.1064 86.2743 18.86 86.1564 18.5706C86.0386 18.2706 85.9796 17.9062 85.9796 17.4776C85.9796 16.8989 86.0868 16.4488 86.3011 16.1273C86.5262 15.8058 86.8744 15.5808 87.346 15.4522C87.8282 15.3236 88.4605 15.2646 89.2427 15.2754Z" fill="#1B2330"/>
<path d="M97.3842 13.2178V20.9818C97.3842 21.314 97.4539 21.5498 97.5932 21.6891C97.7432 21.8284 97.995 21.898 98.3487 21.898H99.4417L99.6507 23.2644C99.4685 23.3179 99.2488 23.3662 98.9917 23.409C98.7345 23.4519 98.4826 23.4787 98.2362 23.4894C97.9897 23.5108 97.7807 23.5216 97.6092 23.5216C96.9234 23.5216 96.3876 23.3394 96.0018 22.975C95.6267 22.6 95.4392 22.0641 95.4392 21.3676V13.2178H97.3842ZM99.7311 15.4683V16.8185H94.0407V15.5486L95.5839 15.4683H99.7311Z" fill="#1B2330"/>
</svg>
