<svg width="40" height="36" viewBox="0 0 40 36" fill="none" xmlns="http://www.w3.org/2000/svg">
<path d="M8.67285 0.398438C7.2041 0.546875 5.10254 1.00781 3.73535 1.48438C2.10254 2.05469 0.555664 2.77344 0.235352 3.11719L0.0400391 3.32812L0.0166016 10.4297L0.000976562 17.5312L0.211914 17.4766C0.579102 17.3828 3.27441 17.4141 4.06348 17.5234C5.79785 17.7578 7.47754 18.2656 9.02441 19.0156C13.2822 21.1016 15.8369 24.5391 16.79 29.4922C16.9229 30.2109 17.1104 31.6797 17.1104 32.0625C17.1104 32.1562 17.2354 32.2422 17.4854 32.3359C17.6885 32.4141 18.5947 32.8203 19.501 33.2422C22.1104 34.4453 23.9229 35.0391 26.2432 35.4375C27.0869 35.5859 27.54 35.6094 29.3369 35.6172C31.6025 35.6172 32.3838 35.5391 34.0635 35.1406C36.3057 34.6172 39.2354 33.4531 39.7666 32.8828C39.9541 32.6797 39.9619 32.6406 39.9854 31.3281L40.0088 29.9766L38.501 29.9297C37.2744 29.8984 36.8369 29.8516 36.1729 29.6953C35.1416 29.4531 34.1025 29.0547 33.0479 28.5C30.3916 27.0938 29.6729 26.2031 28.3604 22.6875C27.2354 19.6797 26.4932 18.7031 24.1807 17.1641C23.251 16.5469 22.6729 16.2188 20.8994 15.3047C18.0635 13.8438 16.9775 13.125 15.9385 12.0156C14.4385 10.4219 13.5557 8.23438 13.165 5.17969C13.0947 4.64844 13.0166 3.35938 12.9932 2.32812L12.9463 0.445312L12.4307 0.390625C11.9072 0.34375 9.16504 0.34375 8.67285 0.398438Z" fill="#28C79E"/>
<path d="M15.2354 1.72656C15.2354 2.98438 15.376 4.76563 15.5479 5.75781C15.7666 7.04688 16.04 7.92969 16.54 8.9375C16.9385 9.75 17.0479 9.90625 17.7666 10.625C18.7041 11.5625 19.2275 11.8984 21.8682 13.2656C27.4229 16.1484 28.8525 17.5703 30.4307 21.7891C31.6025 24.9219 32.0322 25.4609 34.2822 26.5938C35.8604 27.3828 36.7275 27.6016 38.6182 27.6641L40.001 27.7109L39.9854 15.5156L39.9619 3.32813L39.7666 3.11719C39.2666 2.58594 38.751 2.55469 37.8291 3C34.0166 4.84375 29.9932 5.42969 26.1729 4.71094C24.2666 4.35156 22.9307 3.89063 20.5088 2.76563C19.6104 2.35156 18.4697 1.85938 17.9854 1.67969C17.1182 1.35938 15.54 0.890627 15.3369 0.890627C15.2588 0.890627 15.2354 1.08594 15.2354 1.72656ZM32.8213 11.0625C33.4854 11.2578 34.0557 11.9922 34.0635 12.6406C34.0713 14.0156 32.6885 14.8438 31.5088 14.1719C30.29 13.4688 30.3838 11.7578 31.6729 11.1563C32.1182 10.9453 32.3838 10.9297 32.8213 11.0625Z" fill="#28C79E"/>
<path d="M1.09473 19.6953C0.860352 19.7031 0.516602 19.7344 0.329102 19.7656L0.000976562 19.8047L0.0166016 26.2422L0.0400391 32.6719L0.235352 32.8828C0.735352 33.4141 1.25098 33.4453 2.17285 33C5.8916 31.2031 9.9541 30.586 13.6104 31.25C13.9697 31.3125 14.376 31.3906 14.5244 31.4141L14.79 31.461L14.7354 30.961C14.4854 28.7266 13.4775 26.0235 12.3135 24.4766C10.6416 22.2656 7.84473 20.5625 4.86035 19.9531C4.13379 19.8047 2.25098 19.625 1.75879 19.6563C1.63379 19.6641 1.3291 19.6797 1.09473 19.6953Z" fill="#28C79E"/>
</svg>
