<svg width="40" height="40" viewBox="0 0 40 40" fill="none" xmlns="http://www.w3.org/2000/svg">
<g clip-path="url(#clip0_257_3226)">
<path d="M17.7735 0.148439C15.8047 0.515627 14.3907 1.07031 12.8516 2.08594C11.1875 3.1875 9.70316 4.89063 8.85941 6.66406C8.6016 7.21094 8.58597 7.28125 8.67191 7.54688C8.81253 7.96875 9.13285 8.07813 9.82035 7.9375C11.0235 7.6875 12.2032 7.71094 13.3907 8.01563C14.6563 8.34375 15.9922 9.11719 16.9688 10.0859C19.4141 12.5156 19.9766 16.1406 18.3907 19.2266C18.0078 19.9609 17.9688 20.2734 18.2032 20.5703L18.3672 20.7734H20H21.6328L21.7969 20.5703C22.0313 20.2734 21.9922 19.9609 21.6094 19.2266C20.086 16.25 20.5469 12.8125 22.8047 10.2969C23.7266 9.28125 25.2188 8.39844 26.6875 8C27.336 7.82813 27.625 7.79688 28.5157 7.78906C29.2266 7.78906 29.7578 7.82813 30.1407 7.91406C30.8672 8.08594 31.1797 7.98438 31.3282 7.54688C31.4141 7.28125 31.3985 7.21094 31.1328 6.65625C30.6094 5.55469 29.8907 4.5625 28.875 3.54688C27.1328 1.8125 25.1953 0.773439 22.6953 0.234377C21.5625 -0.0156231 18.8907 -0.0546856 17.7735 0.148439Z" fill="#28C79E"/>
<path d="M10.5703 9.06172C8.10156 9.37422 5.99219 11.1242 5.14062 13.593C4.89062 14.3117 4.88281 14.3664 4.88281 15.6242C4.88281 16.8742 4.89062 16.9367 5.14062 17.6555C5.48437 18.6555 6.01562 19.5148 6.71875 20.2336C8.03125 21.5617 9.54687 22.2023 11.4062 22.2102C13.1797 22.2258 14.6953 21.6164 15.9687 20.3977C16.8984 19.507 17.4141 18.6555 17.7891 17.4445C17.9687 16.8352 17.9922 16.632 17.9922 15.6242C17.9922 14.6164 17.9687 14.4133 17.7891 13.8039C17.5391 12.9914 17.2891 12.468 16.8359 11.8352C16.4062 11.2336 15.5547 10.4133 14.9687 10.0383C13.7422 9.24922 12.0625 8.88203 10.5703 9.06172Z" fill="#28C79E"/>
<path d="M27.7731 9.06285C25.9997 9.30504 24.5153 10.1254 23.4606 11.43C21.695 13.6097 21.4684 16.641 22.8981 19.0394C23.2731 19.6566 24.2887 20.7113 24.9216 21.1332C26.0466 21.8754 27.2028 22.2113 28.6325 22.2035C29.7575 22.2035 30.5075 22.0316 31.4606 21.5629C33.07 20.766 34.2497 19.4144 34.8591 17.6566C35.1091 16.9379 35.1169 16.8832 35.1169 15.6254C35.1169 14.3675 35.1091 14.3129 34.8591 13.5941C34.2497 11.8285 33.0544 10.4613 31.4528 9.68785C30.3434 9.14879 28.9059 8.9066 27.7731 9.06285Z" fill="#28C79E"/>
<path d="M18.1641 22.1879C16.8203 22.477 15.6484 23.0161 14.5234 23.8676C12.9844 25.0239 11.8125 26.7661 11.2734 28.7114C11.0703 29.4457 11.0547 29.5864 11.0547 31.0161C11.0547 32.4457 11.0703 32.5864 11.2734 33.3207C11.7109 34.9067 12.6641 36.5161 13.7812 37.5551C14.8594 38.5707 16.2344 39.3364 17.6953 39.7426C18.4297 39.9457 18.5703 39.9614 20 39.9536C21.3984 39.9536 21.5859 39.9379 22.2891 39.7504C24.8672 39.0473 27.0156 37.2504 28.1641 34.8207C29.2812 32.4692 29.2812 29.5629 28.1641 27.2114C27.0234 24.8051 24.9062 23.0161 22.3438 22.2973C21.7031 22.1254 21.4141 22.0864 20.2344 22.0629C19.0938 22.0395 18.75 22.0551 18.1641 22.1879ZM20.4531 27.3129C20.5938 27.477 20.625 27.602 20.625 28.0551C20.625 28.7973 20.4297 29.1332 20 29.1332C19.5703 29.1332 19.375 28.7973 19.375 28.0707C19.375 27.4926 19.4922 27.227 19.7969 27.1098C20.0234 27.0161 20.2422 27.0864 20.4531 27.3129ZM17.9219 30.5942C18.1406 30.8207 18.1875 31.1254 18.0234 31.3364C17.8516 31.5629 17.5938 31.6411 17.0391 31.6411C16.3672 31.6411 16.0703 31.4457 16.0703 31.0161C16.0703 30.8286 16.125 30.7036 16.2812 30.5707C16.4609 30.4145 16.5781 30.3911 17.1016 30.3911C17.6562 30.3911 17.7344 30.4067 17.9219 30.5942ZM23.7188 30.5707C23.875 30.7036 23.9297 30.8286 23.9297 31.0161C23.9297 31.4457 23.6328 31.6411 22.9609 31.6411C22.4062 31.6411 22.1484 31.5629 21.9766 31.3364C21.8125 31.1254 21.8594 30.8207 22.0781 30.5942C22.2656 30.4067 22.3438 30.3911 22.8984 30.3911C23.4219 30.3911 23.5391 30.4145 23.7188 30.5707ZM20.4219 33.0942C20.6094 33.2817 20.625 33.3598 20.625 33.9145C20.625 34.4379 20.6016 34.5551 20.4453 34.7348C20.1875 35.0239 19.8125 35.0239 19.5547 34.7348C19.3984 34.5551 19.375 34.4379 19.375 33.9145C19.375 33.3598 19.3906 33.2817 19.5781 33.0942C19.8516 32.8286 20.1484 32.8286 20.4219 33.0942Z" fill="#28C79E"/>
<path d="M9.34375 23.6014C9.23438 23.7342 9.14062 23.9374 9.14062 24.0467C9.14844 24.1639 9.34375 24.6405 9.59375 25.1171C10.0859 26.0702 10.2891 26.2499 10.7344 26.1171C11.0625 26.0233 12.1094 24.5467 12.1094 24.1717C12.1094 23.6874 11.9219 23.578 10.9297 23.4686C9.60938 23.3202 9.57812 23.3202 9.34375 23.6014Z" fill="#28C79E"/>
<path d="M28.9922 23.4686C28.0938 23.5702 27.8906 23.6952 27.8906 24.1717C27.8906 24.5467 28.9375 26.0233 29.2656 26.1171C29.7109 26.2499 29.9141 26.0702 30.4062 25.1171C30.6562 24.6405 30.8516 24.1639 30.8594 24.0467C30.8594 23.9374 30.7656 23.7342 30.6562 23.6014C30.4219 23.328 30.3516 23.3202 28.9922 23.4686Z" fill="#28C79E"/>
<path d="M2.65625 24.3441C1.8125 24.5706 1.14062 25.1878 0.796875 26.0316C0.679687 26.3363 0.664062 26.8128 0.664062 31.016C0.664062 35.2191 0.679687 35.6956 0.796875 36.0003C1.14844 36.8753 1.82031 37.4691 2.72656 37.7035C3.11719 37.7972 3.5 37.8206 4.44531 37.7972C5.5625 37.7738 5.70312 37.7503 6.10156 37.5628C6.71875 37.2816 7.14062 36.8675 7.4375 36.266L7.69531 35.7503L7.71875 33.7347L7.74219 31.7191H8.5625C9.01562 31.7191 9.45312 31.68 9.54687 31.6331C9.63281 31.5863 9.75 31.43 9.8125 31.2816C9.90625 31.055 9.90625 30.9769 9.8125 30.7503C9.75 30.6019 9.63281 30.4456 9.54687 30.3988C9.45312 30.3519 9.01562 30.3128 8.5625 30.3128H7.74219L7.71875 28.2972C7.69531 26.3128 7.69531 26.2816 7.49219 25.8519C7.20312 25.2347 6.78906 24.8128 6.1875 24.516C5.67187 24.2581 5.65625 24.2581 4.375 24.2425C3.41406 24.2269 2.97656 24.2503 2.65625 24.3441Z" fill="#28C79E"/>
<path d="M34.2891 24.3285C33.4922 24.5394 32.875 25.0707 32.5078 25.8597C32.3047 26.2816 32.3047 26.3206 32.2812 28.2972L32.2578 30.3128H31.4062C30.6328 30.3128 30.5391 30.3285 30.3438 30.4925C30.1797 30.641 30.1328 30.7425 30.1328 31.016C30.1328 31.2894 30.1797 31.391 30.3438 31.5394C30.5391 31.7035 30.6328 31.7191 31.4062 31.7191H32.2578L32.2812 33.7347L32.3047 35.7503L32.5625 36.266C32.8594 36.8675 33.2812 37.2816 33.8984 37.5628C34.2969 37.7503 34.4375 37.7738 35.5547 37.7972C36.5 37.8206 36.8828 37.7972 37.2734 37.7035C38.1797 37.4691 38.8516 36.8753 39.2031 36.0003C39.3203 35.6956 39.3359 35.2191 39.3359 31.016C39.3359 26.8128 39.3203 26.3363 39.2031 26.0316C38.8516 25.1722 38.1797 24.5628 37.3047 24.3363C36.7344 24.1957 34.8203 24.18 34.2891 24.3285Z" fill="#28C79E"/>
</g>
<defs>
<clipPath id="clip0_257_3226">
<rect width="40" height="40" fill="white"/>
</clipPath>
</defs>
</svg>
