<svg width="40" height="40" viewBox="0 0 40 40" fill="none" xmlns="http://www.w3.org/2000/svg">
<g clip-path="url(#clip0_257_3122)">
<path d="M5.71875 0.163793C5.21094 0.366918 4.55469 0.991918 4.28906 1.52317L4.10156 1.91379V7.46067V13.0075L4.29688 13.3982C4.53906 13.8982 5.08594 14.445 5.58594 14.6794C5.875 14.82 6.15625 14.8747 6.64063 14.906C7.57813 14.9529 8.07813 14.7575 8.72656 14.1013C9.13281 13.6872 9.23438 13.531 9.375 13.07C9.53125 12.5466 9.53906 12.4216 9.51563 7.26536L9.49219 1.99192L9.27344 1.54661C9.00781 1.00754 8.53906 0.523168 8.00781 0.24973C7.45313 -0.0315199 6.32813 -0.0783949 5.71875 0.163793ZM7.22656 2.30442C7.33594 2.40598 7.42188 2.58567 7.42188 2.69504C7.42188 2.92942 7.03906 3.35911 6.83594 3.35911C6.64844 3.35911 6.27344 3.14817 6.21875 3.00754C5.96094 2.33567 6.72656 1.80442 7.22656 2.30442Z" fill="#28C79E"/>
<path d="M17.5397 1.99944C16.1881 2.14787 14.6959 2.52287 14.4147 2.78069C14.1725 3.00725 14.1569 3.36662 14.3756 4.45256C14.899 7.1635 16.1647 9.49943 17.6881 10.5776C19.5475 11.8979 21.9381 12.2494 24.8287 11.6322C25.235 11.5463 25.5709 11.4838 25.5865 11.4994C25.5944 11.5151 25.7037 11.8197 25.8209 12.1869C26.1647 13.2885 26.3365 14.2026 26.3834 15.2494L26.4303 16.2494H21.5319H16.6334L16.4459 16.4447C16.3131 16.5697 16.2506 16.7182 16.2506 16.8979C16.2506 17.4135 16.8756 21.9604 16.9694 22.101C17.024 22.1869 17.149 22.2885 17.2428 22.3354C17.3756 22.3979 20.399 22.4213 27.1178 22.4213C37.9069 22.4213 37.1881 22.4604 37.3444 21.8901C37.4459 21.5151 37.9694 17.4057 37.9694 16.9682C37.9694 16.7182 37.9225 16.5854 37.774 16.4447L37.5865 16.2494H32.6959H27.8053L27.8522 15.2885C27.8834 14.7651 27.9694 13.9994 28.0553 13.5854C28.2037 12.8354 28.5553 11.6557 28.6647 11.5385C28.6959 11.5072 29.0553 11.5541 29.4615 11.6401C30.6569 11.8901 32.0709 11.9838 33.0084 11.8822C34.0631 11.7651 34.7194 11.5697 35.6959 11.0854C36.3756 10.7494 36.6178 10.5776 37.149 10.0463C38.1725 9.03068 38.8209 7.92912 39.3756 6.25725C39.9225 4.61662 40.1334 3.19475 39.8834 2.83537C39.735 2.62444 39.0944 2.4135 37.8678 2.17131C36.7194 1.94475 34.735 1.92912 33.7975 2.14006C31.1959 2.71819 29.4303 4.43694 28.3756 7.42912C28.1334 8.10881 27.735 9.75725 27.735 10.0697C27.735 10.1635 27.6412 10.3822 27.5319 10.5619C27.4225 10.7338 27.2897 10.9994 27.235 11.1479L27.1412 11.4213L26.8522 10.8432C26.6412 10.4369 26.5006 9.98381 26.3678 9.31975C25.8209 6.61662 24.6569 4.48381 23.11 3.31975C21.985 2.476 20.61 2.0385 18.9069 1.99162C18.3287 1.98381 17.7115 1.98381 17.5397 1.99944ZM20.735 18.5229C20.8912 18.6479 20.9381 18.7494 20.9381 18.9838C20.9381 19.2182 20.8912 19.3197 20.735 19.4447C20.5475 19.5854 20.4147 19.6088 19.6334 19.6088C18.7897 19.6088 18.735 19.601 18.5553 19.4135C18.4303 19.2963 18.36 19.1322 18.36 18.9838C18.36 18.8354 18.4303 18.6713 18.5553 18.5541C18.735 18.3666 18.7897 18.3588 19.6334 18.3588C20.4147 18.3588 20.5475 18.3822 20.735 18.5229ZM28.1334 18.4604C28.4772 18.726 28.5006 19.1557 28.1881 19.4526C28.024 19.601 27.9225 19.6088 25.4147 19.6088H22.8053L22.6178 19.4135C22.4928 19.2963 22.4225 19.1322 22.4225 18.9838C22.4225 18.8354 22.4928 18.6713 22.6178 18.5541L22.8053 18.3588H25.4069C27.3287 18.3666 28.0397 18.3901 28.1334 18.4604Z" fill="#28C79E"/>
<path d="M5.41406 17.625C5.45312 19.3828 5.66406 20.9844 6.0625 22.5781C6.27344 23.4297 6.65625 24.375 6.78125 24.375C6.89062 24.375 7.16406 23.7578 7.38281 23.0156C7.82031 21.4844 8.20312 18.75 8.20312 17.0938V16L7.99219 16.0469C6.96094 16.2812 6.42187 16.2812 5.55469 16.0469L5.36719 15.9922L5.41406 17.625Z" fill="#28C79E"/>
<path d="M3.35938 18.7186C2.51563 19.0076 1.98438 19.3279 1.40625 19.9139C0.835938 20.492 0.5 21.1014 0.21875 22.0701C0.0546875 22.6404 0.0390625 22.8436 0.0390625 24.4139C0.046875 26.3592 0.15625 27.1873 0.703125 29.4139C1.88281 34.1951 4 38.2108 5.82031 39.1092C6.83594 39.6014 7.78125 39.3279 8.8125 38.2498C9.49219 37.5311 10.0938 36.617 10.7266 35.3514C12.7266 31.3279 13.9453 25.8123 13.4844 22.8358C13.1875 20.8983 12.3281 19.6639 10.7734 18.9608C10.2422 18.7108 9.46875 18.4764 9.40625 18.5311C9.39844 18.5467 9.32813 19.0311 9.25781 19.6092C8.92188 22.4608 8.41406 24.3592 7.76563 25.2108C7.23438 25.9061 6.3125 25.8748 5.75 25.1404C5.13281 24.3201 4.5625 22.1248 4.28906 19.4686C4.21094 18.6951 4.16406 18.5154 4.07031 18.5154C4 18.5154 3.67969 18.6092 3.35938 18.7186Z" fill="#28C79E"/>
<path d="M18.125 23.7969C18.125 23.8594 18.5859 27.4531 19.1406 31.7812C20.0703 38.9766 20.1719 39.6562 20.3281 39.8203L20.4922 40H27.1094H33.7266L33.9062 39.8047C34.0703 39.625 34.1484 39.1406 35.0859 31.8594C35.6406 27.5938 36.0938 24.0078 36.0938 23.8828V23.6719H27.1094C19 23.6719 18.125 23.6875 18.125 23.7969Z" fill="#28C79E"/>
</g>
<defs>
<clipPath id="clip0_257_3122">
<rect width="40" height="40" fill="white"/>
</clipPath>
</defs>
</svg>
