<svg width="40" height="40" viewBox="0 0 40 40" fill="none" xmlns="http://www.w3.org/2000/svg">
<path d="M18.9463 3.307C17.9459 4.13882 18.8226 5.75749 20.0591 5.38655C20.5874 5.22918 20.8347 4.94816 20.9247 4.43108C21.1045 3.28452 19.8343 2.55387 18.9463 3.307Z" fill="#28C79E"/>
<path d="M17.0249 4.93699C16.3167 5.25173 15.4512 6.12851 15.4512 6.52194C15.4512 6.70179 15.5299 6.87041 15.6535 6.92661C16.1144 7.16267 21.7572 8.7701 21.9034 8.71389C22.353 8.53404 22.1732 7.17391 21.5999 6.30837C21.2064 5.72385 21.1278 5.70137 19.925 5.88122C19.4978 5.94866 19.3292 5.91494 18.9358 5.70137C18.6885 5.55524 18.3738 5.27422 18.2501 5.07188C17.9803 4.63349 17.7443 4.61101 17.0249 4.93699Z" fill="#28C79E"/>
<path d="M14.2368 7.30907C14.057 7.48892 14.0682 8.01724 14.2481 8.16337C14.3155 8.21957 16.1253 8.78161 18.2498 9.42234C22.4651 10.6701 22.6449 10.6925 22.6449 9.99562C22.6449 9.81576 22.5775 9.62467 22.51 9.56847C22.3527 9.44482 14.7539 7.17418 14.5178 7.17418C14.4392 7.17418 14.3155 7.23039 14.2368 7.30907Z" fill="#28C79E"/>
<path d="M15.1811 9.2868C15.0687 9.47789 14.6641 11.0628 14.6641 11.3326C14.6641 11.9171 15.0125 12.8052 15.4172 13.2548C16.7436 14.7161 19.1491 14.525 20.1046 12.8726C20.262 12.6141 20.4755 12.0633 20.5767 11.6361C20.7566 10.9729 20.7566 10.8605 20.6217 10.7256C20.4306 10.5458 15.9455 9.19687 15.5296 9.19687C15.3722 9.19687 15.2149 9.24184 15.1811 9.2868Z" fill="#28C79E"/>
<path d="M7.53602 10.2086C6.80537 10.5795 6.61428 10.8268 5.59137 12.8614C4.83824 14.3452 4.62466 14.851 4.71459 14.9859C4.87196 15.2444 6.43443 15.9301 6.69296 15.8627C6.82785 15.829 7.1988 15.2557 7.70463 14.3002C8.34536 13.0975 8.55893 12.794 8.75003 12.794C9.40199 12.794 11.9986 13.1874 12.0436 13.2998C12.0661 13.3785 11.4591 14.5812 10.6947 15.9976C9.30082 18.5492 9.28958 18.5605 9.44695 18.9314C9.53688 19.1338 9.60432 19.5384 9.60432 19.8082V20.314L12.8866 23.2029L16.1689 26.0918L16.7647 25.4623L17.3605 24.8441V23.9111V22.9781L16.7197 22.0339L16.0678 21.0897L16.7872 19.6958C17.8438 17.6612 17.8551 17.6837 17.9 21.2583L17.9225 24.1471H19.0466C20.0695 24.1471 20.1707 24.1247 20.2943 23.9111C20.3842 23.7425 20.4067 22.6184 20.3617 20.0555C20.328 16.8406 20.2943 16.3685 20.092 15.6828C19.9683 15.2669 19.766 14.8173 19.6536 14.6937C19.4288 14.4464 19.3276 14.4464 18.1136 14.6937C16.2476 15.0871 14.3817 13.5696 14.2355 11.5238C14.1906 10.8718 14.1456 10.7369 13.9433 10.6582C13.5948 10.5121 9.40199 9.98377 8.63762 9.98377C8.21047 9.99501 7.81704 10.0737 7.53602 10.2086Z" fill="#28C79E"/>
<path d="M4.1195 15.7396C4.06329 15.8182 3.77103 16.3578 3.47877 16.9311C2.88301 18.1114 2.84929 18.5722 3.34388 19.0668C3.97337 19.6851 4.95132 19.4265 5.45715 18.5048C5.61452 18.2463 5.80561 18.0214 5.89554 18.0214C5.99671 18.0214 6.1316 18.2238 6.23276 18.4936C6.40138 18.9881 6.55875 19.123 6.85101 19.0219C7.07582 18.9319 7.06458 18.7409 6.78356 17.7404C6.41262 16.4028 6.42386 16.4253 5.49087 15.9981C4.56913 15.571 4.29935 15.526 4.1195 15.7396Z" fill="#28C79E"/>
<path d="M7.35626 17.8863C7.35626 17.9538 7.40123 18.1898 7.46867 18.4034C7.72721 19.3027 6.74926 19.9321 6.10854 19.2689L5.85 18.9992L5.46781 19.3251C5.26548 19.505 5.05191 19.6511 4.9957 19.6511C4.82709 19.6511 4.636 20.0895 4.73716 20.2581C4.78213 20.3481 5.16431 20.6965 5.59146 21.0337C6.1535 21.5059 6.46824 21.6745 6.82795 21.7307C8.07567 21.9218 9.15479 21.0225 9.15479 19.8197C9.15479 19.2352 8.96369 18.853 8.39041 18.2685C7.88458 17.7627 7.35626 17.5603 7.35626 17.8863Z" fill="#28C79E"/>
<path d="M30.1195 19.5274C29.2202 19.7522 28.3771 20.5391 28.1411 21.3596C28.0624 21.6294 27.9612 21.888 27.9163 21.9442C27.8601 22.0004 27.5791 21.9329 27.2418 21.798C25.567 21.0674 24.0045 22.6298 24.7127 24.316C24.9037 24.7656 24.8251 24.8668 24.1731 24.9679C23.2289 25.1141 22.5432 25.8447 22.4308 26.8451C22.3746 27.2386 22.3071 27.3735 22.0823 27.4859C21.6439 27.6882 21.2617 28.1603 21.3404 28.3626C21.3854 28.4863 21.4866 28.52 21.6214 28.475C21.9811 28.3626 22.4308 28.6324 23.3525 29.5204C23.9932 30.1387 24.263 30.341 24.308 30.2174C24.4204 29.8801 25.3084 29.1383 25.758 29.0034C26.3313 28.8348 26.6348 28.8348 27.1744 29.0258L27.5903 29.1832L27.8039 28.7111C28.6806 26.7102 31.3335 26.1482 32.8735 27.6432C33.0983 27.8568 33.3456 28.1378 33.4355 28.284C33.6041 28.5425 33.6153 28.5425 34.0537 28.3626C34.7507 28.0591 35.7511 28.1715 36.4817 28.6212C36.7965 28.8235 37.1337 28.9696 37.2124 28.9359C37.336 28.891 37.3698 28.3064 37.3698 25.9234C37.3698 24.2036 37.3136 22.7872 37.2461 22.5399C37.1 21.9891 36.5379 21.3596 35.9647 21.1011C35.3577 20.8201 34.4921 20.8313 33.9413 21.1123C33.3905 21.3934 33.3793 21.3934 33.2332 21.0674C33.0421 20.629 32.4126 19.9883 31.9854 19.7747C31.5021 19.5274 30.5916 19.4037 30.1195 19.5274Z" fill="#28C79E"/>
<path d="M8.99894 21.4044L8.56055 21.9215L8.88653 22.2363C9.14507 22.4723 18.1377 30.3633 19.8126 31.8134C20.2397 32.1843 20.7231 32.2293 21.0041 31.9146C21.3863 31.4874 21.2064 31.1389 20.0261 30.0823C19.4191 29.5428 18.8234 29.0931 18.6997 29.0931C18.3513 29.0931 17.5981 28.3288 17.4632 27.8342C17.3733 27.4745 17.3059 27.407 17.1597 27.4632C16.6989 27.6655 16.4853 27.6431 16.1818 27.3845C15.957 27.1934 15.8671 27.0023 15.8783 26.7775C15.8783 26.4853 15.5523 26.1593 12.7309 23.6976C10.9998 22.1801 9.54974 20.9323 9.51601 20.9211C9.47105 20.9098 9.23499 21.1234 8.99894 21.4044Z" fill="#28C79E"/>
<path d="M7.57136 22.2025C7.32406 22.2362 7.18917 22.4273 6.70582 23.4502C6.03137 24.8778 5.89648 25.3612 5.89648 26.5639C5.89648 27.8454 6.50349 32.2405 6.69458 32.3642C6.78451 32.4204 7.41399 32.4653 8.09968 32.4653C9.07762 32.4653 9.38112 32.4316 9.49353 32.2967C9.60594 32.1618 9.60594 31.6223 9.49353 29.6102L9.35864 27.0922L10.168 25.8895C10.6176 25.2263 10.9324 24.653 10.8761 24.608C10.8312 24.5631 10.168 23.9898 9.42609 23.3266C8.67296 22.6634 8.02099 22.1351 7.96479 22.1351C7.90858 22.1463 7.72873 22.18 7.57136 22.2025Z" fill="#28C79E"/>
<path d="M17.7435 24.9566C17.6985 25.1027 17.3613 25.5299 17.0016 25.912C16.3272 26.609 16.2035 26.9687 16.6082 27.0474C16.7206 27.0698 16.9904 26.935 17.2039 26.7326C17.721 26.283 17.9233 26.4179 17.9233 27.2047C17.9233 28.1377 18.373 28.6436 19.2048 28.6436C19.6994 28.6436 20.1378 28.2838 20.2839 27.7668C20.43 27.2272 20.43 25.2039 20.2839 24.9229C20.1715 24.7318 20.0366 24.7093 18.9912 24.7093C17.8784 24.7093 17.8222 24.7205 17.7435 24.9566Z" fill="#28C79E"/>
<path d="M29.5572 27.5649C29.2537 27.711 28.8827 27.9471 28.7478 28.0932C28.4668 28.3967 28.0509 29.2848 28.0397 29.5658C28.0397 29.8693 27.8486 29.903 27.399 29.6557C26.1175 28.97 24.555 29.8468 24.555 31.2519C24.555 31.5554 24.6337 31.9488 24.7236 32.1399C24.9485 32.5558 24.8923 32.6457 24.3639 32.7469C23.7682 32.8593 23.4197 33.0617 22.9476 33.5787C22.0034 34.6241 22.3406 36.4676 23.5996 37.1196C24.038 37.3444 24.2178 37.3556 29.6696 37.3894C33.4577 37.4118 35.4249 37.3894 35.7059 37.2994C36.2567 37.1421 36.7625 36.7037 37.066 36.1304C37.2908 35.7032 37.3133 35.4897 37.347 33.3652C37.4032 30.51 37.3133 30.0491 36.6389 29.3747C36.2567 28.9925 36.0206 28.8576 35.5148 28.7452C34.9078 28.6103 34.8066 28.6215 34.1209 28.8576C33.4352 29.1049 33.379 29.1049 33.2666 28.925C32.3786 27.4188 30.9623 26.9017 29.5572 27.5649ZM30.6251 31.8252C30.7824 31.9039 30.9173 32.0612 30.9398 32.1736C30.9735 32.3535 30.9398 32.376 30.6588 32.3085C29.8944 32.1062 29.5572 32.1174 29.1975 32.3422C28.7703 32.612 28.568 33.1965 28.7254 33.7249C28.8603 34.2082 28.6916 34.3768 28.0509 34.3768C27.7587 34.3768 27.4214 34.4555 27.2753 34.5567C26.983 34.759 26.6908 35.2873 26.6908 35.6021C26.6908 35.8831 26.4997 36.0067 26.3086 35.8494C26.1287 35.692 26.2299 35.085 26.5222 34.6466C26.747 34.2981 27.309 33.9497 27.7924 33.8597C28.1184 33.7923 28.1521 33.7586 28.1521 33.3764C28.1521 32.7582 28.6467 32.05 29.2762 31.769C29.5572 31.6453 30.3216 31.679 30.6251 31.8252Z" fill="#28C79E"/>
<path d="M21.0935 29.4419L20.5989 29.9028L21.0598 30.3749C21.6893 31.0156 21.8017 31.3753 21.5544 31.8812C21.2959 32.3982 20.7451 32.7355 20.3067 32.6343C20.1268 32.6006 19.6884 32.3196 19.3175 32.0161C18.9578 31.7013 18.6206 31.454 18.5756 31.454C18.5194 31.454 18.2271 31.6901 17.9236 31.9711C17.0356 32.8029 17.0693 32.9266 18.7442 34.5677C20.1493 35.9503 21.2509 36.7709 21.8691 36.9058C22.375 37.0182 22.4761 36.8384 22.2176 36.3325C21.6331 35.186 21.8467 34.0057 22.7909 33.0839C23.1169 32.7692 23.5553 32.4657 23.7688 32.3982C24.0611 32.3083 24.151 32.2296 24.1285 32.061C23.9599 30.7234 24.0161 30.847 23.0382 29.8803C22.3975 29.2621 22.0265 28.9811 21.8467 28.9811C21.6893 28.9811 21.3745 29.1834 21.0935 29.4419Z" fill="#28C79E"/>
<path d="M15.7534 29.2842C15.6297 29.4078 15.6634 32.0157 15.7871 32.2518C15.877 32.4091 16.0231 32.4653 16.3379 32.4653C16.7201 32.4653 16.8662 32.3754 17.462 31.7909C17.8441 31.4199 18.1476 31.0827 18.1364 31.0378C18.1252 30.8916 16.1243 29.2055 15.9669 29.2055C15.8882 29.2055 15.7871 29.2392 15.7534 29.2842Z" fill="#28C79E"/>
<path d="M6.79414 33.0277C6.67049 33.1064 6.61428 33.4099 6.56932 34.1181C6.51312 35.0735 6.50188 35.1073 6.2321 35.141C5.22043 35.2759 4.33241 35.8492 4.01766 36.591C3.83781 37.0407 3.83781 37.0182 4.05139 37.2318C4.19752 37.3891 4.59094 37.4116 6.56932 37.4116C8.10931 37.4116 9.01981 37.3667 9.19966 37.2767C9.60433 37.0969 9.71674 36.591 9.71674 34.8824C9.71674 32.8928 9.73922 32.9153 8.16551 32.9153C7.5023 32.9153 6.88406 32.9715 6.79414 33.0277Z" fill="#28C79E"/>
<path d="M15.7882 33.2413C15.732 33.3649 15.6758 34.1968 15.6758 35.141C15.6758 36.6697 15.6983 36.8496 15.9118 37.1194L16.1479 37.4116L18.5197 37.3891C20.2058 37.3667 20.8915 37.3217 20.9252 37.2205C20.9477 37.1531 20.6779 36.8721 20.3182 36.6135C19.4864 35.9953 17.3169 33.882 17.0134 33.3987C16.8111 33.0839 16.7212 33.0277 16.3502 33.0277C16.0242 33.0277 15.8781 33.0839 15.7882 33.2413Z" fill="#28C79E"/>
</svg>
