<svg width="40" height="40" viewBox="0 0 40 40" fill="none" xmlns="http://www.w3.org/2000/svg">
<g clip-path="url(#clip0_257_3236)">
<path d="M15.4062 0.203125C14.6406 0.585938 14.2891 1.1875 14.2344 2.24219L14.1953 2.96875H9.20312C4.38281 2.96875 4.20312 2.97656 3.90625 3.125C3.32031 3.42188 3.125 3.91406 3.125 5.13281V5.9375H20H36.875V5.13281C36.875 3.91406 36.6797 3.42188 36.0937 3.125C35.7969 2.97656 35.6172 2.96875 30.7969 2.96875H25.8047L25.7656 2.24219C25.7109 1.1875 25.3594 0.585938 24.5937 0.203125L24.1875 0H20H15.8125L15.4062 0.203125Z" fill="#28C79E"/>
<path d="M5.3125 7.20313C5.3125 7.21875 5.75 14.3672 6.28125 23.1016C7.23437 38.6875 7.25781 38.9844 7.4375 39.3047C7.53906 39.4844 7.75 39.7031 7.9375 39.8125L8.25781 40H20H31.7344L32.0469 39.8281C32.2266 39.7266 32.4453 39.5078 32.5547 39.3203L32.75 38.9844L33.7187 23.1094C34.25 14.375 34.6875 7.21875 34.6875 7.20313C34.6875 7.19532 28.0781 7.1875 20 7.1875C11.9219 7.1875 5.3125 7.19532 5.3125 7.20313ZM21.7031 13.9609C21.7891 14.0391 22.4687 15.1563 23.2031 16.4453C23.9453 17.7344 24.5703 18.8047 24.5859 18.8281C24.6016 18.8438 24.7109 18.8125 24.8281 18.7422C24.9453 18.6797 25.2344 18.5156 25.4766 18.375L25.9141 18.125L25.3281 20.1406C25 21.2422 24.7344 22.1563 24.7266 22.1641C24.7109 22.2031 20.7031 21.2109 20.7031 21.1719C20.7031 21.1484 20.9687 20.9766 21.2891 20.7891C21.6094 20.6094 21.875 20.4375 21.875 20.4141C21.875 20.2813 18.7031 14.8594 18.5312 14.7031C18.3906 14.5703 18.2656 14.5234 18.1094 14.5469C17.9922 14.5703 17.8906 14.5703 17.8906 14.5547C17.8906 14.4688 18.2891 13.9141 18.375 13.8828C18.4297 13.8594 19.1641 13.8359 20.0078 13.8359C21.3672 13.8281 21.5625 13.8438 21.7031 13.9609ZM18.5781 17.0781L19.2969 18.3359L18.8359 19.1328C18.5859 19.5703 18.3437 19.9297 18.3125 19.9297C18.1875 19.9219 15.7031 18.4766 15.7031 18.4063C15.7031 18.2578 16.9844 16.1172 17.1797 15.9531C17.3125 15.8359 17.4609 15.7813 17.6172 15.7969C17.8281 15.8203 17.9141 15.9219 18.5781 17.0781ZM16.875 22.5703C17.1797 23.6172 17.4219 24.4844 17.4062 24.4922C17.3906 24.5078 17.1094 24.3594 16.7734 24.1641C16.4375 23.9688 16.1484 23.8281 16.1328 23.8438C16.0547 23.9219 13.0156 29.2031 12.9219 29.4297C12.8047 29.6953 12.8828 30.0547 13.0703 30.1719C13.125 30.2031 13 30.2344 12.7969 30.2344C12.5 30.2344 12.3828 30.1953 12.1953 30.0156C11.9141 29.7578 10.625 27.5234 10.625 27.3047C10.625 27.2109 11.2578 26.0391 12.0391 24.6953C12.8125 23.3516 13.4375 22.2422 13.4219 22.2266C13.4062 22.2188 13.1172 22.0469 12.7734 21.8438C12.4297 21.6484 12.1719 21.4844 12.1875 21.4766C12.2109 21.4766 13.125 21.2578 14.2187 20.9844C15.5391 20.6641 16.2266 20.5234 16.2578 20.5781C16.2891 20.625 16.5625 21.5234 16.875 22.5703ZM27.5234 23.9375C28.1172 24.9688 28.2109 25.1797 28.1875 25.4375C28.1484 25.8906 28 25.9375 26.4297 25.9375H25.0937L24.6094 25.1016C24.3516 24.6484 24.1641 24.2422 24.1953 24.2109C24.3047 24.1094 26.6797 22.7422 26.7578 22.7344C26.8047 22.7344 27.1484 23.2734 27.5234 23.9375ZM25.2578 27.1094C28.8203 27.1094 28.8281 27.1094 28.9766 26.6953C29.0312 26.5391 29.0547 26.5547 29.2109 26.8516C29.2969 27.0313 29.375 27.2422 29.375 27.3203C29.375 27.5313 28.0703 29.7656 27.8047 30.0156L27.5781 30.2344H24.7656H21.9609L21.9375 30.9609L21.9141 31.6875L20.5078 30.2109C19.7344 29.3984 19.1016 28.7031 19.1016 28.6641C19.1016 28.6328 19.7344 27.9297 20.5078 27.1094L21.9141 25.625L21.9375 26.3672L21.9609 27.1094H25.2578ZM17.5781 28.6719V30.2344H16.1328H14.6875L14.4375 30.0078C14.1172 29.7266 14.1172 29.7344 14.9922 28.2188L15.6406 27.1094H16.6094H17.5781V28.6719Z" fill="#28C79E"/>
</g>
<defs>
<clipPath id="clip0_257_3236">
<rect width="40" height="40" fill="white"/>
</clipPath>
</defs>
</svg>
