<svg width="40" height="40" viewBox="0 0 40 40" fill="none" xmlns="http://www.w3.org/2000/svg">
<path d="M10.2031 2.07129C9.67969 2.28223 9.21094 2.69629 8.96094 3.16504C8.8125 3.44629 8.78906 3.62598 8.76562 4.80566C8.74219 6.02441 8.75 6.17285 8.91406 6.60254C9.14844 7.22754 9.65625 7.75879 10.2031 7.96973C10.5938 8.11035 10.8125 8.12598 12.7188 8.12598C13.8672 8.12598 14.9375 8.16504 15.1094 8.19629C15.3516 8.25879 15.6094 8.46973 16.3984 9.25098C17.1172 9.9541 17.5078 10.2822 17.8125 10.4229L18.2422 10.626L22.5781 10.6182C25.8672 10.6182 26.9766 10.5947 27.1875 10.5166C27.5938 10.376 30.4844 8.41504 30.7422 8.11816C31.2188 7.54785 31.25 7.40723 31.25 5.3916C31.25 3.71191 31.2344 3.52441 31.0859 3.2041C30.875 2.73535 30.4375 2.29004 29.9609 2.06348L29.5703 1.87598H20.1172H10.6641L10.2031 2.07129Z" fill="#28C79E"/>
<path d="M12.7729 9.9778C12.5151 10.7122 12.1401 11.4622 11.6323 12.2903C11.1323 13.095 11.1167 13.4856 11.5776 13.72C12.0386 13.9622 13.6167 13.6262 14.8042 13.0325C15.6714 12.6028 16.9526 11.6106 16.9526 11.3684C16.9526 11.3216 16.4995 10.845 15.9448 10.3294L14.937 9.37624H13.9604H12.9917L12.7729 9.9778Z" fill="#28C79E"/>
<path d="M18.9219 12.001C18.7656 12.1104 18.75 12.1885 18.75 12.8135C18.75 13.4385 18.7656 13.5166 18.9219 13.626C19.0781 13.7354 19.5781 13.751 22.8672 13.751H26.6328L26.75 13.5791C26.8359 13.4541 26.875 13.2197 26.875 12.7588C26.875 12.1885 26.8594 12.1104 26.7031 12.001C26.5469 11.8916 26.0469 11.876 22.8125 11.876C19.5781 11.876 19.0781 11.8916 18.9219 12.001Z" fill="#28C79E"/>
<path d="M18.9531 15.1727C18.8438 15.2743 16.625 17.8836 14.0234 20.9774C10.4766 25.1961 9.22656 26.7274 9.03906 27.1102L8.78906 27.618V31.7586V35.8993L9 36.3524C9.29688 36.9774 9.91406 37.6024 10.5391 37.9149L11.0547 38.1649L19.8359 38.1883C27.7109 38.2039 28.6641 38.1961 29.0547 38.0789C29.8125 37.8602 30.4219 37.3993 30.8594 36.7196C31.3438 35.9539 31.3281 36.1727 31.3281 28.8524C31.3281 22.3289 31.3281 22.1805 31.1641 21.6961C31.0391 21.3133 30.5547 20.5633 28.9375 18.243C27.7969 16.6102 26.7969 15.2118 26.7031 15.1336C26.5547 15.0086 26.2578 15.0008 22.8438 15.0008H19.1484L18.9531 15.1727ZM23.0859 20.9227C24.1641 21.2274 24.6562 21.4539 25.5234 22.0477C27.8672 23.6649 29.1172 26.618 28.6328 29.3836C28.3438 31.0633 27.6406 32.3602 26.3672 33.5789C22.7656 37.0399 16.8203 35.9618 14.6016 31.4461C14.0938 30.4071 13.8984 29.6414 13.8516 28.4774C13.7578 26.3836 14.4531 24.5555 15.9141 23.0477C17.125 21.7821 18.5625 21.0321 20.2734 20.7586C20.8047 20.6727 22.5469 20.7743 23.0859 20.9227Z" fill="#28C79E"/>
<path d="M20.0781 23.1807C19.8906 23.251 19.6016 23.5322 19.4688 23.79C19.375 23.9619 19.3359 24.3135 19.3125 25.1338L19.2812 26.2432L18.0859 26.2666C16.9297 26.29 16.8828 26.2979 16.6797 26.4854C16.2656 26.8682 16.2109 27.0713 16.2109 28.126C16.2109 29.2275 16.3047 29.4932 16.7969 29.8213C17.0312 29.9854 17.1406 30.001 18.1719 30.001H19.2969V30.915C19.3047 31.9775 19.3906 32.4619 19.6328 32.7197C19.9609 33.0791 20.1641 33.126 21.25 33.126C22.3516 33.126 22.5312 33.0791 22.8906 32.6963C23.0781 32.4932 23.0859 32.4463 23.1094 31.2432L23.1328 30.001H24.2891C25.3594 30.001 25.4688 29.9854 25.7031 29.8213C26.1328 29.54 26.2656 29.2197 26.3125 28.415C26.375 27.2041 26.1797 26.6494 25.5703 26.3369C25.4688 26.2822 24.9531 26.251 24.2656 26.251H23.1328L23.1094 25.0088C23.0859 23.8057 23.0781 23.7588 22.8906 23.5557C22.5312 23.1729 22.3516 23.126 21.2344 23.1338C20.6641 23.1338 20.1406 23.1572 20.0781 23.1807Z" fill="#28C79E"/>
</svg>
