<svg width="40" height="40" viewBox="0 0 40 40" fill="none" xmlns="http://www.w3.org/2000/svg">
<g clip-path="url(#clip0_257_2795)">
<path d="M14.3281 0.1875C13.8203 0.421875 13.3906 0.851562 13.1562 1.35938L12.9688 1.75781V12.6719V23.5938H15.3125H17.6562V12.6719V1.75781L17.4688 1.35938C17.0625 0.484375 16.2891 0 15.3125 0C14.8594 0 14.6328 0.046875 14.3281 0.1875Z" fill="#28C79E"/>
<path d="M25.8594 1.17188V2.34375H24.6875H23.5156V3.51562V4.6875H24.6875H25.8594V5.85938V7.03125H27.0312H28.2031V5.85938V4.6875H29.375H30.5469V3.51562V2.34375H29.375H28.2031V1.17188V0H27.0312H25.8594V1.17188ZM28.2031 3.51562V4.6875H27.0312H25.8594V3.51562V2.34375H27.0312H28.2031V3.51562Z" fill="#28C79E"/>
<path d="M2.34375 15.3906V16.5625H1.17188H0V17.7344V18.9062H1.17188H2.34375V20.0781V21.25H3.51562H4.6875V20.0781V18.9062H5.85938H7.03125V17.7344V16.5625H5.85938H4.6875V15.3906V14.2188H3.51562H2.34375V15.3906ZM4.6875 17.7344V18.9062H3.51562H2.34375V17.7344V16.5625H3.51562H4.6875V17.7344Z" fill="#28C79E"/>
<path d="M7.13281 26.0938C6.08594 26.4688 5.28125 27.2813 4.91406 28.3438C4.79688 28.6719 4.76562 28.9922 4.76562 29.7031V30.625H15.3125H25.8594V29.7031C25.8594 28.9844 25.8281 28.6719 25.7109 28.3359C25.3438 27.2656 24.5312 26.4531 23.4531 26.0859C23.0391 25.9453 22.7109 25.9375 15.2812 25.9453C7.94531 25.9453 7.51562 25.9531 7.13281 26.0938Z" fill="#28C79E"/>
<path d="M4.83657 33.1484C4.25845 33.3906 3.96157 33.6094 3.59438 34.0703C3.12563 34.6641 2.95376 35.2188 2.98501 36.0156C3.01626 36.9609 3.25063 37.4141 4.17251 38.3203C4.99282 39.1328 5.75845 39.5703 6.82876 39.8438C7.43813 40 7.6647 40 19.5866 40H31.7194V38.7969V37.6016L31.2506 37.5547C30.6178 37.5 29.8678 37.1328 29.3288 36.6328C28.985 36.3047 28.8053 36.0312 28.4381 35.2734C27.8991 34.1641 27.4303 33.6562 26.5788 33.2578L26.0553 33.0078L15.6647 32.9922L5.27407 32.9688L4.83657 33.1484Z" fill="#28C79E"/>
<path d="M32.8906 34.1406V35.3125H36.4453H40V34.1406V32.9688H36.4453H32.8906V34.1406Z" fill="#28C79E"/>
<path d="M35.2344 38.8281V40H37.6172H40V38.8281V37.6562H37.6172H35.2344V38.8281Z" fill="#28C79E"/>
</g>
<defs>
<clipPath id="clip0_257_2795">
<rect width="40" height="40" fill="white"/>
</clipPath>
</defs>
</svg>
