<svg width="40" height="40" viewBox="0 0 40 40" fill="none" xmlns="http://www.w3.org/2000/svg">
<g clip-path="url(#clip0_257_2804)">
<path d="M8.92969 0.273734C8.05469 0.515922 7.30469 1.05498 6.83594 1.79717C6.13281 2.90655 6.13281 4.4378 6.83594 5.54717C8.03906 7.45342 10.7422 7.73467 12.3203 6.11748C12.9922 5.42998 13.2969 4.66436 13.2969 3.67217C13.2969 2.67998 12.9922 1.91436 12.3203 1.22686C11.4531 0.328422 10.1094 -0.0387659 8.92969 0.273734Z" fill="#28C79E"/>
<path d="M22.6865 3.98438C22.2021 4.29688 22.2021 4 22.6865 11.0391C22.9287 14.5703 23.1474 17.6953 23.1709 17.9844L23.2256 18.5156H22.1552C21.1006 18.5156 21.0927 18.5156 21.0459 18.3281C21.0224 18.2266 20.4287 15.7969 19.7334 12.9375C19.0302 10.0781 18.3974 7.64844 18.3271 7.53906C18.0068 7.05469 17.124 7.04688 16.7646 7.52344C16.5224 7.85156 16.5693 8.20312 17.1787 10.6641C17.4756 11.8672 17.7099 12.8594 17.7021 12.8672C17.6865 12.8906 12.0146 13.2031 11.6162 13.2031H11.2646L11.5381 12.1641C11.7568 11.3359 11.8037 11.0469 11.7646 10.6797C11.6865 9.875 11.1396 9.09375 10.4287 8.75781C10.0068 8.5625 6.01461 7.5 5.5068 7.44531C4.61618 7.35156 3.6318 7.89844 3.24899 8.6875C2.92868 9.35938 0.0693015 20 0.0224265 20.7109C-0.016636 21.2734 0.0380515 21.5547 0.975551 25.5L1.96774 29.6797L1.45211 33.6953C1.17086 35.8984 0.936489 37.8203 0.936489 37.9609C0.936489 38.9688 1.7568 39.7656 2.78805 39.7656C3.54586 39.7656 4.05368 39.4844 4.42086 38.8672C4.60055 38.5547 4.67086 38.1484 5.20211 34.0469C5.54586 31.3438 5.7568 29.4609 5.73336 29.2969C5.70211 29.1484 5.3193 27.5156 4.8818 25.6797C4.4443 23.8359 4.10836 22.3594 4.13961 22.3984C4.17086 22.4297 5.10055 24.0625 6.20993 26.0156L8.22555 29.5703L7.77243 33.7422C7.5068 36.2266 7.34274 38.0391 7.37399 38.2188C7.47555 38.8594 7.91305 39.4141 8.49118 39.6641C8.89743 39.8281 9.66305 39.7891 10.0771 39.5781C10.4834 39.375 10.8974 38.8672 11.0068 38.4531C11.1552 37.8906 12.0459 29.3438 11.999 28.9141C11.9677 28.5469 11.7646 28.1484 10.3193 25.6172L8.67868 22.75L8.99118 21.6016C9.16305 20.9688 9.28024 20.4219 9.24118 20.3906C9.20993 20.3594 8.95211 20.2969 8.67868 20.25C8.39743 20.2031 7.98336 20.0703 7.7568 19.9531C7.2568 19.7109 6.63961 19.1328 6.42086 18.7031C6.27243 18.4062 5.03024 12.6797 5.10055 12.6094C5.11618 12.5938 5.71774 13.8359 6.43649 15.3828C7.23336 17.0938 7.82711 18.2578 7.95211 18.3828C8.0693 18.4922 8.28805 18.6406 8.4443 18.7031C8.78024 18.8438 14.749 19.7656 15.3584 19.7734C16.3974 19.7891 17.1552 18.7812 16.8818 17.75C16.7802 17.375 16.4131 16.9219 16.0771 16.75C15.9521 16.6875 14.5771 16.4375 13.0224 16.2031C11.4677 15.9609 10.1943 15.7656 10.1865 15.7578C10.1865 15.75 9.78805 14.8828 9.29586 13.8281C8.12399 11.2891 7.86618 10.7188 7.98336 10.8672C9.13961 12.2891 10.9677 14.4531 11.0146 14.4531C11.3584 14.4531 15.8662 15.1953 16.2568 15.3203C16.5381 15.4062 16.9521 15.6172 17.1709 15.7891C17.6162 16.1172 17.8427 16.1641 18.2099 15.9766C18.3896 15.8828 18.4443 15.875 18.4677 15.9531C18.5459 16.2109 19.0615 18.3672 19.0615 18.4375C19.0615 18.4766 18.9052 18.5156 18.7099 18.5156C18.374 18.5156 18.3662 18.5234 18.3115 18.8047C18.249 19.1719 17.9521 19.7891 17.6943 20.0938L17.499 20.3281V22.7422V25.1562H15.624C13.5615 25.1562 13.4756 25.1719 13.2334 25.6328C13.0068 26.0859 13.1396 26.6016 13.5615 26.8828C13.7724 27.0156 13.9443 27.0312 15.6474 27.0312H17.499V31.8906C17.499 37.125 17.4912 36.9844 17.9131 37.2969C18.0927 37.4297 18.2724 37.4688 18.9052 37.4844L19.6787 37.5156L19.7256 37.2109C19.999 35.4375 21.1318 34.25 22.7881 33.9844C24.7099 33.6719 26.6162 35.1406 26.8506 37.1016L26.8974 37.5H28.8662H30.8349L30.8896 37.0234C30.9834 36.1016 31.6006 35.125 32.4677 34.5312C33.5537 33.7734 35.2724 33.7734 36.3584 34.5312C37.2256 35.125 37.8427 36.1016 37.9365 37.0234L37.9912 37.5H38.5146C39.2568 37.5 39.5068 37.4375 39.7724 37.1641L40.0068 36.9297L39.9834 35.3516L39.9599 33.7656L39.7177 33.4609C39.3506 33.0078 39.0068 32.8672 38.0771 32.8281L37.2881 32.7891L37.3896 32.5078C37.4521 32.3516 37.8193 30.4141 38.2099 28.2031L38.9287 24.1797L38.7802 23.9062C38.6787 23.7266 38.5381 23.6016 38.3584 23.5391C38.0693 23.4375 30.7959 23.3906 30.3193 23.4844C29.9052 23.5703 29.6865 23.8438 29.6865 24.2656C29.6865 24.8828 31.0849 32.5156 31.2256 32.6719C31.3427 32.8047 31.2881 32.8125 30.2099 32.8125H29.0615L29.0459 26.0625C29.0224 19.3828 29.0224 19.3047 28.8584 19.0938C28.4756 18.5703 28.4209 18.5547 26.7177 18.5312L25.1631 18.5078L25.124 18.1016C25.0927 17.875 24.8818 14.8125 24.6474 11.2891C24.4052 7.76562 24.1943 4.76562 24.1709 4.61719C24.1474 4.45312 24.0224 4.24219 23.8662 4.08594C23.6552 3.875 23.5537 3.82812 23.2724 3.82812C23.0615 3.82812 22.8349 3.89062 22.6865 3.98438Z" fill="#28C79E"/>
<path d="M22.7403 35.2343C21.7325 35.4452 20.9747 36.4374 20.9825 37.539C20.9903 38.2187 21.1856 38.6874 21.6622 39.164C22.5997 40.1093 24.1309 40.0546 25.045 39.039C26.0762 37.8905 25.67 36.0077 24.2559 35.3827C23.8575 35.203 23.1934 35.1405 22.7403 35.2343ZM23.8497 37.039C24.4747 37.7109 23.5294 38.6796 22.8262 38.0859C22.3965 37.7265 22.4825 37.0546 22.9825 36.8359C23.3184 36.6874 23.584 36.7499 23.8497 37.039Z" fill="#28C79E"/>
<path d="M33.8809 35.2344C33.4356 35.3516 33.0371 35.5781 32.7246 35.9141C32.2871 36.3672 32.1621 36.6797 32.1231 37.3906C32.0918 37.9531 32.1153 38.0859 32.2871 38.4531C33.1231 40.2969 35.7012 40.2969 36.5371 38.4531C36.709 38.0859 36.7325 37.9531 36.7012 37.3906C36.6621 36.6641 36.5059 36.2891 36.0371 35.8438C35.4981 35.3203 34.5762 35.0625 33.8809 35.2344ZM34.67 36.8047C35.1075 36.9531 35.3028 37.5625 35.0371 37.9375C34.8887 38.1562 34.4981 38.3125 34.2481 38.25C33.5371 38.0703 33.4668 37.0703 34.1387 36.8047C34.3965 36.7031 34.3887 36.7031 34.67 36.8047Z" fill="#28C79E"/>
</g>
<defs>
<clipPath id="clip0_257_2804">
<rect width="40" height="40" fill="white"/>
</clipPath>
</defs>
</svg>
