<svg width="40" height="40" viewBox="0 0 40 40" fill="none" xmlns="http://www.w3.org/2000/svg">
<path d="M27.0303 1.33594C26.9209 1.38281 26.7334 1.51562 26.6006 1.63281C26.4678 1.75781 26.1943 1.89844 25.9834 1.94531C24.8037 2.23438 23.835 3.07031 23.3428 4.22656L23.1631 4.64844L23.124 15.625C23.085 25.9844 23.0771 26.6172 22.9443 26.9141C22.624 27.6172 22.0459 28 21.1475 28.0938C20.6553 28.1406 20.624 28.1406 20.624 27.9844C20.624 27.8359 20.4912 27.8906 19.374 28.4531L18.124 29.0859V33.6094V38.125H18.6943C19.3506 38.125 19.7568 37.9688 20.1318 37.5703C20.6318 37.0469 20.624 37.1016 20.624 33.0547V29.3906L21.3896 29.3594C22.0381 29.3359 22.2256 29.2969 22.6162 29.1016C23.2178 28.8125 23.8115 28.2188 24.1084 27.6172L24.335 27.1484L24.374 16.1328L24.4131 5.11719L24.6709 4.59375C24.835 4.25781 25.0459 3.96875 25.2646 3.79688C25.5771 3.53125 26.1943 3.21094 26.374 3.20312C26.4209 3.20312 27.3818 3.82031 28.5068 4.57031C29.6396 5.32031 30.5928 5.9375 30.6318 5.9375C30.6709 5.9375 30.7022 5.35156 30.7022 4.625V3.32031L29.71 2.5C28.2725 1.30469 28.1865 1.25 27.6631 1.25781C27.4209 1.25781 27.1396 1.29688 27.0303 1.33594Z" fill="#28C79E"/>
<path d="M11.8037 1.96094C11.4912 2.08594 11.1631 2.35156 10.9287 2.67969C10.8037 2.85156 10.7021 3.02344 10.7021 3.0625C10.7021 3.09375 12.3506 3.125 14.374 3.125C16.3975 3.125 18.0459 3.09375 18.0459 3.0625C18.0459 2.96875 17.6396 2.41406 17.4521 2.25C17.0537 1.89844 16.8428 1.875 14.3584 1.88281C13.0537 1.88281 11.9053 1.92188 11.8037 1.96094Z" fill="#28C79E"/>
<path d="M10.624 5.48438V6.60156L11.2646 7.02344L11.8975 7.4375L12.6084 7.21875C13.2412 7.01562 13.4287 6.99219 14.374 6.99219C15.3193 6.99219 15.5068 7.01562 16.1396 7.21875L16.8506 7.4375L17.4834 7.03125L18.124 6.61719V5.5V4.375H14.374H10.624V5.48438Z" fill="#28C79E"/>
<path d="M31.874 10.3125V16.25H33.124H34.374V10.3125V4.375H33.124H31.874V10.3125Z" fill="#28C79E"/>
<path d="M26.249 6.9375V9.42969L28.4365 10.8828L30.624 12.3438V9.84375V7.34375L28.5381 5.95312C27.3818 5.1875 26.3975 4.53125 26.3506 4.5C26.2725 4.45312 26.249 4.96094 26.249 6.9375Z" fill="#28C79E"/>
<path d="M13.2412 8.23438C13.0303 8.28906 12.749 8.38281 12.6162 8.44531L12.3896 8.55469L11.5928 13.0859C11.1475 15.5781 10.7646 17.7344 10.7412 17.8672L10.6943 18.125H11.3506H11.999L12.5615 14.2031C13.0615 10.7188 13.1475 10.25 13.3115 10C13.7959 9.27344 14.9521 9.27344 15.4365 10C15.6006 10.25 15.6865 10.7188 16.1865 14.2031L16.749 18.125H17.4053C18.0459 18.125 18.0615 18.1172 18.0225 17.9453C17.999 17.8516 17.624 15.7188 17.1865 13.2031C16.5303 9.47656 16.3584 8.60938 16.2412 8.5C15.874 8.17969 14.1162 8.01562 13.2412 8.23438Z" fill="#28C79E"/>
<path d="M13.718 14.3125C13.4289 16.3438 13.1945 18.0312 13.2023 18.0625C13.2023 18.1016 13.7336 18.125 14.3742 18.125C15.0227 18.125 15.5461 18.1016 15.5461 18.0625C15.5539 18.0312 15.3195 16.3438 15.0305 14.3125C14.5773 11.1406 14.4836 10.625 14.3742 10.625C14.2648 10.625 14.1711 11.1406 13.718 14.3125Z" fill="#28C79E"/>
<path d="M31.874 20V22.5H33.124H34.374V20V17.5H33.124H31.874V20Z" fill="#28C79E"/>
<path d="M9.17871 19.5234C8.60059 19.7969 8.12402 20.4609 8.12402 21.0156V21.25H14.374H20.624V21.0156C20.624 20.4609 20.1475 19.7969 19.5693 19.5234C19.2725 19.3906 18.9678 19.375 14.374 19.375C9.78027 19.375 9.47559 19.3906 9.17871 19.5234Z" fill="#28C79E"/>
<path d="M8.12402 24.5156V26.5391L9.88965 27.4297C11.46 28.2188 11.6787 28.3516 11.7646 28.5703C11.8506 28.7734 11.874 29.7422 11.874 33.4766V38.125H14.374H16.874V33.4766C16.874 29.5781 16.8896 28.7812 16.9912 28.5469C17.0928 28.2969 17.2334 28.2109 18.8662 27.4219L20.624 26.5625V24.5312V22.5H14.374H8.12402V24.5156ZM14.999 24.4531C14.999 25.1328 15.0068 25.1562 15.2178 25.2656C16.2881 25.8281 16.499 27.3438 15.6162 28.1797C15.2568 28.5234 14.8584 28.6719 14.3115 28.6719C13.3506 28.6719 12.5615 27.8672 12.5615 26.8828C12.5615 26.2266 12.9521 25.5703 13.5381 25.2656C13.7412 25.1562 13.749 25.1328 13.749 24.4531V23.75H14.374H14.999V24.4531ZM14.9834 34.6094C15.999 35.2266 15.5615 36.7969 14.374 36.7969C13.71 36.7969 13.2021 36.2891 13.2021 35.625C13.2021 34.9609 13.71 34.4531 14.374 34.4531C14.585 34.4531 14.8271 34.5156 14.9834 34.6094Z" fill="#28C79E"/>
<path d="M13.9053 26.4062C13.8037 26.5078 13.749 26.6641 13.749 26.875C13.749 27.0859 13.8037 27.2422 13.9053 27.3438C14.0068 27.4453 14.1631 27.5 14.374 27.5C14.585 27.5 14.7412 27.4453 14.8428 27.3438C14.9443 27.2422 14.999 27.0859 14.999 26.875C14.999 26.6641 14.9443 26.5078 14.8428 26.4062C14.7412 26.3047 14.585 26.25 14.374 26.25C14.1631 26.25 14.0068 26.3047 13.9053 26.4062Z" fill="#28C79E"/>
<path d="M31.874 28.75V33.75H31.5615H31.249V36.25V38.75H33.124H34.999V36.25V33.75H34.6865H34.374V28.75V23.75H33.124H31.874V28.75Z" fill="#28C79E"/>
<path d="M8.12407 32.2812C8.12407 37.2812 8.10844 37.0859 8.67875 37.6328C9.06157 37.9922 9.43657 38.125 10.0772 38.125H10.6241V33.5938V29.0625L9.37407 28.4375L8.12407 27.8125V32.2812Z" fill="#28C79E"/>
<path d="M5.62402 35V38.125H6.24902H6.87402V35V31.875H6.24902H5.62402V35Z" fill="#28C79E"/>
<path d="M21.874 35V38.125H22.499H23.124V35V31.875H22.499H21.874V35Z" fill="#28C79E"/>
</svg>
