<svg width="40" height="40" viewBox="0 0 40 40" fill="none" xmlns="http://www.w3.org/2000/svg">
<g clip-path="url(#clip0_257_3136)">
<path d="M34.351 0.484375C34.0072 0.984375 28.2729 9.5 28.1791 9.65625C28.14 9.71875 28.9447 10.3203 29.7025 10.7891C29.7494 10.8203 29.4682 11.3125 29.0307 11.9609C28.4682 12.7812 28.2963 13.0859 28.3744 13.1328C28.4291 13.1641 28.8588 13.4609 29.3354 13.7812C29.8041 14.1094 30.226 14.375 30.2729 14.375C30.3119 14.375 30.6713 13.8984 31.0541 13.3203C31.4447 12.7422 31.7807 12.2734 31.8197 12.2656C31.851 12.2656 32.226 12.5 32.6557 12.7891C33.1244 13.1016 33.4682 13.2812 33.5072 13.2344C33.6791 13.0625 39.9447 3.71875 39.9682 3.60156C39.9916 3.50781 39.3041 3.00781 37.4447 1.75781C36.0463 0.8125 34.851 0.03125 34.7963 0.015625C34.7416 0 34.5463 0.210938 34.351 0.484375Z" fill="#28C79E"/>
<path d="M18.3587 17.3513C15.1868 22.0466 14.6712 22.906 14.4056 23.906C14.2493 24.4997 14.1556 26.6872 14.2806 26.8122C14.3275 26.8591 14.4603 26.8356 14.6556 26.7341C15.6634 26.2185 17.6712 25.7263 19.0696 25.6403C22.0696 25.4606 24.8665 26.1872 27.2337 27.7731C27.6478 28.0544 27.9993 28.2731 28.0071 28.2575C28.015 28.2497 29.1868 26.5075 30.6165 24.3903C32.0462 22.2653 33.2025 20.5231 33.1868 20.5153C32.9681 20.3435 30.4525 18.6638 30.3665 18.6247C30.2884 18.6013 30.1321 18.7106 29.9212 18.9372C29.1712 19.7497 28.2571 20.1169 27.1165 20.0622C26.5306 20.0388 26.3431 19.9919 25.89 19.7653C25.1556 19.406 24.6009 18.8356 24.2337 18.07C23.9525 17.4841 23.9446 17.4294 23.9446 16.6013C23.9446 15.7966 23.9603 15.7106 24.2025 15.2028C24.3353 14.9138 24.4525 14.656 24.4525 14.6403C24.4525 14.6169 21.5696 12.656 21.5384 12.656C21.5306 12.656 20.1009 14.7731 18.3587 17.3513Z" fill="#28C79E"/>
<path d="M26.5703 15.6095C26.2344 16.1252 26.1719 16.2736 26.1719 16.5939C26.1719 17.2892 26.5625 17.7423 27.2188 17.797C27.8281 17.8439 28.0938 17.6877 28.5781 16.9923C28.8047 16.672 28.9844 16.3752 28.9844 16.3283C28.9844 16.2502 27.1641 15.0002 27.0469 15.0002C27.0078 15.0002 26.7891 15.2736 26.5703 15.6095Z" fill="#28C79E"/>
<path d="M18.1641 28.0156C16.1953 28.3438 14.1484 29.3203 12.75 30.5938L12.2578 31.0391L11.6562 30.9922C10.8984 30.9375 9.65625 31.0469 8.86719 31.25C5.96875 31.9922 3.57031 34.1641 2.60938 36.9141L2.36719 37.6172L1.17969 37.6406L0 37.6641V38.8281V40H20H40V38.8281V37.6641L38.8203 37.6406L37.6328 37.6172L37.3906 36.9141C36.5859 34.6016 34.6875 32.6094 32.3984 31.6719C31.1094 31.1484 29.6016 30.8984 28.3438 30.9922L27.7422 31.0391L27.25 30.5938C25.8281 29.2969 23.7812 28.3359 21.7578 28.0078C20.8906 27.8672 19.0156 27.8672 18.1641 28.0156Z" fill="#28C79E"/>
</g>
<defs>
<clipPath id="clip0_257_3136">
<rect width="40" height="40" fill="white"/>
</clipPath>
</defs>
</svg>
