<svg width="40" height="40" viewBox="0 0 40 40" fill="none" xmlns="http://www.w3.org/2000/svg">
<path d="M13.2819 2.6566C13.1413 2.79722 13.1256 2.91441 13.1256 3.97691V5.14097L12.7272 5.22691C11.8209 5.42222 10.4147 6.00816 9.58657 6.53941L9.37563 6.68003L8.57094 5.87535C7.82876 5.13316 7.75063 5.07847 7.46157 5.07847C7.17251 5.07847 7.09438 5.13316 6.11782 6.11753C5.13344 7.0941 5.07876 7.17222 5.07876 7.46128C5.07876 7.75035 5.13344 7.82847 5.87563 8.57066L6.68032 9.37535L6.53969 9.58628C6.02407 10.3988 5.42251 11.8441 5.22719 12.7269L5.14126 13.1253H3.97719C2.39126 13.1253 2.50063 12.9925 2.50063 15.0003C2.50063 17.0082 2.39126 16.8753 3.97719 16.8753H5.14126L5.22719 17.2738C5.42251 18.1566 6.02407 19.6019 6.53969 20.4144L6.68032 20.6253L5.87563 21.43C5.13344 22.1722 5.07876 22.2503 5.07876 22.5394C5.07876 22.8285 5.13344 22.9066 6.11782 23.8832C7.09438 24.8675 7.17251 24.9222 7.46157 24.9222C7.75063 24.9222 7.82876 24.8675 8.57094 24.1253L9.37563 23.3207L9.58657 23.4613C10.3834 23.9691 11.6178 24.4925 12.5631 24.7269L13.1256 24.8597V26.0238C13.1256 27.6097 12.9928 27.5003 15.0006 27.5003C17.0084 27.5003 16.8756 27.6097 16.8756 26.0238V24.8597L17.4459 24.7269C18.3834 24.4925 19.6178 23.9691 20.4147 23.4613L20.6256 23.3207L21.4303 24.1253C22.1725 24.8675 22.2506 24.9222 22.5397 24.9222C22.8288 24.9222 22.9069 24.8675 23.8834 23.8832C24.8678 22.9066 24.9225 22.8285 24.9225 22.5394C24.9225 22.2503 24.8678 22.1722 24.1256 21.43L23.3209 20.6253L23.4616 20.4144C23.9772 19.6019 24.5788 18.1566 24.7741 17.2738L24.86 16.8753H26.0241C27.61 16.8753 27.5006 17.0082 27.5006 15.0003C27.5006 12.9925 27.61 13.1253 26.0241 13.1253H24.86L24.7741 12.7269C24.5788 11.8441 23.9772 10.3988 23.4616 9.58628L23.3209 9.37535L24.1256 8.57066C24.8678 7.82847 24.9225 7.75035 24.9225 7.46128C24.9225 7.17222 24.8678 7.0941 23.8834 6.11753C22.9069 5.13316 22.8288 5.07847 22.5397 5.07847C22.2506 5.07847 22.1725 5.13316 21.4303 5.87535L20.6256 6.68003L20.4147 6.53941C19.6022 6.02378 18.1569 5.42222 17.2741 5.22691L16.8756 5.14097V3.97691C16.8756 2.39097 17.0084 2.50035 15.0006 2.50035C13.5397 2.50035 13.4303 2.50816 13.2819 2.6566ZM16.6491 10.3441C18.0475 10.8285 19.235 12.0472 19.6959 13.4535C19.8522 13.9378 19.8834 14.18 19.8834 15.0394C19.8834 15.9378 19.86 16.1175 19.6803 16.6175C18.235 20.5785 12.9303 21.1175 10.7506 17.516C10.2506 16.6878 10.1178 16.18 10.1178 15.0394C10.1178 13.805 10.2897 13.1644 10.8756 12.2972C12.1569 10.3753 14.485 9.5941 16.6491 10.3441Z" fill="#28C79E"/>
<path d="M13.8125 11.3979C12.6797 11.7651 11.7109 12.7573 11.375 13.8979C11.2109 14.4526 11.2109 15.5464 11.375 16.1011C11.7109 17.2573 12.6875 18.2417 13.8359 18.6011C14.4766 18.8042 15.5234 18.8042 16.1641 18.6011C17.3125 18.2417 18.2891 17.2573 18.625 16.1011C18.7891 15.5464 18.7891 14.4526 18.625 13.8979C18.2891 12.7417 17.3125 11.7573 16.1641 11.3979C15.5312 11.2026 14.4297 11.2026 13.8125 11.3979Z" fill="#28C79E"/>
<path d="M28.0087 7.89111C27.1415 8.75049 27.0165 8.96924 27.2118 9.35205C27.2821 9.46924 27.6493 9.87549 28.0321 10.2505C28.6727 10.8833 28.7587 10.938 29.0399 10.938C29.4931 10.938 29.7196 10.6724 29.6727 10.1958C29.6493 10.0005 29.6493 9.84424 29.6649 9.84424C29.8681 9.84424 30.7196 10.1646 31.2587 10.438C32.4384 11.0474 33.3915 12.0239 33.9774 13.2271C34.3681 14.0083 34.5165 14.5786 34.6024 15.5317C34.6806 16.3989 34.7821 16.563 35.2743 16.563C35.7821 16.563 35.9384 16.3442 35.9384 15.6333C35.9384 15.3286 35.8837 14.8052 35.8134 14.4771C35.1806 11.4067 32.8759 9.11768 29.8212 8.51611L29.3602 8.42236L29.5243 8.25049C29.7274 8.03174 29.7431 7.57861 29.5556 7.35205C29.4774 7.2583 29.2821 7.16455 29.1181 7.1333C28.8368 7.08643 28.8134 7.10986 28.0087 7.89111Z" fill="#28C79E"/>
<path d="M28.8203 22.6484C28.6641 22.7734 28.6328 22.8828 28.5937 23.4453L28.5547 24.0938L28.2812 24.1563C28.1328 24.1953 27.7344 24.3516 27.4062 24.5078L26.7969 24.7891L26.375 24.3906C26.0156 24.0469 25.8984 23.9844 25.6562 23.9844C25.3906 23.9844 25.2969 24.0547 24.6719 24.6719C24.0547 25.2969 23.9844 25.3906 23.9844 25.6563C23.9844 25.8984 24.0469 26.0156 24.3906 26.375L24.7891 26.7969L24.5078 27.4063C24.3516 27.7344 24.1953 28.1328 24.1562 28.2813L24.0937 28.5547L23.4453 28.5938C22.5312 28.6563 22.5 28.6953 22.5 30C22.5 31.3047 22.5312 31.3438 23.4453 31.4063L24.0937 31.4453L24.1562 31.7188C24.1953 31.8672 24.3516 32.2656 24.5078 32.5938L24.7891 33.2031L24.3906 33.625C24.0469 33.9844 23.9844 34.1016 23.9844 34.3438C23.9844 34.6094 24.0547 34.7031 24.6719 35.3281C25.2969 35.9453 25.3906 36.0156 25.6562 36.0156C25.8984 36.0156 26.0156 35.9531 26.375 35.6094L26.7969 35.2109L27.4062 35.4922C27.7344 35.6484 28.1328 35.8047 28.2812 35.8438L28.5547 35.9063L28.5937 36.5547C28.6562 37.4688 28.6953 37.5 30 37.5C31.2969 37.5 31.3437 37.4688 31.4062 36.5625L31.4453 35.9219L31.875 35.7891C32.1094 35.7109 32.5078 35.5547 32.75 35.4297L33.2031 35.2109L33.625 35.6094C33.9844 35.9531 34.1016 36.0156 34.3437 36.0156C34.6094 36.0156 34.7031 35.9453 35.3281 35.3281C35.9453 34.7031 36.0156 34.6094 36.0156 34.3438C36.0156 34.1016 35.9531 33.9844 35.6094 33.625L35.2109 33.2031L35.4297 32.75C35.5547 32.5078 35.7109 32.1094 35.7891 31.875L35.9219 31.4453L36.5625 31.4063C37.4687 31.3438 37.5 31.2969 37.5 30C37.5 28.7031 37.4687 28.6563 36.5625 28.5938L35.9219 28.5547L35.7891 28.125C35.7109 27.8906 35.5547 27.4922 35.4297 27.25L35.2109 26.7969L35.6094 26.375C35.9531 26.0156 36.0156 25.8984 36.0156 25.6563C36.0156 25.3906 35.9453 25.2969 35.3281 24.6719C34.7031 24.0547 34.6094 23.9844 34.3437 23.9844C34.1016 23.9844 33.9844 24.0469 33.625 24.3906L33.2031 24.7891L32.5937 24.5078C32.2656 24.3516 31.8672 24.1953 31.7187 24.1563L31.4453 24.0938L31.4062 23.4453C31.3437 22.5313 31.3047 22.5 30 22.5C29.1406 22.5 28.9766 22.5234 28.8203 22.6484ZM31.0156 27.0703C31.8437 27.3594 32.5703 28.0781 32.9141 28.9297C33.1406 29.4922 33.1406 30.5078 32.9141 31.0703C32.3047 32.6016 30.6719 33.4375 29.1641 32.9844C28.2031 32.6875 27.4062 31.9531 27.0625 31.0156C26.8594 30.4922 26.8828 29.4531 27.0937 28.9063C27.7109 27.3438 29.4687 26.5234 31.0156 27.0703Z" fill="#28C79E"/>
<path d="M29.3516 28.1568C28.9219 28.3209 28.5469 28.6334 28.3047 29.0475C28.1172 29.36 28.0859 29.5006 28.0859 30.0084C28.0859 30.5318 28.1172 30.6412 28.3203 30.985C29.0937 32.2271 30.8672 32.2662 31.6406 31.0475C32.4297 29.7975 31.6094 28.1725 30.1406 28.0787C29.8359 28.0553 29.5391 28.0865 29.3516 28.1568Z" fill="#28C79E"/>
<path d="M7.79637 26.9141C7.51512 27.0703 7.46825 27.2891 7.52294 28.1953C7.71044 31.2891 10.1557 34.1328 13.2182 34.8125C14.062 35 14.0073 34.9766 13.8745 35.1719C13.5386 35.6484 13.8432 36.25 14.4136 36.25C14.6948 36.25 14.7807 36.1875 15.4839 35.4844C16.2182 34.75 16.2495 34.7031 16.2495 34.375C16.2495 34.0469 16.2182 34 15.4839 33.2656C14.7651 32.5469 14.6948 32.5 14.4057 32.5C13.9448 32.5 13.7182 32.7656 13.7651 33.2422C13.7886 33.4375 13.7964 33.5938 13.7886 33.5938C13.7729 33.5938 13.5229 33.5234 13.2339 33.4297C10.7651 32.6719 9.07762 30.5703 8.82762 27.9297C8.74169 27.0781 8.65575 26.9063 8.24169 26.8359C8.10106 26.8125 7.92137 26.8438 7.79637 26.9141Z" fill="#28C79E"/>
</svg>
