<svg width="30" height="40" viewBox="0 0 30 40" fill="none" xmlns="http://www.w3.org/2000/svg">
<path d="M0.795581 0.156666C0.272143 0.476978 0.311206 -1.06208 0.311206 19.9301C0.311206 37.5785 0.319018 39.0239 0.444018 39.2739C0.514331 39.4301 0.678393 39.6176 0.811206 39.6957C1.04558 39.8364 1.43621 39.8442 12.4206 39.8442C23.0065 39.8442 23.8034 39.8364 23.9831 39.7114C24.4206 39.4067 24.5925 38.9301 24.4284 38.4614C24.3737 38.2895 23.4987 36.7504 22.4831 35.0395C21.4753 33.3207 20.6003 31.8285 20.5378 31.7192C20.4831 31.6098 20.0925 30.5942 19.6784 29.4535L18.9284 27.3832L19.2175 27.1332C19.3815 26.9926 19.5846 26.7348 19.6706 26.5551L19.8346 26.2348L20.0612 26.6879C20.1862 26.9457 21.6706 29.977 23.3581 33.4379C25.0378 36.8989 26.4909 39.7895 26.5768 39.8598C26.8268 40.0785 27.3112 40.0473 27.5456 39.7895C27.7096 39.6176 27.7409 39.516 27.7096 39.2973C27.6862 39.1489 26.9362 37.516 26.03 35.6645L24.3893 32.3051L24.7331 32.2504C25.6706 32.1098 26.3893 31.2739 26.405 30.3207C26.405 30.0551 25.4518 25.7114 25.28 25.1957C25.2643 25.1489 26.1081 24.5942 27.155 23.9535C29.4909 22.5395 29.655 22.3598 29.6393 21.1723C29.6393 20.602 29.5846 20.4457 28.0143 16.2504C27.1159 13.8676 26.3034 11.7582 26.2096 11.5629C25.9518 11.0551 25.3503 10.5239 24.7956 10.3129C24.03 10.0239 23.3659 10.1098 21.8346 10.6801C20.7409 11.0942 20.3737 11.1879 18.8815 11.4457L17.1784 11.7504L16.5768 11.1567C14.5534 9.1801 13.3659 8.08635 13.1471 8.00042C13.0065 7.93792 12.7956 7.89104 12.6784 7.89104C12.4675 7.88323 12.3893 7.73479 10.6628 4.17229C9.67839 2.13323 8.77996 0.375416 8.67839 0.266041C8.43621 0.0160408 8.05339 0.0160408 7.75652 0.266041C7.35027 0.617603 7.38152 0.703541 9.41277 4.84417C11.2253 8.53948 11.2721 8.64104 11.2565 9.07073C11.2331 9.66448 11.3737 9.96917 11.9362 10.516C12.405 10.9692 12.4518 11.0629 14.8268 15.9379L17.2409 20.8989L17.1003 21.3285C17.0221 21.5629 16.7643 22.3832 16.5221 23.141L16.0846 24.5317L15.3659 24.0473C14.2878 23.3285 13.9596 23.0239 13.6784 22.5082C13.4518 22.0864 13.3737 21.7035 12.7409 18.016C12.2175 14.977 11.9987 13.8832 11.8503 13.5785C11.7487 13.352 11.1315 12.1879 10.4831 11.0004L9.31121 8.82854L8.20183 4.78948C7.58464 2.56292 7.03777 0.641041 6.97527 0.523853C6.91277 0.406666 6.75652 0.234791 6.61589 0.156666C6.38152 0.0082283 6.20964 0.000415802 3.70964 0.000415802C1.18621 0.000415802 1.03777 0.0082283 0.795581 0.156666ZM22.1237 15.9614C22.5612 17.1098 22.8893 18.0707 22.8737 18.0942C22.8503 18.1098 22.2487 18.0082 21.53 17.852C20.0534 17.5473 19.4128 17.5082 18.944 17.727C18.5768 17.891 18.0925 18.3676 17.9596 18.6957C17.8659 18.9223 17.8425 18.8832 16.8503 16.8676C16.2956 15.7348 15.7565 14.6176 15.655 14.3832L15.4675 13.9692L15.6471 14.0942C16.069 14.4067 16.3034 14.5317 16.5221 14.5707C16.655 14.5942 17.694 14.4457 18.8659 14.227C20.03 14.016 21.0612 13.8442 21.1628 13.852C21.3268 13.8676 21.4206 14.0629 22.1237 15.9614ZM21.7487 22.0551L22.2096 22.1489L21.7878 22.4614C21.0065 23.0395 20.7643 23.8832 21.0612 25.016C21.1237 25.2739 21.1706 25.516 21.155 25.5551C21.1393 25.602 20.9753 25.3207 20.7878 24.9379L20.4518 24.2504L20.8112 23.102C21.0143 22.4692 21.2018 21.9535 21.2331 21.9535C21.2643 21.9614 21.4909 22.0004 21.7487 22.0551Z" fill="#28C79E"/>
</svg>
