<svg width="36" height="37" viewBox="0 0 36 37" fill="none" xmlns="http://www.w3.org/2000/svg">
<path d="M6.68652 1.03119C6.31152 1.26556 6.12402 1.61713 6.12402 2.12494C6.12402 2.90619 6.59277 3.37494 7.37402 3.37494C8.15527 3.37494 8.62402 2.90619 8.62402 2.12494C8.62402 1.34369 8.15527 0.874939 7.37402 0.874939C7.08496 0.874939 6.8584 0.921814 6.68652 1.03119Z" fill="#28C79E"/>
<path d="M14.8115 2.90619C14.4365 3.14056 14.249 3.49213 14.249 3.99994C14.249 4.78119 14.7178 5.24994 15.499 5.24994C16.2803 5.24994 16.749 4.78119 16.749 3.99994C16.749 3.21869 16.2803 2.74994 15.499 2.74994C15.21 2.74994 14.9834 2.79681 14.8115 2.90619Z" fill="#28C79E"/>
<path d="M23.5068 2.89838C22.1084 3.30463 20.9756 4.24994 20.3584 5.52338C19.9834 6.289 19.874 6.82806 19.874 7.9765V8.99994H21.499C23.3271 8.99994 23.7803 8.92181 24.624 8.49994C25.6475 7.98431 26.4053 7.2265 26.8896 6.2265C27.2646 5.46088 27.374 4.92181 27.374 3.77338V2.74994L25.6787 2.75775C24.3037 2.75775 23.8818 2.789 23.5068 2.89838Z" fill="#28C79E"/>
<path d="M3.27246 7.01558C2.75684 7.10151 1.85059 7.38276 1.5459 7.56245C1.36621 7.66401 1.05371 7.92964 0.850586 8.1562L0.483398 8.57026L0.514648 9.11714C0.561523 9.7812 0.772461 10.2734 1.63184 11.6953C2.99121 13.9609 4.63965 16.3203 6.11621 18.1171L6.83496 19H7.41308C8.1084 19 8.08496 19.0781 7.77246 17.8281C7.05371 15.0156 5.57715 12.4062 3.46777 10.25L2.68652 9.44526L3.0459 9.02339L3.41309 8.5937L4.07715 9.24995C6.2959 11.4375 8.07715 14.414 8.7959 17.1406C8.88965 17.5234 8.99902 17.8281 9.02246 17.8281C9.11621 17.8281 9.53808 16.7109 9.67871 16.1093C10.2881 13.3593 9.63183 10.25 8.07715 8.58589C7.39746 7.85151 6.9834 7.5937 6.0459 7.27339C5.41309 7.06245 5.1709 7.02339 4.40527 6.99995C3.91309 6.99214 3.40527 6.99995 3.27246 7.01558Z" fill="#28C79E"/>
<path d="M11.1393 8.60938C10.5846 8.89063 10.069 9.41406 10.1549 9.60938C10.4049 10.1953 10.8268 11.5938 10.9284 12.2031C11.1706 13.625 11.0612 15.5391 10.6471 16.9219C10.5612 17.2109 10.5065 17.4688 10.5299 17.4922C10.6002 17.5703 11.3581 16.4453 11.7799 15.6328C12.319 14.6094 12.7252 13.4141 12.8971 12.3516C12.9674 11.9063 13.0377 11.5234 13.0456 11.5078C13.0612 11.4922 13.319 11.5078 13.6159 11.5391C14.2721 11.6016 14.2565 11.5547 14.0065 12.7734C13.5924 14.8516 12.5924 16.9219 11.2877 18.4375L10.8034 19H12.2721H13.7409V17.8125C13.7409 16.7031 13.7565 16.5781 13.9518 16.0938C14.5143 14.6797 15.6549 13.5391 16.9284 13.1016L17.3815 12.9531L17.3268 12.6328C17.0456 10.9063 15.4752 9.19531 13.6081 8.57813C13.1471 8.42188 12.8502 8.375 12.3112 8.375C11.694 8.375 11.5612 8.39844 11.1393 8.60938Z" fill="#28C79E"/>
<path d="M28.7646 9.41406C27.7881 9.75781 26.999 10.4297 26.6006 11.2656C26.3037 11.8984 26.3271 12.6797 26.7021 14.1484C27.0381 15.5 27.0615 16.0156 26.8037 16.5078C26.3975 17.2734 25.585 17.5156 24.3584 17.2422C24.0225 17.1641 23.7021 17.0859 23.6475 17.0703C23.5693 17.0391 23.5459 17.2031 23.5459 17.7578C23.5459 18.1641 23.5146 18.6094 23.4756 18.75L23.3975 19H25.4678C26.6006 19 27.5303 18.9844 27.5303 18.9609C27.5303 18.7734 28.0693 16.2891 28.3115 15.3516C28.6084 14.2422 29.2178 12.1562 29.2959 12.0312C29.3271 11.9922 29.71 12.0938 30.3115 12.3125C30.374 12.3359 30.2881 12.7188 30.0537 13.4688C29.5303 15.1406 28.6396 18.8828 28.7334 18.9766C28.7412 18.9922 30.1787 18.9922 31.9131 18.9844L35.0693 18.9609L34.7334 18.5938C34.0459 17.8516 33.4053 17.5625 32.1396 17.4375C31.2881 17.3438 30.9209 17.1953 30.6709 16.8125C30.3506 16.3359 30.4365 16.0938 31.374 14.7969C32.0381 13.8984 32.1709 11.6094 31.6396 10.4453C31.2881 9.67188 30.7646 9.32812 29.835 9.26562C29.3975 9.23438 29.1865 9.26562 28.7646 9.41406Z" fill="#28C79E"/>
<path d="M17.4285 14.1641C16.8582 14.3594 16.4207 14.625 15.9832 15.0469C15.5691 15.4453 15.1394 16.0938 15.2332 16.1797C15.2722 16.2188 15.4988 16.3047 15.7332 16.3828C15.9675 16.4609 16.1863 16.5312 16.2175 16.5547C16.2644 16.5781 16.1472 16.9766 15.9285 17.5703C15.905 17.6406 15.78 17.625 15.4519 17.5156C15.2097 17.4297 14.9753 17.3594 14.9363 17.3594C14.8425 17.3594 14.8582 18.3594 14.9597 18.7031L15.0378 19H18.6238H22.2097L22.2878 18.7031C22.3894 18.3516 22.3972 17.9844 22.3113 17.9844C22.2722 17.9844 22.0378 18.0547 21.7957 18.1406C21.4675 18.25 21.3425 18.2656 21.3191 18.1953C21.0457 17.4453 20.9832 17.1953 21.0691 17.1641C21.1238 17.1406 21.4128 17.0391 21.7097 16.9375C22.3269 16.7344 22.3269 16.7266 22.0144 16.0547C21.7644 15.5391 21.2019 14.9062 20.6863 14.5781C20.3582 14.3672 19.4675 14 19.2878 14C19.2644 14 19.2488 14.2812 19.2488 14.625V15.25H18.6238H17.9988V14.625C17.9988 14.2812 17.9753 14 17.9441 14C17.905 14.0078 17.6785 14.0781 17.4285 14.1641ZM19.2488 17.125V17.75H18.6238H17.9988V17.125V16.5H18.6238H19.2488V17.125Z" fill="#28C79E"/>
<path d="M2.68652 16.5313C1.40527 17.0625 0.764648 17.5234 0.569336 18.0391C0.530273 18.1406 0.499023 18.4063 0.499023 18.6172V19H2.9209H5.34277L4.77246 18.2734C4.45996 17.8828 3.99902 17.2813 3.74902 16.9453C3.50684 16.6172 3.26465 16.3438 3.20996 16.3438C3.15527 16.3516 2.9209 16.4297 2.68652 16.5313Z" fill="#28C79E"/>
<path d="M0.499023 20.625C0.499023 22.3437 1.24121 25.1328 2.21777 27.1093C4.78027 32.2734 9.6709 35.7265 15.4209 36.4218C16.4521 36.5468 19.7881 36.5234 20.8662 36.3828C27.2334 35.5468 32.6709 31.0468 34.6631 24.9609C35.1553 23.4453 35.499 21.6718 35.499 20.625V20.25H17.999H0.499023V20.625ZM5.06934 26.7109C6.45215 28.8125 8.45215 30.6562 10.5928 31.8125C10.9287 31.9922 11.2178 32.1718 11.2412 32.2109C11.2881 32.2734 10.9053 33.2187 10.835 33.2187C10.8193 33.2187 10.585 33.1093 10.3193 32.9765C8.56934 32.0859 6.62402 30.5078 5.21777 28.8203C4.6709 28.1718 3.88965 27.0781 3.84277 26.8984C3.81934 26.8281 4.58496 26.289 4.72559 26.2734C4.74902 26.2656 4.90527 26.4687 5.06934 26.7109ZM13.624 33.375V34H12.999H12.374V33.375V32.75H12.999H13.624V33.375Z" fill="#28C79E"/>
</svg>
