<svg width="324" height="229" viewBox="0 0 324 229" fill="none" xmlns="http://www.w3.org/2000/svg">
<path d="M267.591 24.7955C231.922 20.1514 211.651 39.937 163.712 42.0896C116.08 38.3569 97.9342 17.9347 61.8255 21.3926C22.9871 25.1161 -7.09437 75.7251 1.46566 126.348C10.0257 176.971 63.0758 205.275 90.194 205.124C111.871 204.986 131.016 196.161 155.729 194.054C180.182 196.976 198.369 206.42 219.991 207.272C247.045 208.339 302.976 181.844 316.831 131.587C330.685 81.331 305.972 29.7923 267.591 24.7955Z" fill="#28C79E"/>
<path opacity="0.7" d="M267.591 24.7955C231.922 20.1514 211.651 39.937 163.712 42.0896C116.08 38.3569 97.9342 17.9347 61.8255 21.3926C22.9871 25.1161 -7.09437 75.7251 1.46566 126.348C10.0257 176.971 63.0758 205.275 90.194 205.124C111.871 204.986 131.016 196.161 155.729 194.054C180.182 196.976 198.369 206.42 219.991 207.272C247.045 208.339 302.976 181.844 316.831 131.587C330.685 81.331 305.972 29.7923 267.591 24.7955Z" fill="white"/>
<g opacity="0.3">
<path d="M74.6188 38.572H14.9414V102.916H74.6188V38.572Z" stroke="black" stroke-width="0.458" stroke-linecap="round" stroke-linejoin="round"/>
<path d="M73.1768 40.1246H16.3848V101.359H73.1768V40.1246Z" stroke="black" stroke-width="0.458" stroke-linecap="round" stroke-linejoin="round"/>
<path d="M21.0605 54.1716V85.9935C23.3563 85.9935 25.5581 86.9055 27.1814 88.5288C28.8048 90.1522 29.7167 92.3539 29.7167 94.6497V94.6772H60.0592V94.6497C60.0607 92.4382 60.9094 90.3113 62.4309 88.7064C63.9523 87.1014 66.0309 86.1404 68.2391 86.021V54.1487C66.0317 54.0293 63.9538 53.0689 62.4324 51.465C60.9111 49.861 60.0619 47.7353 60.0592 45.5246H29.7167C29.7143 47.8188 28.8013 50.0182 27.1782 51.6395C25.5551 53.2609 23.3547 54.1716 21.0605 54.1716V54.1716Z" stroke="black" stroke-width="0.458" stroke-linecap="round" stroke-linejoin="round"/>
<path d="M22.7598 55.3165V84.8484C24.8903 84.8484 26.9336 85.6947 28.4402 87.2013C29.9467 88.7078 30.7931 90.7511 30.7931 92.8817H58.9509C58.9514 90.8292 59.7384 88.8549 61.15 87.365C62.5616 85.875 64.4905 84.9826 66.54 84.8713V55.2982C64.4909 55.1858 62.5626 54.2931 61.1513 52.8033C59.7399 51.3136 58.9525 49.3399 58.9509 47.2878H30.7931C30.7931 48.3425 30.5853 49.3869 30.1815 50.3613C29.7777 51.3357 29.1859 52.221 28.4399 52.9666C27.6939 53.7122 26.8083 54.3035 25.8336 54.7067C24.859 55.1099 23.8145 55.3171 22.7598 55.3165Z" stroke="black" stroke-width="0.458" stroke-linecap="round" stroke-linejoin="round"/>
<path d="M154.359 38.572H94.6816V102.916H154.359V38.572Z" stroke="black" stroke-width="0.458" stroke-linecap="round" stroke-linejoin="round"/>
<path d="M152.919 40.1246H96.127V101.359H152.919V40.1246Z" stroke="black" stroke-width="0.458" stroke-linecap="round" stroke-linejoin="round"/>
<path d="M100.803 54.1717V85.9935C103.099 85.9935 105.3 86.9055 106.924 88.5289C108.547 90.1522 109.459 92.354 109.459 94.6497V94.6772H139.801V94.6497C139.803 92.4383 140.652 90.3114 142.173 88.7064C143.695 87.1015 145.773 86.1405 147.981 86.021V54.1488C145.774 54.0294 143.696 53.069 142.175 51.465C140.653 49.8611 139.804 47.7353 139.801 45.5247H109.459C109.457 47.8188 108.543 50.0182 106.92 51.6396C105.297 53.261 103.097 54.1717 100.803 54.1717V54.1717Z" stroke="black" stroke-width="0.458" stroke-linecap="round" stroke-linejoin="round"/>
<path d="M102.516 55.3165V84.8484C104.646 84.8484 106.689 85.6947 108.196 87.2013C109.703 88.7078 110.549 90.7511 110.549 92.8817H138.698" stroke="black" stroke-width="0.458" stroke-linecap="round" stroke-linejoin="round"/>
<path d="M234.101 38.572H174.424V102.916H234.101V38.572Z" stroke="black" stroke-width="0.458" stroke-linecap="round" stroke-linejoin="round"/>
<path d="M232.655 40.1246H175.863V101.359H232.655V40.1246Z" stroke="black" stroke-width="0.458" stroke-linecap="round" stroke-linejoin="round"/>
<path d="M180.545 54.1717V85.9935C182.84 85.9947 185.041 86.9071 186.664 88.5302C188.288 90.1533 189.2 92.3543 189.201 94.6497C189.201 94.6497 189.201 94.6497 189.201 94.6772H219.548V94.6497C219.549 92.4379 220.397 90.3104 221.919 88.7053C223.44 87.1001 225.519 86.1394 227.728 86.021V54.1488C225.52 54.0305 223.441 53.0706 221.918 51.4665C220.396 49.8625 219.546 47.7361 219.544 45.5247H189.201C189.199 47.8188 188.286 50.0182 186.663 51.6396C185.039 53.261 182.839 54.1717 180.545 54.1717Z" stroke="black" stroke-width="0.458" stroke-linecap="round" stroke-linejoin="round"/>
<path d="M182.244 55.3165V84.8483C184.374 84.8495 186.416 85.6964 187.922 87.2028C189.427 88.7092 190.273 90.7518 190.273 92.8816H218.431C218.431 90.8284 219.219 88.8535 220.631 87.3634C222.044 85.8733 223.974 84.9814 226.024 84.8712V55.2981C223.974 55.1869 222.045 54.2946 220.633 52.8048C219.22 51.3149 218.432 49.3406 218.431 47.2877H190.273C190.273 48.3421 190.065 49.3861 189.662 50.3602C189.258 51.3343 188.667 52.2194 187.921 52.9649C187.176 53.7104 186.291 54.3018 185.317 54.7053C184.343 55.1088 183.298 55.3165 182.244 55.3165V55.3165Z" stroke="black" stroke-width="0.458" stroke-linecap="round" stroke-linejoin="round"/>
<path d="M74.6188 112.823H14.9414V177.167H74.6188V112.823Z" stroke="black" stroke-width="0.458" stroke-linecap="round" stroke-linejoin="round"/>
<path d="M73.1768 114.38H16.3848V175.615H73.1768V114.38Z" stroke="black" stroke-width="0.458" stroke-linecap="round" stroke-linejoin="round"/>
<path d="M21.0605 128.422V160.249C23.3563 160.249 25.5581 161.161 27.1814 162.784C28.8048 164.408 29.7167 166.609 29.7167 168.905V168.928H60.0592V168.905C60.0595 166.693 60.9077 164.565 62.4293 162.959C63.9509 161.353 66.0301 160.391 68.2391 160.272V128.422C66.0261 128.303 63.9436 127.338 62.4214 125.727C60.8992 124.116 60.0537 121.983 60.0592 119.766H29.7167C29.7167 122.062 28.8048 124.264 27.1814 125.887C25.5581 127.511 23.3563 128.422 21.0605 128.422V128.422Z" stroke="black" stroke-width="0.458" stroke-linecap="round" stroke-linejoin="round"/>
<path d="M22.7598 129.572V159.108C24.8895 159.108 26.9322 159.954 28.4386 161.46C29.945 162.965 30.7919 165.007 30.7931 167.137V167.16H58.9509V167.137C58.9467 165.082 59.7316 163.103 61.1437 161.609C62.5558 160.115 64.4874 159.22 66.54 159.108V129.549C64.4929 129.438 62.566 128.548 61.1547 127.06C59.7435 125.573 58.9549 123.603 58.9509 121.552H30.7931C30.7894 123.681 29.9415 125.72 28.4353 127.224C26.9292 128.728 24.888 129.572 22.7598 129.572V129.572Z" stroke="black" stroke-width="0.458" stroke-linecap="round" stroke-linejoin="round"/>
<path d="M154.359 112.823H94.6816V177.167H154.359V112.823Z" stroke="black" stroke-width="0.458" stroke-linecap="round" stroke-linejoin="round"/>
<path d="M152.919 114.38H96.127V175.615H152.919V114.38Z" stroke="black" stroke-width="0.458" stroke-linecap="round" stroke-linejoin="round"/>
<path d="M100.803 128.422V160.249C103.099 160.249 105.3 161.161 106.924 162.784C108.547 164.408 109.459 166.609 109.459 168.905V168.928H139.801V168.905C139.802 166.693 140.65 164.565 142.171 162.959C143.693 161.353 145.772 160.391 147.981 160.272V128.422C145.772 128.303 143.693 127.341 142.171 125.735C140.65 124.129 139.802 122.001 139.801 119.789H109.459C109.453 122.081 108.538 124.277 106.916 125.895C105.293 127.514 103.095 128.422 100.803 128.422Z" stroke="black" stroke-width="0.458" stroke-linecap="round" stroke-linejoin="round"/>
<path d="M102.516 129.572V159.108C104.646 159.108 106.689 159.955 108.196 161.461C109.703 162.968 110.549 165.011 110.549 167.142C110.549 167.149 110.549 167.157 110.549 167.165H138.698C138.698 167.157 138.698 167.149 138.698 167.142C138.692 165.086 139.476 163.107 140.887 161.612C142.298 160.117 144.229 159.221 146.282 159.108V129.549C144.236 129.437 142.31 128.546 140.9 127.059C139.489 125.572 138.702 123.602 138.698 121.552H110.535C110.532 123.678 109.685 125.716 108.182 127.219C106.679 128.722 104.641 129.568 102.516 129.572V129.572Z" stroke="black" stroke-width="0.458" stroke-linecap="round" stroke-linejoin="round"/>
<path d="M234.101 112.823H174.424V177.167H234.101V112.823Z" stroke="black" stroke-width="0.458" stroke-linecap="round" stroke-linejoin="round"/>
<path d="M232.655 114.38H175.863V175.615H232.655V114.38Z" stroke="black" stroke-width="0.458" stroke-linecap="round" stroke-linejoin="round"/>
<path d="M180.545 128.422V160.249C182.841 160.249 185.042 161.161 186.666 162.784C188.289 164.408 189.201 166.609 189.201 168.905C189.201 168.905 189.201 168.905 189.201 168.928H219.548V168.905C219.548 166.693 220.397 164.565 221.918 162.959C223.44 161.353 225.519 160.391 227.728 160.272V128.422C225.519 128.303 223.44 127.341 221.918 125.735C220.397 124.129 219.548 122.001 219.548 119.789H189.201C189.195 122.081 188.28 124.277 186.658 125.895C185.035 127.514 182.837 128.422 180.545 128.422Z" stroke="black" stroke-width="0.458" stroke-linecap="round" stroke-linejoin="round"/>
<path d="M182.244 129.572V159.108C183.299 159.108 184.343 159.316 185.318 159.72C186.292 160.124 187.177 160.716 187.923 161.462C188.669 162.208 189.26 163.093 189.663 164.068C190.066 165.043 190.273 166.087 190.273 167.142V167.165H218.431V167.142C218.425 165.085 219.21 163.104 220.624 161.609C222.037 160.114 223.97 159.219 226.024 159.108V129.549C223.976 129.439 222.048 128.549 220.636 127.062C219.224 125.575 218.435 123.603 218.431 121.552H190.273C190.27 123.68 189.424 125.72 187.918 127.224C186.413 128.727 184.372 129.572 182.244 129.572V129.572Z" stroke="black" stroke-width="0.458" stroke-linecap="round" stroke-linejoin="round"/>
<path d="M312.875 38.572H253.197V102.916H312.875V38.572Z" stroke="black" stroke-width="0.458" stroke-linecap="round" stroke-linejoin="round"/>
<path d="M311.431 40.1246H254.639V101.359H311.431V40.1246Z" stroke="black" stroke-width="0.458" stroke-linecap="round" stroke-linejoin="round"/>
<path d="M259.316 54.1717V85.9935C261.612 85.9935 263.814 86.9055 265.437 88.5289C267.061 90.1522 267.973 92.354 267.973 94.6497V94.6772H298.315V94.6497C298.317 92.4383 299.165 90.3114 300.687 88.7064C302.208 87.1015 304.287 86.1405 306.495 86.021V54.1488C304.288 54.0294 302.21 53.069 300.688 51.465C299.167 49.8611 298.318 47.7353 298.315 45.5247H267.973C267.97 47.8188 267.057 50.0182 265.434 51.6396C263.811 53.261 261.611 54.1717 259.316 54.1717Z" stroke="black" stroke-width="0.458" stroke-linecap="round" stroke-linejoin="round"/>
<path d="M261.016 55.3165V84.8484C263.146 84.8496 265.188 85.6963 266.695 87.2026C268.201 88.7089 269.048 90.7515 269.049 92.8817H297.211" stroke="black" stroke-width="0.458" stroke-linecap="round" stroke-linejoin="round"/>
<path d="M312.875 112.823H253.197V177.167H312.875V112.823Z" stroke="black" stroke-width="0.458" stroke-linecap="round" stroke-linejoin="round"/>
<path d="M311.431 114.38H254.639V175.615H311.431V114.38Z" stroke="black" stroke-width="0.458" stroke-linecap="round" stroke-linejoin="round"/>
<path d="M259.316 128.422V160.249C261.612 160.249 263.814 161.161 265.437 162.784C267.061 164.408 267.973 166.609 267.973 168.905V168.928H298.315V168.905C298.315 166.693 299.164 164.565 300.685 162.959C302.207 161.353 304.286 160.391 306.495 160.272V128.422C304.286 128.303 302.207 127.341 300.685 125.735C299.164 124.129 298.315 122.001 298.315 119.789H267.973C267.967 122.081 267.052 124.277 265.429 125.895C263.806 127.514 261.608 128.422 259.316 128.422V128.422Z" stroke="black" stroke-width="0.458" stroke-linecap="round" stroke-linejoin="round"/>
<path d="M261.016 129.572V159.108C263.146 159.108 265.189 159.955 266.696 161.461C268.203 162.968 269.049 165.011 269.049 167.142C269.048 167.149 269.048 167.157 269.049 167.165H297.211C297.212 167.157 297.212 167.149 297.211 167.142C297.206 165.086 297.99 163.107 299.401 161.612C300.812 160.117 302.743 159.221 304.796 159.108V129.549C302.748 129.439 300.82 128.549 299.408 127.062C297.995 125.575 297.206 123.603 297.202 121.552H269.049C269.045 123.681 268.197 125.72 266.691 127.224C265.185 128.728 263.144 129.572 261.016 129.572V129.572Z" stroke="black" stroke-width="0.458" stroke-linecap="round" stroke-linejoin="round"/>
</g>
<path d="M277.738 166.739C277.738 166.739 283.088 175.281 285.323 183.548C286.912 189.419 286.985 201.08 286.985 201.08C286.985 201.08 287.091 166.487 295.051 153.091" stroke="#263238" stroke-width="0.458" stroke-miterlimit="10"/>
<path d="M299.355 123.142C299.355 123.142 291.642 135.508 289.494 148.415C287.346 161.321 286.843 193.299 286.843 193.299C286.714 186.603 285.707 162.086 283.559 151.469C282.289 145.138 280.251 138.986 277.49 133.149" stroke="#263238" stroke-width="0.458" stroke-miterlimit="10"/>
<path d="M279.16 136.886C279.16 136.886 285.613 137.184 288.627 132.343C291.64 127.502 289.657 122.867 286.827 122.528C283.996 122.189 282.764 125.693 281.715 124.012C280.667 122.331 284.725 119.171 280.177 116.263C275.629 113.354 273.504 117.527 272.061 116.034C270.618 114.541 271.658 110.648 268.653 108.935C265.649 107.222 264.243 109.356 262.58 109.425C260.918 109.493 255.678 106.677 253.585 108.893C251.492 111.11 256.498 116.469 254.148 116.629C251.799 116.789 250.846 121.369 252.774 124.333C254.703 127.296 260.826 128.455 259.644 130.021C258.463 131.587 252.578 131.473 254.968 134.935C257.359 138.398 265.475 138.599 266.643 139.034C267.811 139.47 262.905 140.344 263.734 143.582C264.563 146.82 271.305 147.246 275.642 145.144C279.98 143.042 279.16 136.886 279.16 136.886Z" fill="#B0B0B0"/>
<path d="M260.547 115.044C260.547 115.044 274.25 123.998 279.16 136.887" stroke="#263238" stroke-width="0.458" stroke-miterlimit="10"/>
<path d="M259.873 121.315L269.061 122.212L266.821 114.596" stroke="#263238" stroke-width="0.458" stroke-miterlimit="10"/>
<path d="M267.271 131.849H276.454L277.128 123.559" stroke="#263238" stroke-width="0.458" stroke-miterlimit="10"/>
<path d="M298.079 125.913C298.079 125.913 292.844 126.151 290.398 122.221C287.953 118.292 289.56 114.532 291.859 114.257C294.159 113.982 295.157 116.826 296.009 115.461C296.861 114.096 293.563 111.532 297.259 109.168C300.955 106.805 302.673 110.194 303.845 108.985C305.018 107.776 304.171 104.611 306.593 103.224C309.016 101.836 310.17 103.562 311.521 103.622C312.872 103.682 317.127 101.387 318.822 103.187C320.517 104.987 316.459 109.338 318.364 109.466C320.269 109.594 321.048 113.313 319.5 115.722C317.952 118.131 312.96 119.084 313.935 120.339C314.911 121.594 319.669 121.516 317.727 124.328C315.785 127.14 309.199 127.323 308.256 127.653C307.312 127.983 311.288 128.716 310.615 131.349C309.941 133.983 304.468 134.303 300.946 132.613C297.424 130.923 298.079 125.913 298.079 125.913Z" fill="#B0B0B0"/>
<path d="M313.167 108.179C313.167 108.179 302.046 115.452 298.053 125.913" stroke="#263238" stroke-width="0.458" stroke-miterlimit="10"/>
<path d="M313.717 113.272L306.256 114L308.079 107.817" stroke="#263238" stroke-width="0.458" stroke-miterlimit="10"/>
<path d="M307.712 121.823H300.256L299.711 115.09" stroke="#263238" stroke-width="0.458" stroke-miterlimit="10"/>
<path d="M280.929 172.807C280.929 172.807 285.175 173.004 287.158 169.812C289.141 166.62 287.841 163.574 285.977 163.354C284.113 163.134 283.302 165.438 282.61 164.33C281.919 163.221 284.593 161.124 281.594 159.223C278.594 157.322 277.201 160.057 276.249 159.077C275.296 158.096 275.983 155.527 274.005 154.4C272.026 153.274 271.101 154.675 270.006 154.726C268.912 154.776 265.463 152.894 264.084 154.373C262.706 155.852 266.003 159.361 264.455 159.466C262.907 159.571 262.28 162.589 263.539 164.541C264.799 166.492 268.838 167.266 268.051 168.287C267.263 169.308 263.397 169.24 264.973 171.52C266.548 173.801 271.889 173.952 272.658 174.223C273.427 174.493 270.199 175.084 270.744 177.218C271.289 179.352 275.731 179.618 278.585 178.244C281.438 176.87 280.929 172.807 280.929 172.807Z" fill="#B0B0B0"/>
<path d="M268.668 158.422C268.668 158.422 277.691 164.321 280.929 172.807" stroke="#263238" stroke-width="0.458" stroke-miterlimit="10"/>
<path d="M268.223 162.553L274.273 163.144L272.798 158.128" stroke="#263238" stroke-width="0.458" stroke-miterlimit="10"/>
<path d="M273.096 169.487H279.141L279.586 164.028" stroke="#263238" stroke-width="0.458" stroke-miterlimit="10"/>
<path d="M293.521 156.168C293.521 156.168 287.109 155.307 285.025 150.004C282.941 144.7 285.708 140.5 288.552 140.674C291.396 140.848 291.982 144.512 293.315 143.047C294.648 141.581 291.217 137.743 296.214 135.696C301.211 133.648 302.553 138.132 304.243 136.923C305.933 135.714 305.617 131.697 308.864 130.552C312.111 129.407 313.128 131.752 314.75 132.119C316.371 132.485 322.032 130.649 323.694 133.204C325.357 135.76 319.472 140.138 321.757 140.715C324.042 141.292 324.157 145.969 321.757 148.543C319.357 151.117 313.096 151.176 313.998 152.912C314.901 154.648 320.69 155.605 317.717 158.582C314.745 161.559 306.725 160.332 305.503 160.528C304.28 160.725 308.947 162.484 307.55 165.525C306.153 168.566 299.448 167.756 295.555 164.93C291.662 162.104 293.521 156.168 293.521 156.168Z" fill="#B0B0B0"/>
<path d="M315.746 138.009C315.746 138.009 300.664 144.37 293.523 156.168" stroke="#263238" stroke-width="0.458" stroke-miterlimit="10"/>
<path d="M315.287 144.302L306.086 143.541L309.654 136.447" stroke="#263238" stroke-width="0.458" stroke-miterlimit="10"/>
<path d="M306.126 153.338L297.09 151.694L297.91 143.418" stroke="#263238" stroke-width="0.458" stroke-miterlimit="10"/>
<path d="M276.505 184.848C276.047 186.08 275.781 196.559 275.781 197.952C275.781 207.171 280.865 209.31 287.14 209.31C293.414 209.31 298.498 207.661 298.498 197.952C298.498 196.578 298.232 186.08 297.774 184.848H276.505Z" fill="#263238" stroke="#263238" stroke-width="0.458" stroke-miterlimit="10"/>
<path d="M40.4255 86.4239L38.9141 73.206C40.0457 72.2057 41.3678 71.4442 42.801 70.9673C44.2341 70.4903 45.7488 70.3078 47.2542 70.4305C52.5212 70.7695 53.6891 72.8671 53.6891 72.8671L53.6479 84.6743C53.6479 84.6743 46.8604 84.1797 40.4255 86.4239Z" fill="white" stroke="#263238" stroke-width="0.458" stroke-linecap="round" stroke-linejoin="round"/>
<path d="M42.4727 89.1031L42.7154 96.8571C42.7154 96.8571 42.033 97.9792 44.5199 99.7379C47.0069 101.497 48.2755 101.639 49.5579 101.492C50.8403 101.345 52.4342 98.6616 52.4342 98.6616L52.7777 93.6877C52.7777 93.6877 49.7045 94.8098 47.2175 94.4205C44.7306 94.0312 42.4727 89.1031 42.4727 89.1031Z" fill="white" stroke="#263238" stroke-width="0.458" stroke-linecap="round" stroke-linejoin="round"/>
<path d="M47.2036 94.4206C45.5823 94.1641 44.0663 91.984 43.2053 90.4955L42.5137 89.9505L42.7289 96.848C42.7299 96.8571 42.7299 96.8663 42.7289 96.8755L50.3546 95.9228L48.4768 94.4893C48.0512 94.5024 47.6253 94.4795 47.2036 94.4206Z" fill="#263238" stroke="#263238" stroke-width="0.458" stroke-linecap="round" stroke-linejoin="round"/>
<path d="M40.3711 86.7444C40.3711 86.7444 43.2473 84.2438 48.6517 84.3125C48.6517 84.3125 51.7661 84.143 53.6485 84.656C53.6485 84.656 53.9233 89.8909 53.6485 91.5672C53.3737 93.2435 53.6119 95.5014 50.328 95.9136C47.0442 96.3258 44.7175 94.819 43.9985 93.8572C43.2794 92.8954 42.5603 90.5413 42.5603 90.5413C41.955 90.0139 41.4153 89.4158 40.9528 88.7596C40.6707 88.1165 40.4751 87.4389 40.3711 86.7444Z" fill="white" stroke="#263238" stroke-width="0.458" stroke-linecap="round" stroke-linejoin="round"/>
<path d="M41.0214 87.1383C41.0214 87.1383 42.629 87.033 43.2106 86.4513C43.3779 86.2915 43.5009 86.091 43.5675 85.8695C43.6342 85.6479 43.6422 85.4128 43.5908 85.1873C43.5908 85.1873 41.2275 85.9063 40.3848 86.7628L41.0214 87.1383Z" fill="#263238" stroke="#263238" stroke-width="0.458" stroke-linecap="round" stroke-linejoin="round"/>
<path d="M42.0822 87.6605C42.0822 87.6605 40.951 86.2865 39.893 86.5292C38.835 86.772 38.9312 89.4375 39.8243 90.0879C40.1821 90.3676 40.6337 90.4988 41.0856 90.4545C41.5376 90.4101 41.9551 90.1936 42.2517 89.8497" fill="white"/>
<path d="M42.0822 87.6605C42.0822 87.6605 40.951 86.2865 39.893 86.5292C38.835 86.772 38.9312 89.4375 39.8243 90.0879C40.1821 90.3676 40.6337 90.4988 41.0856 90.4545C41.5376 90.4101 41.9551 90.1936 42.2517 89.8497" stroke="#263238" stroke-width="0.458" stroke-linecap="round" stroke-linejoin="round"/>
<path d="M50.7714 86.0071L50.8401 89.9413L49.3379 89.7718" stroke="#263238" stroke-width="0.458" stroke-linecap="round" stroke-linejoin="round"/>
<path d="M47.459 90.7657C48.2068 91.2723 49.0885 91.5449 49.9917 91.5489C50.342 91.5561 50.6899 91.4902 51.0132 91.3554C51.3365 91.2205 51.6282 91.0197 51.8695 90.7657" stroke="#263238" stroke-width="0.458" stroke-linecap="round" stroke-linejoin="round"/>
<path d="M47.1134 87.4452C47.341 87.4452 47.5256 87.1929 47.5256 86.8818C47.5256 86.5707 47.341 86.3185 47.1134 86.3185C46.8857 86.3185 46.7012 86.5707 46.7012 86.8818C46.7012 87.1929 46.8857 87.4452 47.1134 87.4452Z" fill="#263238"/>
<path d="M52.3165 87.4452C52.5441 87.4452 52.7287 87.1929 52.7287 86.8818C52.7287 86.5707 52.5441 86.3185 52.3165 86.3185C52.0888 86.3185 51.9043 86.5707 51.9043 86.8818C51.9043 87.1929 52.0888 87.4452 52.3165 87.4452Z" fill="#263238"/>
<path d="M45.6758 85.8284C46.4676 85.4598 47.3356 85.284 48.2085 85.3155" stroke="#263238" stroke-width="0.458" stroke-linecap="round" stroke-linejoin="round"/>
<path d="M51.2832 85.2193C51.2832 85.2193 52.4145 84.9811 53.0648 85.5628" stroke="#263238" stroke-width="0.458" stroke-linecap="round" stroke-linejoin="round"/>
<path d="M53.8173 86.0071C53.8173 86.0071 54.1287 85.8697 54.2295 87.033C54.2647 87.8015 54.1072 88.5667 53.7715 89.2589L53.8173 86.0071Z" stroke="#263238" stroke-width="0.458" stroke-linecap="round" stroke-linejoin="round"/>
<path d="M34.7962 200.988L33.1932 204.872C33.1932 204.872 31.4207 207.162 31.1688 208.078C30.9169 208.994 32.4375 209.26 32.4375 209.26H41.8952C41.8952 209.26 42.486 209.008 42.486 207.995C42.4565 207.146 42.3708 206.3 42.2295 205.463L42.5684 202.339C42.5684 202.339 38.3457 197.443 34.7962 200.988Z" fill="#263238" stroke="#263238" stroke-width="0.458" stroke-linecap="round" stroke-linejoin="round"/>
<path d="M32.9427 157.093C32.9427 157.093 33.2816 171.191 33.2816 173.806C33.2816 176.421 32.013 179.97 32.1 182.009C32.187 184.047 34.39 199.564 34.39 199.564C34.39 199.564 33.7167 200.915 33.7992 201.254C33.8816 201.593 34.0556 202.096 34.1381 202.435C34.2205 202.774 36.9227 200.411 38.9517 200.915C40.306 201.307 41.5677 201.967 42.6615 202.857C42.8846 201.519 42.998 200.165 43.0004 198.808C42.9179 197.37 42.6615 196.779 42.4096 196.358C42.1577 195.936 44.0126 174.071 44.0996 173.82C44.1866 173.568 44.5209 158.628 44.5209 158.628L32.9427 157.093Z" fill="white" stroke="#263238" stroke-width="0.458" stroke-linecap="round" stroke-linejoin="round"/>
<path d="M54.0476 201.245L59.0856 205.971C59.0856 205.971 62.2092 207.322 62.2916 208.082C62.3311 208.574 62.2444 209.067 62.0397 209.516H45.1807C44.7491 208.326 44.6618 207.039 44.9288 205.802C45.3502 203.608 45.6891 202.344 45.6891 202.344C45.6891 202.344 51.8492 201.245 54.0476 201.245Z" fill="#263238" stroke="#263238" stroke-width="0.458" stroke-linecap="round" stroke-linejoin="round"/>
<path d="M46.4476 158.948C46.4476 158.948 46.3606 166.885 46.2781 169.482C46.1957 172.079 44.6751 177.841 45.014 181.725C45.353 185.608 45.6049 198.437 45.6049 198.437C45.6049 198.437 45.5178 200.209 45.4354 200.727C45.3767 201.544 45.4043 202.366 45.5178 203.177C45.6049 203.599 49.7406 202.504 51.3436 202.165C52.5135 201.961 53.7044 201.904 54.8885 201.996C54.8885 201.996 54.8885 200.814 54.971 199.632C55.0534 198.451 54.7191 197.521 54.5496 196.087C54.3801 194.654 55.3099 180.218 55.9877 177.767C56.6656 175.317 57.7602 164.605 57.7602 164.605L58.0945 158.193L46.4476 158.948Z" fill="white" stroke="#263238" stroke-width="0.458" stroke-linecap="round" stroke-linejoin="round"/>
<path d="M33.0602 130.433L30.248 158.192C30.248 158.192 32.8632 159.498 43.2552 160.675C49.5196 161.377 55.8617 160.663 61.8134 158.586L60.1829 130.483C60.1829 130.483 51.4809 131.07 44.4323 130.941C37.3837 130.813 33.0602 130.433 33.0602 130.433Z" fill="#263238" stroke="#263238" stroke-width="0.458" stroke-linecap="round" stroke-linejoin="round"/>
<path d="M41.8815 95.2083C42.7548 95.9252 43.7226 96.5186 44.7577 96.9716C46.521 97.7547 47.437 98.2127 47.437 98.2127L47.2401 100.109C47.2401 100.109 47.1118 100.434 48.4171 100.434C48.9867 100.465 49.5578 100.422 50.1163 100.306L50.2491 98.2769L53.4551 96.1884L53.3223 98.9959C53.3223 98.9959 61.951 101.286 62.0243 102.527C62.0976 103.768 66.6043 121.259 66.6043 121.259L67.9371 127.964L64.4197 131.482L60.9022 135.169L60.6412 130.254C60.6168 130.63 60.5508 131.002 60.4442 131.363C60.3114 131.624 59.661 131.821 59.661 131.821C59.661 131.821 43.0585 132.673 38.9411 132.151C34.8237 131.628 33.2573 131.235 32.9871 131.038C32.7169 130.841 28.8651 132.686 28.8651 132.686C28.8651 132.686 24.8164 128.83 24.8164 127.717C24.8164 126.604 28.2743 110.386 28.4804 109.731C28.6865 109.076 29.5246 103.068 30.3765 102.545C31.2284 102.023 41.6158 98.0982 41.6158 98.0982L41.8815 95.2083Z" fill="white" stroke="#263238" stroke-width="0.458" stroke-linecap="round" stroke-linejoin="round"/>
<path d="M60.668 126.426C60.668 126.426 61.442 125.734 63.9839 125.885" stroke="#263238" stroke-width="0.458" stroke-linecap="round" stroke-linejoin="round"/>
<path d="M62.5215 124.96C62.5215 124.96 63.6024 124.268 65.3748 124.96" stroke="#263238" stroke-width="0.458" stroke-linecap="round" stroke-linejoin="round"/>
<path d="M47.8316 102.069L44.3692 102.591L44.1035 130.433" fill="white"/>
<path d="M47.8316 102.069L44.3692 102.591L44.1035 130.433" stroke="#263238" stroke-width="0.458" stroke-linecap="round" stroke-linejoin="round"/>
<path d="M33.7402 111.957C33.8044 110.854 33.8456 110.171 33.8456 110.171L33.7402 111.957Z" fill="white"/>
<path d="M33.7402 111.957C33.8044 110.854 33.8456 110.171 33.8456 110.171" stroke="#263238" stroke-width="0.458" stroke-linecap="round" stroke-linejoin="round"/>
<path d="M32.9986 131.019C32.9986 131.019 32.0185 129.842 32.4078 128.798C32.6872 128.056 33.2963 118.992 33.6261 113.789" fill="white"/>
<path d="M32.9986 131.019C32.9986 131.019 32.0185 129.842 32.4078 128.798C32.6872 128.056 33.2963 118.992 33.6261 113.789" stroke="#263238" stroke-width="0.458" stroke-linecap="round" stroke-linejoin="round"/>
<path d="M60.2754 124.465L60.6418 130.236" stroke="#263238" stroke-width="0.458" stroke-linecap="round" stroke-linejoin="round"/>
<path d="M59.3965 110.501L60.1705 122.794" stroke="#263238" stroke-width="0.458" stroke-linecap="round" stroke-linejoin="round"/>
<path d="M47.305 104.909C47.305 105.031 47.2687 105.151 47.2008 105.252C47.1328 105.354 47.0363 105.433 46.9233 105.48C46.8103 105.527 46.686 105.539 46.566 105.515C46.4461 105.491 46.3359 105.432 46.2495 105.346C46.163 105.259 46.1041 105.149 46.0802 105.029C46.0564 104.909 46.0686 104.785 46.1154 104.672C46.1622 104.559 46.2415 104.463 46.3431 104.395C46.4448 104.327 46.5644 104.29 46.6867 104.29C46.8506 104.29 47.0079 104.356 47.1239 104.471C47.2398 104.587 47.305 104.745 47.305 104.909Z" fill="white" stroke="#263238" stroke-width="0.458" stroke-linecap="round" stroke-linejoin="round"/>
<path d="M52.6676 104.909C52.6685 105.032 52.6328 105.153 52.5649 105.256C52.497 105.359 52.4 105.44 52.2863 105.487C52.1726 105.535 52.0472 105.548 51.926 105.525C51.8049 105.501 51.6935 105.442 51.6059 105.355C51.5184 105.268 51.4586 105.157 51.4342 105.037C51.4098 104.916 51.4218 104.79 51.4688 104.676C51.5159 104.562 51.5957 104.464 51.6982 104.396C51.8007 104.327 51.9213 104.29 52.0447 104.29C52.2091 104.29 52.3669 104.355 52.4836 104.471C52.6002 104.587 52.6664 104.744 52.6676 104.909Z" fill="white" stroke="#263238" stroke-width="0.458" stroke-linecap="round" stroke-linejoin="round"/>
<path d="M47.3049 111.545C47.304 111.667 47.267 111.786 47.1985 111.887C47.13 111.988 47.0332 112.067 46.9201 112.113C46.807 112.159 46.6829 112.171 46.5632 112.146C46.4436 112.122 46.3339 112.063 46.2478 111.976C46.1618 111.889 46.1034 111.779 46.0799 111.66C46.0564 111.54 46.0689 111.416 46.1159 111.303C46.1628 111.19 46.242 111.094 46.3436 111.026C46.4452 110.958 46.5646 110.922 46.6866 110.922C46.7684 110.922 46.8495 110.937 46.925 110.969C47.0006 111 47.0693 111.046 47.1269 111.104C47.1845 111.162 47.2299 111.231 47.2605 111.306C47.291 111.382 47.3062 111.463 47.3049 111.545Z" fill="white" stroke="#263238" stroke-width="0.458" stroke-linecap="round" stroke-linejoin="round"/>
<path d="M52.6676 111.545C52.6676 111.668 52.6311 111.789 52.5627 111.891C52.4942 111.994 52.3969 112.073 52.2831 112.121C52.1693 112.168 52.0441 112.18 51.9232 112.156C51.8024 112.132 51.6914 112.073 51.6043 111.986C51.5172 111.898 51.4579 111.787 51.4338 111.667C51.4098 111.546 51.4221 111.421 51.4693 111.307C51.5164 111.193 51.5963 111.096 51.6987 111.027C51.8011 110.959 51.9216 110.922 52.0448 110.922C52.1267 110.922 52.208 110.937 52.2838 110.968C52.3597 111 52.4286 111.045 52.4866 111.103C52.5445 111.161 52.5904 111.23 52.6215 111.306C52.6525 111.382 52.6682 111.463 52.6676 111.545Z" fill="white" stroke="#263238" stroke-width="0.458" stroke-linecap="round" stroke-linejoin="round"/>
<path d="M47.305 118.177C47.305 118.299 47.2687 118.419 47.2008 118.521C47.1328 118.622 47.0363 118.702 46.9233 118.748C46.8103 118.795 46.686 118.807 46.566 118.784C46.4461 118.76 46.3359 118.701 46.2495 118.614C46.163 118.528 46.1041 118.418 46.0802 118.298C46.0564 118.178 46.0686 118.054 46.1154 117.941C46.1622 117.828 46.2415 117.731 46.3431 117.663C46.4448 117.595 46.5644 117.559 46.6867 117.559C46.8506 117.559 47.0079 117.624 47.1239 117.74C47.2398 117.856 47.305 118.013 47.305 118.177Z" fill="white" stroke="#263238" stroke-width="0.458" stroke-linecap="round" stroke-linejoin="round"/>
<path d="M52.6673 118.177C52.6747 118.263 52.6641 118.35 52.6363 118.431C52.6085 118.513 52.564 118.588 52.5056 118.652C52.4473 118.715 52.3764 118.766 52.2974 118.801C52.2184 118.835 52.133 118.853 52.0467 118.853C51.9604 118.853 51.8751 118.835 51.7961 118.801C51.7171 118.766 51.6461 118.715 51.5878 118.652C51.5294 118.588 51.4849 118.513 51.4571 118.431C51.4293 118.35 51.4187 118.263 51.4261 118.177C51.4395 118.022 51.5106 117.877 51.6256 117.772C51.7405 117.666 51.8907 117.608 52.0467 117.608C52.2027 117.608 52.353 117.666 52.4679 117.772C52.5828 117.877 52.6539 118.022 52.6673 118.177Z" fill="white" stroke="#263238" stroke-width="0.458" stroke-linecap="round" stroke-linejoin="round"/>
<path d="M47.3049 124.813C47.304 124.936 47.267 125.055 47.1985 125.156C47.13 125.257 47.0332 125.335 46.9201 125.381C46.807 125.427 46.6829 125.439 46.5632 125.415C46.4436 125.39 46.3339 125.331 46.2478 125.244C46.1618 125.158 46.1034 125.048 46.0799 124.928C46.0564 124.808 46.0689 124.684 46.1159 124.571C46.1628 124.458 46.242 124.362 46.3436 124.294C46.4452 124.227 46.5646 124.191 46.6866 124.191C46.7682 124.191 46.849 124.207 46.9243 124.238C46.9996 124.269 47.068 124.315 47.1255 124.373C47.1829 124.431 47.2284 124.5 47.2592 124.575C47.29 124.651 47.3055 124.732 47.3049 124.813Z" fill="white" stroke="#263238" stroke-width="0.458" stroke-linecap="round" stroke-linejoin="round"/>
<path d="M52.6676 124.813C52.6676 124.937 52.6311 125.057 52.5627 125.159C52.4942 125.262 52.3969 125.342 52.2831 125.389C52.1693 125.436 52.0441 125.448 51.9232 125.424C51.8024 125.4 51.6914 125.341 51.6043 125.254C51.5172 125.167 51.4579 125.056 51.4338 124.935C51.4098 124.814 51.4221 124.689 51.4693 124.575C51.5164 124.461 51.5963 124.364 51.6987 124.296C51.8011 124.227 51.9216 124.191 52.0448 124.191C52.21 124.191 52.3684 124.256 52.4852 124.373C52.602 124.49 52.6676 124.648 52.6676 124.813Z" fill="white" stroke="#263238" stroke-width="0.458" stroke-linecap="round" stroke-linejoin="round"/>
<path d="M59.9688 127.749L62.4465 135.215L65.451 132.595L60.6695 126.426L59.9688 127.749Z" fill="white" stroke="#263238" stroke-width="0.458" stroke-linecap="round" stroke-linejoin="round"/>
<path d="M33.478 122.088L30.5331 121.095C30.5331 121.095 25.7516 122.29 25.289 122.656C24.8264 123.023 23.6356 126.778 23.915 128.084C24.1944 129.389 27.6889 133.048 28.037 133.122C28.3851 133.195 31.243 132.572 31.9895 132.206C32.7361 131.839 33.9223 129.535 33.9223 129.535L33.478 122.088Z" fill="white" stroke="#263238" stroke-width="0.458" stroke-linecap="round" stroke-linejoin="round"/>
<path d="M43.5189 122.262C43.5189 122.262 45.067 120.069 45.5295 119.606C45.9921 119.143 48.5615 118.777 49.1935 118.232C49.8256 117.687 50.5675 117.866 50.2973 118.598C50.0271 119.331 50.0225 120.073 49.3813 120.256C48.8299 120.468 48.3081 120.75 47.8287 121.095L51.14 121.644C51.14 121.644 54.9094 121.461 55.001 121.827C55.0926 122.194 54.7262 122.473 54.2636 122.656C53.4527 123.061 52.7058 123.582 52.0469 124.204C51.4286 124.827 50.3111 125.968 49.1157 126.059C47.8306 126.175 46.5393 126.206 45.2502 126.151C44.7006 126.059 43.5968 125.784 43.5968 125.784C43.5968 125.784 33.2964 130.566 31.8216 130.658C30.3468 130.749 27.9607 128.368 27.6996 126.536C27.4385 124.704 29.811 122.675 30.9056 122.308C32.0002 121.942 43.5189 122.262 43.5189 122.262Z" fill="white" stroke="#263238" stroke-width="0.458" stroke-linecap="round" stroke-linejoin="round"/>
<path d="M69.7324 123.737H95.3484V131.523H71.1843C70.8004 131.523 70.4323 131.371 70.1609 131.1C69.8895 130.828 69.737 130.46 69.737 130.076V123.737H69.7324Z" fill="#CCCCCC" stroke="#263238" stroke-width="0.458" stroke-linecap="round" stroke-linejoin="round"/>
<path d="M92.2617 123.737H105.26V130.09C105.26 130.474 105.107 130.842 104.836 131.113C104.564 131.385 104.196 131.537 103.812 131.537H92.2617V123.751V123.737Z" fill="#CCCCCC" stroke="#263238" stroke-width="0.458" stroke-linecap="round" stroke-linejoin="round"/>
<path d="M95.4268 124.447H69.3849C69.2961 124.448 69.208 124.431 69.1258 124.397C69.0436 124.364 68.9688 124.314 68.9058 124.252C68.8428 124.189 68.7928 124.115 68.7587 124.033C68.7246 123.951 68.707 123.863 68.707 123.774C68.707 123.685 68.7246 123.597 68.7587 123.515C68.7928 123.433 68.8428 123.359 68.9058 123.296C68.9688 123.234 69.0436 123.184 69.1258 123.151C69.208 123.117 69.2961 123.1 69.3849 123.101H95.4268C95.6053 123.101 95.7766 123.172 95.9028 123.298C96.0291 123.424 96.1 123.595 96.1 123.774C96.1 123.953 96.0291 124.124 95.9028 124.25C95.7766 124.376 95.6053 124.447 95.4268 124.447Z" fill="#CCCCCC" stroke="#263238" stroke-width="0.458" stroke-linecap="round" stroke-linejoin="round"/>
<path d="M105.347 124.447H92.4819C92.3033 124.447 92.132 124.376 92.0058 124.25C91.8795 124.124 91.8086 123.953 91.8086 123.774C91.8086 123.595 91.8795 123.424 92.0058 123.298C92.132 123.172 92.3033 123.101 92.4819 123.101H105.347C105.526 123.101 105.697 123.172 105.823 123.298C105.949 123.424 106.02 123.595 106.02 123.774C106.02 123.953 105.949 124.124 105.823 124.25C105.697 124.376 105.526 124.447 105.347 124.447Z" fill="#CCCCCC" stroke="#263238" stroke-width="0.458" stroke-linecap="round" stroke-linejoin="round"/>
<path d="M88.558 127.305H73.7417C73.5603 127.305 73.3862 127.233 73.2575 127.105C73.1288 126.978 73.0559 126.804 73.0547 126.623C73.0547 126.44 73.1271 126.266 73.2559 126.137C73.3847 126.008 73.5595 125.936 73.7417 125.936H88.558C88.7394 125.937 88.913 126.01 89.0408 126.138C89.1687 126.267 89.2404 126.441 89.2404 126.623C89.2404 126.712 89.2228 126.801 89.1885 126.884C89.1542 126.967 89.1039 127.042 89.0405 127.105C88.9772 127.169 88.9019 127.219 88.8191 127.253C88.7364 127.287 88.6476 127.305 88.558 127.305Z" fill="#CCCCCC" stroke="#263238" stroke-width="0.458" stroke-linecap="round" stroke-linejoin="round"/>
<path d="M72.0558 131.537H71.0391V141.16H72.0558V131.537Z" fill="white" stroke="#263238" stroke-width="0.458" stroke-linecap="round" stroke-linejoin="round"/>
<path d="M86.2863 131.537H85.2695V141.16H86.2863V131.537Z" fill="white" stroke="#263238" stroke-width="0.458" stroke-linecap="round" stroke-linejoin="round"/>
<path d="M94.3058 131.537H93.2891V141.16H94.3058V131.537Z" fill="white" stroke="#263238" stroke-width="0.458" stroke-linecap="round" stroke-linejoin="round"/>
<path d="M104.206 131.537H103.189V141.16H104.206V131.537Z" fill="white" stroke="#263238" stroke-width="0.458" stroke-linecap="round" stroke-linejoin="round"/>
<path d="M104.513 131.537H70.8457V132.458H104.513V131.537Z" fill="white" stroke="#263238" stroke-width="0.458" stroke-linecap="round" stroke-linejoin="round"/>
<path d="M95.0684 123.101C95.0684 123.101 104.686 116.057 105.882 115.708C107.077 115.36 107.485 116.057 107.068 116.821C106.651 117.586 96.7446 123.032 96.7446 123.032L95.0684 123.101Z" fill="white" stroke="#263238" stroke-width="0.458" stroke-linecap="round" stroke-linejoin="round"/>
<path d="M100.419 112.155C100.187 112.574 100.071 113.049 100.085 113.529C100.085 115.338 101.349 115.562 101.665 116.973" stroke="#263238" stroke-width="0.458" stroke-linecap="round" stroke-linejoin="round"/>
<path d="M101.733 109.397C101.747 110.089 101.504 110.761 101.051 111.284" stroke="#263238" stroke-width="0.458" stroke-linecap="round" stroke-linejoin="round"/>
<path d="M93.099 114.751C93.557 115.718 94.473 116.125 94.473 117.655C94.473 119.721 92.8242 119.721 92.8242 121.777" stroke="#263238" stroke-width="0.458" stroke-linecap="round" stroke-linejoin="round"/>
<path d="M94.4878 109.397C94.4878 111.257 93.1504 111.44 92.8848 112.97" stroke="#263238" stroke-width="0.458" stroke-linecap="round" stroke-linejoin="round"/>
<path d="M86.9861 116.428C87.165 116.812 87.2528 117.232 87.2426 117.655C87.2426 119.721 85.5938 119.721 85.5938 121.777" stroke="#263238" stroke-width="0.458" stroke-linecap="round" stroke-linejoin="round"/>
<path d="M87.2416 109.397C87.2416 111.463 85.5928 111.463 85.5928 113.519C85.5767 114.119 85.7604 114.707 86.1149 115.191" stroke="#263238" stroke-width="0.458" stroke-linecap="round" stroke-linejoin="round"/>
<path d="M79.9984 109.397C79.9984 111.463 78.3496 111.463 78.3496 113.519C78.3496 115.576 79.9984 115.585 79.9984 117.641C79.9984 119.698 78.3496 119.707 78.3496 121.763" stroke="#263238" stroke-width="0.458" stroke-linecap="round" stroke-linejoin="round"/>
<path d="M72.3349 117.999C72.4686 118.132 72.5744 118.29 72.646 118.465C72.7175 118.64 72.7535 118.827 72.7516 119.015C72.7516 120.389 71.1074 120.389 71.1074 121.763" stroke="#263238" stroke-width="0.458" stroke-linecap="round" stroke-linejoin="round"/>
<path d="M72.742 113.483C72.742 114.857 71.0978 114.857 71.0978 116.231C71.0954 116.434 71.136 116.635 71.2168 116.821" stroke="#263238" stroke-width="0.458" stroke-linecap="round" stroke-linejoin="round"/>
<path d="M110.217 123.737H135.833V131.523H111.673C111.289 131.523 110.921 131.371 110.65 131.1C110.378 130.828 110.226 130.46 110.226 130.076V123.737H110.217Z" fill="#CCCCCC" stroke="#263238" stroke-width="0.458" stroke-linecap="round" stroke-linejoin="round"/>
<path d="M132.742 123.737H145.749V130.09C145.749 130.474 145.597 130.842 145.325 131.113C145.054 131.385 144.686 131.537 144.302 131.537H132.742V123.751V123.737Z" fill="#CCCCCC" stroke="#263238" stroke-width="0.458" stroke-linecap="round" stroke-linejoin="round"/>
<path d="M135.911 124.447H109.865C109.686 124.447 109.515 124.376 109.389 124.25C109.262 124.124 109.191 123.953 109.191 123.774C109.191 123.596 109.262 123.424 109.389 123.298C109.515 123.172 109.686 123.101 109.865 123.101H135.911C136.09 123.101 136.261 123.172 136.387 123.298C136.513 123.424 136.584 123.596 136.584 123.774C136.584 123.953 136.513 124.124 136.387 124.25C136.261 124.376 136.09 124.447 135.911 124.447Z" fill="#CCCCCC" stroke="#263238" stroke-width="0.458" stroke-linecap="round" stroke-linejoin="round"/>
<path d="M145.827 124.447H132.966C132.878 124.447 132.79 124.43 132.709 124.396C132.627 124.362 132.553 124.313 132.49 124.25C132.428 124.188 132.378 124.113 132.344 124.032C132.31 123.95 132.293 123.862 132.293 123.774C132.293 123.686 132.31 123.598 132.344 123.516C132.378 123.435 132.428 123.36 132.49 123.298C132.553 123.235 132.627 123.186 132.709 123.152C132.79 123.118 132.878 123.101 132.966 123.101H145.827C145.915 123.101 146.003 123.118 146.085 123.152C146.166 123.186 146.24 123.235 146.303 123.298C146.365 123.36 146.415 123.435 146.449 123.516C146.483 123.598 146.5 123.686 146.5 123.774C146.5 123.862 146.483 123.95 146.449 124.032C146.415 124.113 146.365 124.188 146.303 124.25C146.24 124.313 146.166 124.362 146.085 124.396C146.003 124.43 145.915 124.447 145.827 124.447Z" fill="#CCCCCC" stroke="#263238" stroke-width="0.458" stroke-linecap="round" stroke-linejoin="round"/>
<path d="M129.036 127.305H114.22C114.039 127.305 113.865 127.233 113.737 127.105C113.609 126.977 113.537 126.804 113.537 126.623C113.537 126.441 113.609 126.267 113.737 126.138C113.865 126.01 114.038 125.937 114.22 125.936H129.036C129.126 125.936 129.215 125.953 129.298 125.988C129.381 126.023 129.457 126.073 129.52 126.137C129.583 126.201 129.634 126.277 129.668 126.36C129.702 126.443 129.719 126.533 129.718 126.623C129.718 126.804 129.646 126.977 129.518 127.105C129.39 127.233 129.217 127.305 129.036 127.305Z" fill="#CCCCCC" stroke="#263238" stroke-width="0.458" stroke-linecap="round" stroke-linejoin="round"/>
<path d="M112.538 131.537H111.521V141.16H112.538V131.537Z" fill="white" stroke="#263238" stroke-width="0.458" stroke-linecap="round" stroke-linejoin="round"/>
<path d="M126.763 131.537H125.746V141.16H126.763V131.537Z" fill="white" stroke="#263238" stroke-width="0.458" stroke-linecap="round" stroke-linejoin="round"/>
<path d="M134.786 131.537H133.77V141.16H134.786V131.537Z" fill="white" stroke="#263238" stroke-width="0.458" stroke-linecap="round" stroke-linejoin="round"/>
<path d="M144.689 131.537H143.672V141.16H144.689V131.537Z" fill="white" stroke="#263238" stroke-width="0.458" stroke-linecap="round" stroke-linejoin="round"/>
<path d="M144.996 131.537H111.328V132.458H144.996V131.537Z" fill="white" stroke="#263238" stroke-width="0.458" stroke-linecap="round" stroke-linejoin="round"/>
<path d="M135.553 123.101C135.553 123.101 145.171 116.057 146.362 115.708C147.552 115.36 147.969 116.057 147.548 116.821C147.126 117.586 137.229 123.032 137.229 123.032L135.553 123.101Z" fill="white" stroke="#263238" stroke-width="0.458" stroke-linecap="round" stroke-linejoin="round"/>
<path d="M112.9 119.034C113.132 118.613 113.247 118.139 113.235 117.66C113.235 115.594 111.586 115.594 111.586 113.538C111.586 111.481 113.235 111.472 113.235 109.416" stroke="#263238" stroke-width="0.458" stroke-linecap="round" stroke-linejoin="round"/>
<path d="M111.587 121.786C111.572 121.094 111.817 120.42 112.274 119.899" stroke="#263238" stroke-width="0.458" stroke-linecap="round" stroke-linejoin="round"/>
<path d="M118.832 121.786C118.832 119.721 120.481 119.721 120.481 117.664C120.481 115.608 118.832 115.599 118.832 113.542C118.832 111.486 120.481 111.477 120.481 109.42" stroke="#263238" stroke-width="0.458" stroke-linecap="round" stroke-linejoin="round"/>
<path d="M126.328 114.756C126.149 114.372 126.061 113.952 126.071 113.528C126.071 111.463 127.72 111.463 127.72 109.406" stroke="#263238" stroke-width="0.458" stroke-linecap="round" stroke-linejoin="round"/>
<path d="M126.074 121.786C126.074 119.721 127.723 119.721 127.723 117.664C127.739 117.065 127.555 116.477 127.201 115.993" stroke="#263238" stroke-width="0.458" stroke-linecap="round" stroke-linejoin="round"/>
<path d="M133.32 121.786C133.32 119.721 134.969 119.721 134.969 117.664C134.969 115.608 133.32 115.599 133.32 113.542C133.32 111.486 134.969 111.477 134.969 109.42" stroke="#263238" stroke-width="0.458" stroke-linecap="round" stroke-linejoin="round"/>
<path d="M140.985 113.185C140.851 113.052 140.746 112.893 140.674 112.719C140.603 112.544 140.567 112.357 140.568 112.168C140.568 110.794 142.217 110.794 142.217 109.42" stroke="#263238" stroke-width="0.458" stroke-linecap="round" stroke-linejoin="round"/>
<path d="M140.568 117.706C140.568 116.332 142.217 116.332 142.217 114.958C142.22 114.754 142.178 114.552 142.094 114.367" stroke="#263238" stroke-width="0.458" stroke-linecap="round" stroke-linejoin="round"/>
<path d="M140.067 139.181H134.955C134.697 139.18 134.45 139.077 134.268 138.894C134.087 138.711 133.984 138.463 133.984 138.206C133.984 137.948 134.087 137.7 134.268 137.517C134.45 137.335 134.697 137.231 134.955 137.23H140.067C140.325 137.231 140.572 137.335 140.753 137.517C140.935 137.7 141.038 137.948 141.038 138.206C141.038 138.463 140.935 138.711 140.753 138.894C140.572 139.077 140.325 139.18 140.067 139.181Z" fill="white" stroke="#263238" stroke-width="0.458" stroke-linecap="round" stroke-linejoin="round"/>
<path d="M147.05 139.181H141.938C141.68 139.181 141.432 139.078 141.249 138.895C141.066 138.712 140.963 138.464 140.963 138.206C140.963 137.947 141.066 137.699 141.249 137.516C141.432 137.333 141.68 137.23 141.938 137.23H147.05C147.308 137.231 147.555 137.335 147.737 137.517C147.919 137.7 148.021 137.948 148.021 138.206C148.021 138.463 147.919 138.711 147.737 138.894C147.555 139.077 147.308 139.18 147.05 139.181Z" fill="white" stroke="#263238" stroke-width="0.458" stroke-linecap="round" stroke-linejoin="round"/>
<path d="M143.449 137.235H138.338C138.081 137.235 137.834 137.132 137.652 136.95C137.469 136.768 137.367 136.521 137.367 136.264C137.367 136.006 137.469 135.758 137.651 135.576C137.833 135.393 138.08 135.289 138.338 135.288H143.449C143.708 135.288 143.956 135.391 144.139 135.574C144.322 135.757 144.425 136.005 144.425 136.264C144.425 136.392 144.4 136.518 144.351 136.636C144.302 136.754 144.23 136.862 144.139 136.952C144.048 137.042 143.941 137.114 143.822 137.162C143.704 137.211 143.577 137.235 143.449 137.235Z" fill="white" stroke="#263238" stroke-width="0.458" stroke-linecap="round" stroke-linejoin="round"/>
<path d="M154.6 139.181H149.489C149.231 139.18 148.983 139.077 148.801 138.894C148.618 138.711 148.515 138.464 148.514 138.206C148.515 137.947 148.618 137.7 148.801 137.517C148.983 137.334 149.231 137.231 149.489 137.23H154.6C154.858 137.231 155.105 137.335 155.287 137.517C155.469 137.7 155.571 137.948 155.571 138.206C155.571 138.463 155.469 138.711 155.287 138.894C155.105 139.077 154.858 139.18 154.6 139.181Z" fill="white" stroke="#263238" stroke-width="0.458" stroke-linecap="round" stroke-linejoin="round"/>
<path d="M161.595 139.181H156.465C156.207 139.18 155.96 139.077 155.778 138.894C155.596 138.711 155.494 138.463 155.494 138.206C155.494 137.948 155.596 137.7 155.778 137.517C155.96 137.335 156.207 137.231 156.465 137.23H161.595C161.853 137.23 162.102 137.333 162.285 137.516C162.467 137.699 162.57 137.947 162.57 138.206C162.57 138.464 162.467 138.712 162.285 138.895C162.102 139.078 161.853 139.181 161.595 139.181Z" fill="white" stroke="#263238" stroke-width="0.458" stroke-linecap="round" stroke-linejoin="round"/>
<path d="M157.981 137.235H152.893C152.635 137.235 152.388 137.132 152.206 136.95C152.024 136.768 151.922 136.521 151.922 136.264C151.923 136.007 152.026 135.76 152.208 135.578C152.389 135.397 152.636 135.294 152.893 135.293H158.004C158.262 135.294 158.509 135.397 158.691 135.58C158.873 135.763 158.975 136.01 158.975 136.268C158.974 136.397 158.948 136.525 158.898 136.644C158.847 136.763 158.774 136.87 158.681 136.96C158.588 137.05 158.479 137.121 158.359 137.168C158.239 137.215 158.11 137.238 157.981 137.235Z" fill="white" stroke="#263238" stroke-width="0.458" stroke-linecap="round" stroke-linejoin="round"/>
<path d="M150.643 137.235H145.532C145.274 137.235 145.027 137.132 144.845 136.95C144.663 136.768 144.561 136.521 144.561 136.264C144.561 136.006 144.663 135.758 144.845 135.576C145.027 135.393 145.274 135.289 145.532 135.288H150.643C150.901 135.289 151.148 135.393 151.33 135.576C151.512 135.758 151.614 136.006 151.614 136.264C151.614 136.521 151.511 136.768 151.329 136.95C151.147 137.132 150.9 137.235 150.643 137.235Z" fill="white" stroke="#263238" stroke-width="0.458" stroke-linecap="round" stroke-linejoin="round"/>
<path d="M147.048 135.366H141.937C141.81 135.364 141.684 135.336 141.567 135.285C141.45 135.234 141.344 135.161 141.256 135.069C141.167 134.977 141.098 134.868 141.051 134.75C141.005 134.631 140.982 134.504 140.985 134.377C140.985 134.118 141.087 133.87 141.27 133.687C141.453 133.504 141.701 133.401 141.96 133.401H147.071C147.199 133.401 147.326 133.426 147.444 133.475C147.562 133.525 147.669 133.596 147.76 133.687C147.85 133.778 147.921 133.885 147.97 134.004C148.018 134.122 148.043 134.249 148.042 134.377C148.045 134.508 148.021 134.638 147.972 134.759C147.923 134.881 147.849 134.991 147.757 135.083C147.664 135.176 147.553 135.249 147.431 135.297C147.31 135.346 147.179 135.369 147.048 135.366Z" fill="white" stroke="#263238" stroke-width="0.458" stroke-linecap="round" stroke-linejoin="round"/>
<path d="M154.239 135.366H149.127C148.87 135.366 148.623 135.264 148.441 135.082C148.259 134.9 148.156 134.653 148.156 134.395C148.156 134.267 148.18 134.14 148.229 134.022C148.277 133.904 148.349 133.796 148.439 133.706C148.529 133.615 148.636 133.543 148.755 133.494C148.873 133.445 148.999 133.42 149.127 133.42H154.239C154.497 133.42 154.745 133.522 154.928 133.705C155.111 133.888 155.214 134.136 155.214 134.395C155.214 134.523 155.189 134.65 155.14 134.768C155.091 134.886 155.019 134.993 154.928 135.083C154.837 135.174 154.73 135.245 154.611 135.293C154.493 135.342 154.366 135.367 154.239 135.366Z" fill="white" stroke="#263238" stroke-width="0.458" stroke-linecap="round" stroke-linejoin="round"/>
<path d="M163.07 138.801H133.822V141.054H163.07V138.801Z" fill="white" stroke="#263238" stroke-width="0.458" stroke-linecap="round" stroke-linejoin="round"/>
<path d="M163.257 139.511H133.326C133.237 139.511 133.149 139.494 133.067 139.461C132.985 139.427 132.91 139.378 132.847 139.315C132.784 139.253 132.734 139.178 132.7 139.096C132.666 139.014 132.648 138.926 132.648 138.838C132.648 138.749 132.666 138.661 132.7 138.579C132.734 138.497 132.784 138.422 132.847 138.36C132.91 138.297 132.985 138.248 133.067 138.214C133.149 138.181 133.237 138.164 133.326 138.164H163.257C163.345 138.164 163.433 138.182 163.514 138.216C163.596 138.249 163.67 138.299 163.733 138.362C163.795 138.424 163.845 138.498 163.879 138.58C163.912 138.662 163.93 138.749 163.93 138.838C163.93 138.926 163.912 139.014 163.879 139.095C163.845 139.177 163.795 139.251 163.733 139.314C163.67 139.376 163.596 139.426 163.514 139.46C163.433 139.493 163.345 139.511 163.257 139.511Z" fill="white" stroke="#263238" stroke-width="0.458" stroke-linecap="round" stroke-linejoin="round"/>
<path d="M159.216 120.623C159.816 120.623 160.302 120.137 160.302 119.537C160.302 118.938 159.816 118.452 159.216 118.452C158.617 118.452 158.131 118.938 158.131 119.537C158.131 120.137 158.617 120.623 159.216 120.623Z" fill="#28C79E" stroke="#263238" stroke-width="0.458" stroke-linecap="round" stroke-linejoin="round"/>
<path d="M162.477 118.75C162.478 118.966 162.415 119.177 162.295 119.357C162.176 119.537 162.006 119.677 161.806 119.761C161.607 119.844 161.387 119.866 161.175 119.824C160.964 119.782 160.769 119.678 160.616 119.525C160.463 119.372 160.36 119.178 160.318 118.966C160.276 118.754 160.298 118.534 160.381 118.335C160.464 118.136 160.604 117.966 160.784 117.846C160.964 117.727 161.176 117.663 161.391 117.664C161.679 117.664 161.955 117.779 162.159 117.982C162.363 118.186 162.477 118.462 162.477 118.75Z" fill="#28C79E" stroke="#263238" stroke-width="0.458" stroke-linecap="round" stroke-linejoin="round"/>
<path d="M163.07 120.229C163.669 120.229 164.155 119.743 164.155 119.144C164.155 118.544 163.669 118.058 163.07 118.058C162.47 118.058 161.984 118.544 161.984 119.144C161.984 119.743 162.47 120.229 163.07 120.229Z" fill="#28C79E" stroke="#263238" stroke-width="0.458" stroke-linecap="round" stroke-linejoin="round"/>
<path d="M165.144 119.931C165.744 119.931 166.23 119.445 166.23 118.846C166.23 118.246 165.744 117.76 165.144 117.76C164.545 117.76 164.059 118.246 164.059 118.846C164.059 119.445 164.545 119.931 165.144 119.931Z" fill="#28C79E" stroke="#263238" stroke-width="0.458" stroke-linecap="round" stroke-linejoin="round"/>
<path d="M170.084 119.24C170.683 119.24 171.169 118.754 171.169 118.154C171.169 117.555 170.683 117.069 170.084 117.069C169.484 117.069 168.998 117.555 168.998 118.154C168.998 118.754 169.484 119.24 170.084 119.24Z" fill="#28C79E" stroke="#263238" stroke-width="0.458" stroke-linecap="round" stroke-linejoin="round"/>
<path d="M175.71 120.426C176.31 120.426 176.796 119.94 176.796 119.34C176.796 118.741 176.31 118.255 175.71 118.255C175.111 118.255 174.625 118.741 174.625 119.34C174.625 119.94 175.111 120.426 175.71 120.426Z" fill="#28C79E" stroke="#263238" stroke-width="0.458" stroke-linecap="round" stroke-linejoin="round"/>
<path d="M168.107 120.426C168.706 120.426 169.192 119.94 169.192 119.34C169.192 118.741 168.706 118.255 168.107 118.255C167.507 118.255 167.021 118.741 167.021 119.34C167.021 119.94 167.507 120.426 168.107 120.426Z" fill="#28C79E" stroke="#263238" stroke-width="0.458" stroke-linecap="round" stroke-linejoin="round"/>
<path d="M172.944 119.144C172.944 119.358 172.881 119.568 172.761 119.747C172.642 119.925 172.473 120.064 172.274 120.147C172.076 120.229 171.858 120.25 171.647 120.208C171.437 120.166 171.243 120.063 171.091 119.911C170.94 119.759 170.836 119.566 170.794 119.355C170.752 119.145 170.774 118.927 170.856 118.728C170.938 118.53 171.077 118.36 171.256 118.241C171.434 118.122 171.644 118.058 171.859 118.058C172.147 118.058 172.423 118.173 172.626 118.376C172.83 118.58 172.944 118.856 172.944 119.144Z" fill="#28C79E" stroke="#263238" stroke-width="0.458" stroke-linecap="round" stroke-linejoin="round"/>
<path d="M178.966 119.34C178.966 119.555 178.902 119.765 178.783 119.944C178.664 120.122 178.494 120.261 178.296 120.343C178.097 120.425 177.879 120.447 177.669 120.405C177.458 120.363 177.265 120.26 177.113 120.108C176.961 119.956 176.858 119.763 176.816 119.552C176.774 119.342 176.795 119.123 176.878 118.925C176.96 118.727 177.099 118.557 177.277 118.438C177.456 118.319 177.666 118.255 177.88 118.255C178.168 118.255 178.444 118.369 178.648 118.573C178.851 118.776 178.966 119.053 178.966 119.34Z" fill="#28C79E" stroke="#263238" stroke-width="0.458" stroke-linecap="round" stroke-linejoin="round"/>
<path d="M174.523 120.229C175.122 120.229 175.608 119.743 175.608 119.144C175.608 118.544 175.122 118.058 174.523 118.058C173.923 118.058 173.438 118.544 173.438 119.144C173.438 119.743 173.923 120.229 174.523 120.229Z" fill="#28C79E" stroke="#263238" stroke-width="0.458" stroke-linecap="round" stroke-linejoin="round"/>
<path d="M177.882 120.426C177.882 120.641 177.818 120.85 177.699 121.029C177.58 121.207 177.41 121.347 177.212 121.429C177.013 121.511 176.795 121.532 176.585 121.491C176.374 121.449 176.181 121.345 176.029 121.193C175.877 121.042 175.774 120.848 175.732 120.638C175.69 120.427 175.711 120.209 175.794 120.011C175.876 119.812 176.015 119.643 176.193 119.523C176.372 119.404 176.582 119.34 176.796 119.34C177.084 119.34 177.36 119.455 177.564 119.658C177.767 119.862 177.882 120.138 177.882 120.426Z" fill="#28C79E" stroke="#263238" stroke-width="0.458" stroke-linecap="round" stroke-linejoin="round"/>
<path d="M162.477 119.835C162.478 120.051 162.415 120.263 162.295 120.443C162.176 120.622 162.006 120.763 161.806 120.846C161.607 120.929 161.387 120.951 161.175 120.909C160.964 120.867 160.769 120.763 160.616 120.611C160.463 120.458 160.36 120.263 160.318 120.051C160.276 119.839 160.298 119.62 160.381 119.421C160.464 119.221 160.604 119.051 160.784 118.932C160.964 118.812 161.176 118.749 161.391 118.75C161.679 118.75 161.955 118.864 162.159 119.068C162.363 119.271 162.477 119.547 162.477 119.835Z" fill="#28C79E" stroke="#263238" stroke-width="0.458" stroke-linecap="round" stroke-linejoin="round"/>
<path d="M164.845 120.229C164.845 120.444 164.781 120.654 164.662 120.832C164.543 121.011 164.373 121.15 164.175 121.232C163.976 121.314 163.758 121.335 163.548 121.294C163.337 121.252 163.144 121.148 162.992 120.997C162.84 120.845 162.737 120.651 162.695 120.441C162.653 120.23 162.674 120.012 162.756 119.814C162.839 119.615 162.978 119.446 163.156 119.326C163.335 119.207 163.545 119.144 163.759 119.144C164.047 119.144 164.323 119.258 164.527 119.461C164.73 119.665 164.845 119.941 164.845 120.229Z" fill="#28C79E" stroke="#263238" stroke-width="0.458" stroke-linecap="round" stroke-linejoin="round"/>
<path d="M166.228 121.021C166.828 121.021 167.313 120.535 167.313 119.936C167.313 119.336 166.828 118.85 166.228 118.85C165.629 118.85 165.143 119.336 165.143 119.936C165.143 120.535 165.629 121.021 166.228 121.021Z" fill="#28C79E" stroke="#263238" stroke-width="0.458" stroke-linecap="round" stroke-linejoin="round"/>
<path d="M170.374 119.721C170.374 119.935 170.31 120.145 170.191 120.324C170.072 120.502 169.902 120.641 169.704 120.724C169.506 120.806 169.287 120.827 169.077 120.785C168.866 120.743 168.673 120.64 168.521 120.488C168.369 120.336 168.266 120.143 168.224 119.932C168.182 119.722 168.204 119.504 168.286 119.305C168.368 119.107 168.507 118.937 168.686 118.818C168.864 118.699 169.074 118.635 169.289 118.635C169.576 118.636 169.851 118.751 170.055 118.955C170.258 119.158 170.373 119.433 170.374 119.721Z" fill="#28C79E" stroke="#263238" stroke-width="0.458" stroke-linecap="round" stroke-linejoin="round"/>
<path d="M171.858 119.835C171.859 120.051 171.795 120.263 171.676 120.443C171.557 120.622 171.386 120.763 171.187 120.846C170.988 120.929 170.768 120.951 170.556 120.909C170.344 120.867 170.15 120.763 169.997 120.611C169.844 120.458 169.74 120.263 169.698 120.051C169.657 119.839 169.679 119.62 169.762 119.421C169.845 119.221 169.985 119.051 170.165 118.932C170.345 118.812 170.556 118.749 170.772 118.75C171.06 118.75 171.336 118.864 171.54 119.068C171.743 119.271 171.858 119.547 171.858 119.835Z" fill="#28C79E" stroke="#263238" stroke-width="0.458" stroke-linecap="round" stroke-linejoin="round"/>
<path d="M174.524 120.229C174.524 120.444 174.461 120.654 174.342 120.832C174.222 121.011 174.053 121.15 173.854 121.232C173.656 121.314 173.438 121.335 173.227 121.294C173.017 121.252 172.823 121.148 172.671 120.997C172.52 120.845 172.416 120.651 172.374 120.441C172.332 120.23 172.354 120.012 172.436 119.814C172.518 119.615 172.657 119.446 172.836 119.326C173.014 119.207 173.224 119.144 173.439 119.144C173.727 119.144 174.003 119.258 174.207 119.461C174.41 119.665 174.524 119.941 174.524 120.229Z" fill="#28C79E" stroke="#263238" stroke-width="0.458" stroke-linecap="round" stroke-linejoin="round"/>
<path d="M173.438 120.229C173.438 120.229 180.06 112.269 180.766 111.843C181.471 111.417 182.9 111.843 182.332 112.984C181.764 114.124 175.7 120.426 175.7 120.426L173.438 120.229Z" fill="white" stroke="#263238" stroke-width="0.458" stroke-linecap="round" stroke-linejoin="round"/>
<path d="M156.705 120.179H180.017C180.14 120.179 180.262 120.21 180.37 120.268C180.479 120.326 180.572 120.409 180.642 120.511C180.711 120.613 180.755 120.73 180.769 120.852C180.783 120.975 180.767 121.099 180.722 121.214L177.667 129C177.612 129.141 177.514 129.263 177.389 129.349C177.263 129.434 177.114 129.48 176.962 129.481H159.764C159.612 129.48 159.463 129.434 159.338 129.349C159.212 129.263 159.115 129.141 159.059 129L156.009 121.214C155.963 121.1 155.946 120.976 155.959 120.854C155.972 120.732 156.015 120.615 156.084 120.513C156.152 120.411 156.245 120.327 156.353 120.269C156.461 120.211 156.582 120.18 156.705 120.179Z" fill="white" stroke="#263238" stroke-width="0.458" stroke-linecap="round" stroke-linejoin="round"/>
<path d="M177.786 129.513H158.729V131.189H177.786V129.513Z" fill="#263238"/>
<path d="M177.786 139.383H158.729V141.059H177.786V139.383Z" fill="#263238"/>
<path d="M160.413 130.694H159.117V141.063H160.413V130.694Z" fill="#263238"/>
<path d="M165.743 130.694H164.447V141.063H165.743V130.694Z" fill="#263238"/>
<path d="M174.236 130.694H172.939V141.063H174.236V130.694Z" fill="#263238"/>
<path d="M177.386 130.694H176.104V141.063H177.386V130.694Z" fill="#263238"/>
<path d="M174.258 135.155C174.258 135.155 173.113 134.106 173.63 133.781C174.148 133.456 174.675 134.835 175.004 133.992C175.334 133.149 175.627 132.522 176.044 132.943C176.461 133.364 176.044 133.465 176.461 133.36C176.878 133.255 177.084 132.311 177.501 132.838C177.917 133.364 177.395 133.255 177.917 133.36C178.439 133.465 177.501 133.676 178.435 133.465L179.351 133.255C180.496 133.36 180.807 133.465 180.725 133.887L180.624 134.308C180.624 134.308 181.764 134.835 181.975 134.519C182.186 134.203 181.664 133.571 182.703 133.571C183.743 133.571 183.12 133.36 183.743 133.571C184.366 133.781 184.054 133.154 184.682 132.943C185.309 132.732 184.577 131.995 185.305 132.732C186.033 133.47 185.41 133.887 186.033 133.465C186.656 133.044 186.949 132.732 187.283 133.465C187.618 134.198 187.384 134.729 188.112 134.203C188.841 133.676 187.906 133.255 188.841 133.676L189.779 134.097C189.779 134.097 190.196 134.624 190.613 134.624C191.03 134.624 191.025 134.624 191.753 134.308C192.482 133.992 192.587 133.048 193.526 133.571C194.465 134.093 193.315 134.413 194.442 134.097L195.587 133.781L196.503 134.203L197.877 133.571C197.877 133.571 199.306 134.986 197.877 135.279C196.448 135.572 174.258 135.155 174.258 135.155Z" fill="#28C79E" stroke="#263238" stroke-width="0.458" stroke-linecap="round" stroke-linejoin="round"/>
<path d="M198.708 135.288H173.092V141.054H198.708V135.288Z" fill="#CCCCCC" stroke="#263238" stroke-width="0.458" stroke-linecap="round" stroke-linejoin="round"/>
<path d="M210.337 135.288H198.662V141.054H210.337V135.288Z" fill="#CCCCCC" stroke="#263238" stroke-width="0.458" stroke-linecap="round" stroke-linejoin="round"/>
<path d="M198.78 135.998H172.738C172.559 135.998 172.388 135.927 172.262 135.801C172.135 135.675 172.064 135.503 172.064 135.325C172.064 135.146 172.135 134.975 172.262 134.849C172.388 134.723 172.559 134.652 172.738 134.652H198.78C198.868 134.651 198.956 134.668 199.039 134.702C199.121 134.735 199.196 134.785 199.259 134.847C199.322 134.91 199.372 134.984 199.406 135.066C199.44 135.148 199.457 135.236 199.457 135.325C199.457 135.414 199.44 135.502 199.406 135.584C199.372 135.666 199.322 135.74 199.259 135.803C199.196 135.865 199.121 135.915 199.039 135.948C198.956 135.982 198.868 135.999 198.78 135.998Z" fill="#CCCCCC" stroke="#263238" stroke-width="0.458" stroke-linecap="round" stroke-linejoin="round"/>
<path d="M210.598 135.998H196.583C196.495 135.998 196.407 135.981 196.326 135.947C196.244 135.913 196.17 135.863 196.107 135.801C196.045 135.738 195.995 135.664 195.961 135.583C195.928 135.501 195.91 135.413 195.91 135.325C195.91 135.236 195.928 135.149 195.961 135.067C195.995 134.986 196.045 134.911 196.107 134.849C196.17 134.786 196.244 134.737 196.326 134.703C196.407 134.669 196.495 134.652 196.583 134.652H210.598C210.777 134.652 210.948 134.723 211.074 134.849C211.201 134.975 211.271 135.146 211.271 135.325C211.271 135.503 211.201 135.675 211.074 135.801C210.948 135.927 210.777 135.998 210.598 135.998Z" fill="#CCCCCC" stroke="#263238" stroke-width="0.458" stroke-linecap="round" stroke-linejoin="round"/>
<path d="M193.301 138.856H178.485C178.304 138.855 178.13 138.782 178.002 138.653C177.874 138.524 177.803 138.35 177.803 138.169C177.803 137.988 177.875 137.814 178.003 137.686C178.131 137.558 178.304 137.486 178.485 137.486H193.301C193.483 137.486 193.657 137.558 193.786 137.686C193.914 137.814 193.987 137.987 193.988 138.169C193.988 138.351 193.916 138.526 193.787 138.655C193.658 138.783 193.484 138.856 193.301 138.856Z" fill="#CCCCCC" stroke="#263238" stroke-width="0.458" stroke-linecap="round" stroke-linejoin="round"/>
<path d="M219.438 138.499C219.439 138.945 219.308 139.381 219.061 139.752C218.813 140.123 218.461 140.413 218.049 140.584C217.638 140.755 217.184 140.8 216.747 140.713C216.309 140.627 215.907 140.412 215.592 140.096C215.276 139.781 215.062 139.379 214.975 138.942C214.888 138.504 214.933 138.051 215.104 137.639C215.275 137.227 215.565 136.875 215.936 136.628C216.307 136.38 216.744 136.249 217.19 136.25C217.786 136.25 218.358 136.487 218.78 136.908C219.201 137.33 219.438 137.902 219.438 138.499Z" fill="#28C79E" stroke="#263238" stroke-width="0.458" stroke-linecap="round" stroke-linejoin="round"/>
<path d="M222.091 140.724C223.333 140.724 224.339 139.718 224.339 138.476C224.339 137.234 223.333 136.227 222.091 136.227C220.849 136.227 219.842 137.234 219.842 138.476C219.842 139.718 220.849 140.724 222.091 140.724Z" fill="#28C79E" stroke="#263238" stroke-width="0.458" stroke-linecap="round" stroke-linejoin="round"/>
<path d="M229.242 138.499C229.242 138.943 229.11 139.378 228.863 139.748C228.616 140.118 228.264 140.406 227.853 140.576C227.443 140.746 226.99 140.791 226.554 140.704C226.118 140.617 225.717 140.403 225.403 140.089C225.088 139.774 224.874 139.373 224.787 138.937C224.701 138.501 224.745 138.049 224.915 137.638C225.086 137.227 225.374 136.876 225.744 136.629C226.113 136.382 226.548 136.25 226.993 136.25C227.589 136.25 228.161 136.487 228.583 136.908C229.005 137.33 229.242 137.902 229.242 138.499Z" fill="#28C79E" stroke="#263238" stroke-width="0.458" stroke-linecap="round" stroke-linejoin="round"/>
<path d="M234.142 138.499C234.142 138.943 234.01 139.378 233.763 139.748C233.516 140.118 233.165 140.406 232.754 140.576C232.343 140.746 231.891 140.791 231.455 140.704C231.018 140.617 230.618 140.403 230.303 140.089C229.989 139.774 229.775 139.374 229.688 138.937C229.601 138.501 229.646 138.049 229.816 137.638C229.986 137.227 230.274 136.876 230.644 136.629C231.014 136.382 231.449 136.25 231.893 136.25C232.49 136.25 233.062 136.487 233.483 136.908C233.905 137.33 234.142 137.902 234.142 138.499Z" fill="#28C79E" stroke="#263238" stroke-width="0.458" stroke-linecap="round" stroke-linejoin="round"/>
<path d="M239.041 138.499C239.041 138.943 238.909 139.378 238.662 139.748C238.414 140.118 238.063 140.406 237.652 140.576C237.241 140.746 236.789 140.791 236.353 140.704C235.917 140.617 235.516 140.403 235.202 140.089C234.887 139.774 234.673 139.373 234.586 138.937C234.499 138.501 234.544 138.049 234.714 137.638C234.884 137.227 235.173 136.876 235.542 136.629C235.912 136.382 236.347 136.25 236.792 136.25C237.388 136.25 237.96 136.487 238.382 136.908C238.804 137.33 239.041 137.902 239.041 138.499Z" fill="#28C79E" stroke="#263238" stroke-width="0.458" stroke-linecap="round" stroke-linejoin="round"/>
<path d="M239.897 138.801H214.281V141.054H239.897V138.801Z" fill="#CCCCCC" stroke="#263238" stroke-width="0.458" stroke-linecap="round" stroke-linejoin="round"/>
<path d="M239.976 139.511H213.929C213.841 139.511 213.753 139.493 213.671 139.46C213.59 139.426 213.516 139.376 213.453 139.314C213.391 139.251 213.341 139.177 213.307 139.095C213.273 139.014 213.256 138.926 213.256 138.838C213.256 138.749 213.273 138.662 213.307 138.58C213.341 138.498 213.391 138.424 213.453 138.362C213.516 138.299 213.59 138.249 213.671 138.216C213.753 138.182 213.841 138.164 213.929 138.164H239.976C240.064 138.164 240.152 138.182 240.233 138.216C240.315 138.249 240.389 138.299 240.452 138.362C240.514 138.424 240.564 138.498 240.598 138.58C240.631 138.662 240.649 138.749 240.649 138.838C240.649 138.926 240.631 139.014 240.598 139.095C240.564 139.177 240.514 139.251 240.452 139.314C240.389 139.376 240.315 139.426 240.233 139.46C240.152 139.493 240.064 139.511 239.976 139.511Z" fill="#CCCCCC" stroke="#263238" stroke-width="0.458" stroke-linecap="round" stroke-linejoin="round"/>
<path d="M61.8786 141.173H244.785C245.607 141.173 246.394 141.5 246.975 142.08C247.555 142.661 247.882 143.448 247.882 144.269V209.104H58.7871V144.269C58.7871 143.449 59.1127 142.662 59.6923 142.082C60.2719 141.501 61.0583 141.175 61.8786 141.173Z" fill="white" stroke="#263238" stroke-width="0.458" stroke-linecap="round" stroke-linejoin="round"/>
<path d="M64.1178 141.75C64.127 141.679 64.1561 141.613 64.2016 141.557C64.2472 141.502 64.3074 141.461 64.3753 141.438C64.4433 141.416 64.5162 141.413 64.5857 141.43C64.6552 141.447 64.7184 141.484 64.7682 141.535C66.6002 143.45 73.6167 149.885 86.3583 150.054C98.4586 150.219 106.084 144.132 108.219 142.181C108.276 142.129 108.348 142.096 108.425 142.085C108.501 142.075 108.579 142.088 108.649 142.122C108.718 142.157 108.775 142.212 108.813 142.279C108.851 142.347 108.867 142.424 108.86 142.502C108.86 145.199 108.274 153.168 101.839 157.758C94.0069 163.341 77.638 164.499 68.4047 155.642C62.9682 150.452 63.6873 143.931 64.1178 141.75Z" fill="#28C79E" stroke="#263238" stroke-width="0.458" stroke-linecap="round" stroke-linejoin="round"/>
<path d="M70.9102 148.996C71.6886 149.478 72.505 149.896 73.3513 150.246" stroke="#263238" stroke-width="0.458" stroke-linecap="round" stroke-linejoin="round"/>
<path d="M64.7695 141.535C65.6075 143.897 67.07 145.988 69.0015 147.585" stroke="#263238" stroke-width="0.458" stroke-linecap="round" stroke-linejoin="round"/>
<path d="M82.1082 156.475C80.9082 156.391 79.7139 156.238 78.5312 156.017" stroke="#263238" stroke-width="0.458" stroke-linecap="round" stroke-linejoin="round"/>
<path d="M108.86 142.502C108.86 142.502 105.751 148.914 98.102 153.521C93.7373 156.159 88.2779 156.663 84.2246 156.576" stroke="#263238" stroke-width="0.458" stroke-linecap="round" stroke-linejoin="round"/>
<path d="M82.6191 152.944C82.6191 152.944 91.5181 155.064 102.189 148.117" stroke="#263238" stroke-width="0.458" stroke-linecap="round" stroke-linejoin="round"/>
<path d="M108.778 141.75C108.787 141.679 108.816 141.613 108.862 141.557C108.907 141.502 108.968 141.461 109.036 141.438C109.103 141.416 109.176 141.413 109.246 141.43C109.315 141.447 109.379 141.484 109.428 141.535C111.26 143.45 118.277 149.885 131.018 150.054C143.119 150.219 150.745 144.132 152.879 142.181C152.936 142.129 153.008 142.096 153.085 142.085C153.162 142.075 153.24 142.088 153.309 142.122C153.378 142.157 153.435 142.212 153.473 142.279C153.511 142.347 153.527 142.424 153.52 142.502C153.52 145.199 152.929 153.168 146.499 157.758C138.667 163.341 122.298 164.499 113.065 155.642C107.628 150.452 108.347 143.931 108.778 141.75Z" fill="#28C79E" stroke="#263238" stroke-width="0.458" stroke-linecap="round" stroke-linejoin="round"/>
<path d="M115.588 148.996C116.366 149.478 117.183 149.896 118.029 150.246" stroke="#263238" stroke-width="0.458" stroke-linecap="round" stroke-linejoin="round"/>
<path d="M109.428 141.535C110.266 143.897 111.728 145.988 113.66 147.585" stroke="#263238" stroke-width="0.458" stroke-linecap="round" stroke-linejoin="round"/>
<path d="M126.789 156.475C125.587 156.39 124.391 156.237 123.207 156.017" stroke="#263238" stroke-width="0.458" stroke-linecap="round" stroke-linejoin="round"/>
<path d="M153.521 142.502C153.521 142.502 150.411 148.914 142.762 153.521C138.397 156.159 132.938 156.663 128.885 156.576" stroke="#263238" stroke-width="0.458" stroke-linecap="round" stroke-linejoin="round"/>
<path d="M127.281 152.944C127.281 152.944 136.176 155.064 146.852 148.13" stroke="#263238" stroke-width="0.458" stroke-linecap="round" stroke-linejoin="round"/>
<path d="M153.436 141.75C153.446 141.679 153.475 141.613 153.52 141.557C153.566 141.502 153.626 141.461 153.694 141.438C153.762 141.416 153.835 141.413 153.904 141.43C153.974 141.447 154.037 141.484 154.087 141.535C155.919 143.45 162.931 149.885 175.677 150.054C187.777 150.219 195.403 144.132 197.537 142.181C197.595 142.131 197.666 142.099 197.742 142.089C197.818 142.079 197.895 142.093 197.963 142.127C198.032 142.161 198.088 142.215 198.126 142.282C198.163 142.349 198.18 142.425 198.174 142.502C198.174 145.199 197.588 153.168 191.153 157.758C183.325 163.341 166.957 164.499 157.719 155.642C152.287 150.452 153.001 143.931 153.436 141.75Z" fill="#28C79E" stroke="#263238" stroke-width="0.458" stroke-linecap="round" stroke-linejoin="round"/>
<path d="M160.248 148.996C161.025 149.48 161.842 149.898 162.689 150.246" stroke="#263238" stroke-width="0.458" stroke-linecap="round" stroke-linejoin="round"/>
<path d="M154.088 141.535C154.926 143.897 156.388 145.988 158.32 147.585" stroke="#263238" stroke-width="0.458" stroke-linecap="round" stroke-linejoin="round"/>
<path d="M171.427 156.475C170.226 156.39 169.03 156.237 167.846 156.017" stroke="#263238" stroke-width="0.458" stroke-linecap="round" stroke-linejoin="round"/>
<path d="M198.177 142.502C198.177 142.502 195.072 148.914 187.418 153.521C183.058 156.159 177.599 156.663 173.541 156.576" stroke="#263238" stroke-width="0.458" stroke-linecap="round" stroke-linejoin="round"/>
<path d="M171.941 152.944C171.941 152.944 180.831 155.064 191.512 148.117" stroke="#263238" stroke-width="0.458" stroke-linecap="round" stroke-linejoin="round"/>
<path d="M198.097 141.75C198.106 141.679 198.135 141.613 198.18 141.557C198.226 141.502 198.286 141.461 198.354 141.438C198.422 141.416 198.495 141.413 198.564 141.43C198.634 141.447 198.697 141.484 198.747 141.535C200.556 143.45 207.591 149.885 220.332 150.054C232.437 150.219 240.063 144.132 242.197 142.181C242.255 142.131 242.326 142.099 242.402 142.089C242.478 142.079 242.555 142.093 242.624 142.127C242.692 142.161 242.748 142.215 242.786 142.282C242.823 142.349 242.84 142.425 242.834 142.502C242.834 145.199 242.248 153.168 235.813 157.758C227.986 163.341 211.617 164.499 202.379 155.642C196.947 150.452 197.661 143.931 198.097 141.75Z" fill="#28C79E" stroke="#263238" stroke-width="0.458" stroke-linecap="round" stroke-linejoin="round"/>
<path d="M204.906 148.996C205.683 149.479 206.498 149.897 207.343 150.246" stroke="#263238" stroke-width="0.458" stroke-linecap="round" stroke-linejoin="round"/>
<path d="M198.748 141.535C199.586 143.897 201.049 145.988 202.98 147.585" stroke="#263238" stroke-width="0.458" stroke-linecap="round" stroke-linejoin="round"/>
<path d="M216.097 156.475C214.896 156.39 213.702 156.237 212.52 156.017" stroke="#263238" stroke-width="0.458" stroke-linecap="round" stroke-linejoin="round"/>
<path d="M242.835 142.502C242.835 142.502 239.73 148.914 232.077 153.521C227.716 156.159 222.253 156.663 218.199 156.576" stroke="#263238" stroke-width="0.458" stroke-linecap="round" stroke-linejoin="round"/>
<path d="M216.596 152.944C216.596 152.944 225.495 155.064 236.171 148.13" stroke="#263238" stroke-width="0.458" stroke-linecap="round" stroke-linejoin="round"/>
<path d="M68.4102 209.053V169.45" stroke="#263238" stroke-width="0.458" stroke-linecap="round" stroke-linejoin="round"/>
<path d="M76.2285 181.839V191.384" stroke="#263238" stroke-width="0.458" stroke-linecap="round" stroke-linejoin="round"/>
<path d="M76.2285 164.17V178.184" stroke="#263238" stroke-width="0.458" stroke-linecap="round" stroke-linejoin="round"/>
<path d="M86.2207 202.761V176.558" stroke="#263238" stroke-width="0.458" stroke-linecap="round" stroke-linejoin="round"/>
<path d="M86.2207 208.651V204.991" stroke="#263238" stroke-width="0.458" stroke-linecap="round" stroke-linejoin="round"/>
<path d="M111.201 177.575V192.808" stroke="#263238" stroke-width="0.458" stroke-linecap="round" stroke-linejoin="round"/>
<path d="M102.514 198.089V201.744" stroke="#263238" stroke-width="0.458" stroke-linecap="round" stroke-linejoin="round"/>
<path d="M102.514 171.685V195.652" stroke="#263238" stroke-width="0.458" stroke-linecap="round" stroke-linejoin="round"/>
<path d="M130.535 167.421V183.058" stroke="#263238" stroke-width="0.458" stroke-linecap="round" stroke-linejoin="round"/>
<path d="M126.408 201.135V186.103" stroke="#263238" stroke-width="0.458" stroke-linecap="round" stroke-linejoin="round"/>
<path d="M151.166 204.588V181.839" stroke="#263238" stroke-width="0.458" stroke-linecap="round" stroke-linejoin="round"/>
<path d="M146.174 186.309V208.444" stroke="#263238" stroke-width="0.458" stroke-linecap="round" stroke-linejoin="round"/>
<path d="M146.174 166.203V183.264" stroke="#263238" stroke-width="0.458" stroke-linecap="round" stroke-linejoin="round"/>
<path d="M157.469 209.053V169.45" stroke="#263238" stroke-width="0.458" stroke-linecap="round" stroke-linejoin="round"/>
<path d="M165.285 181.839V191.384" stroke="#263238" stroke-width="0.458" stroke-linecap="round" stroke-linejoin="round"/>
<path d="M165.285 164.17V178.184" stroke="#263238" stroke-width="0.458" stroke-linecap="round" stroke-linejoin="round"/>
<path d="M175.279 202.761V176.558" stroke="#263238" stroke-width="0.458" stroke-linecap="round" stroke-linejoin="round"/>
<path d="M175.279 208.651V204.991" stroke="#263238" stroke-width="0.458" stroke-linecap="round" stroke-linejoin="round"/>
<path d="M200.26 177.575V192.808" stroke="#263238" stroke-width="0.458" stroke-linecap="round" stroke-linejoin="round"/>
<path d="M191.572 198.089V201.744" stroke="#263238" stroke-width="0.458" stroke-linecap="round" stroke-linejoin="round"/>
<path d="M191.572 171.685V195.652" stroke="#263238" stroke-width="0.458" stroke-linecap="round" stroke-linejoin="round"/>
<path d="M219.592 167.421V183.058" stroke="#263238" stroke-width="0.458" stroke-linecap="round" stroke-linejoin="round"/>
<path d="M215.465 201.135V186.103" stroke="#263238" stroke-width="0.458" stroke-linecap="round" stroke-linejoin="round"/>
<path d="M240.223 204.588V181.839" stroke="#263238" stroke-width="0.458" stroke-linecap="round" stroke-linejoin="round"/>
<path d="M235.227 186.309V208.444" stroke="#263238" stroke-width="0.458" stroke-linecap="round" stroke-linejoin="round"/>
<path d="M235.227 166.203V183.264" stroke="#263238" stroke-width="0.458" stroke-linecap="round" stroke-linejoin="round"/>
<path d="M240.042 125.052H228.033L225.633 123.962H240.385L240.042 125.052Z" fill="white" stroke="#263238" stroke-width="0.458" stroke-linecap="round" stroke-linejoin="round"/>
<path d="M244.861 124.177C244.861 124.177 243.523 123.32 242.571 122.56C241.833 122.04 241.031 121.618 240.185 121.305C240.043 121.248 239.889 121.225 239.737 121.237C239.584 121.249 239.437 121.296 239.305 121.374C238.572 121.8 237.07 122.633 236.429 122.633C235.573 122.633 235.096 123.398 236.237 123.778C237.377 124.159 238.664 123.417 238.664 123.417C238.664 123.417 236.947 125.249 236.374 125.322C235.802 125.395 231.116 125.056 231.212 125.533C231.309 126.009 236.278 126.847 237.423 127.039C238.568 127.232 239.997 127.323 240.569 127.039C241.142 126.755 242.191 126.371 242.191 126.371L244.023 126.659L244.861 124.177Z" fill="white" stroke="#263238" stroke-width="0.458" stroke-linecap="round" stroke-linejoin="round"/>
<path d="M251.5 78.5005C251.5 78.5005 248.843 83.1721 248.646 84.2713C248.554 85.1864 248.575 86.1095 248.71 87.0193C248.71 87.2804 246.768 88.9658 246.7 89.4192C246.631 89.8726 248 90.5871 248 90.5871C248 90.5871 249.164 94.8007 249.374 95.387C249.585 95.9732 250.29 96.0969 250.606 96.0969C251.461 95.903 252.304 95.6661 253.135 95.387L254.431 98.4968L262.07 94.0725L261.154 91.2879C261.154 91.2879 264.653 86.9414 264.461 84.7385C264.291 83.2193 263.68 81.7832 262.703 80.6072C261.726 79.4313 260.427 78.5668 258.965 78.1204C255.26 77.012 252.603 77.7219 251.5 78.5005Z" fill="white" stroke="#263238" stroke-width="0.458" stroke-linecap="round" stroke-linejoin="round"/>
<path d="M264.468 84.7293C264.298 83.2101 263.687 81.7741 262.71 80.5981C261.734 79.4221 260.434 78.5576 258.972 78.1112C255.276 77.012 252.62 77.7219 251.516 78.5005C251.516 78.5005 250.916 79.5585 250.266 80.7905H250.481C250.481 80.7905 255.02 80.076 255.409 80.7264C255.798 81.3767 254.63 83.6438 254.63 83.6438C254.63 83.6438 256.508 84.0331 256.462 84.6148C256.417 85.1964 255.491 86.3689 256.073 86.6895C256.655 87.0101 257.113 86.8223 257.241 86.3689C257.369 85.9155 259.123 85.2651 259.705 87.2116C260.287 89.1581 257.305 90.4543 257.305 90.4543C258.48 91.1958 259.891 91.4673 261.258 91.2146C261.684 90.61 264.642 86.7445 264.468 84.7293Z" fill="#263238" stroke="#263238" stroke-width="0.458" stroke-linecap="round" stroke-linejoin="round"/>
<path d="M250.854 86.9003C250.854 87.3583 250.707 87.7109 250.528 87.7109C250.35 87.7109 250.203 87.3491 250.203 86.9003C250.203 86.4514 250.35 86.0896 250.528 86.0896C250.707 86.0896 250.854 86.4514 250.854 86.9003Z" fill="#263238"/>
<path d="M249.426 85.1186C249.426 85.1186 250.53 83.7446 251.716 85.0499" stroke="#263238" stroke-width="0.458" stroke-linecap="round" stroke-linejoin="round"/>
<path d="M249.166 91.0818C249.166 91.0818 250.206 91.2787 251.309 90.1658" stroke="#263238" stroke-width="0.458" stroke-linecap="round" stroke-linejoin="round"/>
<path d="M252.151 101.066C252.151 101.066 250.14 102.82 249.815 104.116C249.49 105.413 248.775 110.07 249.1 111.055C249.426 112.04 252.54 108.394 252.54 108.394L250.594 104.309C250.594 104.309 252.476 102.431 252.54 102.17C252.604 101.909 252.151 101.066 252.151 101.066Z" fill="#263238" stroke="#263238" stroke-width="0.458" stroke-linecap="round" stroke-linejoin="round"/>
<path d="M262.07 93.1564C262.07 93.1564 252.085 99.5134 251.994 99.834C251.902 100.155 252.319 103.599 252.319 103.599L263.238 94.9884L262.07 93.1564Z" fill="white" stroke="#263238" stroke-width="0.458" stroke-linecap="round" stroke-linejoin="round"/>
<path d="M268.661 201.854C268.661 201.854 269.577 208.041 269.023 208.495C268.469 208.948 264.841 209.411 263.564 209.314C262.286 209.218 256.561 209.676 255.746 209.676C254.93 209.676 255.837 208.302 256.382 208.041C256.927 207.78 259.565 206.04 260.202 205.128L262.112 202.38L268.661 201.854Z" fill="white" stroke="#263238" stroke-width="0.458" stroke-linecap="round" stroke-linejoin="round"/>
<path d="M267.448 143.995L267.265 161.092C267.265 161.092 267.627 173.829 268.264 177.374C268.9 180.918 268.025 197.475 268.57 199.202C268.913 200.445 269.067 201.733 269.028 203.022L265.3 203.388C264.634 203.44 263.965 203.44 263.299 203.388C263.299 203.388 265.085 182.288 263.995 174.19C262.905 166.093 264.993 155.545 264.993 150.906C264.993 146.266 267.448 143.995 267.448 143.995Z" fill="#263238" stroke="#263238" stroke-width="0.458" stroke-linecap="round" stroke-linejoin="round"/>
<path d="M256.016 201.309C256.016 201.309 255.1 203.855 254.381 204.492C253.662 205.128 250.104 207.24 248.468 207.698C246.833 208.156 248.01 209.072 248.468 209.337C248.926 209.603 254.743 209.882 259.108 209.608C263.473 209.333 265.204 209.424 265.566 208.879C265.927 208.334 265.108 201.785 265.108 201.785L256.016 201.309Z" fill="white" stroke="#263238" stroke-width="0.458" stroke-linecap="round" stroke-linejoin="round"/>
<path d="M251.895 140.188C251.895 140.188 253.53 155.76 253.53 164.004C253.53 172.248 255.178 186.41 255.54 188.136C255.902 189.863 256.456 199.477 256.456 199.477C256.456 199.477 255.178 200.75 255.27 201.386C255.324 201.747 255.355 202.112 255.362 202.476C255.362 202.476 255.907 203.113 259.365 203.296C262.822 203.479 265.277 203.388 265.277 203.388C265.277 203.388 267.247 189.107 266.157 181.376C265.067 173.645 265.428 171.552 265.337 167.462C265.245 163.372 266.711 151.364 266.711 151.364C266.711 151.364 268.712 145.629 268.891 143.811C269.002 142.39 269.032 140.963 268.983 139.538L251.895 140.188Z" fill="#263238" stroke="#263238" stroke-width="0.458" stroke-linecap="round" stroke-linejoin="round"/>
<path d="M263.043 94.3885C263.043 94.3885 252.862 102.298 252.28 103.091C251.699 103.883 248.845 110.877 248.712 113.272C248.58 115.667 248.845 127.085 248.909 127.41C248.974 127.736 249.166 146.28 249.166 146.28C253.263 146.95 257.407 147.295 261.559 147.31C267.651 147.246 271.081 144.805 271.081 144.805C271.081 144.805 269.918 131.885 269.529 129.874C269.265 128.265 269.112 126.64 269.071 125.01C269.071 125.01 270.238 114.376 269.396 108.605C268.553 102.834 266.996 99.4449 266.089 98.2953C265.182 97.1457 264.339 95.103 263.043 94.3885Z" fill="#28C79E" stroke="#263238" stroke-width="0.458" stroke-linecap="round" stroke-linejoin="round"/>
<path d="M250.025 133.726L256.529 134.019L256.236 135.352L252.242 135.054" fill="#28C79E"/>
<path d="M250.025 133.726L256.529 134.019L256.236 135.352L252.242 135.054" stroke="#263238" stroke-width="0.458" stroke-linecap="round" stroke-linejoin="round"/>
<path d="M252.314 108.22L256.235 103.274L255.791 101.35L258.301 101.204L264.218 96.9166" fill="#28C79E"/>
<path d="M252.314 108.22L256.235 103.274L255.791 101.35L258.301 101.204L264.218 96.9166" stroke="#263238" stroke-width="0.458" stroke-linecap="round" stroke-linejoin="round"/>
<path d="M250.025 111.106L251.486 109.264" stroke="#263238" stroke-width="0.458" stroke-linecap="round" stroke-linejoin="round"/>
<path d="M257.143 104.634C257.143 104.634 255.65 107.615 255.847 109.237C256.044 110.858 257.533 123.178 257.533 123.178L243.907 123.394L243.449 128.972C243.449 128.972 252.664 130.703 258.371 130.506C264.078 130.309 265.181 130.117 265.374 129.728C265.566 129.338 266.29 115.594 266.024 113.194C265.91 111.685 265.581 110.2 265.049 108.783" fill="#28C79E"/>
<path d="M257.143 104.634C257.143 104.634 255.65 107.615 255.847 109.237C256.044 110.858 257.533 123.178 257.533 123.178L243.907 123.394L243.449 128.972C243.449 128.972 252.664 130.703 258.371 130.506C264.078 130.309 265.181 130.117 265.374 129.728C265.566 129.338 266.29 115.594 266.024 113.194C265.91 111.685 265.581 110.2 265.049 108.783" stroke="#263238" stroke-width="0.458" stroke-linecap="round" stroke-linejoin="round"/>
<path d="M203.272 89.0345C203.272 89.0345 202.42 91.2467 202.589 91.8696C202.759 92.4924 203.212 94.0771 202.704 94.7C202.195 95.3229 201.572 95.6618 201.856 96.2297C202.14 96.7977 203.327 97.1915 203.327 97.1915C203.327 97.1915 204.348 101.043 204.971 101.272C205.594 101.501 206.345 100.759 207.293 100.704C208.241 100.649 208.085 96.5137 208.424 93.6787C208.763 90.8436 207.394 89.4925 205.754 88.9704C204.114 88.4483 203.272 89.0345 203.272 89.0345Z" fill="white" stroke="#263238" stroke-width="0.458" stroke-linecap="round" stroke-linejoin="round"/>
<path d="M203.885 97.3518C204.103 97.3291 204.312 97.2494 204.491 97.1209C204.669 96.9923 204.811 96.8193 204.902 96.619" stroke="#263238" stroke-width="0.458" stroke-linecap="round" stroke-linejoin="round"/>
<path d="M204.111 93.3901C204.147 93.7794 204.065 94.1091 203.923 94.1229C203.781 94.1366 203.639 93.8298 203.602 93.4405C203.566 93.0512 203.648 92.726 203.79 92.7122C203.932 92.6985 204.074 93.0008 204.111 93.3901Z" fill="#263238"/>
<path d="M203.092 91.9702C203.152 91.8744 203.232 91.792 203.325 91.7283C203.419 91.6645 203.525 91.6208 203.636 91.5997C203.747 91.5786 203.862 91.5807 203.972 91.6059C204.083 91.631 204.187 91.6787 204.278 91.7458" stroke="#263238" stroke-width="0.458" stroke-linecap="round" stroke-linejoin="round"/>
<path d="M219.238 162.933C219.238 162.933 219.151 169.62 219.865 172.207C220.58 174.795 222.718 177.822 223.341 185.581C223.964 193.339 224.143 198.78 224.679 200.209C225.215 201.638 225.929 203.415 226.108 204.844C226.217 206.358 226.246 207.876 226.195 209.392H224.234L223.776 206.896L223.25 209.489C223.25 209.489 218.349 209.576 217.813 209.489C217.277 209.402 217.992 208.595 218.702 207.881C219.412 207.166 220.667 203.603 221.024 202.71C221.381 201.817 220.896 200.461 220.754 199.857C220.044 196.825 218.006 191.297 217.09 188.439C216.452 186.308 215.975 184.133 215.661 181.931C215.482 180.859 213.256 170.875 212.986 169.981C212.716 169.088 212.271 162.131 212.271 162.131L219.238 162.933Z" fill="#263238" stroke="#263238" stroke-width="0.458" stroke-linecap="round" stroke-linejoin="round"/>
<path d="M206.13 161.334C206.13 161.334 206.487 169.894 207.289 173.998C208.09 178.102 210.953 195.222 210.953 198.877C210.953 202.531 208.1 206.099 208.1 206.099C208.1 206.099 206.584 207.35 205.516 207.615C204.449 207.881 204.179 208.866 204.889 209.131C205.599 209.397 212.116 209.759 212.739 209.31C213.362 208.861 214.434 206.457 214.612 206.191C214.791 205.925 214.699 209.397 214.699 209.397H216.394C216.394 209.397 216.751 206.809 216.93 204.936C217.108 203.063 216.573 201.46 216.128 199.765C215.847 198.654 215.667 197.52 215.592 196.376C215.592 196.376 215.679 189.153 216.05 186.831C216.421 184.509 217.837 179.164 216.508 174.703C215.18 170.242 214.992 169.441 214.992 168.91V162.223L206.13 161.334Z" fill="#263238" stroke="#263238" stroke-width="0.458" stroke-linecap="round" stroke-linejoin="round"/>
<path d="M189.418 115.736C189.418 115.736 188.099 114.321 187.531 114.06C186.963 113.799 184.893 113.986 184.178 113.478C183.464 112.97 183.45 113.812 184.041 114.394C184.566 114.806 185.184 115.083 185.841 115.2C185.841 115.2 183.331 115.053 182.575 115.489C181.82 115.924 181.114 116.583 182.209 116.455L183.308 116.327L184.1 116.537C183.526 116.676 182.967 116.874 182.433 117.128C182.094 117.38 181.71 117.788 181.756 118.003C181.801 118.218 182.25 118.305 182.415 118.214C182.58 118.122 183.331 117.756 183.331 117.756L184.513 117.664C184.513 117.664 183.363 118.122 183.235 118.241C183.107 118.36 182.617 118.892 182.69 119.015C182.763 119.139 183.262 119.015 183.464 118.914C183.665 118.812 183.871 118.72 184.082 118.64L184.81 118.598C184.446 118.76 184.11 118.979 183.817 119.249C183.684 119.487 183.817 119.624 184.073 119.556C184.329 119.487 185.149 119.23 185.149 119.23L185.997 119.121L187.27 119.189C187.669 119.336 188.096 119.393 188.52 119.354C188.935 119.312 189.345 119.229 189.743 119.107C190.154 119.183 190.558 119.292 190.952 119.432L191.671 116.629L189.418 115.736Z" fill="white" stroke="#263238" stroke-width="0.458" stroke-linecap="round" stroke-linejoin="round"/>
<path d="M185.84 115.2C186.03 115.596 186.183 116.008 186.298 116.432C186.426 116.977 187.97 117.188 188.382 117.298" stroke="#263238" stroke-width="0.458" stroke-linecap="round" stroke-linejoin="round"/>
<path d="M184.25 116.189L185.106 118.699" stroke="#263238" stroke-width="0.458" stroke-linecap="round" stroke-linejoin="round"/>
<path d="M191.652 116.647L190.594 121.099L203.088 127.928L204.563 121.754L191.652 116.647Z" fill="#28C79E" stroke="#263238" stroke-width="0.458" stroke-linecap="round" stroke-linejoin="round"/>
<path d="M207.495 105.944C207.495 105.944 201.161 113.02 201.307 116.153C201.454 119.285 203.767 126.288 203.767 126.288C203.767 126.288 201.678 150.732 201.678 151.181C201.678 151.629 200.561 163.327 200.561 163.327C200.561 163.327 203.84 163.702 208.237 164.147C212.633 164.591 217.703 165.063 220.012 164.224C222.32 163.386 225.306 162.585 225.531 162.434C225.755 162.282 224.335 151.254 223.813 146.862C223.291 142.469 223.355 140.679 222.398 134.418C221.865 130.832 221.043 127.295 219.939 123.843C219.939 123.843 221.056 111.545 221.056 109.159C221.056 106.773 216.737 105.953 213.531 105.06C210.325 104.167 207.495 105.944 207.495 105.944Z" fill="#B2B2B2" stroke="#263238" stroke-width="0.458" stroke-linecap="round" stroke-linejoin="round"/>
<path d="M206.971 105.065C206.971 105.065 205.331 112.965 204.736 117.811C204.14 122.656 204.062 141.883 204.062 141.883C204.062 141.883 210.997 144.173 214.871 143.596C218.746 143.019 222.772 141.732 223.889 140.848C223.889 140.848 223.143 134.587 222.47 131.01C221.796 127.433 220.61 123.11 220.61 122.812C220.61 122.514 221.503 110.812 221.43 108.651C221.357 106.489 219.79 105.903 215.54 104.405C211.29 102.907 208.162 103.691 206.971 105.065Z" fill="#28C79E" stroke="#263238" stroke-width="0.458" stroke-linecap="round" stroke-linejoin="round"/>
<path d="M205.299 83.5889C205.299 83.5889 201.786 85.4575 201.332 87.0422C200.879 88.6269 205.752 90.1017 206.32 90.5551C206.888 91.0085 206.545 94.4069 206.49 96.674C206.435 98.9411 205.922 105.623 206.948 107.208C207.973 108.793 211.193 111.289 215.952 111.119C220.71 110.95 222.126 109.928 222.41 107.098C222.694 104.268 222.639 102.903 221.732 101.144C220.825 99.3853 220.674 99.6739 219.3 96.9579C217.926 94.242 218.278 89.4238 216.639 86.5888C214.999 83.7538 209.943 80.5295 205.299 83.5889Z" fill="#263238" stroke="#263238" stroke-width="0.458" stroke-linecap="round" stroke-linejoin="round"/>
<path d="M192.614 124.699H180.605L178.205 123.604H195.018L192.614 124.699Z" fill="white" stroke="#263238" stroke-width="0.458" stroke-linecap="round" stroke-linejoin="round"/>
<path d="M197.433 123.842C197.433 123.842 196.388 123.174 195.642 122.574C195.065 122.169 194.439 121.841 193.778 121.598C193.667 121.553 193.547 121.533 193.428 121.542C193.309 121.551 193.193 121.587 193.091 121.649C192.518 121.983 191.341 122.633 190.842 122.633C190.173 122.633 189.798 123.233 190.695 123.549C191.339 123.694 192.014 123.592 192.587 123.265C192.587 123.265 191.245 124.681 190.801 124.754C190.356 124.827 188.566 125.129 188.639 125.5C188.712 125.871 190.723 125.958 191.62 126.096C192.518 126.233 193.631 126.32 194.08 126.096C194.529 125.871 195.344 125.574 195.344 125.574L196.764 125.798L197.433 123.842Z" fill="white" stroke="#263238" stroke-width="0.458" stroke-linecap="round" stroke-linejoin="round"/>
<path d="M208.685 112.127L207.568 125.317C207.06 125.155 206.534 125.055 206.001 125.02C205.704 125.097 205.543 125.542 205.543 125.542L196.896 123.307L196.301 126.81C196.301 126.81 210.682 132.622 211.653 132.764C212.624 132.906 213.444 132.686 213.517 132.164C213.59 131.642 215.752 113.011 215.752 113.011" fill="#28C79E"/>
<path d="M208.685 112.127L207.568 125.317C207.06 125.155 206.534 125.055 206.001 125.02C205.704 125.097 205.543 125.542 205.543 125.542L196.896 123.307L196.301 126.81C196.301 126.81 210.682 132.622 211.653 132.764C212.624 132.906 213.444 132.686 213.517 132.164C213.59 131.642 215.752 113.011 215.752 113.011" stroke="#263238" stroke-width="0.458" stroke-linecap="round" stroke-linejoin="round"/>
<path d="M4.5293 209.104H322.844" stroke="#263238" stroke-width="0.458" stroke-linecap="round" stroke-linejoin="round"/>
</svg>
