<svg width="321" height="229" viewBox="0 0 321 229" fill="none" xmlns="http://www.w3.org/2000/svg">
<path d="M271.564 57.9553C258.992 24.8786 230.637 9.61802 196.86 18.1826C169.229 25.19 156.093 48.548 141.414 56.934C120.122 69.1305 88.0756 64.4773 60.2841 89.1955C42.6603 104.868 44.7121 140.794 61.2872 166.598C74.386 186.965 107.747 207.089 138.231 188.44C179.772 163.002 164.841 126.106 183.518 113.437C204.128 99.4547 227.734 117.413 258.507 102.239C270.74 96.18 278.645 76.5822 271.564 57.9553Z" fill="#28C79E"/>
<path opacity="0.7" d="M271.564 57.9553C258.992 24.8786 230.637 9.61802 196.86 18.1826C169.229 25.19 156.093 48.548 141.414 56.934C120.122 69.1305 88.0756 64.4773 60.2841 89.1955C42.6603 104.868 44.7121 140.794 61.2872 166.598C74.386 186.965 107.747 207.089 138.231 188.44C179.772 163.002 164.841 126.106 183.518 113.437C204.128 99.4547 227.734 117.413 258.507 102.239C270.74 96.18 278.645 76.5822 271.564 57.9553Z" fill="white"/>
<path d="M104.74 215.837C127.96 215.837 146.784 214.461 146.784 212.764C146.784 211.067 127.96 209.691 104.74 209.691C81.5192 209.691 62.6953 211.067 62.6953 212.764C62.6953 214.461 81.5192 215.837 104.74 215.837Z" fill="#28C79E"/>
<path d="M39.9043 206.604H278.376" stroke="#263238" stroke-width="0.576636" stroke-linecap="round" stroke-linejoin="round"/>
<path d="M257.164 151.951H249.318V151.254C249.318 150.93 249.384 150.609 249.511 150.311C249.639 150.013 249.827 149.744 250.062 149.52C250.297 149.297 250.576 149.124 250.88 149.012C251.185 148.9 251.509 148.851 251.833 148.868L254.906 149.038C255.516 149.071 256.089 149.336 256.509 149.779C256.929 150.222 257.164 150.809 257.164 151.419V151.951Z" fill="#28C79E"/>
<path opacity="0.8" d="M257.164 151.951H249.318V151.255C249.318 150.93 249.384 150.609 249.511 150.311C249.639 150.013 249.827 149.744 250.062 149.52C250.297 149.297 250.576 149.124 250.88 149.012C251.185 148.9 251.509 148.851 251.833 148.868L254.906 149.038C255.516 149.071 256.089 149.336 256.509 149.779C256.929 150.222 257.164 150.809 257.164 151.419V151.951Z" fill="white"/>
<path d="M257.164 151.951H249.318V151.254C249.318 150.93 249.384 150.609 249.511 150.311C249.639 150.013 249.827 149.744 250.062 149.52C250.297 149.297 250.576 149.124 250.88 149.012C251.185 148.9 251.509 148.851 251.833 148.868L254.906 149.038C255.516 149.071 256.089 149.336 256.509 149.779C256.929 150.222 257.164 150.809 257.164 151.419V151.951Z" stroke="#263238" stroke-width="0.576636" stroke-linecap="round" stroke-linejoin="round"/>
<path d="M235.982 135.733C235.968 135.435 235.839 135.154 235.624 134.949C235.408 134.743 235.121 134.629 234.823 134.629H226.895C226.597 134.63 226.311 134.745 226.096 134.95C225.88 135.155 225.752 135.435 225.736 135.733L227.628 152.257H239.463L235.982 135.733Z" fill="#28C79E" stroke="#263238" stroke-width="0.576636" stroke-linecap="round" stroke-linejoin="round"/>
<path d="M257.512 110.332H254.558L251.242 141.522H254.192C254.435 141.516 254.668 141.423 254.849 141.26C255.03 141.097 255.146 140.875 255.176 140.633L258.314 111.216C258.329 111.103 258.32 110.989 258.286 110.88C258.253 110.771 258.196 110.671 258.119 110.587C258.043 110.503 257.949 110.436 257.844 110.392C257.739 110.348 257.626 110.328 257.512 110.332Z" fill="#28C79E" stroke="#263238" stroke-width="0.576636" stroke-linecap="round" stroke-linejoin="round"/>
<path d="M252.945 141.522H208.671C208.557 141.524 208.445 141.502 208.341 141.457C208.238 141.412 208.145 141.345 208.07 141.26C207.994 141.176 207.938 141.076 207.905 140.968C207.872 140.86 207.863 140.746 207.878 140.633L211.011 111.202C211.041 110.962 211.156 110.74 211.336 110.578C211.516 110.415 211.749 110.323 211.991 110.318H256.266C256.379 110.315 256.491 110.337 256.595 110.382C256.698 110.426 256.791 110.493 256.867 110.577C256.942 110.661 256.998 110.761 257.031 110.869C257.064 110.977 257.074 111.091 257.058 111.202L253.926 140.633C253.896 140.875 253.781 141.097 253.601 141.26C253.421 141.423 253.188 141.516 252.945 141.522Z" fill="#28C79E"/>
<path opacity="0.4" d="M252.945 141.522H208.671C208.557 141.524 208.445 141.502 208.341 141.457C208.238 141.412 208.145 141.345 208.07 141.26C207.994 141.176 207.938 141.076 207.905 140.968C207.872 140.86 207.863 140.746 207.878 140.634L211.011 111.202C211.041 110.962 211.156 110.74 211.336 110.578C211.516 110.415 211.749 110.323 211.991 110.319H256.266C256.379 110.315 256.491 110.337 256.595 110.382C256.698 110.426 256.791 110.493 256.867 110.577C256.942 110.661 256.998 110.761 257.031 110.869C257.064 110.977 257.074 111.091 257.058 111.202L253.926 140.634C253.896 140.875 253.781 141.097 253.601 141.26C253.421 141.423 253.188 141.516 252.945 141.522Z" fill="white"/>
<path d="M252.945 141.522H208.671C208.557 141.524 208.445 141.502 208.341 141.457C208.238 141.412 208.145 141.345 208.07 141.26C207.994 141.176 207.938 141.076 207.905 140.968C207.872 140.86 207.863 140.746 207.878 140.633L211.011 111.202C211.041 110.962 211.156 110.74 211.336 110.578C211.516 110.415 211.749 110.323 211.991 110.318H256.266C256.379 110.315 256.491 110.337 256.595 110.382C256.698 110.426 256.791 110.493 256.867 110.577C256.942 110.661 256.998 110.761 257.031 110.869C257.064 110.977 257.074 111.091 257.058 111.202L253.926 140.633C253.896 140.875 253.781 141.097 253.601 141.26C253.421 141.423 253.188 141.516 252.945 141.522Z" stroke="#263238" stroke-width="0.576636" stroke-linecap="round" stroke-linejoin="round"/>
<path d="M239.898 150.971H225.338C225.168 150.971 225.005 151.038 224.885 151.158C224.765 151.279 224.697 151.442 224.697 151.612C224.697 151.782 224.765 151.946 224.885 152.067C225.005 152.188 225.168 152.256 225.338 152.257H239.894C240.064 152.256 240.227 152.188 240.347 152.067C240.468 151.946 240.535 151.782 240.535 151.612C240.535 151.442 240.468 151.28 240.349 151.16C240.229 151.04 240.068 150.972 239.898 150.971Z" fill="#28C79E" stroke="#263238" stroke-width="0.576636" stroke-linecap="round" stroke-linejoin="round"/>
<path d="M252.117 138.655H210.366C210.267 138.657 210.169 138.638 210.079 138.599C209.988 138.559 209.907 138.501 209.842 138.427C209.776 138.354 209.727 138.267 209.698 138.172C209.669 138.078 209.661 137.979 209.674 137.881L212.422 112.201C212.448 111.99 212.548 111.796 212.706 111.654C212.863 111.511 213.067 111.431 213.279 111.427H255.016C255.115 111.425 255.212 111.445 255.302 111.485C255.392 111.524 255.473 111.583 255.539 111.656C255.604 111.729 255.653 111.816 255.682 111.91C255.712 112.004 255.72 112.103 255.708 112.201L252.96 137.881C252.934 138.089 252.835 138.281 252.681 138.423C252.526 138.564 252.326 138.647 252.117 138.655Z" fill="#28C79E"/>
<path opacity="0.8" d="M252.119 138.655H210.368C210.269 138.657 210.171 138.638 210.081 138.599C209.99 138.559 209.909 138.501 209.843 138.427C209.778 138.354 209.729 138.267 209.7 138.172C209.671 138.078 209.663 137.979 209.676 137.881L212.424 112.201C212.449 111.99 212.55 111.796 212.708 111.654C212.865 111.511 213.068 111.431 213.281 111.427H255.018C255.117 111.425 255.214 111.445 255.304 111.485C255.394 111.524 255.475 111.583 255.541 111.656C255.606 111.729 255.655 111.816 255.684 111.91C255.714 112.004 255.722 112.103 255.71 112.201L252.962 137.881C252.936 138.089 252.837 138.281 252.682 138.423C252.528 138.564 252.328 138.647 252.119 138.655Z" fill="white"/>
<path d="M252.117 138.655H210.366C210.267 138.657 210.169 138.638 210.079 138.599C209.988 138.559 209.907 138.501 209.842 138.427C209.776 138.354 209.727 138.267 209.698 138.172C209.669 138.078 209.661 137.979 209.674 137.881L212.422 112.201C212.448 111.99 212.548 111.796 212.706 111.654C212.863 111.511 213.067 111.431 213.279 111.427H255.016C255.115 111.425 255.212 111.445 255.302 111.485C255.392 111.524 255.473 111.583 255.539 111.656C255.604 111.729 255.653 111.816 255.682 111.91C255.712 112.004 255.72 112.103 255.708 112.201L252.96 137.881C252.934 138.089 252.835 138.281 252.681 138.423C252.526 138.564 252.326 138.647 252.117 138.655Z" stroke="#263238" stroke-width="0.576636" stroke-linecap="round" stroke-linejoin="round"/>
<path d="M157.93 156.412H161.342V205.917C161.342 206.098 161.27 206.271 161.142 206.399C161.014 206.527 160.84 206.599 160.659 206.599H158.617C158.436 206.599 158.262 206.527 158.134 206.399C158.006 206.271 157.934 206.098 157.934 205.917V156.412H157.93Z" fill="#28C79E" stroke="#263238" stroke-width="0.576636" stroke-linecap="round" stroke-linejoin="round"/>
<path d="M263.566 151.951H233.988V156.412H263.566V151.951Z" fill="#28C79E"/>
<path opacity="0.4" d="M263.566 151.951H233.988V156.412H263.566V151.951Z" fill="white"/>
<path d="M263.566 151.951H233.988V156.412H263.566V151.951Z" stroke="#263238" stroke-width="0.576636" stroke-linecap="round" stroke-linejoin="round"/>
<path d="M179.08 156.412H182.492V205.917C182.492 206.098 182.42 206.271 182.292 206.399C182.164 206.527 181.991 206.599 181.81 206.599H179.767C179.677 206.6 179.588 206.583 179.505 206.549C179.421 206.515 179.345 206.464 179.282 206.401C179.218 206.338 179.167 206.262 179.132 206.179C179.098 206.096 179.08 206.007 179.08 205.917V156.412Z" fill="#28C79E" stroke="#263238" stroke-width="0.576636" stroke-linecap="round" stroke-linejoin="round"/>
<path d="M258.184 156.412H261.596V205.917C261.596 206.098 261.524 206.271 261.396 206.399C261.268 206.527 261.094 206.599 260.913 206.599H258.871C258.69 206.599 258.516 206.527 258.388 206.399C258.26 206.271 258.188 206.098 258.188 205.917V156.412H258.184Z" fill="#28C79E" stroke="#263238" stroke-width="0.576636" stroke-linecap="round" stroke-linejoin="round"/>
<path d="M242.425 151.951H155.955V156.412H242.425V151.951Z" fill="#28C79E"/>
<path opacity="0.7" d="M242.425 151.951H155.955V156.412H242.425V151.951Z" fill="white"/>
<path d="M242.425 151.951H155.955V156.412H242.425V151.951Z" stroke="#263238" stroke-width="0.576636" stroke-linecap="round" stroke-linejoin="round"/>
<path d="M237.044 156.412H240.452V205.917C240.452 206.098 240.38 206.271 240.252 206.399C240.124 206.527 239.95 206.599 239.769 206.599H237.704C237.523 206.599 237.349 206.527 237.221 206.399C237.093 206.271 237.021 206.098 237.021 205.917V156.412H237.044Z" fill="#28C79E" stroke="#263238" stroke-width="0.576636" stroke-linecap="round" stroke-linejoin="round"/>
<path d="M235.501 150.114H210.814V151.951H235.501V150.114Z" fill="#28C79E"/>
<path opacity="0.4" d="M235.501 150.114H210.814V151.951H235.501V150.114Z" fill="white"/>
<path d="M235.501 150.114H210.814V151.951H235.501V150.114Z" stroke="#263238" stroke-width="0.576636" stroke-linecap="round" stroke-linejoin="round"/>
<path d="M51.7882 206.604H92.9258V151.864H51.7882L51.7882 206.604Z" fill="#28C79E"/>
<path opacity="0.7" d="M51.7882 206.604H92.9258V151.864H51.7882L51.7882 206.604Z" fill="white"/>
<path d="M51.7882 206.604H92.9258V151.864H51.7882L51.7882 206.604Z" stroke="#263238" stroke-width="0.576636" stroke-linecap="round" stroke-linejoin="round"/>
<path d="M43.937 206.604H51.7871L51.7871 151.864H43.937L43.937 206.604Z" fill="#28C79E"/>
<path opacity="0.3" d="M43.937 206.604H51.7871L51.7871 151.864H43.937L43.937 206.604Z" fill="white"/>
<path d="M43.937 206.604H51.7871L51.7871 151.864H43.937L43.937 206.604Z" stroke="#263238" stroke-width="0.576636" stroke-linecap="round" stroke-linejoin="round"/>
<path d="M54.4583 169.217H90.0449V155.922H54.4583V169.217Z" fill="white" stroke="#263238" stroke-width="0.576636" stroke-linecap="round" stroke-linejoin="round"/>
<path d="M54.4583 183.96H90.0449V170.665H54.4583V183.96Z" fill="white" stroke="#263238" stroke-width="0.576636" stroke-linecap="round" stroke-linejoin="round"/>
<path d="M54.4583 198.708H90.0449V185.412H54.4583V198.708Z" fill="white" stroke="#263238" stroke-width="0.576636" stroke-linecap="round" stroke-linejoin="round"/>
<path d="M70.7676 162.59C70.7676 162.884 70.8546 163.17 71.0177 163.414C71.1807 163.659 71.4125 163.849 71.6836 163.961C71.9548 164.073 72.2531 164.103 72.541 164.045C72.8289 163.988 73.0933 163.847 73.3008 163.639C73.5083 163.432 73.6497 163.167 73.7069 162.88C73.7642 162.592 73.7348 162.293 73.6225 162.022C73.5101 161.751 73.32 161.519 73.0759 161.356C72.8319 161.193 72.545 161.106 72.2515 161.106C72.0566 161.106 71.8637 161.145 71.6836 161.219C71.5036 161.294 71.34 161.403 71.2022 161.541C71.0644 161.679 70.9551 161.842 70.8805 162.022C70.806 162.202 70.7676 162.395 70.7676 162.59Z" fill="#28C79E" stroke="#263238" stroke-width="0.576636" stroke-linecap="round" stroke-linejoin="round"/>
<path d="M70.7676 177.315C70.7667 177.608 70.8529 177.896 71.0154 178.14C71.178 178.385 71.4094 178.576 71.6805 178.689C71.9515 178.802 72.25 178.832 72.5382 178.775C72.8263 178.719 73.0912 178.578 73.2992 178.37C73.5072 178.163 73.6489 177.899 73.7066 177.611C73.7642 177.323 73.7351 177.024 73.6229 176.753C73.5107 176.481 73.3205 176.249 73.0764 176.086C72.8323 175.923 72.5452 175.835 72.2515 175.835C71.8587 175.835 71.482 175.991 71.2038 176.268C70.9257 176.546 70.7688 176.922 70.7676 177.315Z" fill="#28C79E" stroke="#263238" stroke-width="0.576636" stroke-linecap="round" stroke-linejoin="round"/>
<path d="M70.7676 192.062C70.7676 192.356 70.8546 192.643 71.0177 192.887C71.1807 193.131 71.4125 193.321 71.6836 193.433C71.9548 193.546 72.2531 193.575 72.541 193.518C72.8289 193.461 73.0933 193.319 73.3008 193.112C73.5083 192.904 73.6497 192.64 73.7069 192.352C73.7642 192.064 73.7348 191.766 73.6225 191.495C73.5101 191.223 73.32 190.992 73.0759 190.829C72.8319 190.666 72.545 190.579 72.2515 190.579C72.0566 190.579 71.8637 190.617 71.6836 190.692C71.5036 190.766 71.34 190.875 71.2022 191.013C71.0644 191.151 70.9551 191.315 70.8805 191.495C70.806 191.675 70.7676 191.868 70.7676 192.062Z" fill="#28C79E" stroke="#263238" stroke-width="0.576636" stroke-linecap="round" stroke-linejoin="round"/>
<path d="M229.998 49.7847H216.176V134.542H229.998C230.999 134.543 231.991 134.346 232.916 133.963C233.841 133.581 234.682 133.019 235.39 132.312C236.098 131.604 236.66 130.764 237.043 129.839C237.427 128.914 237.624 127.922 237.624 126.921V57.4058C237.624 56.4046 237.427 55.4132 237.043 54.4883C236.66 53.5633 236.098 52.723 235.39 52.0152C234.682 51.3075 233.841 50.7462 232.916 50.3635C231.991 49.9808 230.999 49.7841 229.998 49.7847Z" fill="#263238" stroke="#263238" stroke-width="0.576636" stroke-linecap="round" stroke-linejoin="round"/>
<path d="M227.118 49.7847H111.047C106.838 49.7847 103.426 53.1968 103.426 57.4058V126.926C103.426 131.135 106.838 134.547 111.047 134.547H227.118C231.327 134.547 234.739 131.135 234.739 126.926V57.4058C234.739 53.1968 231.327 49.7847 227.118 49.7847Z" fill="#28C79E" stroke="#263238" stroke-width="0.576636" stroke-linecap="round" stroke-linejoin="round"/>
<path d="M224.444 52.6563H223.267C222.154 52.6563 221.252 53.5585 221.252 54.6715V55.8486C221.252 56.9615 222.154 57.8638 223.267 57.8638H224.444C225.557 57.8638 226.459 56.9615 226.459 55.8486V54.6715C226.459 53.5585 225.557 52.6563 224.444 52.6563Z" fill="#999999" stroke="#263238" stroke-width="0.576636" stroke-linecap="round" stroke-linejoin="round"/>
<path opacity="0.5" d="M115.552 55.2623C115.552 55.7779 115.399 56.2819 115.112 56.7106C114.826 57.1392 114.419 57.4732 113.942 57.6704C113.466 57.8675 112.941 57.9188 112.436 57.8179C111.93 57.717 111.466 57.4683 111.102 57.1034C110.737 56.7385 110.489 56.2737 110.389 55.7679C110.289 55.2621 110.342 54.7379 110.54 54.2618C110.737 53.7857 111.072 53.379 111.501 53.0932C111.931 52.8074 112.435 52.6553 112.95 52.6563C113.292 52.6563 113.631 52.7237 113.947 52.8547C114.263 52.9857 114.55 53.1778 114.792 53.4198C115.033 53.6619 115.225 53.9492 115.355 54.2653C115.486 54.5815 115.552 54.9203 115.552 55.2623Z" fill="black"/>
<path d="M115.554 55.2623C115.554 55.778 115.401 56.282 115.114 56.7106C114.828 57.1393 114.42 57.4733 113.944 57.6704C113.468 57.8675 112.943 57.9189 112.438 57.8179C111.932 57.717 111.468 57.4684 111.103 57.1034C110.739 56.7385 110.491 56.2738 110.391 55.7679C110.291 55.2621 110.344 54.738 110.541 54.2619C110.739 53.7858 111.074 53.3791 111.503 53.0933C111.932 52.8075 112.437 52.6554 112.952 52.6563C113.294 52.6563 113.633 52.7238 113.949 52.8548C114.265 52.9858 114.552 53.1778 114.794 53.4199C115.035 53.6619 115.227 53.9492 115.357 54.2654C115.488 54.5815 115.554 54.9203 115.554 55.2623V55.2623Z" stroke="#263238" stroke-width="0.576636" stroke-linecap="round" stroke-linejoin="round"/>
<path opacity="0.5" d="M129.133 57.8683C130.573 57.8683 131.739 56.7015 131.739 55.2623C131.739 53.823 130.573 52.6562 129.133 52.6562C127.694 52.6562 126.527 53.823 126.527 55.2623C126.527 56.7015 127.694 57.8683 129.133 57.8683Z" fill="white" stroke="#263238" stroke-width="0.576636" stroke-linecap="round" stroke-linejoin="round"/>
<path d="M129.133 57.8684C130.573 57.8684 131.739 56.7016 131.739 55.2623C131.739 53.8231 130.573 52.6563 129.133 52.6563C127.694 52.6563 126.527 53.8231 126.527 55.2623C126.527 56.7016 127.694 57.8684 129.133 57.8684Z" stroke="#263238" stroke-width="0.576636" stroke-linecap="round" stroke-linejoin="round"/>
<path d="M121.042 57.8684C122.481 57.8684 123.648 56.7016 123.648 55.2623C123.648 53.8231 122.481 52.6563 121.042 52.6563C119.602 52.6563 118.436 53.8231 118.436 55.2623C118.436 56.7016 119.602 57.8684 121.042 57.8684Z" stroke="#263238" stroke-width="0.576636" stroke-linecap="round" stroke-linejoin="round"/>
<path d="M227.118 60.74H111.052C108.753 60.74 106.889 62.6039 106.889 64.9032V126.921C106.889 129.22 108.753 131.084 111.052 131.084H227.118C229.418 131.084 231.281 129.22 231.281 126.921V64.9032C231.281 62.6039 229.418 60.74 227.118 60.74Z" fill="#28C79E"/>
<path opacity="0.3" d="M227.118 60.74H111.052C108.753 60.74 106.889 62.6039 106.889 64.9032V126.921C106.889 129.22 108.753 131.084 111.052 131.084H227.118C229.418 131.084 231.281 129.22 231.281 126.921V64.9032C231.281 62.6039 229.418 60.74 227.118 60.74Z" fill="black"/>
<path d="M227.118 60.74H111.052C108.753 60.74 106.889 62.6039 106.889 64.9032V126.921C106.889 129.22 108.753 131.084 111.052 131.084H227.118C229.418 131.084 231.281 129.22 231.281 126.921V64.9032C231.281 62.6039 229.418 60.74 227.118 60.74Z" stroke="#263238" stroke-width="0.576636" stroke-linecap="round" stroke-linejoin="round"/>
<path d="M142.528 63.6208H111.045C110.34 63.6208 109.768 64.1929 109.768 64.8987V126.921C109.768 127.627 110.34 128.199 111.045 128.199H142.528C143.234 128.199 143.806 127.627 143.806 126.921V64.8987C143.806 64.1929 143.234 63.6208 142.528 63.6208Z" fill="#999999" stroke="#263238" stroke-width="0.576636" stroke-linecap="round" stroke-linejoin="round"/>
<path d="M186.644 63.6208H151.122C150.416 63.6208 149.844 64.1929 149.844 64.8987V126.921C149.844 127.627 150.416 128.199 151.122 128.199H186.644C187.35 128.199 187.922 127.627 187.922 126.921V64.8987C187.922 64.1929 187.35 63.6208 186.644 63.6208Z" fill="#28C79E"/>
<path opacity="0.8" d="M186.644 63.6208H151.122C150.416 63.6208 149.844 64.1929 149.844 64.8987V126.921C149.844 127.627 150.416 128.199 151.122 128.199H186.644C187.35 128.199 187.922 127.627 187.922 126.921V64.8987C187.922 64.1929 187.35 63.6208 186.644 63.6208Z" fill="white"/>
<path d="M186.644 63.6208H151.122C150.416 63.6208 149.844 64.1929 149.844 64.8987V126.921C149.844 127.627 150.416 128.199 151.122 128.199H186.644C187.35 128.199 187.922 127.627 187.922 126.921V64.8987C187.922 64.1929 187.35 63.6208 186.644 63.6208Z" stroke="#263238" stroke-width="0.576636" stroke-linecap="round" stroke-linejoin="round"/>
<path d="M225.295 63.6208H196.583C196.274 63.6221 195.978 63.7456 195.76 63.9645C195.542 64.1834 195.42 64.4798 195.42 64.7888V68.3062H226.459V64.7888C226.459 64.4798 226.336 64.1834 226.118 63.9645C225.9 63.7456 225.604 63.6221 225.295 63.6208Z" fill="#28C79E" stroke="#263238" stroke-width="0.576636" stroke-linecap="round" stroke-linejoin="round"/>
<path d="M222.543 65.036H225.309" stroke="#263238" stroke-width="0.576636" stroke-linecap="round" stroke-linejoin="round"/>
<path d="M222.543 65.9612H225.309" stroke="#263238" stroke-width="0.576636" stroke-linecap="round" stroke-linejoin="round"/>
<path d="M225.309 66.8818H222.543" stroke="#263238" stroke-width="0.576636" stroke-linecap="round" stroke-linejoin="round"/>
<path d="M210.942 68.3062L210.222 65.3887C210.098 64.8842 209.807 64.436 209.398 64.1156C208.989 63.7951 208.484 63.621 207.965 63.6208H196.583C196.274 63.6221 195.978 63.7456 195.76 63.9645C195.542 64.1834 195.42 64.4798 195.42 64.7888V82.3622C195.42 82.6707 195.542 82.9666 195.761 83.1848C195.979 83.403 196.275 83.5255 196.583 83.5255H225.295C225.604 83.5255 225.9 83.403 226.118 83.1848C226.336 82.9666 226.459 82.6707 226.459 82.3622V68.3062H210.942Z" fill="#999999" stroke="#263238" stroke-width="0.576636" stroke-linecap="round" stroke-linejoin="round"/>
<path d="M109.284 124.393H121.247C121.517 124.393 121.733 124.278 121.733 124.136V111.725C121.733 111.583 121.517 111.468 121.247 111.468H109.284C109.019 111.468 108.799 111.583 108.799 111.725V124.118C108.799 124.278 109.005 124.393 109.284 124.393Z" fill="#28C79E"/>
<path opacity="0.3" d="M109.284 124.393H121.247C121.517 124.393 121.733 124.278 121.733 124.136V111.724C121.733 111.583 121.517 111.468 121.247 111.468H109.284C109.019 111.468 108.799 111.583 108.799 111.724V124.118C108.799 124.278 109.005 124.393 109.284 124.393Z" fill="black"/>
<path d="M109.284 124.393H121.247C121.517 124.393 121.733 124.278 121.733 124.136V111.725C121.733 111.583 121.517 111.468 121.247 111.468H109.284C109.019 111.468 108.799 111.583 108.799 111.725V124.118C108.799 124.278 109.005 124.393 109.284 124.393Z" stroke="#263238" stroke-width="0.576636" stroke-linecap="round" stroke-linejoin="round"/>
<path d="M124.261 124.393H136.224C136.489 124.393 136.709 124.278 136.709 124.136V111.725C136.709 111.583 136.489 111.468 136.224 111.468H124.261C123.991 111.468 123.775 111.583 123.775 111.725V124.118C123.775 124.278 123.991 124.393 124.261 124.393Z" fill="#28C79E" stroke="#263238" stroke-width="0.576636" stroke-linecap="round" stroke-linejoin="round"/>
<path d="M115.05 109.334H127.013C127.283 109.334 127.498 109.219 127.498 109.077V96.6655C127.498 96.5235 127.283 96.409 127.013 96.409H115.05C114.784 96.409 114.564 96.5235 114.564 96.6655V109.077C114.564 109.219 114.784 109.334 115.05 109.334Z" fill="#28C79E" stroke="#263238" stroke-width="0.576636" stroke-linecap="round" stroke-linejoin="round"/>
<path d="M130.026 109.334H141.98C142.246 109.334 142.466 109.219 142.466 109.077V96.6655C142.466 96.5235 142.246 96.409 141.98 96.409H130.026C129.756 96.409 129.541 96.5235 129.541 96.6655V109.077C129.541 109.219 129.756 109.334 130.026 109.334Z" fill="#28C79E" stroke="#263238" stroke-width="0.576636" stroke-linecap="round" stroke-linejoin="round"/>
<path d="M113.896 94.2747H125.859C126.129 94.2747 126.349 94.1602 126.349 94.0183V81.6065C126.349 81.4645 126.129 81.35 125.859 81.35H113.896C113.63 81.35 113.41 81.4645 113.41 81.6065V94.0183C113.41 94.1602 113.63 94.2747 113.896 94.2747Z" fill="#28C79E"/>
<path opacity="0.5" d="M113.896 94.2747H125.859C126.129 94.2747 126.349 94.1602 126.349 94.0183V81.6065C126.349 81.4645 126.129 81.35 125.859 81.35H113.896C113.63 81.35 113.41 81.4645 113.41 81.6065V94.0183C113.41 94.1602 113.63 94.2747 113.896 94.2747Z" fill="white"/>
<path d="M113.896 94.2747H125.859C126.129 94.2747 126.349 94.1602 126.349 94.0183V81.6065C126.349 81.4645 126.129 81.35 125.859 81.35H113.896C113.63 81.35 113.41 81.4645 113.41 81.6065V94.0183C113.41 94.1602 113.63 94.2747 113.896 94.2747Z" stroke="#263238" stroke-width="0.576636" stroke-linecap="round" stroke-linejoin="round"/>
<path d="M128.872 94.2747H140.835C141.105 94.2747 141.321 94.1602 141.321 94.0183V81.6065C141.321 81.4645 141.105 81.35 140.835 81.35H128.872C128.602 81.35 128.387 81.4645 128.387 81.6065V94.0183C128.387 94.1602 128.602 94.2747 128.872 94.2747Z" fill="#28C79E" stroke="#263238" stroke-width="0.576636" stroke-linecap="round" stroke-linejoin="round"/>
<path d="M113.896 79.234H125.859C126.129 79.234 126.349 79.1195 126.349 78.9776V66.5474C126.349 66.4055 126.129 66.291 125.859 66.291H113.896C113.63 66.291 113.41 66.4055 113.41 66.5474V78.9592C113.41 79.1012 113.63 79.234 113.896 79.234Z" fill="#28C79E" stroke="#263238" stroke-width="0.576636" stroke-linecap="round" stroke-linejoin="round"/>
<path d="M128.872 79.234H140.835C141.105 79.234 141.321 79.1195 141.321 78.9776V66.5474C141.321 66.4055 141.105 66.291 140.835 66.291H128.872C128.602 66.291 128.387 66.4055 128.387 66.5474V78.9592C128.387 79.1012 128.602 79.234 128.872 79.234Z" fill="#28C79E"/>
<path opacity="0.7" d="M128.872 79.2341H140.835C141.105 79.2341 141.321 79.1196 141.321 78.9776V66.5475C141.321 66.4055 141.105 66.291 140.835 66.291H128.872C128.602 66.291 128.387 66.4055 128.387 66.5475V78.9593C128.387 79.1013 128.602 79.2341 128.872 79.2341Z" fill="white"/>
<path d="M128.872 79.234H140.835C141.105 79.234 141.321 79.1195 141.321 78.9776V66.5474C141.321 66.4055 141.105 66.291 140.835 66.291H128.872C128.602 66.291 128.387 66.4055 128.387 66.5474V78.9592C128.387 79.1012 128.602 79.234 128.872 79.234Z" stroke="#263238" stroke-width="0.576636" stroke-linecap="round" stroke-linejoin="round"/>
<path d="M222.758 113.126H194.051C193.742 113.128 193.446 113.252 193.228 113.471C193.009 113.689 192.885 113.985 192.883 114.294V131.904C192.883 132.057 192.913 132.209 192.972 132.351C193.03 132.493 193.116 132.621 193.225 132.73C193.333 132.838 193.462 132.924 193.604 132.983C193.745 133.042 193.897 133.072 194.051 133.072H222.758C223.068 133.071 223.364 132.947 223.583 132.728C223.801 132.51 223.925 132.213 223.926 131.904V114.308C223.927 114.153 223.898 114 223.84 113.857C223.782 113.714 223.696 113.584 223.588 113.474C223.479 113.364 223.35 113.277 223.208 113.217C223.065 113.158 222.913 113.127 222.758 113.126Z" fill="#263238" stroke="#263238" stroke-width="0.576636" stroke-linecap="round" stroke-linejoin="round"/>
<path d="M220.825 112.567H192.117C191.808 112.567 191.512 112.69 191.293 112.908C191.074 113.126 190.95 113.422 190.949 113.731V117.248H221.992V113.731C221.991 113.422 221.868 113.126 221.649 112.908C221.43 112.69 221.134 112.567 220.825 112.567Z" fill="#28C79E" stroke="#263238" stroke-width="0.576636" stroke-linecap="round" stroke-linejoin="round"/>
<path d="M218.072 113.987H220.839" stroke="#263238" stroke-width="0.576636" stroke-linecap="round" stroke-linejoin="round"/>
<path d="M218.072 114.908H220.839" stroke="#263238" stroke-width="0.576636" stroke-linecap="round" stroke-linejoin="round"/>
<path d="M220.839 115.828H218.072" stroke="#263238" stroke-width="0.576636" stroke-linecap="round" stroke-linejoin="round"/>
<path d="M206.471 117.248L205.756 114.335C205.632 113.831 205.341 113.382 204.932 113.062C204.523 112.742 204.018 112.567 203.498 112.567H192.117C191.808 112.567 191.512 112.69 191.293 112.908C191.074 113.126 190.95 113.422 190.949 113.731V131.304C190.95 131.613 191.074 131.91 191.293 132.129C191.511 132.347 191.808 132.471 192.117 132.472H220.825C221.134 132.472 221.431 132.349 221.65 132.13C221.869 131.911 221.992 131.614 221.992 131.304V117.248H206.471Z" fill="#999999" stroke="#263238" stroke-width="0.576636" stroke-linecap="round" stroke-linejoin="round"/>
<path d="M221.599 86.5254H192.887C192.695 86.5205 192.504 86.563 192.332 86.6493C192.161 86.7356 192.013 86.8629 191.902 87.0201C191.773 87.2143 191.705 87.4421 191.705 87.675V105.244C191.705 105.553 191.827 105.849 192.046 106.068C192.264 106.287 192.559 106.411 192.868 106.412H221.58C221.889 106.411 222.185 106.287 222.403 106.068C222.621 105.849 222.744 105.553 222.744 105.244V87.6933C222.744 87.3875 222.624 87.0939 222.41 86.8755C222.196 86.6571 221.904 86.5314 221.599 86.5254Z" fill="#263238" stroke="#263238" stroke-width="0.576636" stroke-linecap="round" stroke-linejoin="round"/>
<path d="M220.825 85.6827H192.117C191.808 85.6827 191.512 85.8052 191.293 86.0232C191.074 86.2412 190.95 86.5371 190.949 86.8461V90.3635H221.992V86.8461C221.991 86.5371 221.868 86.2412 221.649 86.0232C221.43 85.8052 221.134 85.6827 220.825 85.6827Z" fill="#28C79E" stroke="#263238" stroke-width="0.576636" stroke-linecap="round" stroke-linejoin="round"/>
<path d="M218.072 87.1025H220.839" stroke="#263238" stroke-width="0.576636" stroke-linecap="round" stroke-linejoin="round"/>
<path d="M218.072 88.0231H220.839" stroke="#263238" stroke-width="0.576636" stroke-linecap="round" stroke-linejoin="round"/>
<path d="M220.839 88.9437H218.072" stroke="#263238" stroke-width="0.576636" stroke-linecap="round" stroke-linejoin="round"/>
<path d="M206.471 90.3635L205.756 87.4506C205.632 86.9461 205.341 86.4979 204.932 86.1774C204.523 85.857 204.018 85.6829 203.498 85.6827H192.117C191.808 85.6827 191.512 85.8052 191.293 86.0232C191.074 86.2412 190.95 86.5371 190.949 86.8461V104.424C190.949 104.734 191.072 105.031 191.291 105.25C191.51 105.469 191.807 105.592 192.117 105.592H220.825C221.134 105.592 221.431 105.469 221.65 105.25C221.869 105.031 221.992 104.734 221.992 104.424V90.3635H206.471Z" fill="#999999" stroke="#263238" stroke-width="0.576636" stroke-linecap="round" stroke-linejoin="round"/>
<path d="M113.196 139.827H125.159C125.43 139.827 125.645 139.713 125.645 139.571V127.159C125.645 127.017 125.43 126.903 125.159 126.903H113.196C112.931 126.903 112.711 127.017 112.711 127.159V139.571C112.711 139.713 112.931 139.827 113.196 139.827Z" fill="#28C79E" stroke="#263238" stroke-width="0.576636" stroke-linecap="round" stroke-linejoin="round"/>
<path d="M205.308 128.048H176.596C176.286 128.048 175.989 128.171 175.77 128.39C175.551 128.609 175.428 128.906 175.428 129.216V132.728H206.471V129.216C206.471 128.907 206.349 128.61 206.131 128.391C205.912 128.172 205.617 128.049 205.308 128.048Z" fill="#28C79E" stroke="#263238" stroke-width="0.576636" stroke-linecap="round" stroke-linejoin="round"/>
<path d="M202.551 129.467H205.317" stroke="#263238" stroke-width="0.576636" stroke-linecap="round" stroke-linejoin="round"/>
<path d="M202.551 130.388H205.317" stroke="#263238" stroke-width="0.576636" stroke-linecap="round" stroke-linejoin="round"/>
<path d="M205.317 131.309H202.551" stroke="#263238" stroke-width="0.576636" stroke-linecap="round" stroke-linejoin="round"/>
<path d="M190.949 132.728L190.235 129.816C190.11 129.311 189.82 128.863 189.411 128.542C189.001 128.222 188.497 128.048 187.977 128.048H176.596C176.286 128.048 175.989 128.171 175.77 128.39C175.551 128.609 175.428 128.906 175.428 129.216V146.784C175.428 147.094 175.551 147.391 175.77 147.61C175.989 147.829 176.286 147.952 176.596 147.952H205.308C205.617 147.951 205.912 147.828 206.131 147.609C206.349 147.39 206.471 147.093 206.471 146.784V132.728H190.949Z" fill="#999999" stroke="#263238" stroke-width="0.576636" stroke-linecap="round" stroke-linejoin="round"/>
<path d="M226.459 46.5008H228.621" stroke="#263238" stroke-width="0.576636" stroke-linecap="round" stroke-linejoin="round"/>
<path d="M218.072 46.5008H223.926" stroke="#263238" stroke-width="0.576636" stroke-linecap="round" stroke-linejoin="round"/>
<path d="M155.107 46.5008H212.962" stroke="#263238" stroke-width="0.576636" stroke-linecap="round" stroke-linejoin="round"/>
<path d="M148.57 46.5008H152.028" stroke="#263238" stroke-width="0.576636" stroke-linecap="round" stroke-linejoin="round"/>
<path d="M181.232 116.698C181.269 116.24 181.291 115.782 181.291 115.324C181.291 114.866 181.269 114.408 181.232 113.95L176.972 113.401C176.748 111.783 176.241 110.217 175.475 108.775L178.621 105.798C178.132 105.008 177.584 104.256 176.982 103.549L173.208 105.606C172.074 104.431 170.744 103.462 169.278 102.743L170.07 98.5203C169.212 98.1665 168.327 97.8801 167.423 97.6639L165.591 101.548C163.984 101.261 162.339 101.261 160.732 101.548L158.9 97.6639C157.996 97.8801 157.111 98.1665 156.253 98.5203L157.045 102.743C155.579 103.462 154.249 104.431 153.115 105.606L149.309 103.54C148.702 104.249 148.151 105.004 147.661 105.798L150.784 108.747C150.014 110.189 149.505 111.755 149.282 113.373L145.022 113.923C144.986 114.381 144.963 114.839 144.963 115.297C144.963 115.755 144.986 116.213 145.022 116.671L149.282 117.225C149.506 118.842 150.015 120.407 150.784 121.846L147.661 124.8C148.147 125.591 148.693 126.343 149.296 127.049L153.069 124.988C154.202 126.164 155.532 127.133 156.999 127.851L156.207 132.073C157.065 132.429 157.951 132.717 158.854 132.934L160.686 129.046C162.293 129.333 163.938 129.333 165.545 129.046L167.377 132.934C168.281 132.717 169.166 132.429 170.025 132.073L169.232 127.851C170.699 127.133 172.029 126.164 173.162 124.988L176.936 127.049C177.538 126.342 178.086 125.59 178.576 124.8L175.452 121.846C176.223 120.414 176.738 118.858 176.972 117.248L181.232 116.698ZM163.127 104.928C164.718 104.931 166.286 105.3 167.711 106.007C169.136 106.713 170.379 107.739 171.344 109.004L164.666 112.086C164.185 111.857 163.66 111.738 163.127 111.738C162.595 111.738 162.069 111.857 161.588 112.086L154.911 109.004C155.876 107.74 157.119 106.714 158.543 106.008C159.968 105.301 161.537 104.931 163.127 104.928ZM152.749 115.306C152.749 113.967 153.008 112.64 153.514 111.399L159.555 115.659C159.605 116.171 159.766 116.667 160.025 117.112C160.284 117.557 160.636 117.94 161.057 118.237L161.726 125.565C159.242 125.229 156.965 124.004 155.314 122.118C153.664 120.232 152.753 117.812 152.749 115.306ZM164.529 125.579L165.197 118.251C165.619 117.955 165.972 117.571 166.231 117.126C166.49 116.681 166.65 116.185 166.7 115.672L172.741 111.413C173.34 112.879 173.596 114.463 173.489 116.043C173.381 117.623 172.913 119.157 172.12 120.528C171.327 121.899 170.231 123.07 168.915 123.951C167.599 124.832 166.098 125.4 164.529 125.611V125.579Z" fill="#263238" stroke="#263238" stroke-width="0.576636" stroke-linecap="round" stroke-linejoin="round"/>
<path d="M164.64 115.306C164.641 115.605 164.553 115.898 164.387 116.147C164.222 116.396 163.986 116.591 163.71 116.706C163.434 116.821 163.13 116.851 162.837 116.794C162.543 116.736 162.273 116.592 162.061 116.381C161.85 116.17 161.705 115.9 161.647 115.607C161.588 115.314 161.618 115.01 161.732 114.733C161.846 114.457 162.04 114.221 162.288 114.054C162.537 113.888 162.829 113.799 163.129 113.799C163.529 113.799 163.912 113.958 164.196 114.24C164.479 114.523 164.639 114.906 164.64 115.306Z" fill="white" stroke="#263238" stroke-width="0.576636" stroke-linecap="round" stroke-linejoin="round"/>
<path d="M181.174 85.3849C181.202 85.0551 181.215 84.7254 181.215 84.3865C181.215 84.0475 181.215 83.7224 181.174 83.3926L178.129 82.9987C177.969 81.8419 177.606 80.7225 177.057 79.692L179.292 77.5806C178.942 77.0158 178.55 76.4784 178.119 75.973L175.417 77.4478C174.607 76.6056 173.655 75.9125 172.605 75.4005L173.173 72.3777C172.563 72.1281 171.935 71.9245 171.295 71.7686L169.976 74.544C168.827 74.3364 167.649 74.3364 166.5 74.544L165.185 71.7686C164.536 71.9182 163.899 72.1172 163.28 72.364L163.848 75.3868C162.799 75.8989 161.849 76.5919 161.041 77.434L158.343 75.9593C157.911 76.4635 157.518 77.001 157.17 77.5668L159.387 79.692C158.84 80.7233 158.477 81.8424 158.315 82.9987L155.27 83.3926C155.247 83.7224 155.229 84.0521 155.229 84.3865C155.229 84.7208 155.229 85.0551 155.27 85.3849L158.315 85.7788C158.477 86.9351 158.84 88.0542 159.387 89.0855L157.157 91.1969C157.506 91.7605 157.898 92.2964 158.329 92.7999L161.027 91.3297C161.837 92.1691 162.787 92.8617 163.834 93.377L163.266 96.3952C163.881 96.6497 164.515 96.8549 165.163 97.0089L166.477 94.2335C167.627 94.4348 168.803 94.4348 169.953 94.2335L171.272 97.0089C171.918 96.8542 172.55 96.649 173.164 96.3952L172.596 93.377C173.644 92.8618 174.596 92.1692 175.408 91.3297L178.106 92.7999C178.535 92.2952 178.927 91.7594 179.278 91.1969L177.043 89.0855C177.592 88.055 177.955 86.9356 178.115 85.7788L181.174 85.3849ZM168.231 76.9669C169.367 76.9673 170.487 77.229 171.505 77.7317C172.523 78.2345 173.412 78.9647 174.103 79.866L169.33 82.069C168.987 81.906 168.611 81.8215 168.231 81.8215C167.851 81.8215 167.475 81.906 167.132 82.069L162.355 79.866C163.046 78.9644 163.936 78.2339 164.955 77.7312C165.974 77.2285 167.095 76.967 168.231 76.9669ZM160.807 84.3865C160.807 83.4283 160.994 82.4794 161.357 81.5927L165.675 84.6384C165.712 85.0032 165.828 85.3558 166.013 85.672C166.199 85.9882 166.451 86.2605 166.752 86.4704L167.21 91.719C165.438 91.4739 163.814 90.5969 162.638 89.2496C161.461 87.9022 160.811 86.1752 160.807 84.3865ZM169.23 91.7145L169.71 86.4658C170.01 86.2546 170.261 85.9819 170.446 85.666C170.632 85.3501 170.748 84.9982 170.787 84.6338L175.101 81.5881C175.529 82.6354 175.711 83.7669 175.633 84.8955C175.556 86.0242 175.221 87.1201 174.654 88.0991C174.087 89.0782 173.303 89.9143 172.363 90.5434C171.423 91.1725 170.351 91.5778 169.23 91.7282V91.7145Z" fill="#757575" stroke="#263238" stroke-width="0.576636" stroke-linecap="round" stroke-linejoin="round"/>
<path d="M168.231 85.4673C168.828 85.4673 169.312 84.9834 169.312 84.3864C169.312 83.7895 168.828 83.3055 168.231 83.3055C167.634 83.3055 167.15 83.7895 167.15 84.3864C167.15 84.9834 167.634 85.4673 168.231 85.4673Z" fill="white" stroke="#263238" stroke-width="0.576636" stroke-linecap="round" stroke-linejoin="round"/>
<path d="M147.969 128.803C147.969 128.583 148.001 128.345 148.001 128.144C148.001 127.942 148.001 127.686 147.969 127.48L145.94 127.214C145.834 126.443 145.592 125.697 145.225 125.011L146.714 123.605C146.482 123.228 146.222 122.87 145.935 122.533L144.135 123.513C143.595 122.951 142.961 122.486 142.262 122.139L142.637 120.129C142.229 119.958 141.808 119.82 141.378 119.717L140.499 121.549C140.116 121.478 139.728 121.443 139.34 121.443C138.951 121.444 138.563 121.479 138.181 121.549L137.306 119.717C136.875 119.821 136.452 119.959 136.042 120.129L136.422 122.139C135.722 122.485 135.089 122.95 134.549 123.513L132.749 122.533C132.461 122.869 132.201 123.227 131.971 123.605L133.459 125.011C133.091 125.697 132.847 126.443 132.74 127.214L130.711 127.48C130.711 127.7 130.684 127.938 130.684 128.144C130.684 128.35 130.684 128.602 130.711 128.803L132.74 129.069C132.847 129.84 133.091 130.586 133.459 131.272L131.966 132.678C132.199 133.055 132.461 133.413 132.749 133.75L134.549 132.77C135.087 133.335 135.721 133.8 136.422 134.144L136.042 136.154C136.452 136.324 136.875 136.462 137.306 136.566L138.181 134.712C138.563 134.781 138.951 134.817 139.34 134.817C139.728 134.817 140.116 134.782 140.499 134.712L141.378 136.566C141.808 136.463 142.229 136.325 142.637 136.154L142.262 134.144C142.962 133.799 143.596 133.334 144.135 132.77L145.935 133.75C146.222 133.413 146.482 133.055 146.714 132.678L145.225 131.272C145.592 130.586 145.834 129.84 145.94 129.069L147.969 128.803ZM139.34 123.202C140.097 123.202 140.844 123.376 141.524 123.711C142.203 124.046 142.795 124.533 143.256 125.135L140.073 126.605C139.844 126.496 139.593 126.439 139.34 126.44C139.086 126.44 138.836 126.497 138.607 126.605L135.424 125.135C135.885 124.534 136.478 124.047 137.157 123.712C137.836 123.377 138.583 123.203 139.34 123.202ZM134.393 128.153C134.394 127.514 134.518 126.881 134.76 126.289L137.636 128.318C137.661 128.563 137.738 128.799 137.862 129.012C137.986 129.224 138.154 129.408 138.355 129.55L138.676 133.049C137.489 132.888 136.401 132.302 135.614 131.4C134.826 130.498 134.393 129.341 134.393 128.144V128.153ZM140.008 133.049L140.329 129.55C140.529 129.408 140.697 129.224 140.82 129.011C140.943 128.799 141.02 128.562 141.044 128.318L143.924 126.289C144.208 126.987 144.328 127.741 144.275 128.493C144.222 129.245 143.999 129.975 143.621 130.627C143.243 131.279 142.721 131.837 142.095 132.256C141.469 132.676 140.755 132.947 140.008 133.049Z" fill="white" stroke="#263238" stroke-width="0.576636" stroke-linecap="round" stroke-linejoin="round"/>
<path d="M140.059 128.144C140.059 128.286 140.017 128.425 139.938 128.543C139.859 128.662 139.747 128.754 139.615 128.808C139.484 128.863 139.339 128.877 139.2 128.849C139.06 128.821 138.932 128.753 138.832 128.652C138.731 128.552 138.663 128.424 138.635 128.284C138.607 128.145 138.621 128 138.676 127.869C138.73 127.737 138.822 127.625 138.941 127.546C139.059 127.467 139.198 127.425 139.34 127.425C139.531 127.425 139.714 127.5 139.849 127.635C139.983 127.77 140.059 127.953 140.059 128.144V128.144Z" stroke="#263238" stroke-width="0.576636" stroke-linecap="round" stroke-linejoin="round"/>
<path d="M85.1158 132.252L106.39 130.493L95.2971 174.599L78.5114 200.934L71.7422 197.398C71.7422 197.398 79.6289 177.997 85.3952 170.884C85.3952 170.884 86.6226 156.801 87.7401 149.427C87.7401 149.427 85.6471 139.127 85.1158 132.252Z" fill="#858585"/>
<path d="M99.8941 131.029L90.6838 131.79C90.6838 131.79 89.951 141.33 97.0133 148.589L100.302 154.685L103.576 141.66L99.8941 131.029Z" fill="#263238" stroke="#263238" stroke-width="0.576636" stroke-linecap="round" stroke-linejoin="round"/>
<path d="M85.1158 132.252L106.39 130.493L95.2971 174.599L78.5114 200.934L71.7422 197.398C71.7422 197.398 79.6289 177.997 85.3952 170.884C85.3952 170.884 86.6226 156.801 87.7401 149.427C87.7401 149.427 85.6471 139.127 85.1158 132.252Z" stroke="#263238" stroke-width="0.576636" stroke-linecap="round" stroke-linejoin="round"/>
<path d="M85.189 174.063C84.7908 174.281 84.4254 174.554 84.1035 174.874" stroke="#263238" stroke-width="0.576636" stroke-linecap="round" stroke-linejoin="round"/>
<path d="M86.8376 170.692C86.8376 170.692 90.9871 169.968 91.8435 172.854C92.5168 175.112 89.494 172.987 86.5078 173.596" stroke="#263238" stroke-width="0.576636" stroke-linecap="round" stroke-linejoin="round"/>
<path d="M91.8477 132.22L108.849 129.752L119.941 164.624L129.221 196.024L121.59 199.001C121.59 199.001 112.604 179.573 110.534 168.988C110.534 168.988 102.24 154.864 99.2948 148.081C96.9579 146.152 95.0778 143.729 93.7901 140.987C92.5023 138.244 91.8389 135.25 91.8477 132.22Z" fill="#999999" stroke="#263238" stroke-width="0.576636" stroke-linecap="round" stroke-linejoin="round"/>
<path d="M107.555 147.801C108.297 147.885 109.006 148.156 109.616 148.589" stroke="#263238" stroke-width="0.576636" stroke-linecap="round" stroke-linejoin="round"/>
<path d="M105.964 143.78C104.736 144.82 99.8127 145.232 100.967 147.243C101.654 148.438 103.568 147.934 105.616 147.783" stroke="#263238" stroke-width="0.576636" stroke-linecap="round" stroke-linejoin="round"/>
<path d="M111.67 168.242C111.67 168.242 114.18 166.653 116.2 168.242" stroke="#263238" stroke-width="0.576636" stroke-linecap="round" stroke-linejoin="round"/>
<path d="M80.6871 211.33L66.0586 203.041L66.4616 202.083L67.0433 202.257C67.0433 202.257 67.9914 200.883 70.3455 198.007C71.0003 195.964 71.9791 194.038 73.2446 192.305C73.2446 192.305 82.5283 195.25 81.0306 198.749L79.0475 202.207C79.9549 203.742 80.9488 205.223 82.0245 206.645C82.0245 206.645 84.2046 208.047 84.7725 208.166C85.0313 208.204 85.2789 208.298 85.4986 208.44C85.7183 208.582 85.9049 208.77 86.0459 208.99C86.187 209.211 86.2792 209.459 86.3162 209.718C86.3533 209.977 86.3345 210.241 86.261 210.492L86.8243 210.611L86.4671 211.61L80.6871 211.33Z" fill="#28C79E" stroke="#263238" stroke-width="0.576636" stroke-linecap="round" stroke-linejoin="round"/>
<path d="M76.4869 193.601C75.4299 193.104 74.344 192.672 73.2351 192.305C71.9696 194.038 70.9907 195.964 70.3359 198.007C74.2518 200.435 76.4869 193.601 76.4869 193.601Z" fill="#28C79E"/>
<path opacity="0.5" d="M76.4869 193.601C75.4299 193.105 74.344 192.672 73.2351 192.305C71.9696 194.038 70.9907 195.964 70.3359 198.007C74.2518 200.435 76.4869 193.601 76.4869 193.601Z" fill="black"/>
<path d="M76.4869 193.601C75.4299 193.104 74.344 192.672 73.2351 192.305C71.9696 194.038 70.9907 195.964 70.3359 198.007C74.2518 200.435 76.4869 193.601 76.4869 193.601Z" stroke="#263238" stroke-width="0.576636" stroke-linecap="round" stroke-linejoin="round"/>
<path d="M79.5615 202.99C79.3253 203.336 79.0004 203.612 78.6209 203.79C78.2414 203.967 77.8212 204.039 77.4043 203.998" stroke="#263238" stroke-width="0.576636" stroke-linecap="round" stroke-linejoin="round"/>
<path d="M80.3897 204.236C80.3897 204.236 80.1745 205.239 78.6035 205.679" stroke="#263238" stroke-width="0.576636" stroke-linecap="round" stroke-linejoin="round"/>
<path d="M81.227 205.491C81.227 205.491 81.5064 206.471 79.8164 207.378" stroke="#263238" stroke-width="0.576636" stroke-linecap="round" stroke-linejoin="round"/>
<path d="M82.3691 210.13L85.2087 210.337" stroke="#263238" stroke-width="0.576636" stroke-linecap="round" stroke-linejoin="round"/>
<path d="M69.7305 203.787L80.7499 210.011L81.7438 208.747" stroke="#263238" stroke-width="0.576636" stroke-linecap="round" stroke-linejoin="round"/>
<path d="M68.0508 202.839L68.8111 203.27" stroke="#263238" stroke-width="0.576636" stroke-linecap="round" stroke-linejoin="round"/>
<path d="M120.381 197.907C120.381 197.907 128.625 192.74 130.347 196.134L131.693 199.885C131.693 199.885 138.325 200.893 140.345 200.458C140.596 200.39 140.858 200.377 141.114 200.418C141.371 200.46 141.615 200.556 141.832 200.699C142.048 200.843 142.232 201.03 142.371 201.25C142.509 201.47 142.599 201.716 142.635 201.974L143.198 201.854L143.281 202.912L123.894 210.337L123.436 209.421L123.944 209.091C123.944 209.091 123.527 207.488 122.845 203.819C121.711 201.994 120.879 199.997 120.381 197.907Z" fill="#28C79E" stroke="#263238" stroke-width="0.576636" stroke-linecap="round" stroke-linejoin="round"/>
<path d="M123.472 196.271C122.41 196.754 121.378 197.3 120.381 197.907C120.882 199.994 121.715 201.988 122.849 203.81C127.228 202.404 123.472 196.271 123.472 196.271Z" fill="#28C79E"/>
<path opacity="0.5" d="M123.472 196.271C122.41 196.754 121.378 197.3 120.381 197.907C120.882 199.994 121.715 201.988 122.849 203.81C127.228 202.404 123.472 196.271 123.472 196.271Z" fill="black"/>
<path d="M123.472 196.271C122.41 196.754 121.378 197.3 120.381 197.907C120.882 199.994 121.715 201.988 122.849 203.81C127.228 202.404 123.472 196.271 123.472 196.271Z" stroke="#263238" stroke-width="0.576636" stroke-linecap="round" stroke-linejoin="round"/>
<path d="M140.955 202.656L141.862 202.308" stroke="#263238" stroke-width="0.576636" stroke-linecap="round" stroke-linejoin="round"/>
<path d="M128.553 207.401L139.806 203.096" stroke="#263238" stroke-width="0.576636" stroke-linecap="round" stroke-linejoin="round"/>
<path d="M124.742 208.857L126.35 208.244" stroke="#263238" stroke-width="0.576636" stroke-linecap="round" stroke-linejoin="round"/>
<path d="M132.614 200.013C132.724 200.417 132.723 200.842 132.612 201.245C132.501 201.648 132.283 202.013 131.982 202.303" stroke="#263238" stroke-width="0.576636" stroke-linecap="round" stroke-linejoin="round"/>
<path d="M134.1 200.187C134.1 200.187 134.723 201.003 134.045 202.477" stroke="#263238" stroke-width="0.576636" stroke-linecap="round" stroke-linejoin="round"/>
<path d="M135.602 200.361C135.602 200.361 136.518 200.783 136.124 202.651" stroke="#263238" stroke-width="0.576636" stroke-linecap="round" stroke-linejoin="round"/>
<path d="M80.0154 84.9637C78.3436 86.9164 77.2465 89.2946 76.846 91.8337C76.1269 96.1573 72.724 105.377 73.8186 106.064C74.9132 106.751 85.2091 114.308 85.2091 114.308L89.725 110.126L83.313 101.956L86.4915 88.069L80.0154 84.9637Z" fill="#28C79E"/>
<path opacity="0.3" d="M80.0134 84.9637C78.3417 86.9163 77.2445 89.2946 76.8441 91.8337C76.125 96.1572 72.7221 105.377 73.8167 106.064C74.9113 106.751 85.2071 114.308 85.2071 114.308L89.723 110.126L83.311 101.955L86.4895 88.0689L80.0134 84.9637Z" fill="black"/>
<path d="M80.0154 84.9637C78.3436 86.9164 77.2465 89.2946 76.846 91.8337C76.1269 96.1573 72.724 105.377 73.8186 106.064C74.9132 106.751 85.2091 114.308 85.2091 114.308L89.725 110.126L83.313 101.956L86.4915 88.069L80.0154 84.9637Z" stroke="#263238" stroke-width="0.576636" stroke-linecap="round" stroke-linejoin="round"/>
<path d="M75.668 104.246C76.3583 103.588 77.2138 103.13 78.1435 102.92C79.0732 102.709 80.0426 102.754 80.9487 103.05" stroke="#263238" stroke-width="0.576636" stroke-linecap="round" stroke-linejoin="round"/>
<path d="M66.2372 124.828C67.4789 125.993 69.0078 126.808 70.6676 127.189C72.3273 127.57 74.0584 127.504 75.6841 126.996C77.3097 126.489 78.7715 125.559 79.92 124.302C81.0686 123.045 81.8628 121.505 82.2214 119.84L156.372 94.252C157.681 95.3414 159.255 96.0637 160.935 96.3451C162.614 96.6266 164.339 96.457 165.931 95.8538C167.524 95.2506 168.928 94.2354 169.999 92.9119C171.071 91.5884 171.772 90.0041 172.031 88.3209V87.1667L164.881 89.6353L161.144 86.3881L161.945 82.2661L169.095 79.8021V78.6479C167.853 77.4814 166.324 76.6655 164.664 76.2839C163.003 75.9023 161.271 75.9685 159.645 76.4759C158.019 76.9832 156.556 77.9134 155.407 79.1714C154.258 80.4294 153.464 81.9699 153.106 83.6355L78.9559 109.224C77.647 108.135 76.0722 107.412 74.3927 107.131C72.7131 106.849 70.989 107.019 69.3964 107.622C67.8038 108.225 66.4 109.241 65.3283 110.564C64.2567 111.888 63.5556 113.472 63.2969 115.155V116.332L70.4463 113.864L74.1835 117.106L73.3866 121.228L66.2372 123.66V124.828Z" fill="#CBF2D6" stroke="#263238" stroke-width="0.576636" stroke-linecap="round" stroke-linejoin="round"/>
<path d="M160.956 86.2232L161.945 81.1211L169.095 78.6525C167.853 77.4859 166.324 76.6701 164.664 76.2885C163.003 75.9069 161.271 75.9731 159.645 76.4804C158.019 76.9878 156.556 77.918 155.407 79.176C154.258 80.4339 153.464 81.9745 153.106 83.6401L78.9559 109.229C77.647 108.139 76.0722 107.417 74.3927 107.135C72.7131 106.854 70.989 107.024 69.3964 107.627C67.8038 108.23 66.4 109.245 65.3283 110.569C64.2567 111.892 63.5556 113.476 63.2969 115.16L70.4463 112.696L74.3759 116.103L73.3866 121.21L66.2372 123.66C67.4789 124.826 69.0078 125.64 70.6676 126.021C72.3273 126.402 74.0584 126.336 75.6841 125.828C77.3097 125.321 78.7715 124.391 79.92 123.134C81.0686 121.877 81.8628 120.337 82.2214 118.673L156.372 93.0841C157.682 94.1738 159.259 94.8958 160.94 95.176C162.621 95.4562 164.346 95.2847 165.94 94.679C167.533 94.0732 168.936 93.055 170.006 91.7286C171.077 90.4022 171.775 88.8152 172.031 87.1301L164.881 89.6353L160.956 86.2232Z" fill="#858585" stroke="#263238" stroke-width="0.576636" stroke-linecap="round" stroke-linejoin="round"/>
<path d="M104.882 70.2756C104.882 70.2756 103.448 67.4269 103.237 66.3918C103.086 65.659 103.384 64.1293 103.237 63.3965C102.885 61.679 100.489 56.9478 100.489 56.9478C100.392 56.7444 100.243 56.5694 100.059 56.4395L98.6299 58.1661H94.8056L88.9707 65.8788L91.8424 72.8221L90.9996 73.8205C91.5172 74.3289 91.8424 74.622 91.8424 74.622L90.9996 79.66L99.2436 80.4936L99.4589 77.2876H101.964C102.301 77.2864 102.625 77.1519 102.863 76.9134C103.102 76.6748 103.236 76.3517 103.237 76.0144V71.6496L104.387 71.3244C104.493 71.2951 104.592 71.2432 104.676 71.1723C104.76 71.1014 104.828 71.0131 104.875 70.9135C104.922 70.8139 104.947 70.7054 104.948 70.5953C104.949 70.4852 104.926 70.3762 104.882 70.2756Z" fill="white" stroke="#263238" stroke-width="0.576636" stroke-linecap="round" stroke-linejoin="round"/>
<path d="M91.8445 74.6083L93.2459 71.8603C93.2459 71.8603 90.2231 70.784 90.8506 68.0818C91.4781 65.3796 94.0016 67.6741 94.0016 67.6741H94.8077L95.5222 64.5506C95.5222 64.5506 97.2763 62.6682 97.1527 62.0087C97.0579 61.5294 96.9325 61.0567 96.7771 60.5935C96.7771 60.5935 102.447 59.7278 101.71 56.3936C100.972 53.0594 93.365 54.3235 93.365 54.3235C93.365 54.3235 91.1208 50.3205 85.3546 58.102C85.3546 58.102 81.1502 60.5019 84.2233 65.5399C86.3617 68.8789 88.9234 71.927 91.8445 74.6083Z" fill="#263238" stroke="#263238" stroke-width="0.576636" stroke-linecap="round" stroke-linejoin="round"/>
<path d="M94.8076 61.4912C94.8076 61.4912 90.4016 70.2848 86.6506 70.9352L85.4277 69.2772C85.4277 69.2772 85.643 67.8712 88.02 67.6742C88.02 67.6742 90.2642 66.6849 92.9206 62.0088L94.8076 61.4912Z" fill="#858585" stroke="#263238" stroke-width="0.576636" stroke-linecap="round" stroke-linejoin="round"/>
<path d="M99.2305 70.9352C99.5381 71.2762 99.9238 71.5377 100.354 71.6972C100.785 71.8567 101.248 71.9095 101.704 71.8512" stroke="#263238" stroke-width="0.576636" stroke-linecap="round" stroke-linejoin="round"/>
<path d="M101.703 65.5399C101.703 65.9292 101.552 66.2498 101.369 66.2498C101.186 66.2498 101.039 65.9292 101.039 65.5399C101.039 65.1506 101.19 64.83 101.369 64.83C101.547 64.83 101.703 65.146 101.703 65.5399Z" fill="#263238"/>
<path d="M101.703 62.8469C101.246 62.7471 100.769 62.8124 100.355 63.0313C99.9421 63.2501 99.6197 63.6083 99.4453 64.0422" stroke="#263238" stroke-width="0.576636" stroke-linecap="round" stroke-linejoin="round"/>
<path d="M85.341 67.8253C85.2639 67.9281 85.1619 68.0097 85.0447 68.0624C84.9275 68.1151 84.7988 68.1372 84.6707 68.1267C84.5427 68.1161 84.4193 68.0733 84.3123 68.0022C84.2052 67.9311 84.118 67.834 84.0586 67.72C82.6022 64.9308 79.616 57.4379 87.6264 53.7373C97.1483 49.3405 102.25 55.3311 102.25 55.3311L104.783 55.6013L105.456 56.7784L86.4036 66.4101L85.341 67.8253Z" fill="#28C79E" stroke="#263238" stroke-width="0.576636" stroke-linecap="round" stroke-linejoin="round"/>
<path d="M87.5518 81.0249C87.9532 80.2227 88.5639 79.5439 89.3193 79.0602C90.0747 78.5765 90.9467 78.3058 91.8432 78.2769C95.008 78.1303 99.8674 78.5654 101.113 81.5928C101.113 81.5928 107.942 83.5668 109.517 88.417C111.093 93.2672 108.849 115.613 108.849 115.613C108.849 115.613 110.864 124.553 109.614 130.512C109.614 130.512 102.698 132.884 83.9656 133.26C83.9656 133.26 82.5916 121.686 83.3748 117.578C83.3748 117.578 77.9109 88.6826 80.0223 84.9316C82.1336 81.1806 87.5518 81.0249 87.5518 81.0249Z" fill="#263238" stroke="#263238" stroke-width="0.576636" stroke-miterlimit="10"/>
<path d="M91.1147 102.739C85.5225 102.611 82.6188 103.989 81.2402 105.029C81.515 106.861 81.7944 108.61 82.0601 110.2C82.9211 109.485 85.1882 108.693 90.9727 108.578C97.1616 108.471 103.33 109.325 109.256 111.111C109.384 109.558 109.526 107.713 109.655 105.748C106.526 104.914 98.1221 102.894 91.1147 102.739Z" fill="#28C79E" stroke="#263238" stroke-width="0.576636" stroke-linecap="round" stroke-linejoin="round"/>
<path d="M108.849 115.622C108.849 115.622 108.89 115.196 108.959 114.45C106.339 113.795 98.9608 112.114 91.8847 111.954C86.0773 111.821 83.6682 113.067 82.6973 113.923C83.0957 116.186 83.3659 117.61 83.3659 117.61C83.311 117.889 83.2698 118.205 83.2331 118.526C84.3323 117.894 86.7002 117.28 91.7428 117.179C97.7614 117.079 103.761 117.883 109.541 119.566C109.215 117.248 108.849 115.622 108.849 115.622Z" fill="#28C79E" stroke="#263238" stroke-width="0.576636" stroke-linecap="round" stroke-linejoin="round"/>
<path d="M98.0137 81.176C98.4076 81.2722 98.806 81.3821 99.2136 81.5058" stroke="#7F7F7F" stroke-width="0.432475" stroke-linecap="round" stroke-linejoin="round"/>
<path d="M89.7227 80.6402C92.0703 80.3335 94.4527 80.4218 96.7713 80.9012" stroke="#7F7F7F" stroke-width="0.432475" stroke-linecap="round" stroke-linejoin="round"/>
<path d="M103.3 99.3862C103.005 95.2359 103.804 91.0809 105.618 87.3362C108.659 80.9242 111.114 93.8306 111.114 93.8306C111.114 93.8306 114.599 99.3266 115.437 103.256C115.437 103.256 118.428 100.348 130.689 99.3862L132.127 104.543C132.127 104.543 115.231 112.842 111.672 112.21C109.039 111.78 103.3 99.3862 103.3 99.3862Z" fill="#28C79E" stroke="#263238" stroke-width="0.576636" stroke-linecap="round" stroke-linejoin="round"/>
<path d="M109.354 101.218C109.349 101.731 109.392 102.243 109.482 102.748" stroke="#263238" stroke-width="0.576636" stroke-linecap="round" stroke-linejoin="round"/>
<path d="M106.201 99.3861C106.201 99.3861 108.665 93.9817 109.957 94.3481C110.873 94.6183 109.893 96.7663 109.499 99.3861" stroke="#263238" stroke-width="0.576636" stroke-linecap="round" stroke-linejoin="round"/>
<path d="M129.223 98.8823C129.223 98.8823 131.206 102.326 131.11 105.922L133.514 104.616C133.514 104.616 133.276 100.233 131.595 98.7587L129.223 98.8823Z" fill="#263238" stroke="#263238" stroke-width="0.576636" stroke-linecap="round" stroke-linejoin="round"/>
<path d="M131.109 99.5235L135.039 98.8823C135.345 98.2579 135.822 97.7333 136.415 97.37C137.008 97.0067 137.692 96.8195 138.387 96.8305C139.73 96.8698 141.069 96.665 142.34 96.2259C142.377 96.2106 142.418 96.2049 142.458 96.2094C142.499 96.2139 142.537 96.2284 142.57 96.2516C142.604 96.2749 142.63 96.3061 142.649 96.3424C142.667 96.3787 142.675 96.4189 142.674 96.4595C142.674 97.0182 142.253 98.0854 139.509 98.3327C139.509 98.3327 141.987 99.8395 142.674 99.2487C142.856 99.0718 143.083 98.9487 143.33 98.8929C143.577 98.8372 143.835 98.8509 144.075 98.9327C144.075 98.9327 144.158 100.861 142.793 100.939C142.793 100.939 142.472 102.189 141.419 102.166C141.419 102.166 140.695 103.183 140.137 103.023C139.581 103.14 139.007 103.14 138.451 103.023C137.411 102.844 136.289 102.62 136.289 102.62L132.625 103.765L131.109 99.5235Z" fill="#263238" stroke="#263238" stroke-width="0.576636" stroke-linecap="round" stroke-linejoin="round"/>
<path d="M142.339 99.9861C142.339 99.9861 142.39 100.774 141.812 100.902C141.235 101.03 141.959 101.722 139.98 102.322" stroke="#7F7F7F" stroke-width="0.432475" stroke-linecap="round" stroke-linejoin="round"/>
<path d="M115.477 104.823C115.513 105.873 115.383 106.923 115.092 107.932" stroke="#263238" stroke-width="0.576636" stroke-linecap="round" stroke-linejoin="round"/>
<path d="M133.027 101.571C132.854 100.863 132.586 100.182 132.23 99.5464" stroke="#7F7F7F" stroke-width="0.432475" stroke-linecap="round" stroke-linejoin="round"/>
<path d="M133.31 102.922C133.273 102.702 133.232 102.464 133.182 102.239" stroke="#7F7F7F" stroke-width="0.432475" stroke-linecap="round" stroke-linejoin="round"/>
</svg>
