<svg width="199" height="80" viewBox="0 0 199 80" fill="none" xmlns="http://www.w3.org/2000/svg">
<path d="M90.3668 20.2494C84.4922 20.7482 76.4562 21.9952 71.6623 23.1867C61.2154 25.7638 54.3987 28.9228 50.2698 33.1347C47.9422 35.5455 47 37.513 47 40.0346C47 42.5563 47.9422 44.5791 50.2975 46.9068C56.5047 53.1971 68.8912 57.3537 88.0114 59.6259C92.1403 60.1247 109.653 60.1247 113.782 59.6259C129.826 57.7139 141.132 54.4718 148.143 49.7333C150.554 48.1261 153.076 45.4659 153.99 43.5816C155.126 41.3093 155.126 38.76 153.99 36.4877C153.076 34.5757 150.498 31.8878 148.115 30.2806C140.661 25.265 126.917 21.5518 111.066 20.2494C107.021 19.9169 94.3294 19.9169 90.3668 20.2494ZM97.5438 31.7769C97.2113 32.3588 96.7679 33.0239 96.6017 33.2456C96.4077 33.4673 96.186 33.8552 96.0752 34.0769C95.992 34.2986 95.4655 35.1853 94.9667 36.0166C94.0246 37.5407 94.0246 37.5407 94.5234 38.372C94.8005 38.8154 95.8535 40.6997 96.8788 42.5286C97.904 44.3575 98.9293 46.0755 99.1787 46.3249C99.5667 46.796 99.2896 46.8237 93.886 46.8237C88.7319 46.8237 88.15 46.7683 88.15 46.3526C88.15 46.1032 87.7066 45.0779 87.1247 44.0804C85.2958 40.7828 85.3512 40.7828 85.4344 43.9972L85.5175 46.8237H80.8067H76.0959V38.9262V31.0287H80.7236H85.3512L85.4344 33.6612L85.5175 36.3214L86.4874 34.8805C87.0139 34.1046 87.7343 33.0239 88.0946 32.4974C88.4548 31.9709 88.6765 31.3613 88.5933 31.1396C88.4825 30.8071 89.2307 30.7516 93.3041 30.7516H98.1812L97.5438 31.7769ZM118.354 33.1625V35.601H114.558C111.15 35.601 110.734 35.6564 110.651 36.072C110.568 36.5154 110.845 36.5708 113.616 36.5708H116.692V38.7045V40.8659H113.727C110.817 40.8659 110.734 40.8937 110.651 41.5033L110.54 42.1683L114.447 42.0575L118.354 41.9744V44.3852V46.8237H110.041H101.756L101.673 38.7877L101.59 30.7516H109.986H118.354V33.1625ZM138.528 30.9179C138.361 31.0565 138.915 32.636 140.467 36.7094C140.772 37.4576 141.742 40.0623 142.684 42.4454L144.347 46.8237H139.442H134.537L134.177 45.4382L133.817 44.0526H131.655H129.494L129.051 45.1888C128.801 45.7984 128.663 46.4357 128.746 46.5743C128.857 46.7129 127.249 46.8237 124.755 46.8237C120.848 46.8237 120.571 46.796 120.848 46.3249C121.43 45.2719 125.864 31.4721 125.725 31.1396C125.614 30.8071 126.723 30.7516 132.126 30.7516C135.729 30.7516 138.611 30.8348 138.528 30.9179ZM70.9695 38.9262V46.8237H66.2587H61.548V38.9262V31.0287H66.2587H70.9695V38.9262Z" fill="#8B8B8B"/>
<path d="M131.018 39.2035L130.547 40.1733H131.517C132.431 40.1733 132.459 40.1733 132.154 39.342C131.766 38.1505 131.517 38.1228 131.018 39.2035Z" fill="#ECC115"/>
</svg>
