<svg width="321" height="229" viewBox="0 0 321 229" fill="none" xmlns="http://www.w3.org/2000/svg">
<path d="M274.12 123.381C275.276 107.919 271.669 91.7643 266.814 77.3721C259.606 55.9861 245.619 34.0568 222.054 28.9993C208.465 26.1093 194.639 29.2074 182.992 36.5133C171.785 43.5476 163.051 52.628 149.278 54.3909C135.348 56.1711 121.054 55.4544 107.049 55.4544C71.0454 55.4544 41.8217 93.0244 49.1276 132.161C56.4335 171.297 90.8708 198.428 120.094 198.428C146.353 198.428 167.953 182.782 192.922 178.58C205.292 176.499 217.707 178.961 229.949 175.84C244.174 172.21 257.549 163.552 265.433 151.015C270.773 142.478 273.386 133.062 274.12 123.381Z" fill="#28C79E"/>
<path opacity="0.7" d="M274.12 123.381C275.276 107.919 271.669 91.7643 266.814 77.3721C259.606 55.9861 245.619 34.0568 222.054 28.9993C208.465 26.1093 194.639 29.2074 182.992 36.5133C171.785 43.5476 163.051 52.628 149.278 54.3909C135.348 56.1711 121.054 55.4544 107.049 55.4544C71.0454 55.4544 41.8217 93.0244 49.1276 132.161C56.4335 171.297 90.8708 198.428 120.094 198.428C146.353 198.428 167.953 182.782 192.922 178.58C205.292 176.499 217.707 178.961 229.949 175.84C244.174 172.21 257.549 163.552 265.433 151.015C270.773 142.478 273.386 133.062 274.12 123.381Z" fill="white"/>
<path d="M161.579 211.48C223.683 211.48 274.029 210.077 274.029 208.347C274.029 206.617 223.683 205.214 161.579 205.214C99.4744 205.214 49.1289 206.617 49.1289 208.347C49.1289 210.077 99.4744 211.48 161.579 211.48Z" fill="#2E353A"/>
<path d="M218.543 205.492H208.139V18L218.543 30.0975V205.492Z" stroke="#2E353A" stroke-width="0.578" stroke-linecap="round" stroke-linejoin="round"/>
<path d="M208.238 161.344H218.446L208.238 151.477H218.446L208.238 161.344Z" stroke="#2E353A" stroke-width="0.578" stroke-linecap="round" stroke-linejoin="round"/>
<path d="M208.238 151.229H218.446L208.238 141.363H218.446L208.238 151.229Z" stroke="#2E353A" stroke-width="0.578" stroke-linecap="round" stroke-linejoin="round"/>
<path d="M208.238 181.487H218.446L208.238 171.621H218.446L208.238 181.487Z" stroke="#2E353A" stroke-width="0.578" stroke-linecap="round" stroke-linejoin="round"/>
<path d="M208.238 171.372H218.446L208.238 161.506H218.446L208.238 171.372Z" stroke="#2E353A" stroke-width="0.578" stroke-linecap="round" stroke-linejoin="round"/>
<path d="M208.238 141.114H218.446L208.238 131.248H218.446L208.238 141.114Z" stroke="#2E353A" stroke-width="0.578" stroke-linecap="round" stroke-linejoin="round"/>
<path d="M208.238 130.999H218.446L208.238 121.133H218.446L208.238 130.999Z" stroke="#2E353A" stroke-width="0.578" stroke-linecap="round" stroke-linejoin="round"/>
<path d="M208.238 120.884H218.446L208.238 111.017H218.446L208.238 120.884Z" stroke="#2E353A" stroke-width="0.578" stroke-linecap="round" stroke-linejoin="round"/>
<path d="M208.238 110.769H218.446L208.238 100.902H218.446L208.238 110.769Z" stroke="#2E353A" stroke-width="0.578" stroke-linecap="round" stroke-linejoin="round"/>
<path d="M208.238 100.654H218.446L208.238 90.7876H218.446L208.238 100.654Z" stroke="#2E353A" stroke-width="0.578" stroke-linecap="round" stroke-linejoin="round"/>
<path d="M208.238 90.5389H218.446L208.238 80.6725H218.446L208.238 90.5389Z" stroke="#2E353A" stroke-width="0.578" stroke-linecap="round" stroke-linejoin="round"/>
<path d="M208.238 80.424H218.446L208.238 70.5575H218.446L208.238 80.424Z" stroke="#2E353A" stroke-width="0.578" stroke-linecap="round" stroke-linejoin="round"/>
<path d="M208.238 70.309H218.446L208.238 60.4425H218.446L208.238 70.309Z" stroke="#2E353A" stroke-width="0.578" stroke-linecap="round" stroke-linejoin="round"/>
<path d="M208.238 60.1941H218.446L208.238 50.3276H218.446L208.238 60.1941Z" stroke="#2E353A" stroke-width="0.578" stroke-linecap="round" stroke-linejoin="round"/>
<path d="M208.238 50.079H218.446L208.238 40.2125H218.446L208.238 50.079Z" stroke="#2E353A" stroke-width="0.578" stroke-linecap="round" stroke-linejoin="round"/>
<path d="M208.238 39.964H218.446L208.238 30.0975H218.446L208.238 39.964Z" stroke="#2E353A" stroke-width="0.578" stroke-linecap="round" stroke-linejoin="round"/>
<path d="M266.841 40.2357L261.801 37.0624H225.838L221.445 40.2357H266.841Z" stroke="#2E353A" stroke-width="0.578" stroke-linecap="round" stroke-linejoin="round"/>
<path d="M267.674 39.9639H179.818V42.2759H267.674V39.9639Z" fill="#2E353A" stroke="#2E353A" stroke-width="0.578" stroke-linecap="round" stroke-linejoin="round"/>
<path d="M261.8 37.0624L208.139 18L225.837 37.0624" stroke="#2E353A" stroke-width="0.578" stroke-linecap="round" stroke-linejoin="round"/>
<path d="M208.14 18L179.818 39.964" stroke="#2E353A" stroke-width="0.578" stroke-linecap="round" stroke-linejoin="round"/>
<path d="M226.058 44.8771H204.383V58.7491H226.058V44.8771Z" fill="#2E353A" stroke="#2E353A" stroke-width="0.578" stroke-linecap="round" stroke-linejoin="round"/>
<path d="M226.058 191.897H204.383V205.769H226.058V191.897Z" fill="#2E353A" stroke="#2E353A" stroke-width="0.578" stroke-linecap="round" stroke-linejoin="round"/>
<path d="M221.539 47.767H208.898V51.813H221.539V47.767Z" fill="white" stroke="#2E353A" stroke-width="0.578" stroke-linecap="round" stroke-linejoin="round"/>
<path d="M267.674 42.276V67.1994" stroke="#2E353A" stroke-width="0.578" stroke-linecap="round" stroke-linejoin="round"/>
<path d="M270.974 75.7075H264.553V82.9845H270.974V75.7075Z" fill="#2E353A" stroke="#2E353A" stroke-width="0.578" stroke-linecap="round" stroke-linejoin="round"/>
<path d="M264.553 75.7075L267.761 66.7253L270.974 75.7075" stroke="#2E353A" stroke-width="0.578" stroke-linecap="round" stroke-linejoin="round"/>
<path d="M182.083 190.128V177.274H144.195V190.14C144.189 194.339 142.763 198.413 140.149 201.7L138.49 203.792H187.765L186.1 201.7C183.496 198.405 182.081 194.328 182.083 190.128Z" fill="white" stroke="#2E353A" stroke-width="0.633159" stroke-linecap="round" stroke-linejoin="round"/>
<g style="mix-blend-mode:multiply">
<path d="M141.865 199.139H184.412C182.89 196.38 182.095 193.279 182.1 190.128V177.274H144.195V190.14C144.192 193.288 143.391 196.385 141.865 199.139Z" fill="#28C79E"/>
</g>
<path d="M182.083 179.198H144.195V184.632H182.083V179.198Z" fill="#2E353A" stroke="#2E353A" stroke-width="0.633159" stroke-linecap="round" stroke-linejoin="round"/>
<path d="M233.914 67.1069H92.3677C89.4021 67.1069 86.998 69.511 86.998 72.4766V175.95C86.998 178.916 89.4021 181.32 92.3677 181.32H233.914C236.88 181.32 239.284 178.916 239.284 175.95V72.4766C239.284 69.511 236.88 67.1069 233.914 67.1069Z" fill="#2E353A" stroke="#2E353A" stroke-width="0.633159" stroke-linecap="round" stroke-linejoin="round"/>
<path d="M86.998 163.569H239.284V175.95C239.284 177.374 238.718 178.74 237.711 179.747C236.704 180.754 235.338 181.32 233.914 181.32H92.3966C90.9725 181.32 89.6067 180.754 88.5997 179.747C87.5927 178.74 87.0269 177.374 87.0269 175.95V163.569H86.998Z" fill="white" stroke="#2E353A" stroke-width="0.633159" stroke-linecap="round" stroke-linejoin="round"/>
<path d="M231.619 74.2164H94.6562V154.905H231.619V74.2164Z" fill="#28C79E" stroke="#2E353A" stroke-width="0.633159" stroke-linecap="round" stroke-linejoin="round"/>
<path d="M165.946 172.447C165.947 171.892 165.784 171.348 165.476 170.885C165.168 170.423 164.729 170.062 164.216 169.848C163.703 169.635 163.138 169.578 162.593 169.686C162.047 169.794 161.546 170.061 161.153 170.453C160.759 170.846 160.491 171.346 160.383 171.891C160.274 172.437 160.329 173.002 160.541 173.515C160.754 174.029 161.114 174.468 161.576 174.777C162.038 175.086 162.581 175.251 163.137 175.251C163.506 175.251 163.871 175.18 164.212 175.039C164.553 174.898 164.862 174.692 165.123 174.432C165.384 174.171 165.591 173.862 165.732 173.522C165.874 173.181 165.946 172.816 165.946 172.447Z" fill="#2E353A" stroke="#2E353A" stroke-width="0.633159" stroke-linecap="round" stroke-linejoin="round"/>
<path d="M187.777 203.787H138.508V206.081H187.777V203.787Z" fill="white" stroke="#2E353A" stroke-width="0.633159" stroke-linecap="round" stroke-linejoin="round"/>
<path d="M207.716 94.4349C209.303 92.8453 210.475 90.8902 211.129 88.7414C211.783 86.5927 211.899 84.3161 211.468 82.112L202.873 90.7068C202.384 91.1925 201.723 91.4651 201.035 91.4651C200.346 91.4651 199.685 91.1925 199.197 90.7068L192.052 83.5627C191.81 83.3212 191.618 83.0342 191.487 82.7183C191.356 82.4024 191.289 82.0638 191.289 81.7218C191.289 81.3798 191.356 81.0412 191.487 80.7253C191.618 80.4094 191.81 80.1225 192.052 79.8809L200.642 71.2918C198.234 70.8217 195.745 71.0062 193.434 71.8261C191.122 72.6459 189.073 74.0711 187.5 75.9529C185.927 77.8346 184.888 80.1041 184.491 82.5243C184.094 84.9446 184.354 87.4271 185.244 89.7127L163.066 111.382L160.927 109.238L164.395 105.77C164.572 105.589 164.672 105.346 164.672 105.093C164.672 104.84 164.572 104.597 164.395 104.417L161.69 101.712C161.511 101.534 161.269 101.434 161.017 101.434C160.764 101.434 160.522 101.534 160.343 101.712L158.991 103.064L156.06 100.14L157.188 99.0127C157.426 98.7733 157.56 98.449 157.56 98.111C157.56 97.773 157.426 97.4488 157.188 97.2093L132.987 73.0085C132.41 72.431 131.725 71.973 130.972 71.6604C130.218 71.3479 129.41 71.187 128.594 71.187C127.778 71.187 126.97 71.3479 126.216 71.6604C125.462 71.973 124.778 72.431 124.201 73.0085L121.727 75.4823C121.15 76.0584 120.692 76.7426 120.38 77.4959C120.067 78.2492 119.906 79.0567 119.906 79.8722C119.906 80.6877 120.067 81.4952 120.38 82.2485C120.692 83.0018 121.15 83.6861 121.727 84.2621L145.928 108.469C146.168 108.707 146.492 108.841 146.83 108.841C147.168 108.841 147.492 108.707 147.731 108.469L148.859 107.342L151.783 110.272L150.436 111.619C150.347 111.708 150.277 111.813 150.228 111.929C150.18 112.045 150.155 112.169 150.155 112.295C150.155 112.421 150.18 112.545 150.228 112.661C150.277 112.777 150.347 112.883 150.436 112.971L153.136 115.676C153.316 115.854 153.559 115.953 153.812 115.953C154.065 115.953 154.308 115.854 154.488 115.676L157.956 112.208L160.06 114.312L141.668 132.23C139.382 131.341 136.9 131.082 134.48 131.479C132.059 131.876 129.79 132.915 127.908 134.488C126.026 136.06 124.6 138.109 123.779 140.42C122.959 142.732 122.773 145.221 123.242 147.628L131.836 139.039C132.078 138.797 132.365 138.605 132.681 138.474C132.997 138.343 133.335 138.276 133.677 138.276C134.019 138.276 134.358 138.343 134.674 138.474C134.99 138.605 135.277 138.797 135.518 139.039L142.686 146.137C142.928 146.379 143.12 146.666 143.251 146.981C143.382 147.297 143.449 147.636 143.449 147.978C143.449 148.32 143.382 148.659 143.251 148.974C143.12 149.29 142.928 149.577 142.686 149.819L134.096 158.408C136.504 158.877 138.993 158.692 141.304 157.872C143.615 157.052 145.665 155.628 147.238 153.746C148.811 151.865 149.851 149.596 150.249 147.176C150.647 144.756 150.388 142.273 149.5 139.987L167.892 122.069L192.972 147.12C192.611 148.048 192.529 149.062 192.734 150.037C192.939 151.012 193.423 151.906 194.128 152.611L200.179 158.662L207.439 151.397L201.387 145.351C200.683 144.647 199.788 144.162 198.813 143.957C197.839 143.752 196.825 143.835 195.896 144.195L170.857 119.156L193.058 97.5099C195.536 98.4741 198.242 98.6968 200.844 98.1508C203.447 97.6049 205.834 96.3138 207.716 94.4349Z" fill="#2E353A" stroke="#2E353A" stroke-width="0.633159" stroke-linecap="round" stroke-linejoin="round"/>
<path d="M147.974 136.906L191.515 94.4291C193.802 95.32 196.287 95.5803 198.709 95.1828C201.131 94.7852 203.402 93.7444 205.284 92.1692C207.167 90.5939 208.591 88.542 209.41 86.2278C210.228 83.9137 210.41 81.4222 209.936 79.0138L201.347 87.6029C201.105 87.845 200.818 88.037 200.502 88.168C200.186 88.299 199.848 88.3665 199.506 88.3665C199.164 88.3665 198.825 88.299 198.509 88.168C198.193 88.037 197.906 87.845 197.665 87.6029L190.521 80.4588C190.279 80.2177 190.087 79.9313 189.956 79.6159C189.825 79.3005 189.758 78.9623 189.758 78.6208C189.758 78.2793 189.825 77.9411 189.956 77.6257C190.087 77.3103 190.279 77.0238 190.521 76.7827L199.11 68.1879C196.702 67.7185 194.211 67.9044 191.899 68.726C189.587 69.5476 187.538 70.9749 185.966 72.8587C184.394 74.7426 183.357 77.014 182.962 79.4357C182.568 81.8574 182.831 84.3407 183.723 86.6261L140.183 129.103C137.897 128.214 135.415 127.954 132.994 128.351C130.574 128.748 128.305 129.787 126.423 131.36C124.541 132.933 123.116 134.982 122.296 137.293C121.476 139.605 121.292 142.094 121.762 144.501L130.351 135.912C130.593 135.67 130.88 135.478 131.195 135.347C131.511 135.216 131.85 135.149 132.192 135.149C132.534 135.149 132.873 135.216 133.188 135.347C133.504 135.478 133.791 135.67 134.033 135.912L141.177 143.056C141.419 143.297 141.611 143.584 141.742 143.899C141.873 144.215 141.94 144.553 141.94 144.894C141.94 145.236 141.873 145.574 141.742 145.889C141.611 146.205 141.419 146.491 141.177 146.732L132.571 155.31C134.978 155.779 137.467 155.594 139.778 154.774C142.089 153.954 144.139 152.529 145.712 150.648C147.285 148.767 148.325 146.498 148.723 144.078C149.121 141.658 148.862 139.175 147.974 136.889V136.906Z" fill="white" stroke="#2E353A" stroke-width="0.578" stroke-miterlimit="10"/>
<path d="M144.621 132.45C144.288 132.116 144.102 131.664 144.102 131.193C144.102 130.721 144.288 130.269 144.621 129.935L183.769 91.8511C184.104 91.5179 184.557 91.3308 185.029 91.3308C185.502 91.3308 185.955 91.5179 186.289 91.8511C186.623 92.1858 186.81 92.6388 186.81 93.1111C186.81 93.5834 186.623 94.0364 186.289 94.3711L147.141 132.45C146.807 132.783 146.354 132.97 145.881 132.97C145.409 132.97 144.956 132.783 144.621 132.45Z" fill="white" stroke="#2E353A" stroke-width="0.578" stroke-miterlimit="10"/>
<path d="M156.231 102.974L153.305 105.901L195.528 148.124L198.455 145.198L156.231 102.974Z" fill="white" stroke="#2E353A" stroke-width="0.578" stroke-miterlimit="10"/>
<path d="M205.906 148.316L198.646 155.576L192.594 149.53C191.631 148.566 191.09 147.259 191.09 145.897C191.09 144.534 191.631 143.228 192.594 142.264C193.071 141.787 193.637 141.409 194.26 141.151C194.882 140.893 195.55 140.76 196.224 140.76C196.898 140.76 197.566 140.893 198.189 141.151C198.811 141.409 199.377 141.787 199.854 142.264L205.906 148.316Z" fill="white" stroke="#2E353A" stroke-width="0.578" stroke-miterlimit="10"/>
<path d="M152.291 94.7575L145.086 101.963L150.939 107.816L158.144 100.61L152.291 94.7575Z" fill="white" stroke="#2E353A" stroke-width="0.578" stroke-miterlimit="10"/>
<path d="M120.208 72.3539L122.685 69.8772C123.261 69.3007 123.945 68.8435 124.699 68.5315C125.452 68.2195 126.259 68.059 127.074 68.059C127.889 68.059 128.697 68.2195 129.45 68.5315C130.203 68.8435 130.887 69.3007 131.464 69.8772L155.667 94.0808C155.906 94.3193 156.04 94.6428 156.04 94.98C156.04 95.3173 155.906 95.6407 155.667 95.8792L146.21 105.337C145.971 105.575 145.648 105.709 145.311 105.709C144.973 105.709 144.65 105.575 144.412 105.337L120.208 81.133C119.044 79.9688 118.39 78.3899 118.39 76.7435C118.39 75.0971 119.044 73.5181 120.208 72.3539Z" fill="white" stroke="#2E353A" stroke-width="0.578" stroke-miterlimit="10"/>
<path d="M158.818 98.5892L148.911 108.496C148.538 108.869 148.538 109.473 148.911 109.845L151.616 112.551C151.989 112.923 152.593 112.923 152.965 112.551L162.872 102.644C163.245 102.271 163.245 101.667 162.872 101.295L160.167 98.5892C159.794 98.2168 159.19 98.2168 158.818 98.5892Z" fill="white" stroke="#2E353A" stroke-width="0.578" stroke-miterlimit="10"/>
<path d="M147.563 101.741L145.575 103.735L121.807 79.9676C121.543 79.7031 121.395 79.3445 121.395 78.9706C121.395 78.5966 121.543 78.238 121.807 77.9735C121.938 77.8419 122.093 77.7375 122.264 77.6662C122.436 77.5949 122.619 77.5582 122.804 77.5582C122.99 77.5582 123.173 77.5949 123.344 77.6662C123.516 77.7375 123.671 77.8419 123.802 77.9735L147.563 101.741Z" fill="white" stroke="#2E353A" stroke-width="0.578" stroke-miterlimit="10"/>
<path d="M150.956 98.3479L148.956 100.342L125.188 76.5747C124.924 76.3102 124.775 75.9516 124.775 75.5776C124.775 75.2037 124.924 74.845 125.188 74.5806C125.319 74.449 125.474 74.3445 125.645 74.2733C125.816 74.202 126 74.1653 126.185 74.1653C126.371 74.1653 126.554 74.202 126.725 74.2733C126.896 74.3445 127.052 74.449 127.182 74.5806L150.956 98.3479Z" fill="white" stroke="#2E353A" stroke-width="0.578" stroke-miterlimit="10"/>
<path d="M154.35 94.955L152.35 96.9317L128.583 73.1817C128.318 72.9173 128.17 72.5586 128.17 72.1847C128.17 71.8107 128.318 71.4521 128.583 71.1876C128.713 71.056 128.869 70.9516 129.04 70.8803C129.211 70.809 129.394 70.7723 129.58 70.7723C129.765 70.7723 129.949 70.809 130.12 70.8803C130.291 70.9516 130.446 71.056 130.577 71.1876L154.35 94.955Z" fill="white" stroke="#2E353A" stroke-width="0.578" stroke-miterlimit="10"/>
<path d="M233.902 206.792H231.978L219.533 104.683H221.464L233.902 206.792Z" fill="white" stroke="#2E353A" stroke-width="0.578" stroke-miterlimit="10"/>
<path d="M248.934 206.792H247.009L234.564 104.683H236.495L248.934 206.792Z" fill="white" stroke="#2E353A" stroke-width="0.578" stroke-miterlimit="10"/>
<path d="M236.615 113.145H221.592L221.205 109.995H236.233L236.615 113.145Z" fill="white" stroke="#2E353A" stroke-width="0.578" stroke-miterlimit="10"/>
<path d="M238.031 124.774H223.008L222.627 121.624H237.649L238.031 124.774Z" fill="white" stroke="#2E353A" stroke-width="0.578" stroke-miterlimit="10"/>
<path d="M239.454 136.404H224.426L224.045 133.253H239.067L239.454 136.404Z" fill="white" stroke="#2E353A" stroke-width="0.578" stroke-miterlimit="10"/>
<path d="M240.868 148.039H225.846L225.459 144.888H240.481L240.868 148.039Z" fill="white" stroke="#2E353A" stroke-width="0.578" stroke-miterlimit="10"/>
<path d="M242.284 159.668H227.262L226.875 156.518H241.897L242.284 159.668Z" fill="white" stroke="#2E353A" stroke-width="0.578" stroke-miterlimit="10"/>
<path d="M243.703 171.297H228.68L228.299 168.147H243.321L243.703 171.297Z" fill="white" stroke="#2E353A" stroke-width="0.578" stroke-miterlimit="10"/>
<path d="M245.119 182.933H230.096L229.715 179.782H244.737L245.119 182.933Z" fill="white" stroke="#2E353A" stroke-width="0.578" stroke-miterlimit="10"/>
<path d="M246.54 194.562H231.512L231.131 191.412H246.153L246.54 194.562Z" fill="white" stroke="#2E353A" stroke-width="0.578" stroke-miterlimit="10"/>
<path d="M221.363 111.232H223.328" stroke="#2E353A" stroke-width="0.289" stroke-miterlimit="10"/>
<path d="M221.822 112.156H225.637" stroke="#2E353A" stroke-width="0.289" stroke-miterlimit="10"/>
<path d="M236.382 112.156H233.607" stroke="#2E353A" stroke-width="0.289" stroke-miterlimit="10"/>
<path d="M237.77 123.364H235.227" stroke="#2E353A" stroke-width="0.289" stroke-miterlimit="10"/>
<path d="M223.211 123.942H229.107" stroke="#2E353A" stroke-width="0.289" stroke-miterlimit="10"/>
<path d="M224.252 134.802H229.338" stroke="#2E353A" stroke-width="0.289" stroke-miterlimit="10"/>
<path d="M224.482 135.727H227.257" stroke="#2E353A" stroke-width="0.289" stroke-miterlimit="10"/>
<path d="M240.77 146.241H237.654" stroke="#2E353A" stroke-width="0.289" stroke-miterlimit="10"/>
<path d="M240.546 147.166H235.344" stroke="#2E353A" stroke-width="0.289" stroke-miterlimit="10"/>
<path d="M245.071 181.748H240.303" stroke="#2E353A" stroke-width="0.289" stroke-miterlimit="10"/>
<path d="M229.898 180.881H232.788" stroke="#2E353A" stroke-width="0.289" stroke-miterlimit="10"/>
<path d="M239.581 181.748H235.824" stroke="#2E353A" stroke-width="0.289" stroke-miterlimit="10"/>
<path d="M231.346 192.874H235.392" stroke="#2E353A" stroke-width="0.289" stroke-miterlimit="10"/>
<path d="M232.211 193.886H236.835" stroke="#2E353A" stroke-width="0.289" stroke-miterlimit="10"/>
<path d="M227.586 158.628H228.886" stroke="#2E353A" stroke-width="0.289" stroke-miterlimit="10"/>
<path d="M241.747 158.339H236.979" stroke="#2E353A" stroke-width="0.289" stroke-miterlimit="10"/>
<path d="M121.283 145.738L118.994 148.721L69.2051 109.85L71.4997 106.868L121.283 145.738Z" fill="#2E353A" stroke="#2E353A" stroke-width="0.633159" stroke-linecap="round" stroke-linejoin="round"/>
<path d="M69.2051 145.738L71.4997 148.721L121.283 109.85L118.994 106.868L69.2051 145.738Z" fill="#2E353A" stroke="#2E353A" stroke-width="0.633159" stroke-linecap="round" stroke-linejoin="round"/>
<path d="M121.283 189.4L119.867 193.244L69.2051 153.512L70.6559 149.634L121.283 189.4Z" fill="#2E353A" stroke="#2E353A" stroke-width="0.633159" stroke-linecap="round" stroke-linejoin="round"/>
<path d="M69.2051 189.4L69.5519 193.909L121.283 153.512L118.994 150.536L69.2051 189.4Z" fill="#2E353A" stroke="#2E353A" stroke-width="0.633159" stroke-linecap="round" stroke-linejoin="round"/>
<path d="M70.3765 106.457H68.3535V206.798H70.3765V106.457Z" fill="#2E353A" stroke="#2E353A" stroke-width="0.633159" stroke-linecap="round" stroke-linejoin="round"/>
<path d="M121.558 106.457H119.535V206.798H121.558V106.457Z" fill="#2E353A" stroke="#2E353A" stroke-width="0.633159" stroke-linecap="round" stroke-linejoin="round"/>
<path d="M111.543 145.738L109.248 148.721L59.4648 109.85L61.7537 106.868L111.543 145.738Z" fill="white" stroke="#2E353A" stroke-width="0.633159" stroke-linecap="round" stroke-linejoin="round"/>
<path d="M59.4648 145.738L61.7537 148.721L111.543 109.85L109.248 106.868L59.4648 145.738Z" fill="white" stroke="#2E353A" stroke-width="0.633159" stroke-linecap="round" stroke-linejoin="round"/>
<path d="M111.543 189.4L110.121 193.244L59.4648 153.512L60.1931 149.634L111.543 189.4Z" fill="white" stroke="#2E353A" stroke-width="0.633159" stroke-linecap="round" stroke-linejoin="round"/>
<path d="M59.4648 189.4L59.8116 193.909L111.543 153.512L109.248 150.536L59.4648 189.4Z" fill="white" stroke="#2E353A" stroke-width="0.633159" stroke-linecap="round" stroke-linejoin="round"/>
<path d="M60.6343 106.457H58.6113V206.798H60.6343V106.457Z" fill="white" stroke="#2E353A" stroke-width="0.633159" stroke-linecap="round" stroke-linejoin="round"/>
<path d="M111.814 106.457H109.791V206.798H111.814V106.457Z" fill="white" stroke="#2E353A" stroke-width="0.633159" stroke-linecap="round" stroke-linejoin="round"/>
<path d="M114.42 105.527H56.0078V108.706H114.42V105.527Z" fill="white" stroke="#2E353A" stroke-width="0.633159" stroke-linecap="round" stroke-linejoin="round"/>
<path d="M123.42 105.527H107.207V108.706H123.42V105.527Z" fill="#2E353A" stroke="#2E353A" stroke-width="0.633159" stroke-linecap="round" stroke-linejoin="round"/>
<path d="M114.42 147.166H56.0078V150.345H114.42V147.166Z" fill="white" stroke="#2E353A" stroke-width="0.633159" stroke-linecap="round" stroke-linejoin="round"/>
<path d="M123.42 147.166H107.207V150.345H123.42V147.166Z" fill="#2E353A" stroke="#2E353A" stroke-width="0.633159" stroke-linecap="round" stroke-linejoin="round"/>
<path d="M187.207 206.792H182.635L188.733 171.066H193.31L187.207 206.792Z" fill="#2E353A" stroke="#2E353A" stroke-width="0.562239" stroke-miterlimit="10"/>
<path d="M196.356 206.792H200.933L194.83 171.066H190.258L196.356 206.792Z" fill="white" stroke="#2E353A" stroke-width="0.562239" stroke-miterlimit="10"/>
<path d="M252.129 206.792H247.557L253.655 171.066H258.227L252.129 206.792Z" fill="#2E353A" stroke="#2E353A" stroke-width="0.562239" stroke-miterlimit="10"/>
<path d="M261.28 206.792H265.857L259.754 171.066H255.182L261.28 206.792Z" fill="white" stroke="#2E353A" stroke-width="0.562239" stroke-miterlimit="10"/>
<path d="M264.481 160.737H177.221V172.858H264.481V160.737Z" fill="#28C79E" stroke="#2E353A" stroke-width="0.562239" stroke-miterlimit="10"/>
<path d="M266.606 160.737H179.346V172.858H266.606V160.737Z" fill="#28C79E" stroke="#2E353A" stroke-width="0.562239" stroke-miterlimit="10"/>
<path d="M180.773 172.858H188.178L192.004 160.737H184.6L180.773 172.858Z" fill="#2E353A"/>
<path d="M210.09 160.737H202.68L198.854 172.858H206.263L210.09 160.737Z" fill="#2E353A"/>
<path d="M264.336 160.737H256.926L253.1 172.858H260.51L264.336 160.737Z" fill="#2E353A"/>
<path d="M246.25 160.737H238.846L235.02 172.858H242.424L246.25 160.737Z" fill="#2E353A"/>
<path d="M228.172 160.737H220.762L216.936 172.858H224.346L228.172 160.737Z" fill="#2E353A"/>
<path d="M266.128 166.119H251.689" stroke="#2E353A" stroke-width="0.578" stroke-miterlimit="10"/>
<path d="M265.873 168.141H263.596" stroke="#2E353A" stroke-width="0.578" stroke-miterlimit="10"/>
<path d="M178.977 167.639H193.415" stroke="#2E353A" stroke-width="0.578" stroke-miterlimit="10"/>
<path d="M179.227 165.356H197.468" stroke="#2E353A" stroke-width="0.578" stroke-miterlimit="10"/>
</svg>
